<?xml version="1.0" encoding="utf-8" standalone="no"?>
<!DOCTYPE svg PUBLIC "-//W3C//DTD SVG 1.1//EN"
  "http://www.w3.org/Graphics/SVG/1.1/DTD/svg11.dtd">
<!-- Created with matplotlib (https://matplotlib.org/) -->
<svg height="345.6pt" version="1.1" viewBox="0 0 460.8 345.6" width="460.8pt" xmlns="http://www.w3.org/2000/svg" xmlns:xlink="http://www.w3.org/1999/xlink">
 <defs>
  <style type="text/css">
*{stroke-linecap:butt;stroke-linejoin:round;}
  </style>
 </defs>
 <g id="figure_1">
  <g id="patch_1">
   <path d="M 0 345.6 
L 460.8 345.6 
L 460.8 0 
L 0 0 
z
" style="fill:#ffffff;"/>
  </g>
  <g id="axes_1">
   <g id="patch_2">
    <path d="M 139.038593 162.432 
L 333.281407 162.432 
L 333.281407 41.472 
L 139.038593 41.472 
z
" style="fill:#ffffff;"/>
   </g>
   <g id="matplotlib.axis_1">
    <g id="xtick_1">
     <g id="line2d_1">
      <defs>
       <path d="M 0 0 
L 0 3.5 
" id="m73ed720844" style="stroke:#000000;stroke-width:0.8;"/>
      </defs>
      <g>
       <use style="stroke:#000000;stroke-width:0.8;" x="179.063888" xlink:href="#m73ed720844" y="162.432"/>
      </g>
     </g>
     <g id="text_1">
      <!-- −3 -->
      <defs>
       <path d="M 10.59375 35.5 
L 73.1875 35.5 
L 73.1875 27.203125 
L 10.59375 27.203125 
z
" id="DejaVuSans-8722"/>
       <path d="M 40.578125 39.3125 
Q 47.65625 37.796875 51.625 33 
Q 55.609375 28.21875 55.609375 21.1875 
Q 55.609375 10.40625 48.1875 4.484375 
Q 40.765625 -1.421875 27.09375 -1.421875 
Q 22.515625 -1.421875 17.65625 -0.515625 
Q 12.796875 0.390625 7.625 2.203125 
L 7.625 11.71875 
Q 11.71875 9.328125 16.59375 8.109375 
Q 21.484375 6.890625 26.8125 6.890625 
Q 36.078125 6.890625 40.9375 10.546875 
Q 45.796875 14.203125 45.796875 21.1875 
Q 45.796875 27.640625 41.28125 31.265625 
Q 36.765625 34.90625 28.71875 34.90625 
L 20.21875 34.90625 
L 20.21875 43.015625 
L 29.109375 43.015625 
Q 36.375 43.015625 40.234375 45.921875 
Q 44.09375 48.828125 44.09375 54.296875 
Q 44.09375 59.90625 40.109375 62.90625 
Q 36.140625 65.921875 28.71875 65.921875 
Q 24.65625 65.921875 20.015625 65.03125 
Q 15.375 64.15625 9.8125 62.3125 
L 9.8125 71.09375 
Q 15.4375 72.65625 20.34375 73.4375 
Q 25.25 74.21875 29.59375 74.21875 
Q 40.828125 74.21875 47.359375 69.109375 
Q 53.90625 64.015625 53.90625 55.328125 
Q 53.90625 49.265625 50.4375 45.09375 
Q 46.96875 40.921875 40.578125 39.3125 
z
" id="DejaVuSans-51"/>
      </defs>
      <g transform="translate(171.692794 177.030437)scale(0.1 -0.1)">
       <use xlink:href="#DejaVuSans-8722"/>
       <use x="83.789062" xlink:href="#DejaVuSans-51"/>
      </g>
     </g>
    </g>
    <g id="xtick_2">
     <g id="line2d_2">
      <g>
       <use style="stroke:#000000;stroke-width:0.8;" x="222.224603" xlink:href="#m73ed720844" y="162.432"/>
      </g>
     </g>
     <g id="text_2">
      <!-- −2 -->
      <defs>
       <path d="M 19.1875 8.296875 
L 53.609375 8.296875 
L 53.609375 0 
L 7.328125 0 
L 7.328125 8.296875 
Q 12.9375 14.109375 22.625 23.890625 
Q 32.328125 33.6875 34.8125 36.53125 
Q 39.546875 41.84375 41.421875 45.53125 
Q 43.3125 49.21875 43.3125 52.78125 
Q 43.3125 58.59375 39.234375 62.25 
Q 35.15625 65.921875 28.609375 65.921875 
Q 23.96875 65.921875 18.8125 64.3125 
Q 13.671875 62.703125 7.8125 59.421875 
L 7.8125 69.390625 
Q 13.765625 71.78125 18.9375 73 
Q 24.125 74.21875 28.421875 74.21875 
Q 39.75 74.21875 46.484375 68.546875 
Q 53.21875 62.890625 53.21875 53.421875 
Q 53.21875 48.921875 51.53125 44.890625 
Q 49.859375 40.875 45.40625 35.40625 
Q 44.1875 33.984375 37.640625 27.21875 
Q 31.109375 20.453125 19.1875 8.296875 
z
" id="DejaVuSans-50"/>
      </defs>
      <g transform="translate(214.853509 177.030437)scale(0.1 -0.1)">
       <use xlink:href="#DejaVuSans-8722"/>
       <use x="83.789062" xlink:href="#DejaVuSans-50"/>
      </g>
     </g>
    </g>
    <g id="xtick_3">
     <g id="line2d_3">
      <g>
       <use style="stroke:#000000;stroke-width:0.8;" x="265.385319" xlink:href="#m73ed720844" y="162.432"/>
      </g>
     </g>
     <g id="text_3">
      <!-- −1 -->
      <defs>
       <path d="M 12.40625 8.296875 
L 28.515625 8.296875 
L 28.515625 63.921875 
L 10.984375 60.40625 
L 10.984375 69.390625 
L 28.421875 72.90625 
L 38.28125 72.90625 
L 38.28125 8.296875 
L 54.390625 8.296875 
L 54.390625 0 
L 12.40625 0 
z
" id="DejaVuSans-49"/>
      </defs>
      <g transform="translate(258.014225 177.030437)scale(0.1 -0.1)">
       <use xlink:href="#DejaVuSans-8722"/>
       <use x="83.789062" xlink:href="#DejaVuSans-49"/>
      </g>
     </g>
    </g>
    <g id="xtick_4">
     <g id="line2d_4">
      <g>
       <use style="stroke:#000000;stroke-width:0.8;" x="308.546034" xlink:href="#m73ed720844" y="162.432"/>
      </g>
     </g>
     <g id="text_4">
      <!-- 0 -->
      <defs>
       <path d="M 31.78125 66.40625 
Q 24.171875 66.40625 20.328125 58.90625 
Q 16.5 51.421875 16.5 36.375 
Q 16.5 21.390625 20.328125 13.890625 
Q 24.171875 6.390625 31.78125 6.390625 
Q 39.453125 6.390625 43.28125 13.890625 
Q 47.125 21.390625 47.125 36.375 
Q 47.125 51.421875 43.28125 58.90625 
Q 39.453125 66.40625 31.78125 66.40625 
z
M 31.78125 74.21875 
Q 44.046875 74.21875 50.515625 64.515625 
Q 56.984375 54.828125 56.984375 36.375 
Q 56.984375 17.96875 50.515625 8.265625 
Q 44.046875 -1.421875 31.78125 -1.421875 
Q 19.53125 -1.421875 13.0625 8.265625 
Q 6.59375 17.96875 6.59375 36.375 
Q 6.59375 54.828125 13.0625 64.515625 
Q 19.53125 74.21875 31.78125 74.21875 
z
" id="DejaVuSans-48"/>
      </defs>
      <g transform="translate(305.364784 177.030437)scale(0.1 -0.1)">
       <use xlink:href="#DejaVuSans-48"/>
      </g>
     </g>
    </g>
    <g id="text_5">
     <!-- X-axis -->
     <defs>
      <path d="M 6.296875 72.90625 
L 16.890625 72.90625 
L 35.015625 45.796875 
L 53.21875 72.90625 
L 63.8125 72.90625 
L 40.375 37.890625 
L 65.375 0 
L 54.78125 0 
L 34.28125 31 
L 13.625 0 
L 2.984375 0 
L 29 38.921875 
z
" id="DejaVuSans-88"/>
      <path d="M 4.890625 31.390625 
L 31.203125 31.390625 
L 31.203125 23.390625 
L 4.890625 23.390625 
z
" id="DejaVuSans-45"/>
      <path d="M 34.28125 27.484375 
Q 23.390625 27.484375 19.1875 25 
Q 14.984375 22.515625 14.984375 16.5 
Q 14.984375 11.71875 18.140625 8.90625 
Q 21.296875 6.109375 26.703125 6.109375 
Q 34.1875 6.109375 38.703125 11.40625 
Q 43.21875 16.703125 43.21875 25.484375 
L 43.21875 27.484375 
z
M 52.203125 31.203125 
L 52.203125 0 
L 43.21875 0 
L 43.21875 8.296875 
Q 40.140625 3.328125 35.546875 0.953125 
Q 30.953125 -1.421875 24.3125 -1.421875 
Q 15.921875 -1.421875 10.953125 3.296875 
Q 6 8.015625 6 15.921875 
Q 6 25.140625 12.171875 29.828125 
Q 18.359375 34.515625 30.609375 34.515625 
L 43.21875 34.515625 
L 43.21875 35.40625 
Q 43.21875 41.609375 39.140625 45 
Q 35.0625 48.390625 27.6875 48.390625 
Q 23 48.390625 18.546875 47.265625 
Q 14.109375 46.140625 10.015625 43.890625 
L 10.015625 52.203125 
Q 14.9375 54.109375 19.578125 55.046875 
Q 24.21875 56 28.609375 56 
Q 40.484375 56 46.34375 49.84375 
Q 52.203125 43.703125 52.203125 31.203125 
z
" id="DejaVuSans-97"/>
      <path d="M 54.890625 54.6875 
L 35.109375 28.078125 
L 55.90625 0 
L 45.3125 0 
L 29.390625 21.484375 
L 13.484375 0 
L 2.875 0 
L 24.125 28.609375 
L 4.6875 54.6875 
L 15.28125 54.6875 
L 29.78125 35.203125 
L 44.28125 54.6875 
z
" id="DejaVuSans-120"/>
      <path d="M 9.421875 54.6875 
L 18.40625 54.6875 
L 18.40625 0 
L 9.421875 0 
z
M 9.421875 75.984375 
L 18.40625 75.984375 
L 18.40625 64.59375 
L 9.421875 64.59375 
z
" id="DejaVuSans-105"/>
      <path d="M 44.28125 53.078125 
L 44.28125 44.578125 
Q 40.484375 46.53125 36.375 47.5 
Q 32.28125 48.484375 27.875 48.484375 
Q 21.1875 48.484375 17.84375 46.4375 
Q 14.5 44.390625 14.5 40.28125 
Q 14.5 37.15625 16.890625 35.375 
Q 19.28125 33.59375 26.515625 31.984375 
L 29.59375 31.296875 
Q 39.15625 29.25 43.1875 25.515625 
Q 47.21875 21.78125 47.21875 15.09375 
Q 47.21875 7.46875 41.1875 3.015625 
Q 35.15625 -1.421875 24.609375 -1.421875 
Q 20.21875 -1.421875 15.453125 -0.5625 
Q 10.6875 0.296875 5.421875 2 
L 5.421875 11.28125 
Q 10.40625 8.6875 15.234375 7.390625 
Q 20.0625 6.109375 24.8125 6.109375 
Q 31.15625 6.109375 34.5625 8.28125 
Q 37.984375 10.453125 37.984375 14.40625 
Q 37.984375 18.0625 35.515625 20.015625 
Q 33.0625 21.96875 24.703125 23.78125 
L 21.578125 24.515625 
Q 13.234375 26.265625 9.515625 29.90625 
Q 5.8125 33.546875 5.8125 39.890625 
Q 5.8125 47.609375 11.28125 51.796875 
Q 16.75 56 26.8125 56 
Q 31.78125 56 36.171875 55.265625 
Q 40.578125 54.546875 44.28125 53.078125 
z
" id="DejaVuSans-115"/>
     </defs>
     <g transform="translate(221.163906 190.708562)scale(0.1 -0.1)">
      <use xlink:href="#DejaVuSans-88"/>
      <use x="63.505859" xlink:href="#DejaVuSans-45"/>
      <use x="99.589844" xlink:href="#DejaVuSans-97"/>
      <use x="160.869141" xlink:href="#DejaVuSans-120"/>
      <use x="220.048828" xlink:href="#DejaVuSans-105"/>
      <use x="247.832031" xlink:href="#DejaVuSans-115"/>
     </g>
    </g>
   </g>
   <g id="matplotlib.axis_2">
    <g id="ytick_1">
     <g id="line2d_5">
      <defs>
       <path d="M 0 0 
L -3.5 0 
" id="mb6ceeed4e0" style="stroke:#000000;stroke-width:0.8;"/>
      </defs>
      <g>
       <use style="stroke:#000000;stroke-width:0.8;" x="139.038593" xlink:href="#mb6ceeed4e0" y="154.86118"/>
      </g>
     </g>
     <g id="text_6">
      <!-- 3.5 -->
      <defs>
       <path d="M 10.6875 12.40625 
L 21 12.40625 
L 21 0 
L 10.6875 0 
z
" id="DejaVuSans-46"/>
       <path d="M 10.796875 72.90625 
L 49.515625 72.90625 
L 49.515625 64.59375 
L 19.828125 64.59375 
L 19.828125 46.734375 
Q 21.96875 47.46875 24.109375 47.828125 
Q 26.265625 48.1875 28.421875 48.1875 
Q 40.625 48.1875 47.75 41.5 
Q 54.890625 34.8125 54.890625 23.390625 
Q 54.890625 11.625 47.5625 5.09375 
Q 40.234375 -1.421875 26.90625 -1.421875 
Q 22.3125 -1.421875 17.546875 -0.640625 
Q 12.796875 0.140625 7.71875 1.703125 
L 7.71875 11.625 
Q 12.109375 9.234375 16.796875 8.0625 
Q 21.484375 6.890625 26.703125 6.890625 
Q 35.15625 6.890625 40.078125 11.328125 
Q 45.015625 15.765625 45.015625 23.390625 
Q 45.015625 31 40.078125 35.4375 
Q 35.15625 39.890625 26.703125 39.890625 
Q 22.75 39.890625 18.8125 39.015625 
Q 14.890625 38.140625 10.796875 36.28125 
z
" id="DejaVuSans-53"/>
      </defs>
      <g transform="translate(116.135468 158.660399)scale(0.1 -0.1)">
       <use xlink:href="#DejaVuSans-51"/>
       <use x="63.623047" xlink:href="#DejaVuSans-46"/>
       <use x="95.410156" xlink:href="#DejaVuSans-53"/>
      </g>
     </g>
    </g>
    <g id="ytick_2">
     <g id="line2d_6">
      <g>
       <use style="stroke:#000000;stroke-width:0.8;" x="139.038593" xlink:href="#mb6ceeed4e0" y="133.280823"/>
      </g>
     </g>
     <g id="text_7">
      <!-- 4.0 -->
      <defs>
       <path d="M 37.796875 64.3125 
L 12.890625 25.390625 
L 37.796875 25.390625 
z
M 35.203125 72.90625 
L 47.609375 72.90625 
L 47.609375 25.390625 
L 58.015625 25.390625 
L 58.015625 17.1875 
L 47.609375 17.1875 
L 47.609375 0 
L 37.796875 0 
L 37.796875 17.1875 
L 4.890625 17.1875 
L 4.890625 26.703125 
z
" id="DejaVuSans-52"/>
      </defs>
      <g transform="translate(116.135468 137.080041)scale(0.1 -0.1)">
       <use xlink:href="#DejaVuSans-52"/>
       <use x="63.623047" xlink:href="#DejaVuSans-46"/>
       <use x="95.410156" xlink:href="#DejaVuSans-48"/>
      </g>
     </g>
    </g>
    <g id="ytick_3">
     <g id="line2d_7">
      <g>
       <use style="stroke:#000000;stroke-width:0.8;" x="139.038593" xlink:href="#mb6ceeed4e0" y="111.700465"/>
      </g>
     </g>
     <g id="text_8">
      <!-- 4.5 -->
      <g transform="translate(116.135468 115.499684)scale(0.1 -0.1)">
       <use xlink:href="#DejaVuSans-52"/>
       <use x="63.623047" xlink:href="#DejaVuSans-46"/>
       <use x="95.410156" xlink:href="#DejaVuSans-53"/>
      </g>
     </g>
    </g>
    <g id="ytick_4">
     <g id="line2d_8">
      <g>
       <use style="stroke:#000000;stroke-width:0.8;" x="139.038593" xlink:href="#mb6ceeed4e0" y="90.120107"/>
      </g>
     </g>
     <g id="text_9">
      <!-- 5.0 -->
      <g transform="translate(116.135468 93.919326)scale(0.1 -0.1)">
       <use xlink:href="#DejaVuSans-53"/>
       <use x="63.623047" xlink:href="#DejaVuSans-46"/>
       <use x="95.410156" xlink:href="#DejaVuSans-48"/>
      </g>
     </g>
    </g>
    <g id="ytick_5">
     <g id="line2d_9">
      <g>
       <use style="stroke:#000000;stroke-width:0.8;" x="139.038593" xlink:href="#mb6ceeed4e0" y="68.539749"/>
      </g>
     </g>
     <g id="text_10">
      <!-- 5.5 -->
      <g transform="translate(116.135468 72.338968)scale(0.1 -0.1)">
       <use xlink:href="#DejaVuSans-53"/>
       <use x="63.623047" xlink:href="#DejaVuSans-46"/>
       <use x="95.410156" xlink:href="#DejaVuSans-53"/>
      </g>
     </g>
    </g>
    <g id="ytick_6">
     <g id="line2d_10">
      <g>
       <use style="stroke:#000000;stroke-width:0.8;" x="139.038593" xlink:href="#mb6ceeed4e0" y="46.959392"/>
      </g>
     </g>
     <g id="text_11">
      <!-- 6.0 -->
      <defs>
       <path d="M 33.015625 40.375 
Q 26.375 40.375 22.484375 35.828125 
Q 18.609375 31.296875 18.609375 23.390625 
Q 18.609375 15.53125 22.484375 10.953125 
Q 26.375 6.390625 33.015625 6.390625 
Q 39.65625 6.390625 43.53125 10.953125 
Q 47.40625 15.53125 47.40625 23.390625 
Q 47.40625 31.296875 43.53125 35.828125 
Q 39.65625 40.375 33.015625 40.375 
z
M 52.59375 71.296875 
L 52.59375 62.3125 
Q 48.875 64.0625 45.09375 64.984375 
Q 41.3125 65.921875 37.59375 65.921875 
Q 27.828125 65.921875 22.671875 59.328125 
Q 17.53125 52.734375 16.796875 39.40625 
Q 19.671875 43.65625 24.015625 45.921875 
Q 28.375 48.1875 33.59375 48.1875 
Q 44.578125 48.1875 50.953125 41.515625 
Q 57.328125 34.859375 57.328125 23.390625 
Q 57.328125 12.15625 50.6875 5.359375 
Q 44.046875 -1.421875 33.015625 -1.421875 
Q 20.359375 -1.421875 13.671875 8.265625 
Q 6.984375 17.96875 6.984375 36.375 
Q 6.984375 53.65625 15.1875 63.9375 
Q 23.390625 74.21875 37.203125 74.21875 
Q 40.921875 74.21875 44.703125 73.484375 
Q 48.484375 72.75 52.59375 71.296875 
z
" id="DejaVuSans-54"/>
      </defs>
      <g transform="translate(116.135468 50.75861)scale(0.1 -0.1)">
       <use xlink:href="#DejaVuSans-54"/>
       <use x="63.623047" xlink:href="#DejaVuSans-46"/>
       <use x="95.410156" xlink:href="#DejaVuSans-48"/>
      </g>
     </g>
    </g>
    <g id="text_12">
     <!-- Y-axis -->
     <defs>
      <path d="M -0.203125 72.90625 
L 10.40625 72.90625 
L 30.609375 42.921875 
L 50.6875 72.90625 
L 61.28125 72.90625 
L 35.5 34.71875 
L 35.5 0 
L 25.59375 0 
L 25.59375 34.71875 
z
" id="DejaVuSans-89"/>
     </defs>
     <g transform="translate(110.055781 116.23325)rotate(-90)scale(0.1 -0.1)">
      <use xlink:href="#DejaVuSans-89"/>
      <use x="49.208984" xlink:href="#DejaVuSans-45"/>
      <use x="85.292969" xlink:href="#DejaVuSans-97"/>
      <use x="146.572266" xlink:href="#DejaVuSans-120"/>
      <use x="205.751953" xlink:href="#DejaVuSans-105"/>
      <use x="233.535156" xlink:href="#DejaVuSans-115"/>
     </g>
    </g>
   </g>
   <g id="line2d_11">
    <path clip-path="url(#p6e5879ef10)" d="M 306.388034 46.970182 
L 306.499141 46.983614 
L 307.692556 47.231174 
L 308.986717 47.729928 
L 310.332897 48.49058 
L 311.714108 49.530733 
L 313.118986 50.872042 
L 314.534744 52.536752 
L 315.945016 54.544278 
L 317.330025 56.909126 
L 318.665982 59.63695 
L 319.926217 62.722478 
L 321.082596 66.148459 
L 322.106536 69.883592 
L 322.971296 73.884812 
L 323.653026 78.096262 
L 324.133018 82.455744 
L 324.398216 86.895937 
L 324.441869 91.349397 
L 324.263555 95.748658 
L 323.868546 100.03616 
L 323.267178 104.158314 
L 322.473313 108.072969 
L 321.504773 111.741766 
L 320.380578 115.139255 
L 319.121204 118.24649 
L 317.746973 121.052917 
L 316.279238 123.551781 
L 314.736377 125.745636 
L 313.137903 127.637759 
L 311.498668 129.238765 
L 309.830682 130.561302 
L 308.144792 131.617713 
L 306.44915 132.420722 
L 304.747269 132.982822 
L 303.042196 133.313401 
L 301.33316 133.419161 
L 299.618278 133.302503 
L 297.897527 132.961853 
L 296.171448 132.392334 
L 294.439904 131.585185 
L 292.706702 130.529847 
L 290.976193 129.213166 
L 289.257242 127.622786 
L 287.559769 125.745681 
L 285.897931 123.572389 
L 284.287978 121.096773 
L 282.745696 118.312742 
L 281.291047 115.223096 
L 279.943851 111.834488 
L 278.725188 108.162327 
L 277.654531 104.225 
L 276.751942 100.053081 
L 276.035537 95.685367 
L 275.520938 91.170982 
L 275.219842 86.565264 
L 275.139613 81.935101 
L 275.281729 77.352382 
L 275.640917 72.894823 
L 276.204991 68.636537 
L 276.955093 64.64668 
L 277.866512 60.984498 
L 278.910804 57.693199 
L 280.058961 54.795589 
L 281.288477 52.284762 
L 282.62754 50.054139 
L 283.56035 48.429188 
L 283.43872 48.26933 
L 283.053416 48.224639 
L 282.025219 48.366642 
L 280.535818 48.785271 
L 279.474024 49.298719 
L 278.769341 49.877919 
L 278.286845 50.561178 
L 277.959146 51.421433 
L 277.766959 52.584314 
L 277.728402 54.286967 
L 277.912762 57.121936 
L 279.410184 74.988847 
L 279.56604 81.107913 
L 279.495075 86.995244 
L 279.206417 92.644761 
L 278.710781 98.027979 
L 278.021406 103.115364 
L 277.152839 107.887206 
L 276.121123 112.327985 
L 274.942465 116.430805 
L 273.632207 120.196548 
L 272.205083 123.629882 
L 270.676197 126.736285 
L 269.057072 129.529057 
L 267.358897 132.020549 
L 265.58877 134.227212 
L 263.754508 136.161939 
L 261.862403 137.837684 
L 259.91096 139.271173 
L 257.903306 140.47183 
L 255.835234 141.450759 
L 253.701907 142.2151 
L 251.498886 142.768349 
L 249.217723 143.111654 
L 246.849073 143.242365 
L 244.386251 143.154407 
L 241.817861 142.838588 
L 239.133975 142.2824 
L 236.326911 141.471142 
L 233.389231 140.388205 
L 230.30949 139.013263 
L 227.076284 137.323238 
L 223.679669 135.293554 
L 220.105978 132.89549 
L 216.334736 130.093173 
L 212.338136 126.841979 
L 208.07076 123.078851 
L 203.448885 118.700592 
L 198.281326 113.490366 
L 191.911113 106.732752 
L 180.25944 94.311882 
L 177.209143 91.428792 
L 175.025858 89.653776 
L 173.355925 88.567672 
L 172.021922 87.95281 
L 170.911227 87.676296 
L 169.943135 87.658794 
L 169.053319 87.863951 
L 168.188609 88.294935 
L 167.303339 88.992211 
L 166.3551 90.033812 
L 165.302308 91.536184 
L 164.102525 93.654853 
L 162.720303 96.567882 
L 161.145018 100.426922 
L 159.40819 105.287826 
L 157.572228 111.101847 
L 155.700189 117.781547 
L 153.839033 125.25872 
L 152.021488 133.493395 
L 150.271478 142.466089 
L 148.609249 152.16293 
L 148.547497 152.549069 
L 148.547497 152.549069 
" style="fill:none;stroke:#0000ff;stroke-linecap:square;stroke-width:1.5;"/>
   </g>
   <g id="line2d_12">
    <path clip-path="url(#p6e5879ef10)" d="M 306.388034 46.970182 
L 306.498872 46.983584 
L 307.690921 47.230691 
L 308.980816 47.727135 
L 310.328324 48.487579 
L 311.708836 49.526249 
L 313.117506 50.870472 
L 314.531757 52.532886 
L 315.948596 54.549859 
L 317.341222 56.930033 
L 318.676541 59.660542 
L 319.929909 62.7324 
L 321.082596 66.148459 
L 322.101784 69.864184 
L 322.973743 73.897783 
L 323.657745 78.131059 
L 324.13664 82.498565 
L 324.399483 86.932583 
L 324.44163 91.3649 
L 324.264894 95.728387 
L 323.865301 100.063447 
L 323.258181 104.209922 
L 322.464674 108.110017 
L 321.480725 111.822584 
L 320.359883 115.195511 
L 319.096606 118.301509 
L 317.716237 121.110052 
L 316.249296 123.598264 
L 314.730808 125.752859 
L 313.122594 127.65422 
L 311.445546 129.285448 
L 309.812952 130.573828 
L 308.172839 131.6023 
L 306.45305 132.419159 
L 304.769367 132.977032 
L 303.044243 133.31314 
L 301.296032 133.41899 
L 299.544274 133.292469 
L 297.808351 132.938059 
L 296.106192 132.366253 
L 294.35786 131.540915 
L 292.588394 130.448415 
L 290.823432 129.083617 
L 289.087646 127.44953 
L 287.403516 125.556222 
L 285.723826 123.323373 
L 284.144994 120.85695 
L 282.62686 118.078783 
L 281.19899 115.009469 
L 279.847859 111.569024 
L 278.646477 107.899391 
L 277.584538 103.935536 
L 276.690985 99.728759 
L 275.987974 95.337909 
L 275.490796 90.827581 
L 275.20454 86.176177 
L 275.142911 81.55762 
L 275.303856 76.96903 
L 275.683127 72.505949 
L 276.26558 68.263257 
L 277.036455 64.278125 
L 277.960328 60.65585 
L 279.011427 57.41303 
L 280.167902 54.551096 
L 281.401987 52.07785 
L 282.768682 49.840142 
L 283.56085 48.445091 
L 283.44906 48.273995 
L 283.083883 48.223916 
L 282.093418 48.352895 
L 280.599818 48.761784 
L 279.516674 49.271981 
L 278.797878 49.847569 
L 278.306577 50.524282 
L 277.972021 51.373629 
L 277.773518 52.512925 
L 277.725865 54.179182 
L 277.896697 56.941581 
L 279.439334 75.689302 
L 279.569165 81.764643 
L 279.473311 87.642587 
L 279.158708 93.291305 
L 278.64519 98.593949 
L 277.927658 103.696939 
L 277.049359 108.38117 
L 276.005344 112.769608 
L 274.827075 116.791639 
L 273.513514 120.505691 
L 272.096676 123.867759 
L 270.55666 126.958482 
L 268.917946 129.748772 
L 267.211952 132.217895 
L 265.476213 134.355648 
L 263.6578 136.255059 
L 261.778234 137.905401 
L 259.862606 139.303221 
L 257.821712 140.515217 
L 255.78876 141.469971 
L 253.666305 142.225884 
L 251.470066 142.774098 
L 249.217723 143.111654 
L 246.792156 143.242837 
L 244.345405 143.151127 
L 241.760847 142.829115 
L 239.058738 142.263642 
L 236.260887 141.44937 
L 233.260354 140.335471 
L 230.214474 138.967118 
L 227.023254 137.293507 
L 223.603499 135.245184 
L 220.002772 132.822421 
L 216.268317 130.041443 
L 212.250569 126.767685 
L 207.940647 122.959709 
L 203.273191 118.528539 
L 198.091901 113.294009 
L 191.599049 106.395523 
L 180.466553 94.518855 
L 177.371806 91.57275 
L 175.138939 89.737201 
L 173.443399 88.616814 
L 172.087055 87.976309 
L 170.978165 87.685753 
L 169.998412 87.653401 
L 169.102305 87.846599 
L 168.230489 88.268474 
L 167.353286 88.945794 
L 166.402009 89.975189 
L 165.351235 91.458668 
L 164.152386 93.558824 
L 162.774366 96.445255 
L 161.20639 100.266564 
L 159.464253 105.121264 
L 157.635549 110.889515 
L 155.756025 117.570648 
L 153.885455 125.061126 
L 152.063035 133.293634 
L 150.306899 142.272862 
L 148.634474 152.005773 
L 148.513752 152.760943 
L 148.513752 152.760943 
" style="fill:none;stroke:#008000;stroke-linecap:square;stroke-width:1.5;"/>
   </g>
   <g id="line2d_13">
    <path clip-path="url(#p6e5879ef10)" d="M 306.388034 46.970182 
L 306.496406 46.983304 
L 307.648733 47.218345 
L 308.890927 47.685173 
L 310.200861 48.405053 
L 311.510871 49.360771 
L 312.840289 50.582269 
L 314.383191 52.342544 
L 315.752529 54.247935 
L 317.210735 56.688289 
L 318.714246 59.745071 
L 319.837493 62.485707 
L 320.92467 65.638655 
L 321.941747 69.223627 
L 322.849662 73.254239 
L 323.603461 77.737062 
L 324.150946 82.670146 
L 324.430687 88.040559 
L 324.432782 91.850722 
L 324.25815 95.829772 
L 323.877728 99.958515 
L 323.258183 104.209912 
L 322.361312 108.546066 
L 321.143678 112.913837 
L 319.556952 117.238538 
L 318.609194 119.353405 
L 317.550027 121.415185 
L 316.373596 123.404206 
L 315.074991 125.297503 
L 313.650915 127.068619 
L 312.100572 128.687665 
L 310.426746 130.121871 
L 308.636982 131.336832 
L 306.74463 132.298661 
L 304.76938 132.977027 
L 302.736878 133.348696 
L 300.677167 133.400777 
L 298.622109 133.132693 
L 296.602365 132.556177 
L 294.644756 131.69331 
L 292.770592 130.573316 
L 290.995144 129.229086 
L 289.328026 127.694203 
L 287.77411 126.000825 
L 286.334599 124.178438 
L 285.008053 122.253299 
L 283.791232 120.248336 
L 281.668614 116.075161 
L 279.925808 111.784881 
L 278.519854 107.468669 
L 277.410016 103.192383 
L 276.559322 99.003774 
L 275.934844 94.937614 
L 275.507461 91.019287 
L 275.180409 85.457959 
L 275.164417 80.311465 
L 275.395849 75.603617 
L 275.819943 71.345313 
L 276.388819 67.537521 
L 277.29988 63.147699 
L 278.30523 59.508377 
L 279.329478 56.563061 
L 280.542464 53.745111 
L 281.783395 51.409173 
L 283.510558 48.315529 
L 283.242714 48.228014 
L 282.501903 48.280908 
L 280.989371 48.631243 
L 279.842558 49.088076 
L 279.012097 49.642212 
L 278.502862 50.206858 
L 278.099509 50.978806 
L 277.831703 52.040201 
L 277.7226 53.496351 
L 277.8153 55.943795 
L 278.361105 61.557025 
L 279.054415 69.079419 
L 279.419493 75.214434 
L 279.564766 80.986262 
L 279.476055 87.553998 
L 279.179778 93.005491 
L 278.608561 98.896983 
L 278.030345 103.056284 
L 277.255029 107.384413 
L 276.241108 111.8583 
L 274.93827 116.442787 
L 273.285838 121.084778 
L 272.30651 123.403786 
L 271.212057 125.704618 
L 269.9921 127.97122 
L 268.636156 130.184273 
L 267.13416 132.320817 
L 265.477277 134.354067 
L 263.659004 136.253611 
L 261.676563 137.986245 
L 259.532405 139.517656 
L 257.235495 140.815057 
L 254.801914 141.85051 
L 252.254344 142.604269 
L 249.620307 143.067223 
L 246.929532 143.241653 
L 244.211135 143.140157 
L 241.491339 142.783197 
L 238.792112 142.196133 
L 236.130726 141.40646 
L 233.519997 140.441685 
L 230.968891 139.327928 
L 228.483258 138.089149 
L 223.720407 135.31996 
L 219.240377 132.276883 
L 215.036766 129.06863 
L 211.096173 125.77734 
L 205.643524 120.817023 
L 200.693255 115.960176 
L 194.792137 109.824961 
L 179.328805 93.398032 
L 176.910406 91.169297 
L 174.764642 89.466476 
L 172.867359 88.312807 
L 171.725444 87.856242 
L 170.668992 87.651191 
L 169.685414 87.695325 
L 168.761355 87.982942 
L 167.883495 88.505282 
L 167.039384 89.251282 
L 166.218132 90.208564 
L 165.010184 92.013068 
L 163.812701 94.224843 
L 162.212397 97.75107 
L 160.599381 101.885439 
L 158.976003 106.591507 
L 156.945682 113.247487 
L 154.934825 120.746421 
L 152.966481 129.084067 
L 151.062991 138.263765 
L 149.245712 148.29277 
L 147.867812 156.933818 
L 147.867812 156.933818 
" style="fill:none;stroke:#000000;stroke-linecap:square;stroke-width:1.5;"/>
   </g>
   <g id="patch_3">
    <path d="M 139.038593 162.432 
L 139.038593 41.472 
" style="fill:none;stroke:#000000;stroke-linecap:square;stroke-linejoin:miter;stroke-width:0.8;"/>
   </g>
   <g id="patch_4">
    <path d="M 333.281407 162.432 
L 333.281407 41.472 
" style="fill:none;stroke:#000000;stroke-linecap:square;stroke-linejoin:miter;stroke-width:0.8;"/>
   </g>
   <g id="patch_5">
    <path d="M 139.038593 162.432 
L 333.281407 162.432 
" style="fill:none;stroke:#000000;stroke-linecap:square;stroke-linejoin:miter;stroke-width:0.8;"/>
   </g>
   <g id="patch_6">
    <path d="M 139.038593 41.472 
L 333.281407 41.472 
" style="fill:none;stroke:#000000;stroke-linecap:square;stroke-linejoin:miter;stroke-width:0.8;"/>
   </g>
   <g id="legend_1">
    <g id="patch_7">
     <path d="M 162.129844 157.432 
L 326.281407 157.432 
Q 328.281407 157.432 328.281407 155.432 
L 328.281407 111.432 
Q 328.281407 109.432 326.281407 109.432 
L 162.129844 109.432 
Q 160.129844 109.432 160.129844 111.432 
L 160.129844 155.432 
Q 160.129844 157.432 162.129844 157.432 
z
" style="fill:#ffffff;opacity:0.8;stroke:#cccccc;stroke-linejoin:miter;"/>
    </g>
    <g id="line2d_14">
     <path d="M 164.129844 117.574187 
L 184.129844 117.574187 
" style="fill:none;stroke:#0000ff;stroke-linecap:square;stroke-width:1.5;"/>
    </g>
    <g id="line2d_15"/>
    <g id="text_13">
     <!-- L: [ 1. 10.] | 1e-05 | rk4 |  -->
     <defs>
      <path d="M 9.8125 72.90625 
L 19.671875 72.90625 
L 19.671875 8.296875 
L 55.171875 8.296875 
L 55.171875 0 
L 9.8125 0 
z
" id="DejaVuSans-76"/>
      <path d="M 11.71875 12.40625 
L 22.015625 12.40625 
L 22.015625 0 
L 11.71875 0 
z
M 11.71875 51.703125 
L 22.015625 51.703125 
L 22.015625 39.3125 
L 11.71875 39.3125 
z
" id="DejaVuSans-58"/>
      <path id="DejaVuSans-32"/>
      <path d="M 8.59375 75.984375 
L 29.296875 75.984375 
L 29.296875 69 
L 17.578125 69 
L 17.578125 -6.203125 
L 29.296875 -6.203125 
L 29.296875 -13.1875 
L 8.59375 -13.1875 
z
" id="DejaVuSans-91"/>
      <path d="M 30.421875 75.984375 
L 30.421875 -13.1875 
L 9.71875 -13.1875 
L 9.71875 -6.203125 
L 21.390625 -6.203125 
L 21.390625 69 
L 9.71875 69 
L 9.71875 75.984375 
z
" id="DejaVuSans-93"/>
      <path d="M 21 76.421875 
L 21 -23.578125 
L 12.703125 -23.578125 
L 12.703125 76.421875 
z
" id="DejaVuSans-124"/>
      <path d="M 56.203125 29.59375 
L 56.203125 25.203125 
L 14.890625 25.203125 
Q 15.484375 15.921875 20.484375 11.0625 
Q 25.484375 6.203125 34.421875 6.203125 
Q 39.59375 6.203125 44.453125 7.46875 
Q 49.3125 8.734375 54.109375 11.28125 
L 54.109375 2.78125 
Q 49.265625 0.734375 44.1875 -0.34375 
Q 39.109375 -1.421875 33.890625 -1.421875 
Q 20.796875 -1.421875 13.15625 6.1875 
Q 5.515625 13.8125 5.515625 26.8125 
Q 5.515625 40.234375 12.765625 48.109375 
Q 20.015625 56 32.328125 56 
Q 43.359375 56 49.78125 48.890625 
Q 56.203125 41.796875 56.203125 29.59375 
z
M 47.21875 32.234375 
Q 47.125 39.59375 43.09375 43.984375 
Q 39.0625 48.390625 32.421875 48.390625 
Q 24.90625 48.390625 20.390625 44.140625 
Q 15.875 39.890625 15.1875 32.171875 
z
" id="DejaVuSans-101"/>
      <path d="M 41.109375 46.296875 
Q 39.59375 47.171875 37.8125 47.578125 
Q 36.03125 48 33.890625 48 
Q 26.265625 48 22.1875 43.046875 
Q 18.109375 38.09375 18.109375 28.8125 
L 18.109375 0 
L 9.078125 0 
L 9.078125 54.6875 
L 18.109375 54.6875 
L 18.109375 46.1875 
Q 20.953125 51.171875 25.484375 53.578125 
Q 30.03125 56 36.53125 56 
Q 37.453125 56 38.578125 55.875 
Q 39.703125 55.765625 41.0625 55.515625 
z
" id="DejaVuSans-114"/>
      <path d="M 9.078125 75.984375 
L 18.109375 75.984375 
L 18.109375 31.109375 
L 44.921875 54.6875 
L 56.390625 54.6875 
L 27.390625 29.109375 
L 57.625 0 
L 45.90625 0 
L 18.109375 26.703125 
L 18.109375 0 
L 9.078125 0 
z
" id="DejaVuSans-107"/>
     </defs>
     <g transform="translate(192.129844 121.074187)scale(0.1 -0.1)">
      <use xlink:href="#DejaVuSans-76"/>
      <use x="55.712891" xlink:href="#DejaVuSans-58"/>
      <use x="89.404297" xlink:href="#DejaVuSans-32"/>
      <use x="121.191406" xlink:href="#DejaVuSans-91"/>
      <use x="160.205078" xlink:href="#DejaVuSans-32"/>
      <use x="191.992188" xlink:href="#DejaVuSans-49"/>
      <use x="255.615234" xlink:href="#DejaVuSans-46"/>
      <use x="287.402344" xlink:href="#DejaVuSans-32"/>
      <use x="319.189453" xlink:href="#DejaVuSans-49"/>
      <use x="382.8125" xlink:href="#DejaVuSans-48"/>
      <use x="446.435547" xlink:href="#DejaVuSans-46"/>
      <use x="478.222656" xlink:href="#DejaVuSans-93"/>
      <use x="517.236328" xlink:href="#DejaVuSans-32"/>
      <use x="549.023438" xlink:href="#DejaVuSans-124"/>
      <use x="582.714844" xlink:href="#DejaVuSans-32"/>
      <use x="614.501953" xlink:href="#DejaVuSans-49"/>
      <use x="678.125" xlink:href="#DejaVuSans-101"/>
      <use x="739.648438" xlink:href="#DejaVuSans-45"/>
      <use x="775.732422" xlink:href="#DejaVuSans-48"/>
      <use x="839.355469" xlink:href="#DejaVuSans-53"/>
      <use x="902.978516" xlink:href="#DejaVuSans-32"/>
      <use x="934.765625" xlink:href="#DejaVuSans-124"/>
      <use x="968.457031" xlink:href="#DejaVuSans-32"/>
      <use x="1000.244141" xlink:href="#DejaVuSans-114"/>
      <use x="1041.357422" xlink:href="#DejaVuSans-107"/>
      <use x="1099.267578" xlink:href="#DejaVuSans-52"/>
      <use x="1162.890625" xlink:href="#DejaVuSans-32"/>
      <use x="1194.677734" xlink:href="#DejaVuSans-124"/>
      <use x="1228.369141" xlink:href="#DejaVuSans-32"/>
     </g>
    </g>
    <g id="line2d_16">
     <path d="M 164.129844 132.574187 
L 184.129844 132.574187 
" style="fill:none;stroke:#008000;stroke-linecap:square;stroke-width:1.5;"/>
    </g>
    <g id="line2d_17"/>
    <g id="text_14">
     <!-- L: [ 1. 10.] | 0.0005 | rk4 |  -->
     <g transform="translate(192.129844 136.074187)scale(0.1 -0.1)">
      <use xlink:href="#DejaVuSans-76"/>
      <use x="55.712891" xlink:href="#DejaVuSans-58"/>
      <use x="89.404297" xlink:href="#DejaVuSans-32"/>
      <use x="121.191406" xlink:href="#DejaVuSans-91"/>
      <use x="160.205078" xlink:href="#DejaVuSans-32"/>
      <use x="191.992188" xlink:href="#DejaVuSans-49"/>
      <use x="255.615234" xlink:href="#DejaVuSans-46"/>
      <use x="287.402344" xlink:href="#DejaVuSans-32"/>
      <use x="319.189453" xlink:href="#DejaVuSans-49"/>
      <use x="382.8125" xlink:href="#DejaVuSans-48"/>
      <use x="446.435547" xlink:href="#DejaVuSans-46"/>
      <use x="478.222656" xlink:href="#DejaVuSans-93"/>
      <use x="517.236328" xlink:href="#DejaVuSans-32"/>
      <use x="549.023438" xlink:href="#DejaVuSans-124"/>
      <use x="582.714844" xlink:href="#DejaVuSans-32"/>
      <use x="614.501953" xlink:href="#DejaVuSans-48"/>
      <use x="678.125" xlink:href="#DejaVuSans-46"/>
      <use x="709.912109" xlink:href="#DejaVuSans-48"/>
      <use x="773.535156" xlink:href="#DejaVuSans-48"/>
      <use x="837.158203" xlink:href="#DejaVuSans-48"/>
      <use x="900.78125" xlink:href="#DejaVuSans-53"/>
      <use x="964.404297" xlink:href="#DejaVuSans-32"/>
      <use x="996.191406" xlink:href="#DejaVuSans-124"/>
      <use x="1029.882812" xlink:href="#DejaVuSans-32"/>
      <use x="1061.669922" xlink:href="#DejaVuSans-114"/>
      <use x="1102.783203" xlink:href="#DejaVuSans-107"/>
      <use x="1160.693359" xlink:href="#DejaVuSans-52"/>
      <use x="1224.316406" xlink:href="#DejaVuSans-32"/>
      <use x="1256.103516" xlink:href="#DejaVuSans-124"/>
      <use x="1289.794922" xlink:href="#DejaVuSans-32"/>
     </g>
    </g>
    <g id="line2d_18">
     <path d="M 164.129844 147.574187 
L 184.129844 147.574187 
" style="fill:none;stroke:#000000;stroke-linecap:square;stroke-width:1.5;"/>
    </g>
    <g id="line2d_19"/>
    <g id="text_15">
     <!-- L: [ 1. 10.] | 0.01 | rk4 -->
     <g transform="translate(192.129844 151.074187)scale(0.1 -0.1)">
      <use xlink:href="#DejaVuSans-76"/>
      <use x="55.712891" xlink:href="#DejaVuSans-58"/>
      <use x="89.404297" xlink:href="#DejaVuSans-32"/>
      <use x="121.191406" xlink:href="#DejaVuSans-91"/>
      <use x="160.205078" xlink:href="#DejaVuSans-32"/>
      <use x="191.992188" xlink:href="#DejaVuSans-49"/>
      <use x="255.615234" xlink:href="#DejaVuSans-46"/>
      <use x="287.402344" xlink:href="#DejaVuSans-32"/>
      <use x="319.189453" xlink:href="#DejaVuSans-49"/>
      <use x="382.8125" xlink:href="#DejaVuSans-48"/>
      <use x="446.435547" xlink:href="#DejaVuSans-46"/>
      <use x="478.222656" xlink:href="#DejaVuSans-93"/>
      <use x="517.236328" xlink:href="#DejaVuSans-32"/>
      <use x="549.023438" xlink:href="#DejaVuSans-124"/>
      <use x="582.714844" xlink:href="#DejaVuSans-32"/>
      <use x="614.501953" xlink:href="#DejaVuSans-48"/>
      <use x="678.125" xlink:href="#DejaVuSans-46"/>
      <use x="709.912109" xlink:href="#DejaVuSans-48"/>
      <use x="773.535156" xlink:href="#DejaVuSans-49"/>
      <use x="837.158203" xlink:href="#DejaVuSans-32"/>
      <use x="868.945312" xlink:href="#DejaVuSans-124"/>
      <use x="902.636719" xlink:href="#DejaVuSans-32"/>
      <use x="934.423828" xlink:href="#DejaVuSans-114"/>
      <use x="975.537109" xlink:href="#DejaVuSans-107"/>
      <use x="1033.447266" xlink:href="#DejaVuSans-52"/>
     </g>
    </g>
   </g>
  </g>
  <g id="axes_2">
   <g id="patch_8">
    <path d="M 97.776867 307.584 
L 374.543133 307.584 
L 374.543133 186.624 
L 97.776867 186.624 
z
" style="fill:#ffffff;"/>
   </g>
   <g id="matplotlib.axis_3">
    <g id="xtick_5">
     <g id="line2d_20">
      <g>
       <use style="stroke:#000000;stroke-width:0.8;" x="110.889649" xlink:href="#m73ed720844" y="307.584"/>
      </g>
     </g>
     <g id="text_16">
      <!-- 0.0 -->
      <g transform="translate(102.938086 322.182437)scale(0.1 -0.1)">
       <use xlink:href="#DejaVuSans-48"/>
       <use x="63.623047" xlink:href="#DejaVuSans-46"/>
       <use x="95.410156" xlink:href="#DejaVuSans-48"/>
      </g>
     </g>
    </g>
    <g id="xtick_6">
     <g id="line2d_21">
      <g>
       <use style="stroke:#000000;stroke-width:0.8;" x="164.140268" xlink:href="#m73ed720844" y="307.584"/>
      </g>
     </g>
     <g id="text_17">
      <!-- 0.5 -->
      <g transform="translate(156.188706 322.182437)scale(0.1 -0.1)">
       <use xlink:href="#DejaVuSans-48"/>
       <use x="63.623047" xlink:href="#DejaVuSans-46"/>
       <use x="95.410156" xlink:href="#DejaVuSans-53"/>
      </g>
     </g>
    </g>
    <g id="xtick_7">
     <g id="line2d_22">
      <g>
       <use style="stroke:#000000;stroke-width:0.8;" x="217.390887" xlink:href="#m73ed720844" y="307.584"/>
      </g>
     </g>
     <g id="text_18">
      <!-- 1.0 -->
      <g transform="translate(209.439325 322.182437)scale(0.1 -0.1)">
       <use xlink:href="#DejaVuSans-49"/>
       <use x="63.623047" xlink:href="#DejaVuSans-46"/>
       <use x="95.410156" xlink:href="#DejaVuSans-48"/>
      </g>
     </g>
    </g>
    <g id="xtick_8">
     <g id="line2d_23">
      <g>
       <use style="stroke:#000000;stroke-width:0.8;" x="270.641507" xlink:href="#m73ed720844" y="307.584"/>
      </g>
     </g>
     <g id="text_19">
      <!-- 1.5 -->
      <g transform="translate(262.689944 322.182437)scale(0.1 -0.1)">
       <use xlink:href="#DejaVuSans-49"/>
       <use x="63.623047" xlink:href="#DejaVuSans-46"/>
       <use x="95.410156" xlink:href="#DejaVuSans-53"/>
      </g>
     </g>
    </g>
    <g id="xtick_9">
     <g id="line2d_24">
      <g>
       <use style="stroke:#000000;stroke-width:0.8;" x="323.892126" xlink:href="#m73ed720844" y="307.584"/>
      </g>
     </g>
     <g id="text_20">
      <!-- 2.0 -->
      <g transform="translate(315.940563 322.182437)scale(0.1 -0.1)">
       <use xlink:href="#DejaVuSans-50"/>
       <use x="63.623047" xlink:href="#DejaVuSans-46"/>
       <use x="95.410156" xlink:href="#DejaVuSans-48"/>
      </g>
     </g>
    </g>
    <g id="text_21">
     <!-- X-axis -->
     <g transform="translate(221.163906 335.860562)scale(0.1 -0.1)">
      <use xlink:href="#DejaVuSans-88"/>
      <use x="63.505859" xlink:href="#DejaVuSans-45"/>
      <use x="99.589844" xlink:href="#DejaVuSans-97"/>
      <use x="160.869141" xlink:href="#DejaVuSans-120"/>
      <use x="220.048828" xlink:href="#DejaVuSans-105"/>
      <use x="247.832031" xlink:href="#DejaVuSans-115"/>
     </g>
    </g>
   </g>
   <g id="matplotlib.axis_4">
    <g id="ytick_7">
     <g id="line2d_25">
      <g>
       <use style="stroke:#000000;stroke-width:0.8;" x="97.776867" xlink:href="#mb6ceeed4e0" y="287.970634"/>
      </g>
     </g>
     <g id="text_22">
      <!-- 9.6 -->
      <defs>
       <path d="M 10.984375 1.515625 
L 10.984375 10.5 
Q 14.703125 8.734375 18.5 7.8125 
Q 22.3125 6.890625 25.984375 6.890625 
Q 35.75 6.890625 40.890625 13.453125 
Q 46.046875 20.015625 46.78125 33.40625 
Q 43.953125 29.203125 39.59375 26.953125 
Q 35.25 24.703125 29.984375 24.703125 
Q 19.046875 24.703125 12.671875 31.3125 
Q 6.296875 37.9375 6.296875 49.421875 
Q 6.296875 60.640625 12.9375 67.421875 
Q 19.578125 74.21875 30.609375 74.21875 
Q 43.265625 74.21875 49.921875 64.515625 
Q 56.59375 54.828125 56.59375 36.375 
Q 56.59375 19.140625 48.40625 8.859375 
Q 40.234375 -1.421875 26.421875 -1.421875 
Q 22.703125 -1.421875 18.890625 -0.6875 
Q 15.09375 0.046875 10.984375 1.515625 
z
M 30.609375 32.421875 
Q 37.25 32.421875 41.125 36.953125 
Q 45.015625 41.5 45.015625 49.421875 
Q 45.015625 57.28125 41.125 61.84375 
Q 37.25 66.40625 30.609375 66.40625 
Q 23.96875 66.40625 20.09375 61.84375 
Q 16.21875 57.28125 16.21875 49.421875 
Q 16.21875 41.5 20.09375 36.953125 
Q 23.96875 32.421875 30.609375 32.421875 
z
" id="DejaVuSans-57"/>
      </defs>
      <g transform="translate(74.873742 291.769853)scale(0.1 -0.1)">
       <use xlink:href="#DejaVuSans-57"/>
       <use x="63.623047" xlink:href="#DejaVuSans-46"/>
       <use x="95.410156" xlink:href="#DejaVuSans-54"/>
      </g>
     </g>
    </g>
    <g id="ytick_8">
     <g id="line2d_26">
      <g>
       <use style="stroke:#000000;stroke-width:0.8;" x="97.776867" xlink:href="#mb6ceeed4e0" y="266.670386"/>
      </g>
     </g>
     <g id="text_23">
      <!-- 9.8 -->
      <defs>
       <path d="M 31.78125 34.625 
Q 24.75 34.625 20.71875 30.859375 
Q 16.703125 27.09375 16.703125 20.515625 
Q 16.703125 13.921875 20.71875 10.15625 
Q 24.75 6.390625 31.78125 6.390625 
Q 38.8125 6.390625 42.859375 10.171875 
Q 46.921875 13.96875 46.921875 20.515625 
Q 46.921875 27.09375 42.890625 30.859375 
Q 38.875 34.625 31.78125 34.625 
z
M 21.921875 38.8125 
Q 15.578125 40.375 12.03125 44.71875 
Q 8.5 49.078125 8.5 55.328125 
Q 8.5 64.0625 14.71875 69.140625 
Q 20.953125 74.21875 31.78125 74.21875 
Q 42.671875 74.21875 48.875 69.140625 
Q 55.078125 64.0625 55.078125 55.328125 
Q 55.078125 49.078125 51.53125 44.71875 
Q 48 40.375 41.703125 38.8125 
Q 48.828125 37.15625 52.796875 32.3125 
Q 56.78125 27.484375 56.78125 20.515625 
Q 56.78125 9.90625 50.3125 4.234375 
Q 43.84375 -1.421875 31.78125 -1.421875 
Q 19.734375 -1.421875 13.25 4.234375 
Q 6.78125 9.90625 6.78125 20.515625 
Q 6.78125 27.484375 10.78125 32.3125 
Q 14.796875 37.15625 21.921875 38.8125 
z
M 18.3125 54.390625 
Q 18.3125 48.734375 21.84375 45.5625 
Q 25.390625 42.390625 31.78125 42.390625 
Q 38.140625 42.390625 41.71875 45.5625 
Q 45.3125 48.734375 45.3125 54.390625 
Q 45.3125 60.0625 41.71875 63.234375 
Q 38.140625 66.40625 31.78125 66.40625 
Q 25.390625 66.40625 21.84375 63.234375 
Q 18.3125 60.0625 18.3125 54.390625 
z
" id="DejaVuSans-56"/>
      </defs>
      <g transform="translate(74.873742 270.469605)scale(0.1 -0.1)">
       <use xlink:href="#DejaVuSans-57"/>
       <use x="63.623047" xlink:href="#DejaVuSans-46"/>
       <use x="95.410156" xlink:href="#DejaVuSans-56"/>
      </g>
     </g>
    </g>
    <g id="ytick_9">
     <g id="line2d_27">
      <g>
       <use style="stroke:#000000;stroke-width:0.8;" x="97.776867" xlink:href="#mb6ceeed4e0" y="245.370139"/>
      </g>
     </g>
     <g id="text_24">
      <!-- 10.0 -->
      <g transform="translate(68.511242 249.169357)scale(0.1 -0.1)">
       <use xlink:href="#DejaVuSans-49"/>
       <use x="63.623047" xlink:href="#DejaVuSans-48"/>
       <use x="127.246094" xlink:href="#DejaVuSans-46"/>
       <use x="159.033203" xlink:href="#DejaVuSans-48"/>
      </g>
     </g>
    </g>
    <g id="ytick_10">
     <g id="line2d_28">
      <g>
       <use style="stroke:#000000;stroke-width:0.8;" x="97.776867" xlink:href="#mb6ceeed4e0" y="224.069891"/>
      </g>
     </g>
     <g id="text_25">
      <!-- 10.2 -->
      <g transform="translate(68.511242 227.86911)scale(0.1 -0.1)">
       <use xlink:href="#DejaVuSans-49"/>
       <use x="63.623047" xlink:href="#DejaVuSans-48"/>
       <use x="127.246094" xlink:href="#DejaVuSans-46"/>
       <use x="159.033203" xlink:href="#DejaVuSans-50"/>
      </g>
     </g>
    </g>
    <g id="ytick_11">
     <g id="line2d_29">
      <g>
       <use style="stroke:#000000;stroke-width:0.8;" x="97.776867" xlink:href="#mb6ceeed4e0" y="202.769643"/>
      </g>
     </g>
     <g id="text_26">
      <!-- 10.4 -->
      <g transform="translate(68.511242 206.568862)scale(0.1 -0.1)">
       <use xlink:href="#DejaVuSans-49"/>
       <use x="63.623047" xlink:href="#DejaVuSans-48"/>
       <use x="127.246094" xlink:href="#DejaVuSans-46"/>
       <use x="159.033203" xlink:href="#DejaVuSans-52"/>
      </g>
     </g>
    </g>
    <g id="text_27">
     <!-- Y-axis -->
     <g transform="translate(62.431554 261.38525)rotate(-90)scale(0.1 -0.1)">
      <use xlink:href="#DejaVuSans-89"/>
      <use x="49.208984" xlink:href="#DejaVuSans-45"/>
      <use x="85.292969" xlink:href="#DejaVuSans-97"/>
      <use x="146.572266" xlink:href="#DejaVuSans-120"/>
      <use x="205.751953" xlink:href="#DejaVuSans-105"/>
      <use x="233.535156" xlink:href="#DejaVuSans-115"/>
     </g>
    </g>
   </g>
   <g id="line2d_30">
    <path clip-path="url(#p375f003e0a)" d="M 110.357152 192.122182 
L 110.461341 192.355309 
L 110.707719 193.405365 
L 111.071104 196.049857 
L 111.562894 201.438553 
L 112.218289 211.310903 
L 113.16525 229.33392 
L 115.643477 277.886628 
L 116.441102 288.653556 
L 117.074936 294.492174 
L 117.580281 297.329787 
L 117.965727 298.419689 
L 118.233769 298.647181 
L 118.430466 298.547569 
L 118.672882 298.126656 
L 119.005348 297.041578 
L 119.450496 294.742511 
L 120.035405 290.434735 
L 120.812583 282.902293 
L 121.929826 269.667324 
L 125.790939 222.196677 
L 126.887871 212.207658 
L 127.830685 205.533504 
L 128.672651 201.064085 
L 129.445496 198.08837 
L 130.174519 196.113604 
L 130.883901 194.800444 
L 131.602655 193.919466 
L 132.373965 193.31995 
L 133.269976 192.908997 
L 134.42298 192.636449 
L 136.113787 192.484599 
L 139.020588 192.473767 
L 143.244733 192.678775 
L 146.473829 193.042051 
L 148.911353 193.532804 
L 150.92723 194.161094 
L 152.69644 194.943196 
L 154.3162 195.902129 
L 155.8479 197.069011 
L 157.334703 198.484823 
L 158.808398 200.200664 
L 160.294722 202.279871 
L 161.815378 204.798855 
L 163.390147 207.849155 
L 165.039274 211.541853 
L 166.784959 216.012052 
L 168.656017 221.433348 
L 170.694799 228.044619 
L 172.978157 236.232076 
L 175.697294 246.853851 
L 180.158339 265.351249 
L 183.562581 279.034707 
L 185.627814 286.45317 
L 187.262672 291.539461 
L 188.643569 295.145786 
L 189.848887 297.702982 
L 190.92257 299.485578 
L 191.89488 300.689702 
L 192.788804 301.458371 
L 193.627821 301.897034 
L 194.441295 302.076501 
L 195.265306 302.030151 
L 196.137907 301.753636 
L 197.100841 301.206892 
L 198.195676 300.318416 
L 199.471674 298.982938 
L 200.99341 297.052263 
L 202.8607 294.304589 
L 205.255484 290.360553 
L 208.639545 284.32105 
L 222.99823 258.237391 
L 227.076316 251.521639 
L 230.840342 245.743483 
L 234.402938 240.675026 
L 237.821897 236.191764 
L 241.129549 232.215935 
L 244.352037 228.685586 
L 247.50902 225.552889 
L 250.617825 222.777834 
L 253.696299 220.325083 
L 256.761356 218.165039 
L 259.831956 216.271403 
L 262.927723 214.622286 
L 266.07208 213.198613 
L 269.289462 211.985816 
L 272.611683 210.971644 
L 276.072304 210.148825 
L 279.711761 209.513661 
L 283.579799 209.066512 
L 287.73344 208.812861 
L 292.241589 208.763467 
L 297.181955 208.935256 
L 302.632565 209.351014 
L 308.654679 210.037017 
L 315.249832 211.015151 
L 322.31444 212.289604 
L 329.631027 213.835889 
L 336.947394 215.608694 
L 344.067208 217.561237 
L 350.900286 219.664126 
L 357.427923 221.904167 
L 357.542087 221.945496 
L 357.542087 221.945496 
" style="fill:none;stroke:#bf00bf;stroke-linecap:square;stroke-width:1.5;"/>
   </g>
   <g id="line2d_31">
    <path clip-path="url(#p375f003e0a)" d="M 110.357152 192.122182 
L 110.467931 192.374584 
L 110.718452 193.465532 
L 111.08629 196.186446 
L 111.583175 201.701169 
L 112.244633 211.761378 
L 113.20904 230.234035 
L 115.599659 277.194351 
L 116.401959 288.211337 
L 117.036249 294.208238 
L 117.542234 297.172254 
L 117.930851 298.358531 
L 118.202646 298.64252 
L 118.399598 298.577781 
L 118.637635 298.207782 
L 118.955439 297.240452 
L 119.388054 295.119647 
L 119.961077 291.054671 
L 120.709566 283.998732 
L 121.778634 271.569193 
L 126.02263 219.896287 
L 127.082663 210.681197 
L 127.99894 204.530624 
L 128.826087 200.392413 
L 129.590755 197.635987 
L 130.310409 195.820722 
L 131.015496 194.609787 
L 131.743299 193.787589 
L 132.533355 193.228494 
L 133.462449 192.84786 
L 134.693334 192.597911 
L 136.55386 192.469707 
L 139.815968 192.495407 
L 143.954398 192.738626 
L 146.992312 193.127012 
L 149.331195 193.644319 
L 151.287145 194.300643 
L 153.025153 195.117314 
L 154.614579 196.108205 
L 156.129298 197.314369 
L 157.617525 198.788908 
L 159.091846 200.569212 
L 160.591348 202.739317 
L 162.112557 205.339488 
L 163.701573 208.507115 
L 165.359082 212.317656 
L 167.138341 216.986679 
L 169.045288 222.640611 
L 171.115278 229.49362 
L 173.476161 238.114478 
L 176.341482 249.474265 
L 184.737505 283.371459 
L 186.550612 289.423909 
L 188.038782 293.651146 
L 189.317003 296.645576 
L 190.439574 298.742434 
L 191.475743 300.21828 
L 192.409763 301.171297 
L 193.277451 301.746169 
L 194.122004 302.0338 
L 194.938045 302.074763 
L 195.776818 301.894867 
L 196.695266 301.466024 
L 197.755654 300.706828 
L 198.964173 299.548852 
L 200.388256 297.858523 
L 202.09916 295.467539 
L 204.301641 291.975972 
L 207.211918 286.914132 
L 212.2118 277.69707 
L 219.660113 264.045341 
L 224.132303 256.325194 
L 228.073909 249.9493 
L 231.755541 244.403463 
L 235.242921 239.538624 
L 238.604322 235.219059 
L 241.909958 231.329935 
L 245.086995 227.927635 
L 248.206897 224.903413 
L 251.342733 222.174158 
L 254.42228 219.788437 
L 257.519779 217.672658 
L 260.562546 215.859229 
L 263.701032 214.249318 
L 266.863614 212.878093 
L 270.129199 211.70747 
L 273.502945 210.737918 
L 276.990767 209.967354 
L 280.67833 209.381123 
L 284.576563 208.985561 
L 288.779552 208.781862 
L 293.389342 208.783859 
L 298.433344 209.011337 
L 304.030742 209.490693 
L 310.225646 210.249941 
L 316.975846 211.305911 
L 324.136304 212.653519 
L 331.438859 214.252674 
L 338.676607 216.061684 
L 345.719578 218.048372 
L 352.42439 220.166066 
L 357.757366 222.023638 
L 357.757366 222.023638 
" style="fill:none;stroke:#ff0000;stroke-linecap:square;stroke-width:1.5;"/>
   </g>
   <g id="line2d_32">
    <path clip-path="url(#p375f003e0a)" d="M 110.357152 192.122182 
L 110.467545 192.373441 
L 110.704066 193.385152 
L 111.064257 195.988938 
L 111.558671 201.384256 
L 112.18673 210.776085 
L 113.086974 227.734757 
L 115.657627 278.108094 
L 116.38222 287.984783 
L 117.013755 294.038755 
L 117.48129 296.900964 
L 117.982181 298.445982 
L 118.241893 298.64747 
L 118.505253 298.452244 
L 118.770164 297.868446 
L 119.296994 295.638678 
L 119.810592 292.248178 
L 120.544829 285.695251 
L 121.67179 272.89736 
L 125.93199 220.7848 
L 127.05913 210.861719 
L 127.983833 204.61852 
L 128.87754 200.176616 
L 129.605225 197.592707 
L 130.324794 195.791016 
L 131.044412 194.569869 
L 131.772729 193.761447 
L 132.518236 193.236798 
L 133.446621 192.852618 
L 134.761541 192.589299 
L 136.754719 192.465052 
L 140.138233 192.506341 
L 144.234341 192.764832 
L 147.229895 193.168957 
L 149.555599 193.707531 
L 151.342303 194.322459 
L 153.239316 195.235519 
L 154.83884 196.268787 
L 156.512202 197.663654 
L 157.81561 199.007449 
L 159.15997 200.65799 
L 160.544463 202.663592 
L 161.96804 205.072056 
L 163.429552 207.928417 
L 164.927921 211.272793 
L 166.462323 215.13855 
L 168.563666 221.14606 
L 170.7294 228.157202 
L 172.96338 236.170349 
L 175.864495 247.523732 
L 184.265217 281.654461 
L 185.742513 286.82882 
L 187.303291 291.649358 
L 188.968668 295.887311 
L 189.84828 297.697954 
L 190.763459 299.248314 
L 191.717138 300.496285 
L 192.711618 301.40308 
L 193.748182 301.937888 
L 194.826796 302.082481 
L 195.946001 301.834353 
L 197.103079 301.207156 
L 198.294411 300.228284 
L 199.515948 298.934547 
L 200.763623 297.3674 
L 203.32265 293.579014 
L 205.946604 289.165602 
L 209.967295 281.878336 
L 219.589155 264.176946 
L 223.780305 256.920584 
L 228.002084 250.06679 
L 232.251533 243.693156 
L 235.09916 239.736368 
L 237.958383 236.025312 
L 240.82933 232.566514 
L 243.71233 229.363764 
L 246.607904 226.418429 
L 249.516777 223.729689 
L 252.43988 221.294707 
L 255.378358 219.108769 
L 258.333588 217.16542 
L 261.307177 215.456601 
L 264.300972 213.97281 
L 267.317051 212.703302 
L 270.357721 211.636318 
L 273.425488 210.759353 
L 276.52304 210.059445 
L 279.653204 209.523491 
L 284.416027 208.998775 
L 289.268936 208.772416 
L 294.222007 208.806978 
L 299.285009 209.07047 
L 304.467166 209.537167 
L 311.576629 210.443559 
L 318.930657 211.651592 
L 326.543823 213.155864 
L 334.427097 214.971808 
L 342.587323 217.135697 
L 348.890706 219.020554 
L 355.350138 221.16451 
L 361.962848 223.605187 
L 361.962848 223.605187 
" style="fill:none;stroke:#000000;stroke-linecap:square;stroke-width:1.5;"/>
   </g>
   <g id="patch_9">
    <path d="M 97.776867 307.584 
L 97.776867 186.624 
" style="fill:none;stroke:#000000;stroke-linecap:square;stroke-linejoin:miter;stroke-width:0.8;"/>
   </g>
   <g id="patch_10">
    <path d="M 374.543133 307.584 
L 374.543133 186.624 
" style="fill:none;stroke:#000000;stroke-linecap:square;stroke-linejoin:miter;stroke-width:0.8;"/>
   </g>
   <g id="patch_11">
    <path d="M 97.776867 307.584 
L 374.543133 307.584 
" style="fill:none;stroke:#000000;stroke-linecap:square;stroke-linejoin:miter;stroke-width:0.8;"/>
   </g>
   <g id="patch_12">
    <path d="M 97.776867 186.624 
L 374.543133 186.624 
" style="fill:none;stroke:#000000;stroke-linecap:square;stroke-linejoin:miter;stroke-width:0.8;"/>
   </g>
   <g id="legend_2">
    <g id="patch_13">
     <path d="M 203.391571 302.584 
L 367.543133 302.584 
Q 369.543133 302.584 369.543133 300.584 
L 369.543133 256.584 
Q 369.543133 254.584 367.543133 254.584 
L 203.391571 254.584 
Q 201.391571 254.584 201.391571 256.584 
L 201.391571 300.584 
Q 201.391571 302.584 203.391571 302.584 
z
" style="fill:#ffffff;opacity:0.8;stroke:#cccccc;stroke-linejoin:miter;"/>
    </g>
    <g id="line2d_33">
     <path d="M 205.391571 262.726187 
L 225.391571 262.726187 
" style="fill:none;stroke:#bf00bf;stroke-linecap:square;stroke-width:1.5;"/>
    </g>
    <g id="line2d_34"/>
    <g id="text_28">
     <!-- L: [10.  1.] | 1e-05 | rk4 |  -->
     <g transform="translate(233.391571 266.226187)scale(0.1 -0.1)">
      <use xlink:href="#DejaVuSans-76"/>
      <use x="55.712891" xlink:href="#DejaVuSans-58"/>
      <use x="89.404297" xlink:href="#DejaVuSans-32"/>
      <use x="121.191406" xlink:href="#DejaVuSans-91"/>
      <use x="160.205078" xlink:href="#DejaVuSans-49"/>
      <use x="223.828125" xlink:href="#DejaVuSans-48"/>
      <use x="287.451172" xlink:href="#DejaVuSans-46"/>
      <use x="319.238281" xlink:href="#DejaVuSans-32"/>
      <use x="351.025391" xlink:href="#DejaVuSans-32"/>
      <use x="382.8125" xlink:href="#DejaVuSans-49"/>
      <use x="446.435547" xlink:href="#DejaVuSans-46"/>
      <use x="478.222656" xlink:href="#DejaVuSans-93"/>
      <use x="517.236328" xlink:href="#DejaVuSans-32"/>
      <use x="549.023438" xlink:href="#DejaVuSans-124"/>
      <use x="582.714844" xlink:href="#DejaVuSans-32"/>
      <use x="614.501953" xlink:href="#DejaVuSans-49"/>
      <use x="678.125" xlink:href="#DejaVuSans-101"/>
      <use x="739.648438" xlink:href="#DejaVuSans-45"/>
      <use x="775.732422" xlink:href="#DejaVuSans-48"/>
      <use x="839.355469" xlink:href="#DejaVuSans-53"/>
      <use x="902.978516" xlink:href="#DejaVuSans-32"/>
      <use x="934.765625" xlink:href="#DejaVuSans-124"/>
      <use x="968.457031" xlink:href="#DejaVuSans-32"/>
      <use x="1000.244141" xlink:href="#DejaVuSans-114"/>
      <use x="1041.357422" xlink:href="#DejaVuSans-107"/>
      <use x="1099.267578" xlink:href="#DejaVuSans-52"/>
      <use x="1162.890625" xlink:href="#DejaVuSans-32"/>
      <use x="1194.677734" xlink:href="#DejaVuSans-124"/>
      <use x="1228.369141" xlink:href="#DejaVuSans-32"/>
     </g>
    </g>
    <g id="line2d_35">
     <path d="M 205.391571 277.726187 
L 225.391571 277.726187 
" style="fill:none;stroke:#ff0000;stroke-linecap:square;stroke-width:1.5;"/>
    </g>
    <g id="line2d_36"/>
    <g id="text_29">
     <!-- L: [10.  1.] | 0.0005 | rk4 |  -->
     <g transform="translate(233.391571 281.226187)scale(0.1 -0.1)">
      <use xlink:href="#DejaVuSans-76"/>
      <use x="55.712891" xlink:href="#DejaVuSans-58"/>
      <use x="89.404297" xlink:href="#DejaVuSans-32"/>
      <use x="121.191406" xlink:href="#DejaVuSans-91"/>
      <use x="160.205078" xlink:href="#DejaVuSans-49"/>
      <use x="223.828125" xlink:href="#DejaVuSans-48"/>
      <use x="287.451172" xlink:href="#DejaVuSans-46"/>
      <use x="319.238281" xlink:href="#DejaVuSans-32"/>
      <use x="351.025391" xlink:href="#DejaVuSans-32"/>
      <use x="382.8125" xlink:href="#DejaVuSans-49"/>
      <use x="446.435547" xlink:href="#DejaVuSans-46"/>
      <use x="478.222656" xlink:href="#DejaVuSans-93"/>
      <use x="517.236328" xlink:href="#DejaVuSans-32"/>
      <use x="549.023438" xlink:href="#DejaVuSans-124"/>
      <use x="582.714844" xlink:href="#DejaVuSans-32"/>
      <use x="614.501953" xlink:href="#DejaVuSans-48"/>
      <use x="678.125" xlink:href="#DejaVuSans-46"/>
      <use x="709.912109" xlink:href="#DejaVuSans-48"/>
      <use x="773.535156" xlink:href="#DejaVuSans-48"/>
      <use x="837.158203" xlink:href="#DejaVuSans-48"/>
      <use x="900.78125" xlink:href="#DejaVuSans-53"/>
      <use x="964.404297" xlink:href="#DejaVuSans-32"/>
      <use x="996.191406" xlink:href="#DejaVuSans-124"/>
      <use x="1029.882812" xlink:href="#DejaVuSans-32"/>
      <use x="1061.669922" xlink:href="#DejaVuSans-114"/>
      <use x="1102.783203" xlink:href="#DejaVuSans-107"/>
      <use x="1160.693359" xlink:href="#DejaVuSans-52"/>
      <use x="1224.316406" xlink:href="#DejaVuSans-32"/>
      <use x="1256.103516" xlink:href="#DejaVuSans-124"/>
      <use x="1289.794922" xlink:href="#DejaVuSans-32"/>
     </g>
    </g>
    <g id="line2d_37">
     <path d="M 205.391571 292.726187 
L 225.391571 292.726187 
" style="fill:none;stroke:#000000;stroke-linecap:square;stroke-width:1.5;"/>
    </g>
    <g id="line2d_38"/>
    <g id="text_30">
     <!-- L: [10.  1.] | 0.01 | rk4 -->
     <g transform="translate(233.391571 296.226187)scale(0.1 -0.1)">
      <use xlink:href="#DejaVuSans-76"/>
      <use x="55.712891" xlink:href="#DejaVuSans-58"/>
      <use x="89.404297" xlink:href="#DejaVuSans-32"/>
      <use x="121.191406" xlink:href="#DejaVuSans-91"/>
      <use x="160.205078" xlink:href="#DejaVuSans-49"/>
      <use x="223.828125" xlink:href="#DejaVuSans-48"/>
      <use x="287.451172" xlink:href="#DejaVuSans-46"/>
      <use x="319.238281" xlink:href="#DejaVuSans-32"/>
      <use x="351.025391" xlink:href="#DejaVuSans-32"/>
      <use x="382.8125" xlink:href="#DejaVuSans-49"/>
      <use x="446.435547" xlink:href="#DejaVuSans-46"/>
      <use x="478.222656" xlink:href="#DejaVuSans-93"/>
      <use x="517.236328" xlink:href="#DejaVuSans-32"/>
      <use x="549.023438" xlink:href="#DejaVuSans-124"/>
      <use x="582.714844" xlink:href="#DejaVuSans-32"/>
      <use x="614.501953" xlink:href="#DejaVuSans-48"/>
      <use x="678.125" xlink:href="#DejaVuSans-46"/>
      <use x="709.912109" xlink:href="#DejaVuSans-48"/>
      <use x="773.535156" xlink:href="#DejaVuSans-49"/>
      <use x="837.158203" xlink:href="#DejaVuSans-32"/>
      <use x="868.945312" xlink:href="#DejaVuSans-124"/>
      <use x="902.636719" xlink:href="#DejaVuSans-32"/>
      <use x="934.423828" xlink:href="#DejaVuSans-114"/>
      <use x="975.537109" xlink:href="#DejaVuSans-107"/>
      <use x="1033.447266" xlink:href="#DejaVuSans-52"/>
     </g>
    </g>
   </g>
  </g>
  <g id="text_31">
   <!-- Trajectory of the centre of 2nd link -->
   <defs>
    <path d="M -0.296875 72.90625 
L 61.375 72.90625 
L 61.375 64.59375 
L 35.5 64.59375 
L 35.5 0 
L 25.59375 0 
L 25.59375 64.59375 
L -0.296875 64.59375 
z
" id="DejaVuSans-84"/>
    <path d="M 9.421875 54.6875 
L 18.40625 54.6875 
L 18.40625 -0.984375 
Q 18.40625 -11.421875 14.421875 -16.109375 
Q 10.453125 -20.796875 1.609375 -20.796875 
L -1.8125 -20.796875 
L -1.8125 -13.1875 
L 0.59375 -13.1875 
Q 5.71875 -13.1875 7.5625 -10.8125 
Q 9.421875 -8.453125 9.421875 -0.984375 
z
M 9.421875 75.984375 
L 18.40625 75.984375 
L 18.40625 64.59375 
L 9.421875 64.59375 
z
" id="DejaVuSans-106"/>
    <path d="M 48.78125 52.59375 
L 48.78125 44.1875 
Q 44.96875 46.296875 41.140625 47.34375 
Q 37.3125 48.390625 33.40625 48.390625 
Q 24.65625 48.390625 19.8125 42.84375 
Q 14.984375 37.3125 14.984375 27.296875 
Q 14.984375 17.28125 19.8125 11.734375 
Q 24.65625 6.203125 33.40625 6.203125 
Q 37.3125 6.203125 41.140625 7.25 
Q 44.96875 8.296875 48.78125 10.40625 
L 48.78125 2.09375 
Q 45.015625 0.34375 40.984375 -0.53125 
Q 36.96875 -1.421875 32.421875 -1.421875 
Q 20.0625 -1.421875 12.78125 6.34375 
Q 5.515625 14.109375 5.515625 27.296875 
Q 5.515625 40.671875 12.859375 48.328125 
Q 20.21875 56 33.015625 56 
Q 37.15625 56 41.109375 55.140625 
Q 45.0625 54.296875 48.78125 52.59375 
z
" id="DejaVuSans-99"/>
    <path d="M 18.3125 70.21875 
L 18.3125 54.6875 
L 36.8125 54.6875 
L 36.8125 47.703125 
L 18.3125 47.703125 
L 18.3125 18.015625 
Q 18.3125 11.328125 20.140625 9.421875 
Q 21.96875 7.515625 27.59375 7.515625 
L 36.8125 7.515625 
L 36.8125 0 
L 27.59375 0 
Q 17.1875 0 13.234375 3.875 
Q 9.28125 7.765625 9.28125 18.015625 
L 9.28125 47.703125 
L 2.6875 47.703125 
L 2.6875 54.6875 
L 9.28125 54.6875 
L 9.28125 70.21875 
z
" id="DejaVuSans-116"/>
    <path d="M 30.609375 48.390625 
Q 23.390625 48.390625 19.1875 42.75 
Q 14.984375 37.109375 14.984375 27.296875 
Q 14.984375 17.484375 19.15625 11.84375 
Q 23.34375 6.203125 30.609375 6.203125 
Q 37.796875 6.203125 41.984375 11.859375 
Q 46.1875 17.53125 46.1875 27.296875 
Q 46.1875 37.015625 41.984375 42.703125 
Q 37.796875 48.390625 30.609375 48.390625 
z
M 30.609375 56 
Q 42.328125 56 49.015625 48.375 
Q 55.71875 40.765625 55.71875 27.296875 
Q 55.71875 13.875 49.015625 6.21875 
Q 42.328125 -1.421875 30.609375 -1.421875 
Q 18.84375 -1.421875 12.171875 6.21875 
Q 5.515625 13.875 5.515625 27.296875 
Q 5.515625 40.765625 12.171875 48.375 
Q 18.84375 56 30.609375 56 
z
" id="DejaVuSans-111"/>
    <path d="M 32.171875 -5.078125 
Q 28.375 -14.84375 24.75 -17.8125 
Q 21.140625 -20.796875 15.09375 -20.796875 
L 7.90625 -20.796875 
L 7.90625 -13.28125 
L 13.1875 -13.28125 
Q 16.890625 -13.28125 18.9375 -11.515625 
Q 21 -9.765625 23.484375 -3.21875 
L 25.09375 0.875 
L 2.984375 54.6875 
L 12.5 54.6875 
L 29.59375 11.921875 
L 46.6875 54.6875 
L 56.203125 54.6875 
z
" id="DejaVuSans-121"/>
    <path d="M 37.109375 75.984375 
L 37.109375 68.5 
L 28.515625 68.5 
Q 23.6875 68.5 21.796875 66.546875 
Q 19.921875 64.59375 19.921875 59.515625 
L 19.921875 54.6875 
L 34.71875 54.6875 
L 34.71875 47.703125 
L 19.921875 47.703125 
L 19.921875 0 
L 10.890625 0 
L 10.890625 47.703125 
L 2.296875 47.703125 
L 2.296875 54.6875 
L 10.890625 54.6875 
L 10.890625 58.5 
Q 10.890625 67.625 15.140625 71.796875 
Q 19.390625 75.984375 28.609375 75.984375 
z
" id="DejaVuSans-102"/>
    <path d="M 54.890625 33.015625 
L 54.890625 0 
L 45.90625 0 
L 45.90625 32.71875 
Q 45.90625 40.484375 42.875 44.328125 
Q 39.84375 48.1875 33.796875 48.1875 
Q 26.515625 48.1875 22.3125 43.546875 
Q 18.109375 38.921875 18.109375 30.90625 
L 18.109375 0 
L 9.078125 0 
L 9.078125 75.984375 
L 18.109375 75.984375 
L 18.109375 46.1875 
Q 21.34375 51.125 25.703125 53.5625 
Q 30.078125 56 35.796875 56 
Q 45.21875 56 50.046875 50.171875 
Q 54.890625 44.34375 54.890625 33.015625 
z
" id="DejaVuSans-104"/>
    <path d="M 54.890625 33.015625 
L 54.890625 0 
L 45.90625 0 
L 45.90625 32.71875 
Q 45.90625 40.484375 42.875 44.328125 
Q 39.84375 48.1875 33.796875 48.1875 
Q 26.515625 48.1875 22.3125 43.546875 
Q 18.109375 38.921875 18.109375 30.90625 
L 18.109375 0 
L 9.078125 0 
L 9.078125 54.6875 
L 18.109375 54.6875 
L 18.109375 46.1875 
Q 21.34375 51.125 25.703125 53.5625 
Q 30.078125 56 35.796875 56 
Q 45.21875 56 50.046875 50.171875 
Q 54.890625 44.34375 54.890625 33.015625 
z
" id="DejaVuSans-110"/>
    <path d="M 45.40625 46.390625 
L 45.40625 75.984375 
L 54.390625 75.984375 
L 54.390625 0 
L 45.40625 0 
L 45.40625 8.203125 
Q 42.578125 3.328125 38.25 0.953125 
Q 33.9375 -1.421875 27.875 -1.421875 
Q 17.96875 -1.421875 11.734375 6.484375 
Q 5.515625 14.40625 5.515625 27.296875 
Q 5.515625 40.1875 11.734375 48.09375 
Q 17.96875 56 27.875 56 
Q 33.9375 56 38.25 53.625 
Q 42.578125 51.265625 45.40625 46.390625 
z
M 14.796875 27.296875 
Q 14.796875 17.390625 18.875 11.75 
Q 22.953125 6.109375 30.078125 6.109375 
Q 37.203125 6.109375 41.296875 11.75 
Q 45.40625 17.390625 45.40625 27.296875 
Q 45.40625 37.203125 41.296875 42.84375 
Q 37.203125 48.484375 30.078125 48.484375 
Q 22.953125 48.484375 18.875 42.84375 
Q 14.796875 37.203125 14.796875 27.296875 
z
" id="DejaVuSans-100"/>
    <path d="M 9.421875 75.984375 
L 18.40625 75.984375 
L 18.40625 0 
L 9.421875 0 
z
" id="DejaVuSans-108"/>
   </defs>
   <g transform="translate(126.714375 16.030125)scale(0.12 -0.12)">
    <use xlink:href="#DejaVuSans-84"/>
    <use x="46.333984" xlink:href="#DejaVuSans-114"/>
    <use x="87.447266" xlink:href="#DejaVuSans-97"/>
    <use x="148.726562" xlink:href="#DejaVuSans-106"/>
    <use x="176.509766" xlink:href="#DejaVuSans-101"/>
    <use x="238.033203" xlink:href="#DejaVuSans-99"/>
    <use x="293.013672" xlink:href="#DejaVuSans-116"/>
    <use x="332.222656" xlink:href="#DejaVuSans-111"/>
    <use x="393.404297" xlink:href="#DejaVuSans-114"/>
    <use x="434.517578" xlink:href="#DejaVuSans-121"/>
    <use x="493.697266" xlink:href="#DejaVuSans-32"/>
    <use x="525.484375" xlink:href="#DejaVuSans-111"/>
    <use x="586.666016" xlink:href="#DejaVuSans-102"/>
    <use x="621.871094" xlink:href="#DejaVuSans-32"/>
    <use x="653.658203" xlink:href="#DejaVuSans-116"/>
    <use x="692.867188" xlink:href="#DejaVuSans-104"/>
    <use x="756.246094" xlink:href="#DejaVuSans-101"/>
    <use x="817.769531" xlink:href="#DejaVuSans-32"/>
    <use x="849.556641" xlink:href="#DejaVuSans-99"/>
    <use x="904.537109" xlink:href="#DejaVuSans-101"/>
    <use x="966.060547" xlink:href="#DejaVuSans-110"/>
    <use x="1029.439453" xlink:href="#DejaVuSans-116"/>
    <use x="1068.648438" xlink:href="#DejaVuSans-114"/>
    <use x="1107.511719" xlink:href="#DejaVuSans-101"/>
    <use x="1169.035156" xlink:href="#DejaVuSans-32"/>
    <use x="1200.822266" xlink:href="#DejaVuSans-111"/>
    <use x="1262.003906" xlink:href="#DejaVuSans-102"/>
    <use x="1297.208984" xlink:href="#DejaVuSans-32"/>
    <use x="1328.996094" xlink:href="#DejaVuSans-50"/>
    <use x="1392.619141" xlink:href="#DejaVuSans-110"/>
    <use x="1455.998047" xlink:href="#DejaVuSans-100"/>
    <use x="1519.474609" xlink:href="#DejaVuSans-32"/>
    <use x="1551.261719" xlink:href="#DejaVuSans-108"/>
    <use x="1579.044922" xlink:href="#DejaVuSans-105"/>
    <use x="1606.828125" xlink:href="#DejaVuSans-110"/>
    <use x="1670.207031" xlink:href="#DejaVuSans-107"/>
   </g>
  </g>
 </g>
 <defs>
  <clipPath id="p6e5879ef10">
   <rect height="120.96" width="194.242814" x="139.038593" y="41.472"/>
  </clipPath>
  <clipPath id="p375f003e0a">
   <rect height="120.96" width="276.766266" x="97.776867" y="186.624"/>
  </clipPath>
 </defs>
</svg>
