<?xml version="1.0" encoding="utf-8" standalone="no"?>
<!DOCTYPE svg PUBLIC "-//W3C//DTD SVG 1.1//EN"
  "http://www.w3.org/Graphics/SVG/1.1/DTD/svg11.dtd">
<!-- Created with matplotlib (https://matplotlib.org/) -->
<svg height="345.6pt" version="1.1" viewBox="0 0 460.8 345.6" width="460.8pt" xmlns="http://www.w3.org/2000/svg" xmlns:xlink="http://www.w3.org/1999/xlink">
 <defs>
  <style type="text/css">
*{stroke-linecap:butt;stroke-linejoin:round;}
  </style>
 </defs>
 <g id="figure_1">
  <g id="patch_1">
   <path d="M 0 345.6 
L 460.8 345.6 
L 460.8 0 
L 0 0 
z
" style="fill:#ffffff;"/>
  </g>
  <g id="axes_1">
   <g id="patch_2">
    <path d="M 110.938834 307.584 
L 361.381166 307.584 
L 361.381166 41.472 
L 110.938834 41.472 
z
" style="fill:#ffffff;"/>
   </g>
   <g id="matplotlib.axis_1">
    <g id="xtick_1">
     <g id="line2d_1">
      <defs>
       <path d="M 0 0 
L 0 3.5 
" id="mcd8740d289" style="stroke:#000000;stroke-width:0.8;"/>
      </defs>
      <g>
       <use style="stroke:#000000;stroke-width:0.8;" x="130.640547" xlink:href="#mcd8740d289" y="307.584"/>
      </g>
     </g>
     <g id="text_1">
      <!-- −1.0 -->
      <defs>
       <path d="M 10.59375 35.5 
L 73.1875 35.5 
L 73.1875 27.203125 
L 10.59375 27.203125 
z
" id="DejaVuSans-8722"/>
       <path d="M 12.40625 8.296875 
L 28.515625 8.296875 
L 28.515625 63.921875 
L 10.984375 60.40625 
L 10.984375 69.390625 
L 28.421875 72.90625 
L 38.28125 72.90625 
L 38.28125 8.296875 
L 54.390625 8.296875 
L 54.390625 0 
L 12.40625 0 
z
" id="DejaVuSans-49"/>
       <path d="M 10.6875 12.40625 
L 21 12.40625 
L 21 0 
L 10.6875 0 
z
" id="DejaVuSans-46"/>
       <path d="M 31.78125 66.40625 
Q 24.171875 66.40625 20.328125 58.90625 
Q 16.5 51.421875 16.5 36.375 
Q 16.5 21.390625 20.328125 13.890625 
Q 24.171875 6.390625 31.78125 6.390625 
Q 39.453125 6.390625 43.28125 13.890625 
Q 47.125 21.390625 47.125 36.375 
Q 47.125 51.421875 43.28125 58.90625 
Q 39.453125 66.40625 31.78125 66.40625 
z
M 31.78125 74.21875 
Q 44.046875 74.21875 50.515625 64.515625 
Q 56.984375 54.828125 56.984375 36.375 
Q 56.984375 17.96875 50.515625 8.265625 
Q 44.046875 -1.421875 31.78125 -1.421875 
Q 19.53125 -1.421875 13.0625 8.265625 
Q 6.59375 17.96875 6.59375 36.375 
Q 6.59375 54.828125 13.0625 64.515625 
Q 19.53125 74.21875 31.78125 74.21875 
z
" id="DejaVuSans-48"/>
      </defs>
      <g transform="translate(118.499141 322.182437)scale(0.1 -0.1)">
       <use xlink:href="#DejaVuSans-8722"/>
       <use x="83.789062" xlink:href="#DejaVuSans-49"/>
       <use x="147.412109" xlink:href="#DejaVuSans-46"/>
       <use x="179.199219" xlink:href="#DejaVuSans-48"/>
      </g>
     </g>
    </g>
    <g id="xtick_2">
     <g id="line2d_2">
      <g>
       <use style="stroke:#000000;stroke-width:0.8;" x="175.169835" xlink:href="#mcd8740d289" y="307.584"/>
      </g>
     </g>
     <g id="text_2">
      <!-- −0.5 -->
      <defs>
       <path d="M 10.796875 72.90625 
L 49.515625 72.90625 
L 49.515625 64.59375 
L 19.828125 64.59375 
L 19.828125 46.734375 
Q 21.96875 47.46875 24.109375 47.828125 
Q 26.265625 48.1875 28.421875 48.1875 
Q 40.625 48.1875 47.75 41.5 
Q 54.890625 34.8125 54.890625 23.390625 
Q 54.890625 11.625 47.5625 5.09375 
Q 40.234375 -1.421875 26.90625 -1.421875 
Q 22.3125 -1.421875 17.546875 -0.640625 
Q 12.796875 0.140625 7.71875 1.703125 
L 7.71875 11.625 
Q 12.109375 9.234375 16.796875 8.0625 
Q 21.484375 6.890625 26.703125 6.890625 
Q 35.15625 6.890625 40.078125 11.328125 
Q 45.015625 15.765625 45.015625 23.390625 
Q 45.015625 31 40.078125 35.4375 
Q 35.15625 39.890625 26.703125 39.890625 
Q 22.75 39.890625 18.8125 39.015625 
Q 14.890625 38.140625 10.796875 36.28125 
z
" id="DejaVuSans-53"/>
      </defs>
      <g transform="translate(163.028429 322.182437)scale(0.1 -0.1)">
       <use xlink:href="#DejaVuSans-8722"/>
       <use x="83.789062" xlink:href="#DejaVuSans-48"/>
       <use x="147.412109" xlink:href="#DejaVuSans-46"/>
       <use x="179.199219" xlink:href="#DejaVuSans-53"/>
      </g>
     </g>
    </g>
    <g id="xtick_3">
     <g id="line2d_3">
      <g>
       <use style="stroke:#000000;stroke-width:0.8;" x="219.699123" xlink:href="#mcd8740d289" y="307.584"/>
      </g>
     </g>
     <g id="text_3">
      <!-- 0.0 -->
      <g transform="translate(211.74756 322.182437)scale(0.1 -0.1)">
       <use xlink:href="#DejaVuSans-48"/>
       <use x="63.623047" xlink:href="#DejaVuSans-46"/>
       <use x="95.410156" xlink:href="#DejaVuSans-48"/>
      </g>
     </g>
    </g>
    <g id="xtick_4">
     <g id="line2d_4">
      <g>
       <use style="stroke:#000000;stroke-width:0.8;" x="264.228411" xlink:href="#mcd8740d289" y="307.584"/>
      </g>
     </g>
     <g id="text_4">
      <!-- 0.5 -->
      <g transform="translate(256.276849 322.182437)scale(0.1 -0.1)">
       <use xlink:href="#DejaVuSans-48"/>
       <use x="63.623047" xlink:href="#DejaVuSans-46"/>
       <use x="95.410156" xlink:href="#DejaVuSans-53"/>
      </g>
     </g>
    </g>
    <g id="xtick_5">
     <g id="line2d_5">
      <g>
       <use style="stroke:#000000;stroke-width:0.8;" x="308.757699" xlink:href="#mcd8740d289" y="307.584"/>
      </g>
     </g>
     <g id="text_5">
      <!-- 1.0 -->
      <g transform="translate(300.806137 322.182437)scale(0.1 -0.1)">
       <use xlink:href="#DejaVuSans-49"/>
       <use x="63.623047" xlink:href="#DejaVuSans-46"/>
       <use x="95.410156" xlink:href="#DejaVuSans-48"/>
      </g>
     </g>
    </g>
    <g id="xtick_6">
     <g id="line2d_6">
      <g>
       <use style="stroke:#000000;stroke-width:0.8;" x="353.286987" xlink:href="#mcd8740d289" y="307.584"/>
      </g>
     </g>
     <g id="text_6">
      <!-- 1.5 -->
      <g transform="translate(345.335425 322.182437)scale(0.1 -0.1)">
       <use xlink:href="#DejaVuSans-49"/>
       <use x="63.623047" xlink:href="#DejaVuSans-46"/>
       <use x="95.410156" xlink:href="#DejaVuSans-53"/>
      </g>
     </g>
    </g>
    <g id="text_7">
     <!-- X-axis -->
     <defs>
      <path d="M 6.296875 72.90625 
L 16.890625 72.90625 
L 35.015625 45.796875 
L 53.21875 72.90625 
L 63.8125 72.90625 
L 40.375 37.890625 
L 65.375 0 
L 54.78125 0 
L 34.28125 31 
L 13.625 0 
L 2.984375 0 
L 29 38.921875 
z
" id="DejaVuSans-88"/>
      <path d="M 4.890625 31.390625 
L 31.203125 31.390625 
L 31.203125 23.390625 
L 4.890625 23.390625 
z
" id="DejaVuSans-45"/>
      <path d="M 34.28125 27.484375 
Q 23.390625 27.484375 19.1875 25 
Q 14.984375 22.515625 14.984375 16.5 
Q 14.984375 11.71875 18.140625 8.90625 
Q 21.296875 6.109375 26.703125 6.109375 
Q 34.1875 6.109375 38.703125 11.40625 
Q 43.21875 16.703125 43.21875 25.484375 
L 43.21875 27.484375 
z
M 52.203125 31.203125 
L 52.203125 0 
L 43.21875 0 
L 43.21875 8.296875 
Q 40.140625 3.328125 35.546875 0.953125 
Q 30.953125 -1.421875 24.3125 -1.421875 
Q 15.921875 -1.421875 10.953125 3.296875 
Q 6 8.015625 6 15.921875 
Q 6 25.140625 12.171875 29.828125 
Q 18.359375 34.515625 30.609375 34.515625 
L 43.21875 34.515625 
L 43.21875 35.40625 
Q 43.21875 41.609375 39.140625 45 
Q 35.0625 48.390625 27.6875 48.390625 
Q 23 48.390625 18.546875 47.265625 
Q 14.109375 46.140625 10.015625 43.890625 
L 10.015625 52.203125 
Q 14.9375 54.109375 19.578125 55.046875 
Q 24.21875 56 28.609375 56 
Q 40.484375 56 46.34375 49.84375 
Q 52.203125 43.703125 52.203125 31.203125 
z
" id="DejaVuSans-97"/>
      <path d="M 54.890625 54.6875 
L 35.109375 28.078125 
L 55.90625 0 
L 45.3125 0 
L 29.390625 21.484375 
L 13.484375 0 
L 2.875 0 
L 24.125 28.609375 
L 4.6875 54.6875 
L 15.28125 54.6875 
L 29.78125 35.203125 
L 44.28125 54.6875 
z
" id="DejaVuSans-120"/>
      <path d="M 9.421875 54.6875 
L 18.40625 54.6875 
L 18.40625 0 
L 9.421875 0 
z
M 9.421875 75.984375 
L 18.40625 75.984375 
L 18.40625 64.59375 
L 9.421875 64.59375 
z
" id="DejaVuSans-105"/>
      <path d="M 44.28125 53.078125 
L 44.28125 44.578125 
Q 40.484375 46.53125 36.375 47.5 
Q 32.28125 48.484375 27.875 48.484375 
Q 21.1875 48.484375 17.84375 46.4375 
Q 14.5 44.390625 14.5 40.28125 
Q 14.5 37.15625 16.890625 35.375 
Q 19.28125 33.59375 26.515625 31.984375 
L 29.59375 31.296875 
Q 39.15625 29.25 43.1875 25.515625 
Q 47.21875 21.78125 47.21875 15.09375 
Q 47.21875 7.46875 41.1875 3.015625 
Q 35.15625 -1.421875 24.609375 -1.421875 
Q 20.21875 -1.421875 15.453125 -0.5625 
Q 10.6875 0.296875 5.421875 2 
L 5.421875 11.28125 
Q 10.40625 8.6875 15.234375 7.390625 
Q 20.0625 6.109375 24.8125 6.109375 
Q 31.15625 6.109375 34.5625 8.28125 
Q 37.984375 10.453125 37.984375 14.40625 
Q 37.984375 18.0625 35.515625 20.015625 
Q 33.0625 21.96875 24.703125 23.78125 
L 21.578125 24.515625 
Q 13.234375 26.265625 9.515625 29.90625 
Q 5.8125 33.546875 5.8125 39.890625 
Q 5.8125 47.609375 11.28125 51.796875 
Q 16.75 56 26.8125 56 
Q 31.78125 56 36.171875 55.265625 
Q 40.578125 54.546875 44.28125 53.078125 
z
" id="DejaVuSans-115"/>
     </defs>
     <g transform="translate(221.163906 335.860562)scale(0.1 -0.1)">
      <use xlink:href="#DejaVuSans-88"/>
      <use x="63.505859" xlink:href="#DejaVuSans-45"/>
      <use x="99.589844" xlink:href="#DejaVuSans-97"/>
      <use x="160.869141" xlink:href="#DejaVuSans-120"/>
      <use x="220.048828" xlink:href="#DejaVuSans-105"/>
      <use x="247.832031" xlink:href="#DejaVuSans-115"/>
     </g>
    </g>
   </g>
   <g id="matplotlib.axis_2">
    <g id="ytick_1">
     <g id="line2d_7">
      <defs>
       <path d="M 0 0 
L -3.5 0 
" id="mf08b9d2304" style="stroke:#000000;stroke-width:0.8;"/>
      </defs>
      <g>
       <use style="stroke:#000000;stroke-width:0.8;" x="110.938834" xlink:href="#mf08b9d2304" y="276.212214"/>
      </g>
     </g>
     <g id="text_8">
      <!-- −1.0 -->
      <g transform="translate(79.656022 280.011433)scale(0.1 -0.1)">
       <use xlink:href="#DejaVuSans-8722"/>
       <use x="83.789062" xlink:href="#DejaVuSans-49"/>
       <use x="147.412109" xlink:href="#DejaVuSans-46"/>
       <use x="179.199219" xlink:href="#DejaVuSans-48"/>
      </g>
     </g>
    </g>
    <g id="ytick_2">
     <g id="line2d_8">
      <g>
       <use style="stroke:#000000;stroke-width:0.8;" x="110.938834" xlink:href="#mf08b9d2304" y="231.682926"/>
      </g>
     </g>
     <g id="text_9">
      <!-- −0.5 -->
      <g transform="translate(79.656022 235.482145)scale(0.1 -0.1)">
       <use xlink:href="#DejaVuSans-8722"/>
       <use x="83.789062" xlink:href="#DejaVuSans-48"/>
       <use x="147.412109" xlink:href="#DejaVuSans-46"/>
       <use x="179.199219" xlink:href="#DejaVuSans-53"/>
      </g>
     </g>
    </g>
    <g id="ytick_3">
     <g id="line2d_9">
      <g>
       <use style="stroke:#000000;stroke-width:0.8;" x="110.938834" xlink:href="#mf08b9d2304" y="187.153638"/>
      </g>
     </g>
     <g id="text_10">
      <!-- 0.0 -->
      <g transform="translate(88.035709 190.952856)scale(0.1 -0.1)">
       <use xlink:href="#DejaVuSans-48"/>
       <use x="63.623047" xlink:href="#DejaVuSans-46"/>
       <use x="95.410156" xlink:href="#DejaVuSans-48"/>
      </g>
     </g>
    </g>
    <g id="ytick_4">
     <g id="line2d_10">
      <g>
       <use style="stroke:#000000;stroke-width:0.8;" x="110.938834" xlink:href="#mf08b9d2304" y="142.62435"/>
      </g>
     </g>
     <g id="text_11">
      <!-- 0.5 -->
      <g transform="translate(88.035709 146.423568)scale(0.1 -0.1)">
       <use xlink:href="#DejaVuSans-48"/>
       <use x="63.623047" xlink:href="#DejaVuSans-46"/>
       <use x="95.410156" xlink:href="#DejaVuSans-53"/>
      </g>
     </g>
    </g>
    <g id="ytick_5">
     <g id="line2d_11">
      <g>
       <use style="stroke:#000000;stroke-width:0.8;" x="110.938834" xlink:href="#mf08b9d2304" y="98.095062"/>
      </g>
     </g>
     <g id="text_12">
      <!-- 1.0 -->
      <g transform="translate(88.035709 101.89428)scale(0.1 -0.1)">
       <use xlink:href="#DejaVuSans-49"/>
       <use x="63.623047" xlink:href="#DejaVuSans-46"/>
       <use x="95.410156" xlink:href="#DejaVuSans-48"/>
      </g>
     </g>
    </g>
    <g id="ytick_6">
     <g id="line2d_12">
      <g>
       <use style="stroke:#000000;stroke-width:0.8;" x="110.938834" xlink:href="#mf08b9d2304" y="53.565774"/>
      </g>
     </g>
     <g id="text_13">
      <!-- 1.5 -->
      <g transform="translate(88.035709 57.364992)scale(0.1 -0.1)">
       <use xlink:href="#DejaVuSans-49"/>
       <use x="63.623047" xlink:href="#DejaVuSans-46"/>
       <use x="95.410156" xlink:href="#DejaVuSans-53"/>
      </g>
     </g>
    </g>
    <g id="text_14">
     <!-- Y-axis -->
     <defs>
      <path d="M -0.203125 72.90625 
L 10.40625 72.90625 
L 30.609375 42.921875 
L 50.6875 72.90625 
L 61.28125 72.90625 
L 35.5 34.71875 
L 35.5 0 
L 25.59375 0 
L 25.59375 34.71875 
z
" id="DejaVuSans-89"/>
     </defs>
     <g transform="translate(73.576334 188.80925)rotate(-90)scale(0.1 -0.1)">
      <use xlink:href="#DejaVuSans-89"/>
      <use x="49.208984" xlink:href="#DejaVuSans-45"/>
      <use x="85.292969" xlink:href="#DejaVuSans-97"/>
      <use x="146.572266" xlink:href="#DejaVuSans-120"/>
      <use x="205.751953" xlink:href="#DejaVuSans-105"/>
      <use x="233.535156" xlink:href="#DejaVuSans-115"/>
     </g>
    </g>
   </g>
   <g id="line2d_13">
    <path clip-path="url(#p38416bccb7)" d="M 219.253837 53.568 
L 219.364758 53.59691 
L 220.061543 53.901738 
L 220.883189 54.513115 
L 221.813099 55.494279 
L 222.857158 56.933451 
L 224.026578 58.940639 
L 225.336345 61.649222 
L 226.808038 65.224787 
L 228.475155 69.883749 
L 230.398378 75.947584 
L 232.709821 84.009823 
L 235.858685 95.873653 
L 242.947302 122.802631 
L 245.699293 132.226094 
L 248.200201 140.013402 
L 250.634663 146.877112 
L 253.111864 153.201292 
L 255.729621 159.274762 
L 258.607971 165.386104 
L 261.948712 171.945389 
L 266.246554 179.86707 
L 281.967082 208.411701 
L 285.97671 216.403659 
L 289.501896 223.921528 
L 292.643838 231.14167 
L 295.434949 238.10834 
L 297.878038 244.798105 
L 299.971253 251.170501 
L 301.70678 257.156048 
L 303.086975 262.701309 
L 304.119026 267.750581 
L 304.821613 272.273353 
L 305.222114 276.265979 
L 305.352385 279.737338 
L 305.247447 282.718632 
L 304.941579 285.252145 
L 304.465247 287.388943 
L 303.844304 289.177774 
L 303.095981 290.670469 
L 302.229655 291.911022 
L 301.244775 292.936906 
L 300.133402 293.774535 
L 298.875261 294.442782 
L 297.444417 294.947633 
L 295.808192 295.285034 
L 293.924454 295.441782 
L 291.742242 295.394777 
L 289.20762 295.11179 
L 286.260856 294.552989 
L 282.832385 293.670251 
L 278.853645 292.409919 
L 274.258697 290.715054 
L 268.996079 288.531148 
L 263.062077 285.823014 
L 256.523186 282.59068 
L 249.567971 278.902644 
L 242.465678 274.884762 
L 235.517071 270.699863 
L 228.935059 266.478806 
L 222.825191 262.299277 
L 217.219999 258.19854 
L 212.107968 254.186398 
L 207.447561 250.249168 
L 203.202235 246.374282 
L 199.340384 242.551149 
L 195.827584 238.76324 
L 192.642763 235.004851 
L 189.759019 231.26036 
L 187.161942 227.525996 
L 184.838075 223.797338 
L 182.777816 220.074021 
L 180.970058 216.350529 
L 179.407695 212.625637 
L 178.08643 208.902747 
L 177.002204 205.185221 
L 176.15135 201.476394 
L 175.530709 197.779626 
L 175.138079 194.10311 
L 174.970603 190.445633 
L 175.026628 186.820284 
L 175.303927 183.230801 
L 175.800239 179.685653 
L 176.513957 176.189001 
L 177.441619 172.753751 
L 178.581447 169.384229 
L 179.930568 166.089115 
L 181.485791 162.877023 
L 183.243625 159.756478 
L 185.200306 156.735892 
L 187.351826 153.823547 
L 189.693963 151.02758 
L 192.222322 148.355973 
L 194.929494 145.819096 
L 197.810529 143.424031 
L 200.86052 141.17772 
L 204.074655 139.087014 
L 207.445004 137.160456 
L 210.963557 135.405813 
L 214.622371 133.830168 
L 218.413686 132.440026 
L 222.32655 131.242408 
L 226.353739 130.242489 
L 230.488461 129.445286 
L 234.717264 128.856594 
L 239.034142 128.480424 
L 243.42638 128.321113 
L 247.885183 128.382071 
L 252.402091 128.66646 
L 256.965326 129.176778 
L 261.566896 129.915374 
L 266.19892 130.884509 
L 270.846417 132.084352 
L 275.505069 133.517147 
L 280.159762 135.181669 
L 284.802293 137.078221 
L 289.42413 139.206925 
L 294.009409 141.563951 
L 298.5454 144.14586 
L 303.018908 146.948216 
L 307.412852 149.96316 
L 311.70969 153.181066 
L 315.891348 156.590513 
L 319.932847 160.172444 
L 323.809104 163.904573 
L 327.49503 167.761377 
L 330.959918 171.707256 
L 334.179876 175.70921 
L 337.129322 179.727288 
L 339.784872 183.717744 
L 342.128825 187.637216 
L 344.15399 191.452025 
L 345.856717 195.12755 
L 347.244937 198.646134 
L 348.330607 201.996046 
L 349.129247 205.172088 
L 349.660324 208.185341 
L 349.941071 211.045258 
L 349.987545 213.773182 
L 349.811185 216.392728 
L 349.418895 218.924482 
L 348.810408 221.399168 
L 347.982411 223.833998 
L 346.921584 226.25943 
L 345.6113 228.695901 
L 344.027154 231.166832 
L 342.142052 233.689646 
L 339.924918 236.280032 
L 337.341115 238.951738 
L 334.356922 241.712677 
L 330.945485 244.561752 
L 327.079941 247.496393 
L 322.752426 250.498993 
L 317.972797 253.541903 
L 312.760364 256.594542 
L 307.154775 259.617931 
L 301.206828 262.571923 
L 294.973011 265.418779 
L 288.497993 268.130878 
L 281.812925 270.689443 
L 274.94013 273.081434 
L 267.869565 275.306211 
L 260.576022 277.367114 
L 252.997144 279.276244 
L 245.013088 281.055971 
L 236.412802 282.741866 
L 226.751223 284.403508 
L 214.792674 286.222414 
L 151.62997 295.248908 
L 147.778305 295.477694 
L 145.010984 295.429725 
L 142.920492 295.180176 
L 141.283351 294.768208 
L 139.964769 294.212806 
L 138.872514 293.514916 
L 137.943337 292.657449 
L 137.138012 291.608566 
L 136.429818 290.313699 
L 135.806071 288.69655 
L 135.264198 286.651046 
L 134.812243 284.041045 
L 134.465956 280.681107 
L 134.251522 276.333973 
L 134.206719 270.716045 
L 134.380668 263.534351 
L 134.825676 254.634061 
L 135.571596 244.245051 
L 136.589404 233.170214 
L 137.791766 222.477101 
L 139.093899 212.842792 
L 140.458053 204.373638 
L 141.884962 196.886867 
L 143.388336 190.168265 
L 144.983325 184.045627 
L 146.683389 178.392413 
L 148.499704 173.118181 
L 150.439046 168.164189 
L 152.509919 163.480379 
L 154.714845 159.040259 
L 157.057823 154.819908 
L 159.539218 150.806686 
L 162.158296 146.992129 
L 164.915022 143.368828 
L 167.805874 139.935518 
L 170.827568 136.691171 
L 173.974847 133.637278 
L 177.245101 130.773146 
L 180.63131 128.102404 
L 184.126604 125.628136 
L 187.727055 123.351406 
L 191.423985 121.2764 
L 195.209034 119.406468 
L 199.077052 117.743151 
L 203.020776 116.288995 
L 207.033541 115.046119 
L 211.109338 114.016369 
L 215.239974 113.201956 
L 219.42076 112.604171 
L 223.647686 112.224488 
L 227.911575 112.064762 
L 232.209573 112.126338 
L 236.536413 112.410868 
L 240.887202 112.920086 
L 245.254378 113.655325 
L 249.633428 114.618254 
L 254.019832 115.810786 
L 258.405979 117.234048 
L 262.783957 118.888732 
L 267.148351 120.776352 
L 271.490262 122.896896 
L 275.803075 125.251214 
L 280.076539 127.837968 
L 284.299687 130.654614 
L 288.466619 133.701576 
L 292.564932 136.974315 
L 296.587306 140.471602 
L 300.520146 144.186219 
L 304.355009 148.114705 
L 308.080202 152.249792 
L 311.681099 156.579432 
L 315.148242 161.096295 
L 318.466766 165.784992 
L 321.621984 170.62798 
L 324.597136 175.601634 
L 327.376142 180.679672 
L 329.943683 185.833303 
L 332.28142 191.022388 
L 334.374906 196.20803 
L 336.209982 201.344032 
L 337.775568 206.381442 
L 339.06692 211.279075 
L 340.082587 215.994864 
L 340.826262 220.491577 
L 341.308263 224.753634 
L 341.540375 228.762245 
L 341.537578 232.516795 
L 341.314986 236.024746 
L 340.887209 239.296276 
L 340.264572 242.359602 
L 339.455246 245.234064 
L 338.462479 247.945161 
L 337.282181 250.523278 
L 335.909025 252.988229 
L 334.330575 255.363475 
L 332.528957 257.670437 
L 330.48501 259.923969 
L 328.171907 262.140657 
L 325.558508 264.333931 
L 322.61479 266.510531 
L 319.313749 268.671479 
L 315.62237 270.818764 
L 311.522685 272.943224 
L 306.997952 275.034722 
L 302.04418 277.07703 
L 296.671592 279.049262 
L 290.899712 280.929138 
L 284.763819 282.691931 
L 278.303189 284.315241 
L 271.554542 285.78052 
L 264.545343 287.073813 
L 257.293503 288.184855 
L 249.788857 289.108558 
L 242.006525 289.841197 
L 233.865978 290.382478 
L 225.236319 290.730948 
L 215.862324 290.883212 
L 205.214512 290.827594 
L 191.878187 290.523093 
L 169.101286 289.742008 
L 151.129604 288.96333 
L 143.773168 288.432875 
L 138.978362 287.875945 
L 135.511591 287.259438 
L 132.878287 286.57399 
L 130.811599 285.813527 
L 129.151236 284.971727 
L 127.785902 284.034234 
L 126.644449 282.982683 
L 125.675548 281.787253 
L 124.845922 280.40695 
L 124.135553 278.785279 
L 123.53802 276.853548 
L 123.055581 274.519815 
L 122.700762 271.668438 
L 122.496705 268.166187 
L 122.475727 263.852063 
L 122.679764 258.563975 
L 123.154892 252.184443 
L 123.939637 244.708049 
L 125.046307 236.323681 
L 126.445126 227.430985 
L 128.073127 218.505029 
L 129.859885 209.934753 
L 131.753281 201.928094 
L 133.726627 194.536536 
L 135.77198 187.726394 
L 137.892285 181.43107 
L 140.093996 175.583732 
L 142.38507 170.124382 
L 144.77383 165.002435 
L 147.265648 160.181937 
L 149.865436 155.633712 
L 151.335029 153.252146 
L 151.335029 153.252146 
" style="fill:none;stroke:#0000ff;stroke-linecap:square;stroke-width:1.5;"/>
   </g>
   <g id="line2d_14">
    <path clip-path="url(#p38416bccb7)" d="M 219.253837 53.568 
L 219.364367 53.596804 
L 220.06019 53.900944 
L 220.879211 54.509559 
L 221.811399 55.49222 
L 222.857602 56.934136 
L 224.032029 58.950928 
L 225.336345 61.649222 
L 226.811328 65.233371 
L 228.478843 69.894709 
L 230.402928 75.962699 
L 232.709314 84.007981 
L 235.854617 95.857945 
L 242.898452 122.62792 
L 245.651205 132.068927 
L 248.168903 139.920636 
L 250.579588 146.729275 
L 253.044345 153.036894 
L 255.664941 159.131207 
L 258.500508 165.16669 
L 261.808172 171.678222 
L 266.015989 179.451402 
L 282.209088 208.880262 
L 286.229744 216.92621 
L 289.702223 224.365676 
L 292.82466 231.575423 
L 295.586355 238.504747 
L 297.98393 245.104076 
L 300.019266 251.325938 
L 301.766744 257.379073 
L 303.147925 262.971212 
L 304.174399 268.060463 
L 304.864108 272.61008 
L 305.243854 276.591025 
L 305.352208 279.985637 
L 305.222889 283.020117 
L 304.905401 285.459233 
L 304.422598 287.537338 
L 303.8085 289.262085 
L 303.007006 290.817516 
L 302.12738 292.033601 
L 301.086659 293.073839 
L 299.88745 293.925415 
L 298.538546 294.582869 
L 297.053811 295.048584 
L 295.450196 295.331733 
L 293.526294 295.449481 
L 291.268075 295.358461 
L 288.670558 295.026381 
L 285.736193 294.432445 
L 282.218595 293.490689 
L 278.115237 292.153168 
L 273.433172 290.388063 
L 267.923137 288.059204 
L 261.86606 285.25002 
L 255.288332 281.954031 
L 248.221802 278.160588 
L 241.2223 274.154916 
L 234.318389 269.950791 
L 227.790018 265.716061 
L 221.897034 261.639262 
L 216.398657 257.572902 
L 211.305186 253.528865 
L 206.623632 249.520605 
L 202.35677 245.563927 
L 198.502361 241.677065 
L 195.052711 237.880212 
L 191.994649 234.194684 
L 189.148696 230.417318 
L 186.67877 226.784692 
L 184.424042 223.085018 
L 182.3956 219.327973 
L 180.602698 215.524799 
L 179.052515 211.688054 
L 177.824098 208.07267 
L 176.815647 204.451419 
L 176.027665 200.836293 
L 175.458962 197.239311 
L 175.106756 193.672296 
L 174.964905 189.91337 
L 175.057797 186.214676 
L 175.377257 182.588442 
L 175.913931 179.045834 
L 176.657541 175.596864 
L 177.597117 172.250342 
L 178.797346 168.815382 
L 180.191865 165.512242 
L 181.766553 162.347063 
L 183.507404 159.32459 
L 185.516536 156.283696 
L 187.680839 153.409334 
L 190.117101 150.557453 
L 192.692757 147.892889 
L 195.392162 145.414696 
L 198.351416 143.005288 
L 201.416232 140.797065 
L 204.732514 138.690672 
L 208.135017 136.796629 
L 211.610696 135.10939 
L 215.317819 133.557346 
L 219.080975 132.219292 
L 223.064138 131.04211 
L 227.087537 130.084457 
L 231.319534 129.311883 
L 235.577762 128.763818 
L 239.85517 128.433773 
L 244.324717 128.315565 
L 248.802706 128.421872 
L 253.284071 128.747731 
L 257.943472 129.315028 
L 262.597153 130.111377 
L 267.240904 131.133675 
L 271.870683 132.379538 
L 276.482485 133.847233 
L 281.072214 135.535613 
L 285.635558 137.444056 
L 290.167879 139.572413 
L 294.66408 141.920961 
L 299.118475 144.490365 
L 303.52462 147.281653 
L 307.875116 150.296192 
L 312.161352 153.535681 
L 316.373158 157.002147 
L 320.341453 160.551526 
L 324.216524 164.315309 
L 327.833889 168.132694 
L 331.332568 172.152608 
L 334.553211 176.19745 
L 337.488907 180.244643 
L 340.13213 184.271749 
L 342.474831 188.256251 
L 344.406957 191.96583 
L 346.046468 195.574428 
L 347.391895 199.059984 
L 348.445154 202.400339 
L 349.213205 205.573633 
L 349.709787 208.559026 
L 349.95673 211.337717 
L 349.976775 214.126533 
L 349.777925 216.680061 
L 349.35846 219.218739 
L 348.711319 221.730604 
L 347.835819 224.204504 
L 346.737739 226.631032 
L 345.428386 229.003155 
L 343.776963 231.523672 
L 341.914666 233.971448 
L 339.685805 236.540984 
L 337.070411 239.21488 
L 334.054575 241.977008 
L 330.629243 244.812426 
L 326.788896 247.706899 
L 322.530451 250.646194 
L 317.601659 253.767828 
L 312.236708 256.887724 
L 306.706947 259.849028 
L 300.764607 262.781964 
L 294.416121 265.661539 
L 287.954943 268.347635 
L 281.120274 270.941199 
L 274.218958 273.319053 
L 266.989214 275.56724 
L 259.747989 277.58685 
L 252.236158 279.455689 
L 244.20169 281.224673 
L 235.409718 282.924781 
L 225.651513 284.579993 
L 213.138356 286.460594 
L 168.236185 293.001464 
L 156.110759 294.758988 
L 150.78452 295.319169 
L 147.214537 295.486637 
L 144.646861 295.402718 
L 142.637538 295.125545 
L 141.115051 294.710575 
L 139.883411 294.169547 
L 138.801683 293.459547 
L 137.868834 292.574425 
L 137.078302 291.515324 
L 136.359807 290.159093 
L 135.735317 288.471749 
L 135.217583 286.431636 
L 134.763535 283.672582 
L 134.426299 280.123753 
L 134.232267 275.549976 
L 134.217821 269.724384 
L 134.431931 262.237772 
L 134.931654 252.950178 
L 135.721545 242.448961 
L 136.77993 231.333305 
L 138.009833 220.739387 
L 139.333231 211.248741 
L 140.706938 202.976661 
L 142.143105 195.65641 
L 143.661787 189.052469 
L 145.293198 182.954842 
L 147.024379 177.347871 
L 148.834394 172.217933 
L 150.765883 167.387007 
L 152.882114 162.694625 
L 155.103118 158.308205 
L 157.498159 154.076024 
L 159.969399 150.152493 
L 162.594284 146.394048 
L 165.365931 142.810083 
L 168.276043 139.408848 
L 171.315263 136.197312 
L 174.473533 133.181109 
L 177.740421 130.364536 
L 181.105407 127.750618 
L 184.558131 125.341204 
L 188.220723 123.059404 
L 191.95637 120.998263 
L 195.755253 119.156793 
L 199.608384 117.533328 
L 203.507657 116.125712 
L 207.587153 114.892725 
L 211.701419 113.885678 
L 215.844437 113.101613 
L 220.011108 112.537711 
L 224.197178 112.19142 
L 228.399139 112.06058 
L 232.759675 112.150176 
L 237.131579 112.467349 
L 241.512744 113.011629 
L 245.901375 113.783347 
L 250.295837 114.783665 
L 254.694496 116.014606 
L 259.095556 117.479042 
L 263.49689 119.180674 
L 267.895884 121.123978 
L 272.289269 123.314133 
L 276.527059 125.671354 
L 280.751293 128.270281 
L 284.956516 131.116843 
L 289.136236 134.21712 
L 293.282835 137.577184 
L 297.246755 141.073434 
L 301.162511 144.82241 
L 305.01986 148.828732 
L 308.673381 152.93952 
L 312.250398 157.296489 
L 315.738092 161.902077 
L 318.998822 166.573666 
L 322.149052 171.478197 
L 325.058736 176.413798 
L 327.834505 181.564029 
L 330.355225 186.708611 
L 332.619417 191.820665 
L 334.713377 197.107258 
L 336.532509 202.322719 
L 338.074316 207.439931 
L 339.278649 212.179771 
L 340.22487 216.7584 
L 340.915712 221.151814 
L 341.355972 225.33666 
L 341.553515 229.290586 
L 341.520503 232.992852 
L 341.274659 236.425233 
L 340.84024 239.573114 
L 340.184747 242.683938 
L 339.372705 245.486463 
L 338.345797 248.225622 
L 337.096083 250.885562 
L 335.621494 253.45192 
L 333.926426 255.913141 
L 332.021299 258.261395 
L 329.921193 260.492837 
L 327.428885 262.793723 
L 324.750464 264.958848 
L 321.66655 267.158244 
L 318.164391 269.367339 
L 314.237137 271.564185 
L 309.882741 273.729098 
L 305.102893 275.843935 
L 299.902245 277.891254 
L 294.288025 279.853535 
L 288.270018 281.712609 
L 281.860872 283.449372 
L 275.386141 284.976249 
L 268.559205 286.360639 
L 261.401065 287.582922 
L 253.937285 288.625394 
L 246.197868 289.474022 
L 238.216563 290.120497 
L 229.728554 290.576698 
L 220.786616 290.830041 
L 210.870128 290.883368 
L 199.242115 290.716069 
L 182.886497 290.23482 
L 155.527309 289.190355 
L 146.310886 288.646619 
L 140.757658 288.11256 
L 136.814926 287.520821 
L 133.926243 286.876888 
L 131.633186 286.146466 
L 129.8675 285.367151 
L 128.42625 284.508693 
L 127.16302 283.498563 
L 126.079612 282.328934 
L 125.171007 280.998847 
L 124.426174 279.514187 
L 123.782498 277.731796 
L 123.258848 275.631363 
L 122.843336 273.023383 
L 122.570563 269.877283 
L 122.460276 265.982921 
L 122.555224 261.121381 
L 122.897186 255.293738 
L 123.533365 248.325747 
L 124.496363 240.285023 
L 125.780828 231.478779 
L 127.331409 222.418086 
L 129.073726 213.569866 
L 130.91698 205.343295 
L 132.848349 197.717683 
L 134.85909 190.668542 
L 136.939601 184.171917 
L 139.076762 178.205635 
L 141.323722 172.581045 
L 143.67456 167.293375 
L 146.119705 162.338095 
L 148.646377 157.71016 
L 151.331344 153.25796 
L 151.515935 152.967663 
L 151.515935 152.967663 
" style="fill:none;stroke:#bf00bf;stroke-linecap:square;stroke-width:1.5;"/>
   </g>
   <g id="line2d_15">
    <path clip-path="url(#p38416bccb7)" d="M 219.253837 53.568 
L 219.35437 53.594111 
L 220.044234 53.891633 
L 220.821648 54.458722 
L 221.80291 55.481954 
L 222.769536 56.799534 
L 223.99125 58.87416 
L 225.161875 61.261694 
L 226.504299 64.443383 
L 228.014331 68.536006 
L 229.687896 73.629922 
L 232.010892 81.497479 
L 235.167686 93.214984 
L 243.267902 123.943243 
L 245.935873 132.995283 
L 247.954453 139.28185 
L 250.216274 145.74567 
L 252.770885 152.366732 
L 255.664926 159.131176 
L 258.92912 166.038269 
L 262.563228 173.106189 
L 268.61025 184.094132 
L 277.33869 199.715605 
L 281.768875 208.029108 
L 286.122574 216.70459 
L 290.318365 225.744592 
L 294.274737 235.137986 
L 296.13493 239.959432 
L 297.898551 244.857252 
L 299.54907 249.823922 
L 301.066105 254.848988 
L 302.423681 259.917633 
L 303.587611 265.008287 
L 304.511487 270.088539 
L 305.130488 275.107966 
L 305.352194 279.985523 
L 305.045095 284.588437 
L 304.033302 288.704196 
L 302.127568 292.033316 
L 299.231391 294.278281 
L 295.450964 295.331842 
L 291.037423 295.338149 
L 286.23247 294.547028 
L 281.201038 293.180875 
L 276.042353 291.399904 
L 270.815187 289.312229 
L 265.555656 286.989994 
L 260.287446 284.481517 
L 255.027474 281.819174 
L 249.789113 279.024353 
L 244.584121 276.11059 
L 239.423882 273.085611 
L 234.320285 269.952718 
L 229.28638 266.711802 
L 224.336899 263.360158 
L 219.48867 259.893218 
L 214.760909 256.305286 
L 210.175371 252.590333 
L 205.756308 248.742847 
L 201.530211 244.758756 
L 197.525284 240.63635 
L 193.770663 236.377144 
L 190.29541 231.986585 
L 187.127352 227.474502 
L 184.291879 222.85525 
L 181.810813 218.147494 
L 179.701467 213.37368 
L 177.975979 208.559226 
L 176.640968 203.73155 
L 175.697508 198.919033 
L 175.141392 194.150001 
L 174.96362 189.45182 
L 175.151046 184.850142 
L 175.687119 180.368336 
L 176.552641 176.027093 
L 177.72652 171.84421 
L 179.186458 167.834511 
L 180.909568 164.009901 
L 182.872908 160.3795 
L 185.05392 156.949855 
L 187.430783 153.725187 
L 189.982682 150.707672 
L 192.690005 147.897724 
L 195.534473 145.294282 
L 198.499216 142.895077 
L 201.568797 140.696891 
L 204.729208 138.695784 
L 207.967825 136.887303 
L 211.273348 135.266664 
L 214.635722 133.828903 
L 218.046045 132.569009 
L 221.496475 131.482029 
L 224.980126 130.563157 
L 228.490971 129.807797 
L 232.023743 129.211612 
L 235.573841 128.770562 
L 239.137244 128.480925 
L 242.710424 128.33931 
L 246.290274 128.342658 
L 249.874031 128.488242 
L 253.459221 128.773659 
L 257.043592 129.196816 
L 260.625067 129.755915 
L 264.201692 130.44944 
L 267.771599 131.276135 
L 271.332959 132.234985 
L 274.883952 133.325203 
L 278.422729 134.546208 
L 281.947381 135.897611 
L 285.455908 137.379198 
L 288.946187 138.990916 
L 292.415937 140.732864 
L 295.862683 142.605277 
L 299.283718 144.608522 
L 302.676053 146.74309 
L 306.036364 149.00959 
L 309.360921 151.408749 
L 312.64551 153.941406 
L 315.885323 156.608517 
L 319.074827 159.411151 
L 322.207588 162.350491 
L 325.276049 165.427831 
L 328.271225 168.644562 
L 331.182302 172.002149 
L 333.996092 175.502081 
L 336.696285 179.145771 
L 339.262421 182.934384 
L 341.668465 186.868514 
L 343.880859 190.947617 
L 345.855919 195.169013 
L 347.53662 199.526174 
L 348.849281 204.005936 
L 349.702039 208.584406 
L 349.989304 213.222262 
L 349.608247 217.862428 
L 348.488521 222.435488 
L 346.620879 226.874988 
L 344.061034 231.134375 
L 340.904857 235.193292 
L 337.256615 239.051747 
L 333.209043 242.720251 
L 328.83695 246.212218 
L 324.198289 249.539903 
L 319.337654 252.712803 
L 314.289854 255.737357 
L 309.082841 258.617221 
L 303.73991 261.353779 
L 298.281314 263.94672 
L 292.725407 266.394639 
L 287.089438 268.695639 
L 281.390065 270.847921 
L 275.643647 272.850361 
L 269.866331 274.703033 
L 264.073979 276.407679 
L 258.281962 277.968066 
L 252.504848 279.390225 
L 241.047419 281.855542 
L 229.788748 283.895515 
L 218.783847 285.625462 
L 192.481943 289.346072 
L 172.708715 292.284713 
L 158.897122 294.360361 
L 154.611286 294.911244 
L 150.564744 295.307186 
L 146.833085 295.461397 
L 143.511685 295.254409 
L 140.702302 294.541628 
L 138.477416 293.1912 
L 136.83749 291.146102 
L 135.705266 288.455632 
L 134.96711 285.240716 
L 134.516778 281.636184 
L 134.273155 277.757205 
L 134.179457 273.691677 
L 134.299364 265.240754 
L 134.691018 256.615445 
L 135.263932 247.995449 
L 136.370981 235.280292 
L 137.732479 222.952631 
L 138.788725 214.973797 
L 139.986295 207.18567 
L 141.355382 199.582663 
L 142.932946 192.161201 
L 144.758909 184.924018 
L 146.871704 177.882672 
L 149.30393 171.05801 
L 152.078854 164.478813 
L 153.598995 161.291785 
L 155.208301 158.179129 
L 156.906371 155.145392 
L 158.692099 152.195049 
L 160.563727 149.332416 
L 162.518911 146.56157 
L 164.554794 143.886298 
L 166.668089 141.310039 
L 168.855156 138.835857 
L 171.112087 136.466419 
L 173.434778 134.203987 
L 175.819008 132.05042 
L 178.260503 130.007184 
L 180.754992 128.075373 
L 183.298265 126.255731 
L 185.886216 124.548681 
L 188.514879 122.954357 
L 191.180458 121.472641 
L 193.879353 120.10319 
L 196.608178 118.845479 
L 202.143195 116.662441 
L 207.763001 114.916863 
L 213.448798 113.601162 
L 219.185329 112.7077 
L 224.960549 112.229538 
L 230.765183 112.161055 
L 236.592212 112.498458 
L 242.436289 113.240168 
L 248.293118 114.387098 
L 254.158796 115.942819 
L 260.029131 117.913606 
L 265.898948 120.30835 
L 271.761403 123.138338 
L 277.607319 126.416893 
L 283.424573 130.158865 
L 289.197544 134.380001 
L 294.906647 139.096213 
L 297.729947 141.644795 
L 300.527939 144.322785 
L 303.296889 147.131865 
L 306.032738 150.07358 
L 308.73109 153.149316 
L 311.387186 156.360282 
L 313.995871 159.707488 
L 316.551555 163.191729 
L 319.048155 166.813565 
L 321.479015 170.573304 
L 323.8368 174.470977 
L 326.113359 178.506308 
L 328.299528 182.678673 
L 330.384873 186.987033 
L 332.357346 191.429838 
L 334.20281 196.004879 
L 335.9044 200.709057 
L 337.44165 205.538019 
L 338.789296 210.485594 
L 339.915658 215.542888 
L 340.780505 220.696873 
L 341.332385 225.928181 
L 341.505795 231.207811 
L 341.21946 236.492673 
L 340.378871 241.720913 
L 338.88842 246.810425 
L 336.676671 251.666741 
L 333.726426 256.20361 
L 330.086982 260.366745 
L 325.85566 264.143005 
L 321.144653 267.550605 
L 316.05651 270.622428 
L 310.674829 273.393455 
L 305.064595 275.894627 
L 299.275962 278.151034 
L 293.3483 280.182168 
L 287.313474 282.002928 
L 281.198228 283.624794 
L 275.025826 285.05693 
L 268.817128 286.307162 
L 262.59124 287.382808 
L 256.365854 288.291363 
L 250.157361 289.041038 
L 243.980794 289.641137 
L 237.849681 290.102271 
L 225.769211 290.656762 
L 213.987116 290.813466 
L 202.542603 290.690254 
L 186.031501 290.220061 
L 155.463862 289.023388 
L 146.242389 288.472981 
L 141.927497 288.08148 
L 137.882035 287.54928 
L 134.182403 286.804375 
L 130.920329 285.75296 
L 128.186815 284.290037 
L 126.039674 282.32958 
L 124.472175 279.84295 
L 123.413872 276.871955 
L 122.764146 273.503821 
L 122.426219 269.835452 
L 122.322577 265.951914 
L 122.396145 261.920343 
L 122.923862 253.602935 
L 123.805175 245.152678 
L 124.934558 236.720822 
L 126.256642 228.394047 
L 127.744236 220.222182 
L 129.38804 212.233161 
L 131.19133 204.442076 
L 133.166581 196.857406 
L 135.332609 189.485665 
L 137.711653 182.334836 
L 140.326333 175.41659 
L 143.196694 168.747247 
L 146.337692 162.347559 
L 149.757431 156.241554 
L 153.456312 150.454826 
L 155.408451 147.689152 
L 155.408451 147.689152 
" style="fill:none;stroke:#000000;stroke-linecap:square;stroke-width:1.5;"/>
   </g>
   <g id="patch_3">
    <path d="M 110.938834 307.584 
L 110.938834 41.472 
" style="fill:none;stroke:#000000;stroke-linecap:square;stroke-linejoin:miter;stroke-width:0.8;"/>
   </g>
   <g id="patch_4">
    <path d="M 361.381166 307.584 
L 361.381166 41.472 
" style="fill:none;stroke:#000000;stroke-linecap:square;stroke-linejoin:miter;stroke-width:0.8;"/>
   </g>
   <g id="patch_5">
    <path d="M 110.938834 307.584 
L 361.381166 307.584 
" style="fill:none;stroke:#000000;stroke-linecap:square;stroke-linejoin:miter;stroke-width:0.8;"/>
   </g>
   <g id="patch_6">
    <path d="M 110.938834 41.472 
L 361.381166 41.472 
" style="fill:none;stroke:#000000;stroke-linecap:square;stroke-linejoin:miter;stroke-width:0.8;"/>
   </g>
   <g id="legend_1">
    <g id="patch_7">
     <path d="M 251.676478 94.472 
L 354.381166 94.472 
Q 356.381166 94.472 356.381166 92.472 
L 356.381166 48.472 
Q 356.381166 46.472 354.381166 46.472 
L 251.676478 46.472 
Q 249.676478 46.472 249.676478 48.472 
L 249.676478 92.472 
Q 249.676478 94.472 251.676478 94.472 
z
" style="fill:#ffffff;opacity:0.8;stroke:#cccccc;stroke-linejoin:miter;"/>
    </g>
    <g id="line2d_16">
     <path d="M 253.676478 54.614188 
L 273.676478 54.614188 
" style="fill:none;stroke:#0000ff;stroke-linecap:square;stroke-width:1.5;"/>
    </g>
    <g id="line2d_17"/>
    <g id="text_15">
     <!-- 1e-05 | rk4 |  -->
     <defs>
      <path d="M 56.203125 29.59375 
L 56.203125 25.203125 
L 14.890625 25.203125 
Q 15.484375 15.921875 20.484375 11.0625 
Q 25.484375 6.203125 34.421875 6.203125 
Q 39.59375 6.203125 44.453125 7.46875 
Q 49.3125 8.734375 54.109375 11.28125 
L 54.109375 2.78125 
Q 49.265625 0.734375 44.1875 -0.34375 
Q 39.109375 -1.421875 33.890625 -1.421875 
Q 20.796875 -1.421875 13.15625 6.1875 
Q 5.515625 13.8125 5.515625 26.8125 
Q 5.515625 40.234375 12.765625 48.109375 
Q 20.015625 56 32.328125 56 
Q 43.359375 56 49.78125 48.890625 
Q 56.203125 41.796875 56.203125 29.59375 
z
M 47.21875 32.234375 
Q 47.125 39.59375 43.09375 43.984375 
Q 39.0625 48.390625 32.421875 48.390625 
Q 24.90625 48.390625 20.390625 44.140625 
Q 15.875 39.890625 15.1875 32.171875 
z
" id="DejaVuSans-101"/>
      <path id="DejaVuSans-32"/>
      <path d="M 21 76.421875 
L 21 -23.578125 
L 12.703125 -23.578125 
L 12.703125 76.421875 
z
" id="DejaVuSans-124"/>
      <path d="M 41.109375 46.296875 
Q 39.59375 47.171875 37.8125 47.578125 
Q 36.03125 48 33.890625 48 
Q 26.265625 48 22.1875 43.046875 
Q 18.109375 38.09375 18.109375 28.8125 
L 18.109375 0 
L 9.078125 0 
L 9.078125 54.6875 
L 18.109375 54.6875 
L 18.109375 46.1875 
Q 20.953125 51.171875 25.484375 53.578125 
Q 30.03125 56 36.53125 56 
Q 37.453125 56 38.578125 55.875 
Q 39.703125 55.765625 41.0625 55.515625 
z
" id="DejaVuSans-114"/>
      <path d="M 9.078125 75.984375 
L 18.109375 75.984375 
L 18.109375 31.109375 
L 44.921875 54.6875 
L 56.390625 54.6875 
L 27.390625 29.109375 
L 57.625 0 
L 45.90625 0 
L 18.109375 26.703125 
L 18.109375 0 
L 9.078125 0 
z
" id="DejaVuSans-107"/>
      <path d="M 37.796875 64.3125 
L 12.890625 25.390625 
L 37.796875 25.390625 
z
M 35.203125 72.90625 
L 47.609375 72.90625 
L 47.609375 25.390625 
L 58.015625 25.390625 
L 58.015625 17.1875 
L 47.609375 17.1875 
L 47.609375 0 
L 37.796875 0 
L 37.796875 17.1875 
L 4.890625 17.1875 
L 4.890625 26.703125 
z
" id="DejaVuSans-52"/>
     </defs>
     <g transform="translate(281.676478 58.114188)scale(0.1 -0.1)">
      <use xlink:href="#DejaVuSans-49"/>
      <use x="63.623047" xlink:href="#DejaVuSans-101"/>
      <use x="125.146484" xlink:href="#DejaVuSans-45"/>
      <use x="161.230469" xlink:href="#DejaVuSans-48"/>
      <use x="224.853516" xlink:href="#DejaVuSans-53"/>
      <use x="288.476562" xlink:href="#DejaVuSans-32"/>
      <use x="320.263672" xlink:href="#DejaVuSans-124"/>
      <use x="353.955078" xlink:href="#DejaVuSans-32"/>
      <use x="385.742188" xlink:href="#DejaVuSans-114"/>
      <use x="426.855469" xlink:href="#DejaVuSans-107"/>
      <use x="484.765625" xlink:href="#DejaVuSans-52"/>
      <use x="548.388672" xlink:href="#DejaVuSans-32"/>
      <use x="580.175781" xlink:href="#DejaVuSans-124"/>
      <use x="613.867188" xlink:href="#DejaVuSans-32"/>
     </g>
    </g>
    <g id="line2d_18">
     <path d="M 253.676478 69.614188 
L 273.676478 69.614188 
" style="fill:none;stroke:#bf00bf;stroke-linecap:square;stroke-width:1.5;"/>
    </g>
    <g id="line2d_19"/>
    <g id="text_16">
     <!-- 0.0005 | rk4 |  -->
     <g transform="translate(281.676478 73.114188)scale(0.1 -0.1)">
      <use xlink:href="#DejaVuSans-48"/>
      <use x="63.623047" xlink:href="#DejaVuSans-46"/>
      <use x="95.410156" xlink:href="#DejaVuSans-48"/>
      <use x="159.033203" xlink:href="#DejaVuSans-48"/>
      <use x="222.65625" xlink:href="#DejaVuSans-48"/>
      <use x="286.279297" xlink:href="#DejaVuSans-53"/>
      <use x="349.902344" xlink:href="#DejaVuSans-32"/>
      <use x="381.689453" xlink:href="#DejaVuSans-124"/>
      <use x="415.380859" xlink:href="#DejaVuSans-32"/>
      <use x="447.167969" xlink:href="#DejaVuSans-114"/>
      <use x="488.28125" xlink:href="#DejaVuSans-107"/>
      <use x="546.191406" xlink:href="#DejaVuSans-52"/>
      <use x="609.814453" xlink:href="#DejaVuSans-32"/>
      <use x="641.601562" xlink:href="#DejaVuSans-124"/>
      <use x="675.292969" xlink:href="#DejaVuSans-32"/>
     </g>
    </g>
    <g id="line2d_20">
     <path d="M 253.676478 84.614188 
L 273.676478 84.614188 
" style="fill:none;stroke:#000000;stroke-linecap:square;stroke-width:1.5;"/>
    </g>
    <g id="line2d_21"/>
    <g id="text_17">
     <!-- 0.01 | rk4 -->
     <g transform="translate(281.676478 88.114188)scale(0.1 -0.1)">
      <use xlink:href="#DejaVuSans-48"/>
      <use x="63.623047" xlink:href="#DejaVuSans-46"/>
      <use x="95.410156" xlink:href="#DejaVuSans-48"/>
      <use x="159.033203" xlink:href="#DejaVuSans-49"/>
      <use x="222.65625" xlink:href="#DejaVuSans-32"/>
      <use x="254.443359" xlink:href="#DejaVuSans-124"/>
      <use x="288.134766" xlink:href="#DejaVuSans-32"/>
      <use x="319.921875" xlink:href="#DejaVuSans-114"/>
      <use x="361.035156" xlink:href="#DejaVuSans-107"/>
      <use x="418.945312" xlink:href="#DejaVuSans-52"/>
     </g>
    </g>
   </g>
  </g>
  <g id="text_18">
   <!-- Trajectory of the centre of 2nd link -->
   <defs>
    <path d="M -0.296875 72.90625 
L 61.375 72.90625 
L 61.375 64.59375 
L 35.5 64.59375 
L 35.5 0 
L 25.59375 0 
L 25.59375 64.59375 
L -0.296875 64.59375 
z
" id="DejaVuSans-84"/>
    <path d="M 9.421875 54.6875 
L 18.40625 54.6875 
L 18.40625 -0.984375 
Q 18.40625 -11.421875 14.421875 -16.109375 
Q 10.453125 -20.796875 1.609375 -20.796875 
L -1.8125 -20.796875 
L -1.8125 -13.1875 
L 0.59375 -13.1875 
Q 5.71875 -13.1875 7.5625 -10.8125 
Q 9.421875 -8.453125 9.421875 -0.984375 
z
M 9.421875 75.984375 
L 18.40625 75.984375 
L 18.40625 64.59375 
L 9.421875 64.59375 
z
" id="DejaVuSans-106"/>
    <path d="M 48.78125 52.59375 
L 48.78125 44.1875 
Q 44.96875 46.296875 41.140625 47.34375 
Q 37.3125 48.390625 33.40625 48.390625 
Q 24.65625 48.390625 19.8125 42.84375 
Q 14.984375 37.3125 14.984375 27.296875 
Q 14.984375 17.28125 19.8125 11.734375 
Q 24.65625 6.203125 33.40625 6.203125 
Q 37.3125 6.203125 41.140625 7.25 
Q 44.96875 8.296875 48.78125 10.40625 
L 48.78125 2.09375 
Q 45.015625 0.34375 40.984375 -0.53125 
Q 36.96875 -1.421875 32.421875 -1.421875 
Q 20.0625 -1.421875 12.78125 6.34375 
Q 5.515625 14.109375 5.515625 27.296875 
Q 5.515625 40.671875 12.859375 48.328125 
Q 20.21875 56 33.015625 56 
Q 37.15625 56 41.109375 55.140625 
Q 45.0625 54.296875 48.78125 52.59375 
z
" id="DejaVuSans-99"/>
    <path d="M 18.3125 70.21875 
L 18.3125 54.6875 
L 36.8125 54.6875 
L 36.8125 47.703125 
L 18.3125 47.703125 
L 18.3125 18.015625 
Q 18.3125 11.328125 20.140625 9.421875 
Q 21.96875 7.515625 27.59375 7.515625 
L 36.8125 7.515625 
L 36.8125 0 
L 27.59375 0 
Q 17.1875 0 13.234375 3.875 
Q 9.28125 7.765625 9.28125 18.015625 
L 9.28125 47.703125 
L 2.6875 47.703125 
L 2.6875 54.6875 
L 9.28125 54.6875 
L 9.28125 70.21875 
z
" id="DejaVuSans-116"/>
    <path d="M 30.609375 48.390625 
Q 23.390625 48.390625 19.1875 42.75 
Q 14.984375 37.109375 14.984375 27.296875 
Q 14.984375 17.484375 19.15625 11.84375 
Q 23.34375 6.203125 30.609375 6.203125 
Q 37.796875 6.203125 41.984375 11.859375 
Q 46.1875 17.53125 46.1875 27.296875 
Q 46.1875 37.015625 41.984375 42.703125 
Q 37.796875 48.390625 30.609375 48.390625 
z
M 30.609375 56 
Q 42.328125 56 49.015625 48.375 
Q 55.71875 40.765625 55.71875 27.296875 
Q 55.71875 13.875 49.015625 6.21875 
Q 42.328125 -1.421875 30.609375 -1.421875 
Q 18.84375 -1.421875 12.171875 6.21875 
Q 5.515625 13.875 5.515625 27.296875 
Q 5.515625 40.765625 12.171875 48.375 
Q 18.84375 56 30.609375 56 
z
" id="DejaVuSans-111"/>
    <path d="M 32.171875 -5.078125 
Q 28.375 -14.84375 24.75 -17.8125 
Q 21.140625 -20.796875 15.09375 -20.796875 
L 7.90625 -20.796875 
L 7.90625 -13.28125 
L 13.1875 -13.28125 
Q 16.890625 -13.28125 18.9375 -11.515625 
Q 21 -9.765625 23.484375 -3.21875 
L 25.09375 0.875 
L 2.984375 54.6875 
L 12.5 54.6875 
L 29.59375 11.921875 
L 46.6875 54.6875 
L 56.203125 54.6875 
z
" id="DejaVuSans-121"/>
    <path d="M 37.109375 75.984375 
L 37.109375 68.5 
L 28.515625 68.5 
Q 23.6875 68.5 21.796875 66.546875 
Q 19.921875 64.59375 19.921875 59.515625 
L 19.921875 54.6875 
L 34.71875 54.6875 
L 34.71875 47.703125 
L 19.921875 47.703125 
L 19.921875 0 
L 10.890625 0 
L 10.890625 47.703125 
L 2.296875 47.703125 
L 2.296875 54.6875 
L 10.890625 54.6875 
L 10.890625 58.5 
Q 10.890625 67.625 15.140625 71.796875 
Q 19.390625 75.984375 28.609375 75.984375 
z
" id="DejaVuSans-102"/>
    <path d="M 54.890625 33.015625 
L 54.890625 0 
L 45.90625 0 
L 45.90625 32.71875 
Q 45.90625 40.484375 42.875 44.328125 
Q 39.84375 48.1875 33.796875 48.1875 
Q 26.515625 48.1875 22.3125 43.546875 
Q 18.109375 38.921875 18.109375 30.90625 
L 18.109375 0 
L 9.078125 0 
L 9.078125 75.984375 
L 18.109375 75.984375 
L 18.109375 46.1875 
Q 21.34375 51.125 25.703125 53.5625 
Q 30.078125 56 35.796875 56 
Q 45.21875 56 50.046875 50.171875 
Q 54.890625 44.34375 54.890625 33.015625 
z
" id="DejaVuSans-104"/>
    <path d="M 54.890625 33.015625 
L 54.890625 0 
L 45.90625 0 
L 45.90625 32.71875 
Q 45.90625 40.484375 42.875 44.328125 
Q 39.84375 48.1875 33.796875 48.1875 
Q 26.515625 48.1875 22.3125 43.546875 
Q 18.109375 38.921875 18.109375 30.90625 
L 18.109375 0 
L 9.078125 0 
L 9.078125 54.6875 
L 18.109375 54.6875 
L 18.109375 46.1875 
Q 21.34375 51.125 25.703125 53.5625 
Q 30.078125 56 35.796875 56 
Q 45.21875 56 50.046875 50.171875 
Q 54.890625 44.34375 54.890625 33.015625 
z
" id="DejaVuSans-110"/>
    <path d="M 19.1875 8.296875 
L 53.609375 8.296875 
L 53.609375 0 
L 7.328125 0 
L 7.328125 8.296875 
Q 12.9375 14.109375 22.625 23.890625 
Q 32.328125 33.6875 34.8125 36.53125 
Q 39.546875 41.84375 41.421875 45.53125 
Q 43.3125 49.21875 43.3125 52.78125 
Q 43.3125 58.59375 39.234375 62.25 
Q 35.15625 65.921875 28.609375 65.921875 
Q 23.96875 65.921875 18.8125 64.3125 
Q 13.671875 62.703125 7.8125 59.421875 
L 7.8125 69.390625 
Q 13.765625 71.78125 18.9375 73 
Q 24.125 74.21875 28.421875 74.21875 
Q 39.75 74.21875 46.484375 68.546875 
Q 53.21875 62.890625 53.21875 53.421875 
Q 53.21875 48.921875 51.53125 44.890625 
Q 49.859375 40.875 45.40625 35.40625 
Q 44.1875 33.984375 37.640625 27.21875 
Q 31.109375 20.453125 19.1875 8.296875 
z
" id="DejaVuSans-50"/>
    <path d="M 45.40625 46.390625 
L 45.40625 75.984375 
L 54.390625 75.984375 
L 54.390625 0 
L 45.40625 0 
L 45.40625 8.203125 
Q 42.578125 3.328125 38.25 0.953125 
Q 33.9375 -1.421875 27.875 -1.421875 
Q 17.96875 -1.421875 11.734375 6.484375 
Q 5.515625 14.40625 5.515625 27.296875 
Q 5.515625 40.1875 11.734375 48.09375 
Q 17.96875 56 27.875 56 
Q 33.9375 56 38.25 53.625 
Q 42.578125 51.265625 45.40625 46.390625 
z
M 14.796875 27.296875 
Q 14.796875 17.390625 18.875 11.75 
Q 22.953125 6.109375 30.078125 6.109375 
Q 37.203125 6.109375 41.296875 11.75 
Q 45.40625 17.390625 45.40625 27.296875 
Q 45.40625 37.203125 41.296875 42.84375 
Q 37.203125 48.484375 30.078125 48.484375 
Q 22.953125 48.484375 18.875 42.84375 
Q 14.796875 37.203125 14.796875 27.296875 
z
" id="DejaVuSans-100"/>
    <path d="M 9.421875 75.984375 
L 18.40625 75.984375 
L 18.40625 0 
L 9.421875 0 
z
" id="DejaVuSans-108"/>
   </defs>
   <g transform="translate(126.714375 16.030125)scale(0.12 -0.12)">
    <use xlink:href="#DejaVuSans-84"/>
    <use x="46.333984" xlink:href="#DejaVuSans-114"/>
    <use x="87.447266" xlink:href="#DejaVuSans-97"/>
    <use x="148.726562" xlink:href="#DejaVuSans-106"/>
    <use x="176.509766" xlink:href="#DejaVuSans-101"/>
    <use x="238.033203" xlink:href="#DejaVuSans-99"/>
    <use x="293.013672" xlink:href="#DejaVuSans-116"/>
    <use x="332.222656" xlink:href="#DejaVuSans-111"/>
    <use x="393.404297" xlink:href="#DejaVuSans-114"/>
    <use x="434.517578" xlink:href="#DejaVuSans-121"/>
    <use x="493.697266" xlink:href="#DejaVuSans-32"/>
    <use x="525.484375" xlink:href="#DejaVuSans-111"/>
    <use x="586.666016" xlink:href="#DejaVuSans-102"/>
    <use x="621.871094" xlink:href="#DejaVuSans-32"/>
    <use x="653.658203" xlink:href="#DejaVuSans-116"/>
    <use x="692.867188" xlink:href="#DejaVuSans-104"/>
    <use x="756.246094" xlink:href="#DejaVuSans-101"/>
    <use x="817.769531" xlink:href="#DejaVuSans-32"/>
    <use x="849.556641" xlink:href="#DejaVuSans-99"/>
    <use x="904.537109" xlink:href="#DejaVuSans-101"/>
    <use x="966.060547" xlink:href="#DejaVuSans-110"/>
    <use x="1029.439453" xlink:href="#DejaVuSans-116"/>
    <use x="1068.648438" xlink:href="#DejaVuSans-114"/>
    <use x="1107.511719" xlink:href="#DejaVuSans-101"/>
    <use x="1169.035156" xlink:href="#DejaVuSans-32"/>
    <use x="1200.822266" xlink:href="#DejaVuSans-111"/>
    <use x="1262.003906" xlink:href="#DejaVuSans-102"/>
    <use x="1297.208984" xlink:href="#DejaVuSans-32"/>
    <use x="1328.996094" xlink:href="#DejaVuSans-50"/>
    <use x="1392.619141" xlink:href="#DejaVuSans-110"/>
    <use x="1455.998047" xlink:href="#DejaVuSans-100"/>
    <use x="1519.474609" xlink:href="#DejaVuSans-32"/>
    <use x="1551.261719" xlink:href="#DejaVuSans-108"/>
    <use x="1579.044922" xlink:href="#DejaVuSans-105"/>
    <use x="1606.828125" xlink:href="#DejaVuSans-110"/>
    <use x="1670.207031" xlink:href="#DejaVuSans-107"/>
   </g>
  </g>
 </g>
 <defs>
  <clipPath id="p38416bccb7">
   <rect height="266.112" width="250.442331" x="110.938834" y="41.472"/>
  </clipPath>
 </defs>
</svg>
