<?xml version="1.0" encoding="utf-8" standalone="no"?>
<!DOCTYPE svg PUBLIC "-//W3C//DTD SVG 1.1//EN"
  "http://www.w3.org/Graphics/SVG/1.1/DTD/svg11.dtd">
<!-- Created with matplotlib (https://matplotlib.org/) -->
<svg height="345.6pt" version="1.1" viewBox="0 0 460.8 345.6" width="460.8pt" xmlns="http://www.w3.org/2000/svg" xmlns:xlink="http://www.w3.org/1999/xlink">
 <defs>
  <style type="text/css">
*{stroke-linecap:butt;stroke-linejoin:round;}
  </style>
 </defs>
 <g id="figure_1">
  <g id="patch_1">
   <path d="M 0 345.6 
L 460.8 345.6 
L 460.8 0 
L 0 0 
z
" style="fill:#ffffff;"/>
  </g>
  <g id="axes_1">
   <g id="patch_2">
    <path d="M 112.693612 307.584 
L 359.626388 307.584 
L 359.626388 41.472 
L 112.693612 41.472 
z
" style="fill:#ffffff;"/>
   </g>
   <g id="matplotlib.axis_1">
    <g id="xtick_1">
     <g id="line2d_1">
      <defs>
       <path d="M 0 0 
L 0 3.5 
" id="mfa32fedd87" style="stroke:#000000;stroke-width:0.8;"/>
      </defs>
      <g>
       <use style="stroke:#000000;stroke-width:0.8;" x="136.238452" xlink:href="#mfa32fedd87" y="307.584"/>
      </g>
     </g>
     <g id="text_1">
      <!-- −1.0 -->
      <defs>
       <path d="M 10.59375 35.5 
L 73.1875 35.5 
L 73.1875 27.203125 
L 10.59375 27.203125 
z
" id="DejaVuSans-8722"/>
       <path d="M 12.40625 8.296875 
L 28.515625 8.296875 
L 28.515625 63.921875 
L 10.984375 60.40625 
L 10.984375 69.390625 
L 28.421875 72.90625 
L 38.28125 72.90625 
L 38.28125 8.296875 
L 54.390625 8.296875 
L 54.390625 0 
L 12.40625 0 
z
" id="DejaVuSans-49"/>
       <path d="M 10.6875 12.40625 
L 21 12.40625 
L 21 0 
L 10.6875 0 
z
" id="DejaVuSans-46"/>
       <path d="M 31.78125 66.40625 
Q 24.171875 66.40625 20.328125 58.90625 
Q 16.5 51.421875 16.5 36.375 
Q 16.5 21.390625 20.328125 13.890625 
Q 24.171875 6.390625 31.78125 6.390625 
Q 39.453125 6.390625 43.28125 13.890625 
Q 47.125 21.390625 47.125 36.375 
Q 47.125 51.421875 43.28125 58.90625 
Q 39.453125 66.40625 31.78125 66.40625 
z
M 31.78125 74.21875 
Q 44.046875 74.21875 50.515625 64.515625 
Q 56.984375 54.828125 56.984375 36.375 
Q 56.984375 17.96875 50.515625 8.265625 
Q 44.046875 -1.421875 31.78125 -1.421875 
Q 19.53125 -1.421875 13.0625 8.265625 
Q 6.59375 17.96875 6.59375 36.375 
Q 6.59375 54.828125 13.0625 64.515625 
Q 19.53125 74.21875 31.78125 74.21875 
z
" id="DejaVuSans-48"/>
      </defs>
      <g transform="translate(124.097046 322.182437)scale(0.1 -0.1)">
       <use xlink:href="#DejaVuSans-8722"/>
       <use x="83.789062" xlink:href="#DejaVuSans-49"/>
       <use x="147.412109" xlink:href="#DejaVuSans-46"/>
       <use x="179.199219" xlink:href="#DejaVuSans-48"/>
      </g>
     </g>
    </g>
    <g id="xtick_2">
     <g id="line2d_2">
      <g>
       <use style="stroke:#000000;stroke-width:0.8;" x="179.004264" xlink:href="#mfa32fedd87" y="307.584"/>
      </g>
     </g>
     <g id="text_2">
      <!-- −0.5 -->
      <defs>
       <path d="M 10.796875 72.90625 
L 49.515625 72.90625 
L 49.515625 64.59375 
L 19.828125 64.59375 
L 19.828125 46.734375 
Q 21.96875 47.46875 24.109375 47.828125 
Q 26.265625 48.1875 28.421875 48.1875 
Q 40.625 48.1875 47.75 41.5 
Q 54.890625 34.8125 54.890625 23.390625 
Q 54.890625 11.625 47.5625 5.09375 
Q 40.234375 -1.421875 26.90625 -1.421875 
Q 22.3125 -1.421875 17.546875 -0.640625 
Q 12.796875 0.140625 7.71875 1.703125 
L 7.71875 11.625 
Q 12.109375 9.234375 16.796875 8.0625 
Q 21.484375 6.890625 26.703125 6.890625 
Q 35.15625 6.890625 40.078125 11.328125 
Q 45.015625 15.765625 45.015625 23.390625 
Q 45.015625 31 40.078125 35.4375 
Q 35.15625 39.890625 26.703125 39.890625 
Q 22.75 39.890625 18.8125 39.015625 
Q 14.890625 38.140625 10.796875 36.28125 
z
" id="DejaVuSans-53"/>
      </defs>
      <g transform="translate(166.862858 322.182437)scale(0.1 -0.1)">
       <use xlink:href="#DejaVuSans-8722"/>
       <use x="83.789062" xlink:href="#DejaVuSans-48"/>
       <use x="147.412109" xlink:href="#DejaVuSans-46"/>
       <use x="179.199219" xlink:href="#DejaVuSans-53"/>
      </g>
     </g>
    </g>
    <g id="xtick_3">
     <g id="line2d_3">
      <g>
       <use style="stroke:#000000;stroke-width:0.8;" x="221.770076" xlink:href="#mfa32fedd87" y="307.584"/>
      </g>
     </g>
     <g id="text_3">
      <!-- 0.0 -->
      <g transform="translate(213.818513 322.182437)scale(0.1 -0.1)">
       <use xlink:href="#DejaVuSans-48"/>
       <use x="63.623047" xlink:href="#DejaVuSans-46"/>
       <use x="95.410156" xlink:href="#DejaVuSans-48"/>
      </g>
     </g>
    </g>
    <g id="xtick_4">
     <g id="line2d_4">
      <g>
       <use style="stroke:#000000;stroke-width:0.8;" x="264.535888" xlink:href="#mfa32fedd87" y="307.584"/>
      </g>
     </g>
     <g id="text_4">
      <!-- 0.5 -->
      <g transform="translate(256.584325 322.182437)scale(0.1 -0.1)">
       <use xlink:href="#DejaVuSans-48"/>
       <use x="63.623047" xlink:href="#DejaVuSans-46"/>
       <use x="95.410156" xlink:href="#DejaVuSans-53"/>
      </g>
     </g>
    </g>
    <g id="xtick_5">
     <g id="line2d_5">
      <g>
       <use style="stroke:#000000;stroke-width:0.8;" x="307.3017" xlink:href="#mfa32fedd87" y="307.584"/>
      </g>
     </g>
     <g id="text_5">
      <!-- 1.0 -->
      <g transform="translate(299.350137 322.182437)scale(0.1 -0.1)">
       <use xlink:href="#DejaVuSans-49"/>
       <use x="63.623047" xlink:href="#DejaVuSans-46"/>
       <use x="95.410156" xlink:href="#DejaVuSans-48"/>
      </g>
     </g>
    </g>
    <g id="xtick_6">
     <g id="line2d_6">
      <g>
       <use style="stroke:#000000;stroke-width:0.8;" x="350.067511" xlink:href="#mfa32fedd87" y="307.584"/>
      </g>
     </g>
     <g id="text_6">
      <!-- 1.5 -->
      <g transform="translate(342.115949 322.182437)scale(0.1 -0.1)">
       <use xlink:href="#DejaVuSans-49"/>
       <use x="63.623047" xlink:href="#DejaVuSans-46"/>
       <use x="95.410156" xlink:href="#DejaVuSans-53"/>
      </g>
     </g>
    </g>
    <g id="text_7">
     <!-- X-axis -->
     <defs>
      <path d="M 6.296875 72.90625 
L 16.890625 72.90625 
L 35.015625 45.796875 
L 53.21875 72.90625 
L 63.8125 72.90625 
L 40.375 37.890625 
L 65.375 0 
L 54.78125 0 
L 34.28125 31 
L 13.625 0 
L 2.984375 0 
L 29 38.921875 
z
" id="DejaVuSans-88"/>
      <path d="M 4.890625 31.390625 
L 31.203125 31.390625 
L 31.203125 23.390625 
L 4.890625 23.390625 
z
" id="DejaVuSans-45"/>
      <path d="M 34.28125 27.484375 
Q 23.390625 27.484375 19.1875 25 
Q 14.984375 22.515625 14.984375 16.5 
Q 14.984375 11.71875 18.140625 8.90625 
Q 21.296875 6.109375 26.703125 6.109375 
Q 34.1875 6.109375 38.703125 11.40625 
Q 43.21875 16.703125 43.21875 25.484375 
L 43.21875 27.484375 
z
M 52.203125 31.203125 
L 52.203125 0 
L 43.21875 0 
L 43.21875 8.296875 
Q 40.140625 3.328125 35.546875 0.953125 
Q 30.953125 -1.421875 24.3125 -1.421875 
Q 15.921875 -1.421875 10.953125 3.296875 
Q 6 8.015625 6 15.921875 
Q 6 25.140625 12.171875 29.828125 
Q 18.359375 34.515625 30.609375 34.515625 
L 43.21875 34.515625 
L 43.21875 35.40625 
Q 43.21875 41.609375 39.140625 45 
Q 35.0625 48.390625 27.6875 48.390625 
Q 23 48.390625 18.546875 47.265625 
Q 14.109375 46.140625 10.015625 43.890625 
L 10.015625 52.203125 
Q 14.9375 54.109375 19.578125 55.046875 
Q 24.21875 56 28.609375 56 
Q 40.484375 56 46.34375 49.84375 
Q 52.203125 43.703125 52.203125 31.203125 
z
" id="DejaVuSans-97"/>
      <path d="M 54.890625 54.6875 
L 35.109375 28.078125 
L 55.90625 0 
L 45.3125 0 
L 29.390625 21.484375 
L 13.484375 0 
L 2.875 0 
L 24.125 28.609375 
L 4.6875 54.6875 
L 15.28125 54.6875 
L 29.78125 35.203125 
L 44.28125 54.6875 
z
" id="DejaVuSans-120"/>
      <path d="M 9.421875 54.6875 
L 18.40625 54.6875 
L 18.40625 0 
L 9.421875 0 
z
M 9.421875 75.984375 
L 18.40625 75.984375 
L 18.40625 64.59375 
L 9.421875 64.59375 
z
" id="DejaVuSans-105"/>
      <path d="M 44.28125 53.078125 
L 44.28125 44.578125 
Q 40.484375 46.53125 36.375 47.5 
Q 32.28125 48.484375 27.875 48.484375 
Q 21.1875 48.484375 17.84375 46.4375 
Q 14.5 44.390625 14.5 40.28125 
Q 14.5 37.15625 16.890625 35.375 
Q 19.28125 33.59375 26.515625 31.984375 
L 29.59375 31.296875 
Q 39.15625 29.25 43.1875 25.515625 
Q 47.21875 21.78125 47.21875 15.09375 
Q 47.21875 7.46875 41.1875 3.015625 
Q 35.15625 -1.421875 24.609375 -1.421875 
Q 20.21875 -1.421875 15.453125 -0.5625 
Q 10.6875 0.296875 5.421875 2 
L 5.421875 11.28125 
Q 10.40625 8.6875 15.234375 7.390625 
Q 20.0625 6.109375 24.8125 6.109375 
Q 31.15625 6.109375 34.5625 8.28125 
Q 37.984375 10.453125 37.984375 14.40625 
Q 37.984375 18.0625 35.515625 20.015625 
Q 33.0625 21.96875 24.703125 23.78125 
L 21.578125 24.515625 
Q 13.234375 26.265625 9.515625 29.90625 
Q 5.8125 33.546875 5.8125 39.890625 
Q 5.8125 47.609375 11.28125 51.796875 
Q 16.75 56 26.8125 56 
Q 31.78125 56 36.171875 55.265625 
Q 40.578125 54.546875 44.28125 53.078125 
z
" id="DejaVuSans-115"/>
     </defs>
     <g transform="translate(221.163906 335.860562)scale(0.1 -0.1)">
      <use xlink:href="#DejaVuSans-88"/>
      <use x="63.505859" xlink:href="#DejaVuSans-45"/>
      <use x="99.589844" xlink:href="#DejaVuSans-97"/>
      <use x="160.869141" xlink:href="#DejaVuSans-120"/>
      <use x="220.048828" xlink:href="#DejaVuSans-105"/>
      <use x="247.832031" xlink:href="#DejaVuSans-115"/>
     </g>
    </g>
   </g>
   <g id="matplotlib.axis_2">
    <g id="ytick_1">
     <g id="line2d_7">
      <defs>
       <path d="M 0 0 
L -3.5 0 
" id="m632ada2ef4" style="stroke:#000000;stroke-width:0.8;"/>
      </defs>
      <g>
       <use style="stroke:#000000;stroke-width:0.8;" x="112.693612" xlink:href="#m632ada2ef4" y="267.394921"/>
      </g>
     </g>
     <g id="text_8">
      <!-- −1.0 -->
      <g transform="translate(81.410799 271.19414)scale(0.1 -0.1)">
       <use xlink:href="#DejaVuSans-8722"/>
       <use x="83.789062" xlink:href="#DejaVuSans-49"/>
       <use x="147.412109" xlink:href="#DejaVuSans-46"/>
       <use x="179.199219" xlink:href="#DejaVuSans-48"/>
      </g>
     </g>
    </g>
    <g id="ytick_2">
     <g id="line2d_8">
      <g>
       <use style="stroke:#000000;stroke-width:0.8;" x="112.693612" xlink:href="#m632ada2ef4" y="224.629109"/>
      </g>
     </g>
     <g id="text_9">
      <!-- −0.5 -->
      <g transform="translate(81.410799 228.428328)scale(0.1 -0.1)">
       <use xlink:href="#DejaVuSans-8722"/>
       <use x="83.789062" xlink:href="#DejaVuSans-48"/>
       <use x="147.412109" xlink:href="#DejaVuSans-46"/>
       <use x="179.199219" xlink:href="#DejaVuSans-53"/>
      </g>
     </g>
    </g>
    <g id="ytick_3">
     <g id="line2d_9">
      <g>
       <use style="stroke:#000000;stroke-width:0.8;" x="112.693612" xlink:href="#m632ada2ef4" y="181.863297"/>
      </g>
     </g>
     <g id="text_10">
      <!-- 0.0 -->
      <g transform="translate(89.790487 185.662516)scale(0.1 -0.1)">
       <use xlink:href="#DejaVuSans-48"/>
       <use x="63.623047" xlink:href="#DejaVuSans-46"/>
       <use x="95.410156" xlink:href="#DejaVuSans-48"/>
      </g>
     </g>
    </g>
    <g id="ytick_4">
     <g id="line2d_10">
      <g>
       <use style="stroke:#000000;stroke-width:0.8;" x="112.693612" xlink:href="#m632ada2ef4" y="139.097485"/>
      </g>
     </g>
     <g id="text_11">
      <!-- 0.5 -->
      <g transform="translate(89.790487 142.896704)scale(0.1 -0.1)">
       <use xlink:href="#DejaVuSans-48"/>
       <use x="63.623047" xlink:href="#DejaVuSans-46"/>
       <use x="95.410156" xlink:href="#DejaVuSans-53"/>
      </g>
     </g>
    </g>
    <g id="ytick_5">
     <g id="line2d_11">
      <g>
       <use style="stroke:#000000;stroke-width:0.8;" x="112.693612" xlink:href="#m632ada2ef4" y="96.331674"/>
      </g>
     </g>
     <g id="text_12">
      <!-- 1.0 -->
      <g transform="translate(89.790487 100.130892)scale(0.1 -0.1)">
       <use xlink:href="#DejaVuSans-49"/>
       <use x="63.623047" xlink:href="#DejaVuSans-46"/>
       <use x="95.410156" xlink:href="#DejaVuSans-48"/>
      </g>
     </g>
    </g>
    <g id="ytick_6">
     <g id="line2d_12">
      <g>
       <use style="stroke:#000000;stroke-width:0.8;" x="112.693612" xlink:href="#m632ada2ef4" y="53.565862"/>
      </g>
     </g>
     <g id="text_13">
      <!-- 1.5 -->
      <g transform="translate(89.790487 57.36508)scale(0.1 -0.1)">
       <use xlink:href="#DejaVuSans-49"/>
       <use x="63.623047" xlink:href="#DejaVuSans-46"/>
       <use x="95.410156" xlink:href="#DejaVuSans-53"/>
      </g>
     </g>
    </g>
    <g id="text_14">
     <!-- Y-axis -->
     <defs>
      <path d="M -0.203125 72.90625 
L 10.40625 72.90625 
L 30.609375 42.921875 
L 50.6875 72.90625 
L 61.28125 72.90625 
L 35.5 34.71875 
L 35.5 0 
L 25.59375 0 
L 25.59375 34.71875 
z
" id="DejaVuSans-89"/>
     </defs>
     <g transform="translate(75.331112 188.80925)rotate(-90)scale(0.1 -0.1)">
      <use xlink:href="#DejaVuSans-89"/>
      <use x="49.208984" xlink:href="#DejaVuSans-45"/>
      <use x="85.292969" xlink:href="#DejaVuSans-97"/>
      <use x="146.572266" xlink:href="#DejaVuSans-120"/>
      <use x="205.751953" xlink:href="#DejaVuSans-105"/>
      <use x="233.535156" xlink:href="#DejaVuSans-115"/>
     </g>
    </g>
   </g>
   <g id="line2d_13">
    <path clip-path="url(#p5506e111f0)" d="M 221.342425 53.568 
L 221.453536 53.597017 
L 222.138118 53.90032 
L 222.946618 54.511166 
L 223.863283 55.494863 
L 224.894549 56.942495 
L 226.052053 58.967645 
L 227.351516 61.708637 
L 228.815906 65.338554 
L 230.482315 70.089052 
L 232.418826 76.312119 
L 234.785585 84.709123 
L 238.249288 97.916392 
L 243.659688 118.485951 
L 246.421601 128.063153 
L 248.891149 135.8417 
L 251.27921 142.639859 
L 253.701284 148.869402 
L 256.255684 154.826365 
L 259.06452 160.807772 
L 262.328731 167.223685 
L 266.545124 174.993339 
L 281.521367 202.182758 
L 285.453723 210.020175 
L 288.899533 217.378952 
L 291.96532 224.44616 
L 294.679721 231.25713 
L 297.047012 237.7913 
L 299.063675 244.002535 
L 300.722689 249.821482 
L 302.026052 255.189574 
L 302.983635 260.056311 
L 303.616145 264.396098 
L 303.952014 268.204995 
L 304.024836 271.496677 
L 303.870622 274.306648 
L 303.523764 276.681065 
L 303.013645 278.673948 
L 302.36534 280.332648 
L 301.593335 281.710294 
L 300.702877 282.850673 
L 299.693583 283.784789 
L 298.550251 284.539742 
L 297.253576 285.127632 
L 295.769491 285.552686 
L 294.063943 285.805578 
L 292.086156 285.868678 
L 289.785193 285.713476 
L 287.104025 285.303508 
L 283.97581 284.593908 
L 280.329334 283.532287 
L 276.095308 282.061679 
L 271.21296 280.124468 
L 265.651889 277.673251 
L 259.449237 274.691808 
L 252.750489 271.222562 
L 245.806162 267.375009 
L 238.924369 263.309062 
L 232.354077 259.171321 
L 226.239314 255.060816 
L 220.623168 251.020702 
L 215.505158 247.068331 
L 210.850005 243.195812 
L 206.617925 239.389161 
L 202.77414 235.635819 
L 199.285171 231.921203 
L 196.123231 228.232783 
L 193.265989 224.560593 
L 190.69904 220.902099 
L 188.405986 217.24969 
L 186.375013 213.599329 
L 184.597972 209.95099 
L 183.065723 206.299741 
L 181.775835 202.654239 
L 180.722414 199.013869 
L 179.90101 195.377954 
L 179.309948 191.755149 
L 178.946544 188.149551 
L 178.808684 184.569897 
L 178.893959 181.020457 
L 179.200055 177.510066 
L 179.724978 174.043285 
L 180.466309 170.629128 
L 181.422465 167.2726 
L 182.589413 163.986781 
L 183.965232 160.776777 
L 185.546585 157.651671 
L 187.329766 154.62041 
L 189.310738 151.691779 
L 191.485172 148.874373 
L 193.848494 146.176585 
L 196.393237 143.609152 
L 199.116953 141.177093 
L 202.014693 138.888167 
L 205.078482 136.751936 
L 208.300062 134.777047 
L 211.674241 132.969713 
L 215.192892 131.33755 
L 218.848015 129.887513 
L 222.631853 128.626027 
L 226.533625 127.559941 
L 230.546211 126.694488 
L 234.659546 126.035267 
L 238.860528 125.587496 
L 243.14329 125.354983 
L 247.495527 125.341727 
L 251.908716 125.551029 
L 256.371194 125.985613 
L 260.874971 126.64802 
L 265.408767 127.539977 
L 269.964801 128.663428 
L 274.528423 130.018081 
L 279.095124 131.606035 
L 283.649976 133.425663 
L 288.184562 135.477063 
L 292.683399 137.756608 
L 297.137271 140.262975 
L 301.529831 142.99035 
L 305.84428 145.931251 
L 310.060157 149.074036 
L 314.159724 152.407268 
L 318.118536 155.912159 
L 321.914924 159.569736 
L 325.518194 163.349155 
L 328.901153 167.218363 
L 332.037373 171.141491 
L 334.899232 175.075274 
L 337.464207 178.975874 
L 339.715459 182.799793 
L 341.646524 186.51288 
L 343.256553 190.084253 
L 344.553809 193.49567 
L 345.550935 196.734689 
L 346.266317 199.804114 
L 346.718813 202.714172 
L 346.925703 205.478041 
L 346.901958 208.115984 
L 346.658248 210.650435 
L 346.199104 213.109746 
L 345.523097 215.518501 
L 344.622582 217.901295 
L 343.483593 220.282098 
L 342.086 222.683715 
L 340.403901 225.127353 
L 338.406151 227.632299 
L 336.060496 230.211967 
L 333.331687 232.877851 
L 330.18582 235.635784 
L 326.596047 238.48284 
L 322.549266 241.404868 
L 318.04405 244.380668 
L 313.096819 247.379572 
L 307.743778 250.36268 
L 302.02696 253.292315 
L 296.004474 256.127656 
L 289.72403 258.837993 
L 283.231994 261.39709 
L 276.545119 263.793583 
L 269.665719 266.022304 
L 262.570625 268.08629 
L 255.206453 269.995732 
L 247.464298 271.771488 
L 239.152438 273.446741 
L 229.863404 275.086781 
L 218.523936 276.851843 
L 195.49995 280.139342 
L 177.097149 282.907626 
L 160.781172 285.33474 
L 155.574545 285.880518 
L 152.116222 286.031489 
L 149.606982 285.928676 
L 147.699617 285.636478 
L 146.202017 285.189289 
L 144.987918 284.59972 
L 143.976828 283.864017 
L 143.111507 282.958068 
L 142.358252 281.842416 
L 141.694821 280.451977 
L 141.113316 278.699289 
L 140.615329 276.464495 
L 140.211799 273.588498 
L 139.922641 269.856681 
L 139.779433 264.999438 
L 139.826196 258.715419 
L 140.115968 250.753492 
L 140.694079 241.132444 
L 141.562446 230.413562 
L 142.654251 219.659285 
L 143.874816 209.790281 
L 145.168848 201.097918 
L 146.525589 193.464073 
L 147.956236 186.663649 
L 149.475861 180.505047 
L 151.099046 174.844167 
L 152.837395 169.580905 
L 154.699239 164.647227 
L 156.69133 159.994019 
L 158.817571 155.588976 
L 161.082342 151.405911 
L 163.485129 147.432701 
L 166.028012 143.655844 
L 168.708533 140.071344 
L 171.524589 136.675764 
L 174.472441 133.46859 
L 177.548678 130.449544 
L 180.748009 127.620668 
L 184.063004 124.985697 
L 187.488861 122.546081 
L 191.018783 120.304882 
L 194.64381 118.266137 
L 198.36057 116.430596 
L 202.158509 114.802663 
L 206.032856 113.383741 
L 209.974176 112.176909 
L 213.976356 111.183769 
L 218.034013 110.40581 
L 222.139727 109.844871 
L 226.289504 109.50225 
L 230.477233 109.379606 
L 234.697361 109.478503 
L 238.944815 109.800541 
L 243.214897 110.347464 
L 247.503161 111.121242 
L 251.80246 112.123402 
L 256.105596 113.35518 
L 260.407979 114.818525 
L 264.699046 116.513244 
L 268.976176 118.44206 
L 273.227704 120.60381 
L 277.444088 122.997538 
L 281.617833 125.623097 
L 285.74065 128.479761 
L 289.800704 131.563848 
L 293.790947 134.874724 
L 297.69816 138.406242 
L 301.511321 142.152965 
L 305.218937 146.108051 
L 308.8117 150.266252 
L 312.274804 154.615024 
L 315.59346 159.139598 
L 318.755345 163.82663 
L 321.743489 168.653805 
L 324.539339 173.592155 
L 327.129508 178.617722 
L 329.49531 183.69201 
L 331.619836 188.773037 
L 333.488551 193.815676 
L 335.089793 198.771999 
L 336.416765 203.596516 
L 337.467567 208.247247 
L 338.245295 212.686771 
L 338.759151 216.893327 
L 339.021328 220.852099 
L 339.046538 224.555779 
L 338.850332 228.015128 
L 338.44683 231.243701 
L 337.847377 234.262474 
L 337.059905 237.094166 
L 336.08842 239.762572 
L 334.930174 242.29645 
L 333.576052 244.72354 
L 332.016573 247.061185 
L 330.231852 249.333753 
L 328.199598 251.558678 
L 325.893181 253.750716 
L 323.286518 255.918289 
L 320.342051 258.073972 
L 317.033057 260.217258 
L 313.332431 262.345843 
L 309.218072 264.452691 
L 304.67939 266.524213 
L 299.713325 268.543815 
L 294.336378 270.488326 
L 288.574609 272.333852 
L 282.452068 274.059548 
L 276.020062 275.640012 
L 269.310126 277.058615 
L 262.34498 278.30282 
L 255.13245 279.364267 
L 247.653999 280.238842 
L 239.860349 280.924837 
L 231.651343 281.42211 
L 222.831255 281.730443 
L 213.029371 281.845525 
L 201.37552 281.75098 
L 184.875802 281.37318 
L 160.821774 280.602923 
L 152.036488 280.122365 
L 146.676427 279.618741 
L 142.907071 279.051791 
L 140.086722 278.411855 
L 137.896487 277.694623 
L 136.147921 276.894167 
L 134.721825 276.001575 
L 133.532848 274.997853 
L 132.524559 273.855834 
L 131.659091 272.536578 
L 130.913577 270.987891 
L 130.276607 269.139451 
L 129.748232 266.902923 
L 129.338129 264.166899 
L 129.065645 260.795242 
L 128.959988 256.627369 
L 129.060133 251.497247 
L 129.410693 245.277709 
L 130.051547 237.950667 
L 130.999463 229.70007 
L 132.231451 220.931345 
L 133.690289 212.137721 
L 135.310021 203.718201 
L 137.042928 195.872151 
L 138.864779 188.640878 
L 140.76917 181.98096 
L 142.759121 175.821734 
L 144.841488 170.092915 
L 147.022571 164.737819 
L 149.309073 159.708655 
L 151.70817 154.965627 
L 154.222391 150.484909 
L 154.999684 149.188446 
L 154.999684 149.188446 
" style="fill:none;stroke:#0000ff;stroke-linecap:square;stroke-width:1.5;"/>
   </g>
   <g id="line2d_14">
    <path clip-path="url(#p5506e111f0)" d="M 221.342425 53.568 
L 221.453236 53.596831 
L 222.136104 53.898399 
L 222.945153 54.508205 
L 223.860418 55.488545 
L 224.885207 56.92368 
L 226.046044 58.950407 
L 227.350959 61.700126 
L 228.809982 65.314189 
L 230.477561 70.065108 
L 232.423437 76.318094 
L 234.781142 84.684453 
L 238.255407 97.935974 
L 243.626873 118.369166 
L 246.382598 127.937129 
L 248.858803 135.747255 
L 251.257739 142.583 
L 253.670617 148.794288 
L 256.247798 154.80802 
L 259.047151 160.77183 
L 262.315742 167.200841 
L 266.56204 175.031779 
L 281.173095 201.569945 
L 285.146368 209.469864 
L 288.592136 216.806802 
L 291.696913 223.939385 
L 294.447332 230.817139 
L 296.837441 237.390156 
L 298.866317 243.610035 
L 300.5369 249.430438 
L 301.855835 254.807613 
L 302.834201 259.70122 
L 303.489141 264.075799 
L 303.846298 267.903229 
L 303.942671 271.1663 
L 303.810015 274.082143 
L 303.496608 276.424531 
L 303.023894 278.41852 
L 302.424807 280.071486 
L 301.644664 281.559739 
L 300.789909 282.720791 
L 299.780056 283.711219 
L 298.617983 284.518988 
L 297.312508 285.139271 
L 295.877227 285.574826 
L 294.127874 285.855683 
L 292.259462 285.934151 
L 290.071572 285.811746 
L 287.326996 285.416302 
L 284.246841 284.73517 
L 280.597726 283.687511 
L 276.382082 282.233797 
L 271.610698 280.349585 
L 266.046596 277.904246 
L 259.963777 274.985737 
L 253.390461 271.588262 
L 246.361111 267.69981 
L 239.413116 263.598387 
L 232.820178 259.450019 
L 226.601552 255.273245 
L 221.004877 251.251675 
L 215.801273 247.239072 
L 211.214901 243.4322 
L 207.019476 239.673947 
L 203.214058 235.980541 
L 199.608432 232.166407 
L 196.398917 228.443368 
L 193.57088 224.83308 
L 190.957103 221.137407 
L 188.706552 217.588472 
L 186.67078 213.979846 
L 184.859502 210.321802 
L 183.280505 206.626005 
L 181.939448 202.905214 
L 180.839774 199.172973 
L 179.982701 195.443275 
L 179.36728 191.730231 
L 178.990522 188.047758 
L 178.847578 184.409303 
L 178.931952 180.827611 
L 179.235736 177.314535 
L 179.749858 173.880897 
L 180.464325 170.536395 
L 181.431012 167.090035 
L 182.598434 163.762643 
L 183.952893 160.561459 
L 185.575575 157.315945 
L 187.376292 154.223617 
L 189.339218 151.288114 
L 191.570323 148.362099 
L 193.948074 145.614388 
L 196.456391 143.044751 
L 199.221324 140.530758 
L 202.098235 138.209926 
L 205.223469 135.977086 
L 208.440672 133.948496 
L 211.894859 132.036532 
L 215.421147 130.336337 
L 219.171681 128.778065 
L 222.975814 127.43644 
L 226.991398 126.259572 
L 231.044252 125.302802 
L 235.296587 124.532366 
L 239.572332 123.985362 
L 243.864805 123.655109 
L 248.340685 123.535286 
L 252.823205 123.637912 
L 257.307738 123.958251 
L 261.962507 124.517207 
L 266.610885 125.303371 
L 271.248949 126.314203 
L 275.872849 127.547957 
L 280.47865 129.003607 
L 285.062192 130.680785 
L 289.61894 132.57972 
L 294.143841 134.701196 
L 298.631148 137.046517 
L 303.074222 139.617484 
L 307.465281 142.416385 
L 311.795073 145.446004 
L 315.896197 148.584546 
L 319.918006 151.943505 
L 323.696364 155.384774 
L 327.370764 159.037368 
L 330.780679 162.746697 
L 333.917869 166.491782 
L 336.773226 170.251764 
L 339.336779 174.005683 
L 341.489538 177.542345 
L 343.350822 181.015917 
L 344.915393 184.404898 
L 346.180711 187.68717 
L 347.148714 190.840172 
L 347.827869 193.841444 
L 348.235022 196.669564 
L 348.396361 199.305366 
L 348.332604 201.954124 
L 348.064182 204.382921 
L 347.588398 206.802126 
L 346.904448 209.202101 
L 345.926489 211.788378 
L 344.718653 214.332947 
L 343.297813 216.829703 
L 341.540459 219.476473 
L 339.422012 222.257315 
L 336.924612 225.156968 
L 334.036096 228.161114 
L 330.748588 231.256196 
L 327.057141 234.428882 
L 322.958705 237.665352 
L 318.451536 240.950505 
L 313.535047 244.267213 
L 308.210074 247.595691 
L 302.479269 250.91259 
L 296.607055 254.060024 
L 290.354793 257.158113 
L 284.001388 260.061441 
L 277.304002 262.875487 
L 270.554692 265.474983 
L 263.511091 267.955642 
L 255.93239 270.38553 
L 247.857852 272.735153 
L 239.070533 275.058669 
L 228.597944 277.588419 
L 213.820025 280.903188 
L 169.167529 290.588924 
L 164.412312 291.326075 
L 161.10662 291.630212 
L 158.569359 291.650816 
L 156.560457 291.447433 
L 155.015095 291.083289 
L 153.620679 290.520729 
L 152.486478 289.825365 
L 151.476612 288.951191 
L 150.500749 287.787912 
L 149.652649 286.427012 
L 148.792764 284.591655 
L 148.009994 282.381591 
L 147.217455 279.437734 
L 146.453118 275.700788 
L 145.682377 270.744999 
L 144.925545 264.334179 
L 144.187656 256.067891 
L 143.521535 246.03683 
L 142.997797 234.819993 
L 142.698511 223.798599 
L 142.644612 213.806279 
L 142.81254 205.189784 
L 143.178284 197.492306 
L 143.730354 190.485832 
L 144.468876 183.961085 
L 145.37784 177.911719 
L 146.47151 172.148554 
L 147.739511 166.676512 
L 149.166357 161.499896 
L 150.792074 156.449405 
L 152.548211 151.706808 
L 154.48252 147.108795 
L 156.587588 142.667476 
L 158.854041 138.393683 
L 161.27102 134.296742 
L 163.920328 130.248115 
L 166.704511 126.404121 
L 169.609495 122.769589 
L 172.621357 119.347629 
L 175.835219 116.03301 
L 179.1349 112.947737 
L 182.507223 110.090715 
L 186.055427 107.375931 
L 189.656204 104.899198 
L 193.298797 102.656442 
L 197.092732 100.581897 
L 200.912135 98.74637 
L 204.749326 97.144258 
L 208.718262 95.730583 
L 212.693494 94.553059 
L 216.67041 93.605828 
L 220.645456 92.883363 
L 224.736247 92.368691 
L 228.820349 92.082129 
L 232.896642 92.019239 
L 236.964713 92.176256 
L 241.024737 92.550149 
L 245.196469 93.159207 
L 249.361513 93.994166 
L 253.521306 95.054472 
L 257.677454 96.340607 
L 261.8316 97.854139 
L 266.103955 99.651003 
L 270.37717 101.695544 
L 274.652093 103.993356 
L 278.928836 106.551406 
L 283.087691 109.295813 
L 287.245469 112.30297 
L 291.398795 115.582902 
L 295.424396 119.040798 
L 299.434565 122.777467 
L 303.303984 126.68175 
L 307.140932 130.870417 
L 310.818998 135.214157 
L 314.329181 139.696397 
L 317.772375 144.457294 
L 321.024335 149.337577 
L 324.07538 154.316702 
L 326.9164 159.372962 
L 329.538978 164.483667 
L 331.935452 169.625335 
L 334.098935 174.773878 
L 336.0233 179.904761 
L 337.703163 184.99313 
L 339.133894 190.013897 
L 340.311697 194.941793 
L 341.233828 199.75141 
L 341.89899 204.417263 
L 342.308002 208.913934 
L 342.462308 212.962071 
L 342.401872 216.788706 
L 342.116326 220.631282 
L 341.622278 224.216232 
L 340.946717 227.528117 
L 340.045638 230.807125 
L 339.002503 233.789761 
L 337.749975 236.715963 
L 336.286531 239.572999 
L 334.615677 242.349988 
L 332.745608 245.038565 
L 330.50879 247.84506 
L 328.070566 250.537847 
L 325.242321 253.310187 
L 322.228211 255.952563 
L 318.818873 258.644236 
L 315.005295 261.363257 
L 310.78289 264.088803 
L 306.15087 266.800863 
L 301.111773 269.479844 
L 295.671216 272.106211 
L 290.118061 274.54327 
L 284.192291 276.907354 
L 277.906283 279.179077 
L 271.276098 281.339876 
L 264.321601 283.37288 
L 257.066352 285.263994 
L 249.248295 287.06555 
L 241.190145 288.693384 
L 232.642501 290.195851 
L 223.373917 291.59786 
L 213.454412 292.871467 
L 203.234433 293.963171 
L 193.31291 294.803431 
L 184.987764 295.296487 
L 178.189186 295.483382 
L 172.832911 295.411418 
L 168.596888 295.137413 
L 164.9892 294.687734 
L 161.974113 294.091377 
L 159.321561 293.333738 
L 157.011206 292.432428 
L 155.016022 291.416425 
L 153.154762 290.216097 
L 151.424765 288.831011 
L 149.819256 287.267682 
L 148.209021 285.387261 
L 146.608706 283.167991 
L 145.027433 280.598172 
L 143.376173 277.487607 
L 141.677309 273.814067 
L 139.867987 269.364739 
L 137.979091 264.126354 
L 135.970854 257.886975 
L 133.947656 250.876017 
L 131.940179 243.123117 
L 130.037677 234.88248 
L 128.360346 226.630487 
L 126.953152 218.612983 
L 125.810978 210.845409 
L 124.929237 203.340054 
L 124.301429 196.108196 
L 123.917829 189.160606 
L 123.917829 189.160606 
" style="fill:none;stroke:#bf00bf;stroke-linecap:square;stroke-width:1.5;"/>
   </g>
   <g id="line2d_15">
    <path clip-path="url(#p5506e111f0)" d="M 221.342425 53.568 
L 221.450349 53.596146 
L 222.10152 53.878816 
L 222.848147 54.423447 
L 223.790547 55.406156 
L 224.718892 56.671557 
L 225.892224 58.664022 
L 227.323457 61.644655 
L 228.653402 64.909453 
L 230.14317 69.073338 
L 232.225605 75.661793 
L 234.559 83.875747 
L 237.736837 95.92812 
L 243.626053 118.364147 
L 246.072318 126.901141 
L 248.906421 135.887358 
L 251.078668 142.095194 
L 253.53211 148.454044 
L 256.311539 154.950598 
L 259.446463 161.584152 
L 262.93665 168.372164 
L 268.744195 178.924956 
L 277.126966 193.927778 
L 281.381704 201.912044 
L 285.562984 210.243954 
L 289.592611 218.925949 
L 293.392301 227.94734 
L 295.178825 232.577844 
L 296.872603 237.281697 
L 298.457757 242.051674 
L 299.914713 246.877734 
L 301.218525 251.745648 
L 302.33636 256.634699 
L 303.223649 261.51376 
L 303.818136 266.334404 
L 304.031061 271.018797 
L 303.736125 275.439424 
L 302.764401 279.392187 
L 300.934139 282.589466 
L 298.152659 284.745525 
L 294.521946 285.757362 
L 290.283193 285.763419 
L 285.668529 285.003628 
L 280.836355 283.691579 
L 275.881967 281.981139 
L 270.861811 279.976141 
L 265.810571 277.745872 
L 260.750995 275.336738 
L 255.699332 272.779831 
L 250.668424 270.095692 
L 245.669563 267.297321 
L 240.713683 264.392139 
L 235.812202 261.383317 
L 230.977652 258.270751 
L 226.224184 255.051841 
L 221.567958 251.7222 
L 217.027429 248.27636 
L 212.623489 244.708528 
L 208.379433 241.013413 
L 204.320701 237.187102 
L 200.474379 233.227954 
L 196.868451 229.137424 
L 193.530827 224.920743 
L 190.488232 220.58735 
L 187.765052 216.151032 
L 185.382243 211.629716 
L 183.356432 207.044958 
L 181.699278 202.421168 
L 180.417137 197.784681 
L 179.51104 193.162753 
L 178.976948 188.582587 
L 178.806216 184.070465 
L 178.986219 179.651026 
L 179.501062 175.346711 
L 180.332308 171.177393 
L 181.459698 167.160162 
L 182.861818 163.309258 
L 184.516689 159.636113 
L 186.402275 156.149485 
L 188.496914 152.855663 
L 190.779646 149.7587 
L 193.230483 146.860687 
L 195.830589 144.16202 
L 198.562409 141.661681 
L 201.40974 139.357491 
L 204.357759 137.246359 
L 207.393009 135.324501 
L 210.503368 133.587641 
L 213.677984 132.031184 
L 216.907199 130.650362 
L 220.182465 129.440362 
L 223.496248 128.39643 
L 226.841938 127.513948 
L 230.213744 126.788502 
L 233.606609 126.215927 
L 237.016114 125.792344 
L 240.438397 125.514178 
L 243.87007 125.37817 
L 247.308148 125.381386 
L 250.749979 125.521204 
L 254.193186 125.795318 
L 257.635607 126.201717 
L 261.075245 126.738675 
L 264.510227 127.404734 
L 267.938756 128.198689 
L 271.359078 129.119566 
L 274.769442 130.166609 
L 278.168073 131.339259 
L 281.55314 132.637143 
L 284.92272 134.060055 
L 288.274775 135.607945 
L 291.607114 137.280907 
L 294.91736 139.079168 
L 298.202913 141.003079 
L 301.460903 143.053113 
L 304.688136 145.229854 
L 307.881033 147.533999 
L 311.035543 149.966357 
L 314.147051 152.527843 
L 317.210242 155.219485 
L 320.218938 158.04242 
L 323.16588 160.997889 
L 326.042439 164.087229 
L 328.83823 167.311848 
L 331.540586 170.673173 
L 334.133844 174.172563 
L 336.598355 177.811137 
L 338.909113 181.589465 
L 341.03389 185.507025 
L 342.930734 189.561243 
L 344.544874 193.745849 
L 345.80555 198.0482 
L 346.624537 202.445351 
L 346.900425 206.899536 
L 346.534459 211.355939 
L 345.459078 215.747894 
L 343.665398 220.011578 
L 341.20693 224.102283 
L 338.175746 228.000455 
L 334.671984 231.706106 
L 330.784706 235.229327 
L 326.585759 238.583003 
L 322.130802 241.778903 
L 317.462661 244.826148 
L 312.614767 247.730922 
L 307.613965 250.496736 
L 302.482628 253.124919 
L 297.240207 255.615173 
L 291.904329 257.966148 
L 286.491558 260.176022 
L 281.017896 262.243068 
L 275.499051 264.166206 
L 269.950531 265.945508 
L 264.387572 267.582645 
L 258.824933 269.081237 
L 253.276608 270.447074 
L 242.272924 272.814759 
L 231.460126 274.773943 
L 220.891047 276.43538 
L 195.630768 280.008644 
L 176.640611 282.830907 
L 163.375993 284.824354 
L 159.259887 285.353421 
L 155.373599 285.733682 
L 151.789724 285.881786 
L 148.59986 285.682996 
L 145.901735 284.998442 
L 143.764961 283.701495 
L 142.189981 281.737388 
L 141.102596 279.153468 
L 140.393672 276.06587 
L 139.961175 272.604087 
L 139.727199 268.878726 
L 139.654056 260.952324 
L 139.914626 252.723877 
L 140.385295 244.427005 
L 141.359474 232.117763 
L 142.586605 220.145567 
L 144.063941 208.581705 
L 145.214085 201.102009 
L 146.528952 193.800101 
L 148.044041 186.672548 
L 149.79769 179.721977 
L 151.826813 172.959486 
L 154.162716 166.405098 
L 156.827746 160.086454 
L 159.833259 154.036255 
L 161.464081 151.122662 
L 163.17909 148.28916 
L 164.976596 145.539894 
L 166.854349 142.878782 
L 168.809607 140.309457 
L 170.83921 137.835225 
L 172.939663 135.459027 
L 175.107213 133.183425 
L 177.33792 131.010591 
L 179.627729 128.942311 
L 181.972533 126.979993 
L 184.368234 125.124686 
L 186.810787 123.377107 
L 189.296249 121.73766 
L 194.380824 118.78344 
L 199.593593 116.26032 
L 204.909409 114.163736 
L 210.306655 112.487288 
L 215.76728 111.223692 
L 221.27663 110.365613 
L 226.823136 109.906387 
L 232.397891 109.840617 
L 237.994155 110.164658 
L 243.606791 110.876994 
L 249.231674 111.978503 
L 254.865056 113.472614 
L 260.50291 115.365352 
L 266.140267 117.665257 
L 271.770553 120.383171 
L 277.384956 123.531886 
L 282.971832 127.125667 
L 288.516177 131.179635 
L 293.999186 135.709072 
L 299.39786 140.728658 
L 302.057151 143.426491 
L 304.684654 146.251706 
L 307.276145 149.205636 
L 309.827052 152.289439 
L 312.332426 155.504087 
L 314.786899 158.850343 
L 317.184627 162.328744 
L 319.519218 165.939588 
L 321.783629 169.682903 
L 323.97003 173.558425 
L 326.069621 177.565553 
L 328.072381 181.70329 
L 329.966739 185.970148 
L 331.739117 190.364006 
L 333.37332 194.881886 
L 334.849691 199.519609 
L 336.143966 204.271247 
L 337.225722 209.128259 
L 338.056319 214.078132 
L 338.586342 219.102267 
L 338.752886 224.17281 
L 338.47789 229.248378 
L 337.67059 234.269566 
L 336.239165 239.15752 
L 334.115008 243.821513 
L 331.2816 248.17871 
L 327.786287 252.176974 
L 323.722536 255.803684 
L 319.198098 259.076335 
L 314.311459 262.026506 
L 309.142906 264.687792 
L 303.754852 267.089911 
L 298.195464 269.256959 
L 292.502553 271.207654 
L 286.706722 272.956307 
L 280.833655 274.513943 
L 274.905697 275.889363 
L 268.94288 277.090083 
L 262.963553 278.12313 
L 256.984709 278.995704 
L 251.022088 279.71569 
L 245.090129 280.292023 
L 239.201824 280.734895 
L 227.599773 281.267427 
L 216.284279 281.417925 
L 205.292999 281.299593 
L 189.43578 280.84802 
L 160.0787 279.69874 
L 151.222421 279.170129 
L 147.07841 278.794133 
L 143.193158 278.28301 
L 139.640042 277.567605 
L 136.507155 276.557828 
L 133.881895 275.152841 
L 131.819786 273.270023 
L 130.314364 270.881871 
L 129.297972 268.028535 
L 128.673978 264.793788 
L 128.349433 261.270696 
L 128.249896 257.540956 
L 128.32055 253.669046 
L 128.827368 245.681028 
L 129.673779 237.565424 
L 130.758435 229.467491 
L 132.028161 221.470479 
L 133.456843 213.622241 
L 135.035548 205.949606 
L 136.767423 198.467068 
L 138.664449 191.182771 
L 140.744696 184.10297 
L 143.029524 177.235332 
L 145.540656 170.591067 
L 148.297343 164.185848 
L 151.31395 158.039604 
L 154.598257 152.175413 
L 158.150653 146.617855 
L 160.025483 143.961708 
L 160.025483 143.961708 
" style="fill:none;stroke:#000000;stroke-linecap:square;stroke-width:1.5;"/>
   </g>
   <g id="patch_3">
    <path d="M 112.693612 307.584 
L 112.693612 41.472 
" style="fill:none;stroke:#000000;stroke-linecap:square;stroke-linejoin:miter;stroke-width:0.8;"/>
   </g>
   <g id="patch_4">
    <path d="M 359.626388 307.584 
L 359.626388 41.472 
" style="fill:none;stroke:#000000;stroke-linecap:square;stroke-linejoin:miter;stroke-width:0.8;"/>
   </g>
   <g id="patch_5">
    <path d="M 112.693612 307.584 
L 359.626388 307.584 
" style="fill:none;stroke:#000000;stroke-linecap:square;stroke-linejoin:miter;stroke-width:0.8;"/>
   </g>
   <g id="patch_6">
    <path d="M 112.693612 41.472 
L 359.626388 41.472 
" style="fill:none;stroke:#000000;stroke-linecap:square;stroke-linejoin:miter;stroke-width:0.8;"/>
   </g>
   <g id="legend_1">
    <g id="patch_7">
     <path d="M 263.235763 94.472 
L 352.626388 94.472 
Q 354.626388 94.472 354.626388 92.472 
L 354.626388 48.472 
Q 354.626388 46.472 352.626388 46.472 
L 263.235763 46.472 
Q 261.235763 46.472 261.235763 48.472 
L 261.235763 92.472 
Q 261.235763 94.472 263.235763 94.472 
z
" style="fill:#ffffff;opacity:0.8;stroke:#cccccc;stroke-linejoin:miter;"/>
    </g>
    <g id="line2d_16">
     <path d="M 265.235763 54.614188 
L 285.235763 54.614188 
" style="fill:none;stroke:#0000ff;stroke-linecap:square;stroke-width:1.5;"/>
    </g>
    <g id="line2d_17"/>
    <g id="text_15">
     <!-- 1e-05 | I |  -->
     <defs>
      <path d="M 56.203125 29.59375 
L 56.203125 25.203125 
L 14.890625 25.203125 
Q 15.484375 15.921875 20.484375 11.0625 
Q 25.484375 6.203125 34.421875 6.203125 
Q 39.59375 6.203125 44.453125 7.46875 
Q 49.3125 8.734375 54.109375 11.28125 
L 54.109375 2.78125 
Q 49.265625 0.734375 44.1875 -0.34375 
Q 39.109375 -1.421875 33.890625 -1.421875 
Q 20.796875 -1.421875 13.15625 6.1875 
Q 5.515625 13.8125 5.515625 26.8125 
Q 5.515625 40.234375 12.765625 48.109375 
Q 20.015625 56 32.328125 56 
Q 43.359375 56 49.78125 48.890625 
Q 56.203125 41.796875 56.203125 29.59375 
z
M 47.21875 32.234375 
Q 47.125 39.59375 43.09375 43.984375 
Q 39.0625 48.390625 32.421875 48.390625 
Q 24.90625 48.390625 20.390625 44.140625 
Q 15.875 39.890625 15.1875 32.171875 
z
" id="DejaVuSans-101"/>
      <path id="DejaVuSans-32"/>
      <path d="M 21 76.421875 
L 21 -23.578125 
L 12.703125 -23.578125 
L 12.703125 76.421875 
z
" id="DejaVuSans-124"/>
      <path d="M 9.8125 72.90625 
L 19.671875 72.90625 
L 19.671875 0 
L 9.8125 0 
z
" id="DejaVuSans-73"/>
     </defs>
     <g transform="translate(293.235763 58.114188)scale(0.1 -0.1)">
      <use xlink:href="#DejaVuSans-49"/>
      <use x="63.623047" xlink:href="#DejaVuSans-101"/>
      <use x="125.146484" xlink:href="#DejaVuSans-45"/>
      <use x="161.230469" xlink:href="#DejaVuSans-48"/>
      <use x="224.853516" xlink:href="#DejaVuSans-53"/>
      <use x="288.476562" xlink:href="#DejaVuSans-32"/>
      <use x="320.263672" xlink:href="#DejaVuSans-124"/>
      <use x="353.955078" xlink:href="#DejaVuSans-32"/>
      <use x="385.742188" xlink:href="#DejaVuSans-73"/>
      <use x="415.234375" xlink:href="#DejaVuSans-32"/>
      <use x="447.021484" xlink:href="#DejaVuSans-124"/>
      <use x="480.712891" xlink:href="#DejaVuSans-32"/>
     </g>
    </g>
    <g id="line2d_18">
     <path d="M 265.235763 69.614188 
L 285.235763 69.614188 
" style="fill:none;stroke:#bf00bf;stroke-linecap:square;stroke-width:1.5;"/>
    </g>
    <g id="line2d_19"/>
    <g id="text_16">
     <!-- 0.0005 | I |  -->
     <g transform="translate(293.235763 73.114188)scale(0.1 -0.1)">
      <use xlink:href="#DejaVuSans-48"/>
      <use x="63.623047" xlink:href="#DejaVuSans-46"/>
      <use x="95.410156" xlink:href="#DejaVuSans-48"/>
      <use x="159.033203" xlink:href="#DejaVuSans-48"/>
      <use x="222.65625" xlink:href="#DejaVuSans-48"/>
      <use x="286.279297" xlink:href="#DejaVuSans-53"/>
      <use x="349.902344" xlink:href="#DejaVuSans-32"/>
      <use x="381.689453" xlink:href="#DejaVuSans-124"/>
      <use x="415.380859" xlink:href="#DejaVuSans-32"/>
      <use x="447.167969" xlink:href="#DejaVuSans-73"/>
      <use x="476.660156" xlink:href="#DejaVuSans-32"/>
      <use x="508.447266" xlink:href="#DejaVuSans-124"/>
      <use x="542.138672" xlink:href="#DejaVuSans-32"/>
     </g>
    </g>
    <g id="line2d_20">
     <path d="M 265.235763 84.614188 
L 285.235763 84.614188 
" style="fill:none;stroke:#000000;stroke-linecap:square;stroke-width:1.5;"/>
    </g>
    <g id="line2d_21"/>
    <g id="text_17">
     <!-- 0.01 | rk4 -->
     <defs>
      <path d="M 41.109375 46.296875 
Q 39.59375 47.171875 37.8125 47.578125 
Q 36.03125 48 33.890625 48 
Q 26.265625 48 22.1875 43.046875 
Q 18.109375 38.09375 18.109375 28.8125 
L 18.109375 0 
L 9.078125 0 
L 9.078125 54.6875 
L 18.109375 54.6875 
L 18.109375 46.1875 
Q 20.953125 51.171875 25.484375 53.578125 
Q 30.03125 56 36.53125 56 
Q 37.453125 56 38.578125 55.875 
Q 39.703125 55.765625 41.0625 55.515625 
z
" id="DejaVuSans-114"/>
      <path d="M 9.078125 75.984375 
L 18.109375 75.984375 
L 18.109375 31.109375 
L 44.921875 54.6875 
L 56.390625 54.6875 
L 27.390625 29.109375 
L 57.625 0 
L 45.90625 0 
L 18.109375 26.703125 
L 18.109375 0 
L 9.078125 0 
z
" id="DejaVuSans-107"/>
      <path d="M 37.796875 64.3125 
L 12.890625 25.390625 
L 37.796875 25.390625 
z
M 35.203125 72.90625 
L 47.609375 72.90625 
L 47.609375 25.390625 
L 58.015625 25.390625 
L 58.015625 17.1875 
L 47.609375 17.1875 
L 47.609375 0 
L 37.796875 0 
L 37.796875 17.1875 
L 4.890625 17.1875 
L 4.890625 26.703125 
z
" id="DejaVuSans-52"/>
     </defs>
     <g transform="translate(293.235763 88.114188)scale(0.1 -0.1)">
      <use xlink:href="#DejaVuSans-48"/>
      <use x="63.623047" xlink:href="#DejaVuSans-46"/>
      <use x="95.410156" xlink:href="#DejaVuSans-48"/>
      <use x="159.033203" xlink:href="#DejaVuSans-49"/>
      <use x="222.65625" xlink:href="#DejaVuSans-32"/>
      <use x="254.443359" xlink:href="#DejaVuSans-124"/>
      <use x="288.134766" xlink:href="#DejaVuSans-32"/>
      <use x="319.921875" xlink:href="#DejaVuSans-114"/>
      <use x="361.035156" xlink:href="#DejaVuSans-107"/>
      <use x="418.945312" xlink:href="#DejaVuSans-52"/>
     </g>
    </g>
   </g>
  </g>
  <g id="text_18">
   <!-- Trajectory of the centre of 2nd link -->
   <defs>
    <path d="M -0.296875 72.90625 
L 61.375 72.90625 
L 61.375 64.59375 
L 35.5 64.59375 
L 35.5 0 
L 25.59375 0 
L 25.59375 64.59375 
L -0.296875 64.59375 
z
" id="DejaVuSans-84"/>
    <path d="M 9.421875 54.6875 
L 18.40625 54.6875 
L 18.40625 -0.984375 
Q 18.40625 -11.421875 14.421875 -16.109375 
Q 10.453125 -20.796875 1.609375 -20.796875 
L -1.8125 -20.796875 
L -1.8125 -13.1875 
L 0.59375 -13.1875 
Q 5.71875 -13.1875 7.5625 -10.8125 
Q 9.421875 -8.453125 9.421875 -0.984375 
z
M 9.421875 75.984375 
L 18.40625 75.984375 
L 18.40625 64.59375 
L 9.421875 64.59375 
z
" id="DejaVuSans-106"/>
    <path d="M 48.78125 52.59375 
L 48.78125 44.1875 
Q 44.96875 46.296875 41.140625 47.34375 
Q 37.3125 48.390625 33.40625 48.390625 
Q 24.65625 48.390625 19.8125 42.84375 
Q 14.984375 37.3125 14.984375 27.296875 
Q 14.984375 17.28125 19.8125 11.734375 
Q 24.65625 6.203125 33.40625 6.203125 
Q 37.3125 6.203125 41.140625 7.25 
Q 44.96875 8.296875 48.78125 10.40625 
L 48.78125 2.09375 
Q 45.015625 0.34375 40.984375 -0.53125 
Q 36.96875 -1.421875 32.421875 -1.421875 
Q 20.0625 -1.421875 12.78125 6.34375 
Q 5.515625 14.109375 5.515625 27.296875 
Q 5.515625 40.671875 12.859375 48.328125 
Q 20.21875 56 33.015625 56 
Q 37.15625 56 41.109375 55.140625 
Q 45.0625 54.296875 48.78125 52.59375 
z
" id="DejaVuSans-99"/>
    <path d="M 18.3125 70.21875 
L 18.3125 54.6875 
L 36.8125 54.6875 
L 36.8125 47.703125 
L 18.3125 47.703125 
L 18.3125 18.015625 
Q 18.3125 11.328125 20.140625 9.421875 
Q 21.96875 7.515625 27.59375 7.515625 
L 36.8125 7.515625 
L 36.8125 0 
L 27.59375 0 
Q 17.1875 0 13.234375 3.875 
Q 9.28125 7.765625 9.28125 18.015625 
L 9.28125 47.703125 
L 2.6875 47.703125 
L 2.6875 54.6875 
L 9.28125 54.6875 
L 9.28125 70.21875 
z
" id="DejaVuSans-116"/>
    <path d="M 30.609375 48.390625 
Q 23.390625 48.390625 19.1875 42.75 
Q 14.984375 37.109375 14.984375 27.296875 
Q 14.984375 17.484375 19.15625 11.84375 
Q 23.34375 6.203125 30.609375 6.203125 
Q 37.796875 6.203125 41.984375 11.859375 
Q 46.1875 17.53125 46.1875 27.296875 
Q 46.1875 37.015625 41.984375 42.703125 
Q 37.796875 48.390625 30.609375 48.390625 
z
M 30.609375 56 
Q 42.328125 56 49.015625 48.375 
Q 55.71875 40.765625 55.71875 27.296875 
Q 55.71875 13.875 49.015625 6.21875 
Q 42.328125 -1.421875 30.609375 -1.421875 
Q 18.84375 -1.421875 12.171875 6.21875 
Q 5.515625 13.875 5.515625 27.296875 
Q 5.515625 40.765625 12.171875 48.375 
Q 18.84375 56 30.609375 56 
z
" id="DejaVuSans-111"/>
    <path d="M 32.171875 -5.078125 
Q 28.375 -14.84375 24.75 -17.8125 
Q 21.140625 -20.796875 15.09375 -20.796875 
L 7.90625 -20.796875 
L 7.90625 -13.28125 
L 13.1875 -13.28125 
Q 16.890625 -13.28125 18.9375 -11.515625 
Q 21 -9.765625 23.484375 -3.21875 
L 25.09375 0.875 
L 2.984375 54.6875 
L 12.5 54.6875 
L 29.59375 11.921875 
L 46.6875 54.6875 
L 56.203125 54.6875 
z
" id="DejaVuSans-121"/>
    <path d="M 37.109375 75.984375 
L 37.109375 68.5 
L 28.515625 68.5 
Q 23.6875 68.5 21.796875 66.546875 
Q 19.921875 64.59375 19.921875 59.515625 
L 19.921875 54.6875 
L 34.71875 54.6875 
L 34.71875 47.703125 
L 19.921875 47.703125 
L 19.921875 0 
L 10.890625 0 
L 10.890625 47.703125 
L 2.296875 47.703125 
L 2.296875 54.6875 
L 10.890625 54.6875 
L 10.890625 58.5 
Q 10.890625 67.625 15.140625 71.796875 
Q 19.390625 75.984375 28.609375 75.984375 
z
" id="DejaVuSans-102"/>
    <path d="M 54.890625 33.015625 
L 54.890625 0 
L 45.90625 0 
L 45.90625 32.71875 
Q 45.90625 40.484375 42.875 44.328125 
Q 39.84375 48.1875 33.796875 48.1875 
Q 26.515625 48.1875 22.3125 43.546875 
Q 18.109375 38.921875 18.109375 30.90625 
L 18.109375 0 
L 9.078125 0 
L 9.078125 75.984375 
L 18.109375 75.984375 
L 18.109375 46.1875 
Q 21.34375 51.125 25.703125 53.5625 
Q 30.078125 56 35.796875 56 
Q 45.21875 56 50.046875 50.171875 
Q 54.890625 44.34375 54.890625 33.015625 
z
" id="DejaVuSans-104"/>
    <path d="M 54.890625 33.015625 
L 54.890625 0 
L 45.90625 0 
L 45.90625 32.71875 
Q 45.90625 40.484375 42.875 44.328125 
Q 39.84375 48.1875 33.796875 48.1875 
Q 26.515625 48.1875 22.3125 43.546875 
Q 18.109375 38.921875 18.109375 30.90625 
L 18.109375 0 
L 9.078125 0 
L 9.078125 54.6875 
L 18.109375 54.6875 
L 18.109375 46.1875 
Q 21.34375 51.125 25.703125 53.5625 
Q 30.078125 56 35.796875 56 
Q 45.21875 56 50.046875 50.171875 
Q 54.890625 44.34375 54.890625 33.015625 
z
" id="DejaVuSans-110"/>
    <path d="M 19.1875 8.296875 
L 53.609375 8.296875 
L 53.609375 0 
L 7.328125 0 
L 7.328125 8.296875 
Q 12.9375 14.109375 22.625 23.890625 
Q 32.328125 33.6875 34.8125 36.53125 
Q 39.546875 41.84375 41.421875 45.53125 
Q 43.3125 49.21875 43.3125 52.78125 
Q 43.3125 58.59375 39.234375 62.25 
Q 35.15625 65.921875 28.609375 65.921875 
Q 23.96875 65.921875 18.8125 64.3125 
Q 13.671875 62.703125 7.8125 59.421875 
L 7.8125 69.390625 
Q 13.765625 71.78125 18.9375 73 
Q 24.125 74.21875 28.421875 74.21875 
Q 39.75 74.21875 46.484375 68.546875 
Q 53.21875 62.890625 53.21875 53.421875 
Q 53.21875 48.921875 51.53125 44.890625 
Q 49.859375 40.875 45.40625 35.40625 
Q 44.1875 33.984375 37.640625 27.21875 
Q 31.109375 20.453125 19.1875 8.296875 
z
" id="DejaVuSans-50"/>
    <path d="M 45.40625 46.390625 
L 45.40625 75.984375 
L 54.390625 75.984375 
L 54.390625 0 
L 45.40625 0 
L 45.40625 8.203125 
Q 42.578125 3.328125 38.25 0.953125 
Q 33.9375 -1.421875 27.875 -1.421875 
Q 17.96875 -1.421875 11.734375 6.484375 
Q 5.515625 14.40625 5.515625 27.296875 
Q 5.515625 40.1875 11.734375 48.09375 
Q 17.96875 56 27.875 56 
Q 33.9375 56 38.25 53.625 
Q 42.578125 51.265625 45.40625 46.390625 
z
M 14.796875 27.296875 
Q 14.796875 17.390625 18.875 11.75 
Q 22.953125 6.109375 30.078125 6.109375 
Q 37.203125 6.109375 41.296875 11.75 
Q 45.40625 17.390625 45.40625 27.296875 
Q 45.40625 37.203125 41.296875 42.84375 
Q 37.203125 48.484375 30.078125 48.484375 
Q 22.953125 48.484375 18.875 42.84375 
Q 14.796875 37.203125 14.796875 27.296875 
z
" id="DejaVuSans-100"/>
    <path d="M 9.421875 75.984375 
L 18.40625 75.984375 
L 18.40625 0 
L 9.421875 0 
z
" id="DejaVuSans-108"/>
   </defs>
   <g transform="translate(126.714375 16.030125)scale(0.12 -0.12)">
    <use xlink:href="#DejaVuSans-84"/>
    <use x="46.333984" xlink:href="#DejaVuSans-114"/>
    <use x="87.447266" xlink:href="#DejaVuSans-97"/>
    <use x="148.726562" xlink:href="#DejaVuSans-106"/>
    <use x="176.509766" xlink:href="#DejaVuSans-101"/>
    <use x="238.033203" xlink:href="#DejaVuSans-99"/>
    <use x="293.013672" xlink:href="#DejaVuSans-116"/>
    <use x="332.222656" xlink:href="#DejaVuSans-111"/>
    <use x="393.404297" xlink:href="#DejaVuSans-114"/>
    <use x="434.517578" xlink:href="#DejaVuSans-121"/>
    <use x="493.697266" xlink:href="#DejaVuSans-32"/>
    <use x="525.484375" xlink:href="#DejaVuSans-111"/>
    <use x="586.666016" xlink:href="#DejaVuSans-102"/>
    <use x="621.871094" xlink:href="#DejaVuSans-32"/>
    <use x="653.658203" xlink:href="#DejaVuSans-116"/>
    <use x="692.867188" xlink:href="#DejaVuSans-104"/>
    <use x="756.246094" xlink:href="#DejaVuSans-101"/>
    <use x="817.769531" xlink:href="#DejaVuSans-32"/>
    <use x="849.556641" xlink:href="#DejaVuSans-99"/>
    <use x="904.537109" xlink:href="#DejaVuSans-101"/>
    <use x="966.060547" xlink:href="#DejaVuSans-110"/>
    <use x="1029.439453" xlink:href="#DejaVuSans-116"/>
    <use x="1068.648438" xlink:href="#DejaVuSans-114"/>
    <use x="1107.511719" xlink:href="#DejaVuSans-101"/>
    <use x="1169.035156" xlink:href="#DejaVuSans-32"/>
    <use x="1200.822266" xlink:href="#DejaVuSans-111"/>
    <use x="1262.003906" xlink:href="#DejaVuSans-102"/>
    <use x="1297.208984" xlink:href="#DejaVuSans-32"/>
    <use x="1328.996094" xlink:href="#DejaVuSans-50"/>
    <use x="1392.619141" xlink:href="#DejaVuSans-110"/>
    <use x="1455.998047" xlink:href="#DejaVuSans-100"/>
    <use x="1519.474609" xlink:href="#DejaVuSans-32"/>
    <use x="1551.261719" xlink:href="#DejaVuSans-108"/>
    <use x="1579.044922" xlink:href="#DejaVuSans-105"/>
    <use x="1606.828125" xlink:href="#DejaVuSans-110"/>
    <use x="1670.207031" xlink:href="#DejaVuSans-107"/>
   </g>
  </g>
 </g>
 <defs>
  <clipPath id="p5506e111f0">
   <rect height="266.112" width="246.932777" x="112.693612" y="41.472"/>
  </clipPath>
 </defs>
</svg>
