<?xml version="1.0" encoding="utf-8" standalone="no"?>
<!DOCTYPE svg PUBLIC "-//W3C//DTD SVG 1.1//EN"
  "http://www.w3.org/Graphics/SVG/1.1/DTD/svg11.dtd">
<!-- Created with matplotlib (https://matplotlib.org/) -->
<svg height="345.6pt" version="1.1" viewBox="0 0 460.8 345.6" width="460.8pt" xmlns="http://www.w3.org/2000/svg" xmlns:xlink="http://www.w3.org/1999/xlink">
 <defs>
  <style type="text/css">
*{stroke-linecap:butt;stroke-linejoin:round;}
  </style>
 </defs>
 <g id="figure_1">
  <g id="patch_1">
   <path d="M 0 345.6 
L 460.8 345.6 
L 460.8 0 
L 0 0 
z
" style="fill:#ffffff;"/>
  </g>
  <g id="axes_1">
   <g id="patch_2">
    <path d="M 97.750263 307.584 
L 374.569737 307.584 
L 374.569737 41.472 
L 97.750263 41.472 
z
" style="fill:#ffffff;"/>
   </g>
   <g id="matplotlib.axis_1">
    <g id="xtick_1">
     <g id="line2d_1">
      <defs>
       <path d="M 0 0 
L 0 3.5 
" id="mfa02f72b12" style="stroke:#000000;stroke-width:0.8;"/>
      </defs>
      <g>
       <use style="stroke:#000000;stroke-width:0.8;" x="108.510197" xlink:href="#mfa02f72b12" y="307.584"/>
      </g>
     </g>
     <g id="text_1">
      <!-- −1.5 -->
      <defs>
       <path d="M 10.59375 35.5 
L 73.1875 35.5 
L 73.1875 27.203125 
L 10.59375 27.203125 
z
" id="DejaVuSans-8722"/>
       <path d="M 12.40625 8.296875 
L 28.515625 8.296875 
L 28.515625 63.921875 
L 10.984375 60.40625 
L 10.984375 69.390625 
L 28.421875 72.90625 
L 38.28125 72.90625 
L 38.28125 8.296875 
L 54.390625 8.296875 
L 54.390625 0 
L 12.40625 0 
z
" id="DejaVuSans-49"/>
       <path d="M 10.6875 12.40625 
L 21 12.40625 
L 21 0 
L 10.6875 0 
z
" id="DejaVuSans-46"/>
       <path d="M 10.796875 72.90625 
L 49.515625 72.90625 
L 49.515625 64.59375 
L 19.828125 64.59375 
L 19.828125 46.734375 
Q 21.96875 47.46875 24.109375 47.828125 
Q 26.265625 48.1875 28.421875 48.1875 
Q 40.625 48.1875 47.75 41.5 
Q 54.890625 34.8125 54.890625 23.390625 
Q 54.890625 11.625 47.5625 5.09375 
Q 40.234375 -1.421875 26.90625 -1.421875 
Q 22.3125 -1.421875 17.546875 -0.640625 
Q 12.796875 0.140625 7.71875 1.703125 
L 7.71875 11.625 
Q 12.109375 9.234375 16.796875 8.0625 
Q 21.484375 6.890625 26.703125 6.890625 
Q 35.15625 6.890625 40.078125 11.328125 
Q 45.015625 15.765625 45.015625 23.390625 
Q 45.015625 31 40.078125 35.4375 
Q 35.15625 39.890625 26.703125 39.890625 
Q 22.75 39.890625 18.8125 39.015625 
Q 14.890625 38.140625 10.796875 36.28125 
z
" id="DejaVuSans-53"/>
      </defs>
      <g transform="translate(96.36879 322.182437)scale(0.1 -0.1)">
       <use xlink:href="#DejaVuSans-8722"/>
       <use x="83.789062" xlink:href="#DejaVuSans-49"/>
       <use x="147.412109" xlink:href="#DejaVuSans-46"/>
       <use x="179.199219" xlink:href="#DejaVuSans-53"/>
      </g>
     </g>
    </g>
    <g id="xtick_2">
     <g id="line2d_2">
      <g>
       <use style="stroke:#000000;stroke-width:0.8;" x="151.284286" xlink:href="#mfa02f72b12" y="307.584"/>
      </g>
     </g>
     <g id="text_2">
      <!-- −1.0 -->
      <defs>
       <path d="M 31.78125 66.40625 
Q 24.171875 66.40625 20.328125 58.90625 
Q 16.5 51.421875 16.5 36.375 
Q 16.5 21.390625 20.328125 13.890625 
Q 24.171875 6.390625 31.78125 6.390625 
Q 39.453125 6.390625 43.28125 13.890625 
Q 47.125 21.390625 47.125 36.375 
Q 47.125 51.421875 43.28125 58.90625 
Q 39.453125 66.40625 31.78125 66.40625 
z
M 31.78125 74.21875 
Q 44.046875 74.21875 50.515625 64.515625 
Q 56.984375 54.828125 56.984375 36.375 
Q 56.984375 17.96875 50.515625 8.265625 
Q 44.046875 -1.421875 31.78125 -1.421875 
Q 19.53125 -1.421875 13.0625 8.265625 
Q 6.59375 17.96875 6.59375 36.375 
Q 6.59375 54.828125 13.0625 64.515625 
Q 19.53125 74.21875 31.78125 74.21875 
z
" id="DejaVuSans-48"/>
      </defs>
      <g transform="translate(139.14288 322.182437)scale(0.1 -0.1)">
       <use xlink:href="#DejaVuSans-8722"/>
       <use x="83.789062" xlink:href="#DejaVuSans-49"/>
       <use x="147.412109" xlink:href="#DejaVuSans-46"/>
       <use x="179.199219" xlink:href="#DejaVuSans-48"/>
      </g>
     </g>
    </g>
    <g id="xtick_3">
     <g id="line2d_3">
      <g>
       <use style="stroke:#000000;stroke-width:0.8;" x="194.058375" xlink:href="#mfa02f72b12" y="307.584"/>
      </g>
     </g>
     <g id="text_3">
      <!-- −0.5 -->
      <g transform="translate(181.916969 322.182437)scale(0.1 -0.1)">
       <use xlink:href="#DejaVuSans-8722"/>
       <use x="83.789062" xlink:href="#DejaVuSans-48"/>
       <use x="147.412109" xlink:href="#DejaVuSans-46"/>
       <use x="179.199219" xlink:href="#DejaVuSans-53"/>
      </g>
     </g>
    </g>
    <g id="xtick_4">
     <g id="line2d_4">
      <g>
       <use style="stroke:#000000;stroke-width:0.8;" x="236.832465" xlink:href="#mfa02f72b12" y="307.584"/>
      </g>
     </g>
     <g id="text_4">
      <!-- 0.0 -->
      <g transform="translate(228.880902 322.182437)scale(0.1 -0.1)">
       <use xlink:href="#DejaVuSans-48"/>
       <use x="63.623047" xlink:href="#DejaVuSans-46"/>
       <use x="95.410156" xlink:href="#DejaVuSans-48"/>
      </g>
     </g>
    </g>
    <g id="xtick_5">
     <g id="line2d_5">
      <g>
       <use style="stroke:#000000;stroke-width:0.8;" x="279.606554" xlink:href="#mfa02f72b12" y="307.584"/>
      </g>
     </g>
     <g id="text_5">
      <!-- 0.5 -->
      <g transform="translate(271.654991 322.182437)scale(0.1 -0.1)">
       <use xlink:href="#DejaVuSans-48"/>
       <use x="63.623047" xlink:href="#DejaVuSans-46"/>
       <use x="95.410156" xlink:href="#DejaVuSans-53"/>
      </g>
     </g>
    </g>
    <g id="xtick_6">
     <g id="line2d_6">
      <g>
       <use style="stroke:#000000;stroke-width:0.8;" x="322.380643" xlink:href="#mfa02f72b12" y="307.584"/>
      </g>
     </g>
     <g id="text_6">
      <!-- 1.0 -->
      <g transform="translate(314.429081 322.182437)scale(0.1 -0.1)">
       <use xlink:href="#DejaVuSans-49"/>
       <use x="63.623047" xlink:href="#DejaVuSans-46"/>
       <use x="95.410156" xlink:href="#DejaVuSans-48"/>
      </g>
     </g>
    </g>
    <g id="xtick_7">
     <g id="line2d_7">
      <g>
       <use style="stroke:#000000;stroke-width:0.8;" x="365.154732" xlink:href="#mfa02f72b12" y="307.584"/>
      </g>
     </g>
     <g id="text_7">
      <!-- 1.5 -->
      <g transform="translate(357.20317 322.182437)scale(0.1 -0.1)">
       <use xlink:href="#DejaVuSans-49"/>
       <use x="63.623047" xlink:href="#DejaVuSans-46"/>
       <use x="95.410156" xlink:href="#DejaVuSans-53"/>
      </g>
     </g>
    </g>
    <g id="text_8">
     <!-- X-axis -->
     <defs>
      <path d="M 6.296875 72.90625 
L 16.890625 72.90625 
L 35.015625 45.796875 
L 53.21875 72.90625 
L 63.8125 72.90625 
L 40.375 37.890625 
L 65.375 0 
L 54.78125 0 
L 34.28125 31 
L 13.625 0 
L 2.984375 0 
L 29 38.921875 
z
" id="DejaVuSans-88"/>
      <path d="M 4.890625 31.390625 
L 31.203125 31.390625 
L 31.203125 23.390625 
L 4.890625 23.390625 
z
" id="DejaVuSans-45"/>
      <path d="M 34.28125 27.484375 
Q 23.390625 27.484375 19.1875 25 
Q 14.984375 22.515625 14.984375 16.5 
Q 14.984375 11.71875 18.140625 8.90625 
Q 21.296875 6.109375 26.703125 6.109375 
Q 34.1875 6.109375 38.703125 11.40625 
Q 43.21875 16.703125 43.21875 25.484375 
L 43.21875 27.484375 
z
M 52.203125 31.203125 
L 52.203125 0 
L 43.21875 0 
L 43.21875 8.296875 
Q 40.140625 3.328125 35.546875 0.953125 
Q 30.953125 -1.421875 24.3125 -1.421875 
Q 15.921875 -1.421875 10.953125 3.296875 
Q 6 8.015625 6 15.921875 
Q 6 25.140625 12.171875 29.828125 
Q 18.359375 34.515625 30.609375 34.515625 
L 43.21875 34.515625 
L 43.21875 35.40625 
Q 43.21875 41.609375 39.140625 45 
Q 35.0625 48.390625 27.6875 48.390625 
Q 23 48.390625 18.546875 47.265625 
Q 14.109375 46.140625 10.015625 43.890625 
L 10.015625 52.203125 
Q 14.9375 54.109375 19.578125 55.046875 
Q 24.21875 56 28.609375 56 
Q 40.484375 56 46.34375 49.84375 
Q 52.203125 43.703125 52.203125 31.203125 
z
" id="DejaVuSans-97"/>
      <path d="M 54.890625 54.6875 
L 35.109375 28.078125 
L 55.90625 0 
L 45.3125 0 
L 29.390625 21.484375 
L 13.484375 0 
L 2.875 0 
L 24.125 28.609375 
L 4.6875 54.6875 
L 15.28125 54.6875 
L 29.78125 35.203125 
L 44.28125 54.6875 
z
" id="DejaVuSans-120"/>
      <path d="M 9.421875 54.6875 
L 18.40625 54.6875 
L 18.40625 0 
L 9.421875 0 
z
M 9.421875 75.984375 
L 18.40625 75.984375 
L 18.40625 64.59375 
L 9.421875 64.59375 
z
" id="DejaVuSans-105"/>
      <path d="M 44.28125 53.078125 
L 44.28125 44.578125 
Q 40.484375 46.53125 36.375 47.5 
Q 32.28125 48.484375 27.875 48.484375 
Q 21.1875 48.484375 17.84375 46.4375 
Q 14.5 44.390625 14.5 40.28125 
Q 14.5 37.15625 16.890625 35.375 
Q 19.28125 33.59375 26.515625 31.984375 
L 29.59375 31.296875 
Q 39.15625 29.25 43.1875 25.515625 
Q 47.21875 21.78125 47.21875 15.09375 
Q 47.21875 7.46875 41.1875 3.015625 
Q 35.15625 -1.421875 24.609375 -1.421875 
Q 20.21875 -1.421875 15.453125 -0.5625 
Q 10.6875 0.296875 5.421875 2 
L 5.421875 11.28125 
Q 10.40625 8.6875 15.234375 7.390625 
Q 20.0625 6.109375 24.8125 6.109375 
Q 31.15625 6.109375 34.5625 8.28125 
Q 37.984375 10.453125 37.984375 14.40625 
Q 37.984375 18.0625 35.515625 20.015625 
Q 33.0625 21.96875 24.703125 23.78125 
L 21.578125 24.515625 
Q 13.234375 26.265625 9.515625 29.90625 
Q 5.8125 33.546875 5.8125 39.890625 
Q 5.8125 47.609375 11.28125 51.796875 
Q 16.75 56 26.8125 56 
Q 31.78125 56 36.171875 55.265625 
Q 40.578125 54.546875 44.28125 53.078125 
z
" id="DejaVuSans-115"/>
     </defs>
     <g transform="translate(221.163906 335.860562)scale(0.1 -0.1)">
      <use xlink:href="#DejaVuSans-88"/>
      <use x="63.505859" xlink:href="#DejaVuSans-45"/>
      <use x="99.589844" xlink:href="#DejaVuSans-97"/>
      <use x="160.869141" xlink:href="#DejaVuSans-120"/>
      <use x="220.048828" xlink:href="#DejaVuSans-105"/>
      <use x="247.832031" xlink:href="#DejaVuSans-115"/>
     </g>
    </g>
   </g>
   <g id="matplotlib.axis_2">
    <g id="ytick_1">
     <g id="line2d_8">
      <defs>
       <path d="M 0 0 
L -3.5 0 
" id="m313dc48d32" style="stroke:#000000;stroke-width:0.8;"/>
      </defs>
      <g>
       <use style="stroke:#000000;stroke-width:0.8;" x="97.750263" xlink:href="#m313dc48d32" y="267.436308"/>
      </g>
     </g>
     <g id="text_9">
      <!-- −1.0 -->
      <g transform="translate(66.467451 271.235526)scale(0.1 -0.1)">
       <use xlink:href="#DejaVuSans-8722"/>
       <use x="83.789062" xlink:href="#DejaVuSans-49"/>
       <use x="147.412109" xlink:href="#DejaVuSans-46"/>
       <use x="179.199219" xlink:href="#DejaVuSans-48"/>
      </g>
     </g>
    </g>
    <g id="ytick_2">
     <g id="line2d_9">
      <g>
       <use style="stroke:#000000;stroke-width:0.8;" x="97.750263" xlink:href="#m313dc48d32" y="224.662218"/>
      </g>
     </g>
     <g id="text_10">
      <!-- −0.5 -->
      <g transform="translate(66.467451 228.461437)scale(0.1 -0.1)">
       <use xlink:href="#DejaVuSans-8722"/>
       <use x="83.789062" xlink:href="#DejaVuSans-48"/>
       <use x="147.412109" xlink:href="#DejaVuSans-46"/>
       <use x="179.199219" xlink:href="#DejaVuSans-53"/>
      </g>
     </g>
    </g>
    <g id="ytick_3">
     <g id="line2d_10">
      <g>
       <use style="stroke:#000000;stroke-width:0.8;" x="97.750263" xlink:href="#m313dc48d32" y="181.888129"/>
      </g>
     </g>
     <g id="text_11">
      <!-- 0.0 -->
      <g transform="translate(74.847138 185.687348)scale(0.1 -0.1)">
       <use xlink:href="#DejaVuSans-48"/>
       <use x="63.623047" xlink:href="#DejaVuSans-46"/>
       <use x="95.410156" xlink:href="#DejaVuSans-48"/>
      </g>
     </g>
    </g>
    <g id="ytick_4">
     <g id="line2d_11">
      <g>
       <use style="stroke:#000000;stroke-width:0.8;" x="97.750263" xlink:href="#m313dc48d32" y="139.11404"/>
      </g>
     </g>
     <g id="text_12">
      <!-- 0.5 -->
      <g transform="translate(74.847138 142.913259)scale(0.1 -0.1)">
       <use xlink:href="#DejaVuSans-48"/>
       <use x="63.623047" xlink:href="#DejaVuSans-46"/>
       <use x="95.410156" xlink:href="#DejaVuSans-53"/>
      </g>
     </g>
    </g>
    <g id="ytick_5">
     <g id="line2d_12">
      <g>
       <use style="stroke:#000000;stroke-width:0.8;" x="97.750263" xlink:href="#m313dc48d32" y="96.339951"/>
      </g>
     </g>
     <g id="text_13">
      <!-- 1.0 -->
      <g transform="translate(74.847138 100.139169)scale(0.1 -0.1)">
       <use xlink:href="#DejaVuSans-49"/>
       <use x="63.623047" xlink:href="#DejaVuSans-46"/>
       <use x="95.410156" xlink:href="#DejaVuSans-48"/>
      </g>
     </g>
    </g>
    <g id="ytick_6">
     <g id="line2d_13">
      <g>
       <use style="stroke:#000000;stroke-width:0.8;" x="97.750263" xlink:href="#m313dc48d32" y="53.565861"/>
      </g>
     </g>
     <g id="text_14">
      <!-- 1.5 -->
      <g transform="translate(74.847138 57.36508)scale(0.1 -0.1)">
       <use xlink:href="#DejaVuSans-49"/>
       <use x="63.623047" xlink:href="#DejaVuSans-46"/>
       <use x="95.410156" xlink:href="#DejaVuSans-53"/>
      </g>
     </g>
    </g>
    <g id="text_15">
     <!-- Y-axis -->
     <defs>
      <path d="M -0.203125 72.90625 
L 10.40625 72.90625 
L 30.609375 42.921875 
L 50.6875 72.90625 
L 61.28125 72.90625 
L 35.5 34.71875 
L 35.5 0 
L 25.59375 0 
L 25.59375 34.71875 
z
" id="DejaVuSans-89"/>
     </defs>
     <g transform="translate(60.387763 188.80925)rotate(-90)scale(0.1 -0.1)">
      <use xlink:href="#DejaVuSans-89"/>
      <use x="49.208984" xlink:href="#DejaVuSans-45"/>
      <use x="85.292969" xlink:href="#DejaVuSans-97"/>
      <use x="146.572266" xlink:href="#DejaVuSans-120"/>
      <use x="205.751953" xlink:href="#DejaVuSans-105"/>
      <use x="233.535156" xlink:href="#DejaVuSans-115"/>
     </g>
    </g>
   </g>
   <g id="line2d_14">
    <path clip-path="url(#pa5c061c4b2)" d="M 236.404731 53.568 
L 236.515832 53.597018 
L 237.20043 53.900327 
L 238.008923 54.511133 
L 238.925581 55.494739 
L 239.956849 56.94223 
L 241.114373 58.967197 
L 242.413884 61.707988 
L 243.878355 65.337716 
L 245.544485 70.086866 
L 247.481116 76.309609 
L 249.847542 84.7046 
L 253.309047 97.902543 
L 258.727811 118.503856 
L 261.489575 128.080142 
L 263.958649 135.857112 
L 266.347097 142.656471 
L 268.769551 148.887112 
L 271.324351 154.845115 
L 274.133638 160.827547 
L 277.3966 167.241106 
L 281.611642 175.00835 
L 296.610029 202.237487 
L 300.540996 210.072944 
L 303.987307 217.433677 
L 307.051525 224.498179 
L 309.766179 231.310725 
L 312.133557 237.84634 
L 314.148656 244.05404 
L 315.807564 249.874034 
L 317.11064 255.242983 
L 318.067748 260.110358 
L 318.699596 264.450544 
L 319.034362 268.254882 
L 319.106587 271.542066 
L 318.951958 274.352109 
L 318.604624 276.726478 
L 318.095197 278.715444 
L 317.446754 280.374271 
L 316.6746 281.752024 
L 315.783983 282.892499 
L 314.774522 283.826705 
L 313.631008 284.58175 
L 312.334136 285.169735 
L 310.849832 285.594891 
L 309.144039 285.847893 
L 307.165976 285.911114 
L 304.8647 285.756048 
L 302.183178 285.346236 
L 299.054563 284.636816 
L 295.407633 283.575405 
L 291.173094 282.105043 
L 286.290166 280.168119 
L 280.728442 277.717234 
L 274.53012 274.738688 
L 267.830553 271.270018 
L 260.885339 267.423043 
L 254.002617 263.357666 
L 247.431377 259.220482 
L 241.310947 255.107246 
L 235.693966 251.067524 
L 230.575126 247.115535 
L 225.919142 243.24339 
L 221.686222 239.437108 
L 217.841581 235.68413 
L 214.351732 231.969873 
L 211.188885 228.281806 
L 208.330705 224.609959 
L 205.762787 220.951797 
L 203.46609 217.295245 
L 201.434362 213.645118 
L 199.654464 209.99243 
L 198.121701 206.34137 
L 196.831279 202.696067 
L 195.777303 199.055904 
L 194.955324 195.420205 
L 194.363668 191.797624 
L 193.999654 188.192257 
L 193.86117 184.612845 
L 193.945809 181.063656 
L 194.251775 177.549221 
L 194.776313 174.082827 
L 195.517249 170.669088 
L 196.473008 167.313015 
L 197.63956 164.027691 
L 199.014992 160.818231 
L 200.595971 157.693723 
L 202.3788 154.663126 
L 204.357189 151.738358 
L 206.528757 148.924537 
L 208.888979 146.230057 
L 211.433131 143.663103 
L 214.156351 141.231657 
L 217.050775 138.94567 
L 220.111161 136.812169 
L 223.332386 134.83805 
L 226.703166 133.033302 
L 230.218415 131.403602 
L 233.870153 129.955937 
L 237.650641 128.696763 
L 241.549106 127.632964 
L 245.558435 126.769798 
L 249.665153 126.113346 
L 253.862955 125.66776 
L 258.142576 125.437502 
L 262.491703 125.426583 
L 266.901797 125.638314 
L 271.361181 126.075418 
L 275.861851 126.740436 
L 280.392511 127.635087 
L 284.941945 128.760371 
L 289.502346 130.117673 
L 294.065766 131.708309 
L 298.617268 133.530625 
L 303.148437 135.584688 
L 307.647108 137.868607 
L 312.097413 140.37764 
L 316.48637 143.107531 
L 320.797211 146.050744 
L 325.012668 149.198033 
L 329.111798 152.535783 
L 333.073235 156.047933 
L 336.869261 159.710016 
L 340.475215 163.496864 
L 343.860959 167.373549 
L 347.000148 171.304127 
L 349.865253 175.245261 
L 352.436185 179.156813 
L 354.693484 182.991776 
L 356.630672 186.715958 
L 358.246839 190.298454 
L 359.550135 193.721008 
L 360.553032 196.971168 
L 361.273698 200.05172 
L 361.730215 202.968417 
L 361.940821 205.738764 
L 361.920479 208.378535 
L 361.680175 210.914616 
L 361.224237 213.37534 
L 360.552442 215.780894 
L 359.656313 218.160291 
L 358.521666 220.537433 
L 357.130736 222.930969 
L 355.455559 225.366276 
L 353.468016 227.858705 
L 351.133015 230.425605 
L 348.415082 233.078335 
L 345.280137 235.822601 
L 341.705549 238.652112 
L 337.669701 241.559359 
L 333.175263 244.519767 
L 328.233772 247.505622 
L 322.886114 250.475132 
L 317.174461 253.39093 
L 311.156935 256.212265 
L 304.88121 258.908426 
L 298.388151 261.455457 
L 291.699812 263.839686 
L 284.824004 266.054146 
L 277.737484 268.102189 
L 270.381076 269.995501 
L 262.65659 271.75196 
L 254.37153 273.404693 
L 245.14378 275.01356 
L 233.952539 276.728412 
L 213.423304 279.594196 
L 194.628022 282.329466 
L 174.712449 285.23989 
L 169.779238 285.716104 
L 166.458348 285.825098 
L 164.038074 285.692328 
L 162.191889 285.376993 
L 160.735896 284.909361 
L 159.555047 284.301221 
L 158.569089 283.545199 
L 157.72525 282.616082 
L 156.990445 281.470131 
L 156.346071 280.042105 
L 155.785069 278.240134 
L 155.310609 275.939283 
L 154.935393 272.971686 
L 154.682396 269.117428 
L 154.586289 264.103627 
L 154.694034 257.629006 
L 155.060267 249.463432 
L 155.726427 239.686636 
L 156.682683 228.936872 
L 157.851105 218.278376 
L 159.135418 208.55822 
L 160.484045 200.010498 
L 161.89032 192.495547 
L 163.367327 185.791169 
L 164.93117 179.711712 
L 166.597044 174.118262 
L 168.375453 168.918513 
L 170.276535 164.041829 
L 172.306447 159.442908 
L 174.469524 155.089828 
L 176.768912 150.959655 
L 179.205918 147.037486 
L 181.781132 143.312817 
L 184.492131 139.781592 
L 187.33688 136.440321 
L 190.31171 133.288424 
L 193.411025 130.327645 
L 196.631767 127.557591 
L 199.966633 124.981903 
L 203.410981 122.602007 
L 206.958172 120.420926 
L 210.599395 118.442648 
L 214.328838 116.669152 
L 218.138657 115.103342 
L 222.021581 113.747571 
L 225.970986 112.603797 
L 229.980942 111.673742 
L 234.046233 110.959055 
L 238.159576 110.461729 
L 242.314318 110.183405 
L 246.507197 110.12556 
L 250.729914 110.289836 
L 254.977387 110.677675 
L 259.247689 111.291163 
L 263.530651 112.131331 
L 267.8246 113.20063 
L 272.119305 114.499613 
L 276.409919 116.03003 
L 280.688375 117.792565 
L 284.948897 119.788738 
L 289.17943 122.016857 
L 293.372859 124.477114 
L 297.5213 127.169232 
L 301.613315 130.090192 
L 305.642289 133.239903 
L 309.595367 136.613075 
L 313.461881 140.20509 
L 317.233309 144.012758 
L 320.89794 148.029204 
L 324.441194 152.242916 
L 327.85344 156.646784 
L 331.117409 161.22242 
L 334.220926 165.955916 
L 337.147257 170.824297 
L 339.880281 175.801937 
L 342.402572 180.856534 
L 344.697953 185.95281 
L 346.748284 191.043784 
L 348.541496 196.088069 
L 350.065115 201.032658 
L 351.314652 205.836361 
L 352.287961 210.45224 
L 352.99031 214.847779 
L 353.431712 219.001626 
L 353.625293 222.899527 
L 353.586385 226.545085 
L 353.330569 229.93972 
L 352.871966 233.102862 
L 352.220374 236.061133 
L 351.383869 238.832707 
L 350.36388 241.446454 
L 349.158181 243.9263 
L 347.756809 246.299877 
L 346.146414 248.588535 
L 344.308672 250.81161 
L 342.220557 252.985969 
L 339.854768 255.125696 
L 337.180263 257.241862 
L 334.162834 259.342362 
L 330.775619 261.425999 
L 326.98627 263.492397 
L 322.777562 265.530757 
L 318.139257 267.526968 
L 313.07441 269.461914 
L 307.60058 271.312792 
L 301.744875 273.056142 
L 295.550083 274.667088 
L 289.051158 276.126327 
L 282.280439 277.417651 
L 275.267407 278.527946 
L 268.014636 279.450218 
L 260.498393 280.180685 
L 252.664566 280.716991 
L 244.403113 281.057402 
L 235.510114 281.198041 
L 225.554565 281.127625 
L 213.492046 280.809595 
L 194.759255 280.062684 
L 170.170392 278.891953 
L 162.817886 278.326167 
L 158.132274 277.754504 
L 154.782817 277.132003 
L 152.258465 276.445252 
L 150.293091 275.687387 
L 148.722632 274.849144 
L 147.442572 273.9181 
L 146.378313 272.871157 
L 145.481208 271.675799 
L 144.721072 270.287939 
L 144.081504 268.647923 
L 143.558421 266.677857 
L 143.159141 264.279105 
L 142.901801 261.330548 
L 142.814966 257.684514 
L 142.938039 253.175728 
L 143.318634 247.650859 
L 144.004244 241.022425 
L 145.025067 233.356229 
L 146.373115 224.933496 
L 147.995107 216.205893 
L 149.81275 207.632581 
L 151.756626 199.522863 
L 153.78254 192.012042 
L 155.871648 185.109471 
L 158.021704 178.763413 
L 160.24013 172.900805 
L 162.535828 167.45638 
L 164.916378 162.378067 
L 167.390794 157.619411 
L 169.96497 153.147699 
L 172.286009 149.475964 
L 172.286009 149.475964 
" style="fill:none;stroke:#0000ff;stroke-linecap:square;stroke-width:1.5;"/>
   </g>
   <g id="line2d_15">
    <path clip-path="url(#pa5c061c4b2)" d="M 236.404731 53.568 
L 236.515803 53.597113 
L 237.19752 53.899318 
L 238.003746 54.508056 
L 238.915151 55.48468 
L 239.946211 56.929696 
L 241.104427 58.953757 
L 242.406345 61.697967 
L 243.862188 65.303333 
L 245.526478 70.04188 
L 247.468994 76.278269 
L 249.848054 84.714785 
L 253.321662 97.955761 
L 258.691951 118.372064 
L 261.445939 127.932856 
L 263.919573 135.737599 
L 266.315173 142.56884 
L 268.724154 148.775933 
L 271.297069 154.785128 
L 274.092307 160.743513 
L 277.357561 167.165141 
L 281.504578 174.80782 
L 296.876586 202.692144 
L 300.745838 210.411531 
L 304.187972 217.769053 
L 307.284345 224.919438 
L 310.021581 231.811575 
L 312.393401 238.394881 
L 314.398323 244.620172 
L 316.038577 250.440175 
L 317.320048 255.810046 
L 318.253162 260.688253 
L 318.854771 265.038218 
L 319.150965 268.831119 
L 319.180367 272.050017 
L 318.996659 274.694629 
L 318.625784 276.986884 
L 318.093284 278.924308 
L 317.434821 280.516692 
L 316.694657 281.787321 
L 315.801761 282.901303 
L 314.754597 283.842655 
L 313.55757 284.601243 
L 312.220794 285.174238 
L 310.75871 285.566112 
L 308.984967 285.803604 
L 306.882418 285.839157 
L 304.444225 285.636898 
L 301.672347 285.173819 
L 298.333326 284.372929 
L 294.423996 283.184826 
L 289.951607 281.577918 
L 284.930344 279.533911 
L 279.12638 276.923992 
L 272.815761 273.840707 
L 266.028974 270.277147 
L 259.051696 266.361791 
L 252.16607 262.240676 
L 245.643728 258.075336 
L 239.737298 254.046031 
L 234.217843 250.01338 
L 229.316876 246.166842 
L 224.807898 242.354411 
L 220.693627 238.590976 
L 216.972116 234.893689 
L 213.636329 231.281557 
L 210.505913 227.565592 
L 207.755885 223.965438 
L 205.222609 220.284071 
L 202.920563 216.530456 
L 200.976514 212.941548 
L 199.257263 209.309223 
L 197.769598 205.645498 
L 196.518195 201.963339 
L 195.505568 198.276342 
L 194.732083 194.598411 
L 194.196048 190.943441 
L 193.893857 187.325033 
L 193.820181 183.756242 
L 193.968182 180.249368 
L 194.329748 176.815797 
L 194.895733 173.465881 
L 195.709933 170.008579 
L 196.731017 166.665814 
L 197.945871 163.445803 
L 199.341165 160.355333 
L 201.000385 157.230278 
L 202.831334 154.261412 
L 204.818819 151.452163 
L 207.070408 148.662326 
L 209.463795 146.053772 
L 211.983619 143.626366 
L 214.756934 141.265614 
L 217.639086 139.101932 
L 220.767108 137.038698 
L 223.984897 135.184885 
L 227.279256 133.535632 
L 230.799835 132.021617 
L 234.379651 130.720348 
L 238.17421 129.580805 
L 242.011746 128.660374 
L 246.052275 127.926547 
L 250.121095 127.417394 
L 254.210691 127.126599 
L 258.48581 127.049731 
L 262.770124 127.197862 
L 267.058109 127.565979 
L 271.516246 128.177558 
L 275.968072 129.018337 
L 280.408971 130.084958 
L 284.834542 131.374718 
L 289.240472 132.885507 
L 293.622407 134.615737 
L 298.142657 136.643574 
L 302.626849 138.90604 
L 307.06923 141.402734 
L 311.463482 144.133608 
L 315.802554 147.098922 
L 320.078462 150.29921 
L 324.127751 153.603777 
L 328.100426 157.127856 
L 331.985227 160.872522 
L 335.625179 164.682326 
L 339.156742 168.698386 
L 342.428258 172.748944 
L 345.435392 176.810959 
L 348.294278 181.049837 
L 350.863259 185.269671 
L 353.029824 189.244894 
L 354.908451 193.141513 
L 356.493325 196.936939 
L 357.779663 200.608157 
L 358.710644 203.909796 
L 359.374484 207.034964 
L 359.783604 209.964257 
L 359.962633 212.906903 
L 359.8972 215.621008 
L 359.62292 218.093688 
L 359.129251 220.538358 
L 358.407529 222.941754 
L 357.455773 225.291612 
L 356.279103 227.577821 
L 354.888927 229.793205 
L 353.147693 232.124548 
L 351.195353 234.365402 
L 348.870633 236.692714 
L 346.156126 239.087423 
L 343.040948 241.532554 
L 339.519253 244.012997 
L 335.588713 246.51484 
L 331.003489 249.159896 
L 325.99419 251.782832 
L 320.566794 254.36778 
L 314.728479 256.896204 
L 308.488386 259.346429 
L 302.13696 261.600056 
L 295.41902 263.741342 
L 288.636792 265.666882 
L 281.817945 267.376989 
L 274.705184 268.932463 
L 267.328467 270.313823 
L 259.722633 271.508824 
L 251.649074 272.547484 
L 242.889454 273.444351 
L 232.724176 274.251166 
L 218.493152 275.130257 
L 194.699175 276.593496 
L 180.359982 277.732084 
L 164.276203 278.999544 
L 159.653787 279.127456 
L 156.668433 279.000997 
L 154.463636 278.687842 
L 152.919203 278.260523 
L 151.693964 277.704161 
L 150.746816 277.046068 
L 149.959971 276.234403 
L 149.328635 275.267494 
L 148.801483 274.030553 
L 148.404826 272.490222 
L 148.141947 270.47348 
L 148.054287 267.931007 
L 148.175748 264.660718 
L 148.561134 260.446988 
L 149.304075 254.88963 
L 150.489598 247.808115 
L 152.150677 239.300052 
L 154.208001 229.92912 
L 156.601005 220.069191 
L 159.126408 210.59199 
L 161.674178 201.870046 
L 164.193407 194.023384 
L 166.632219 187.137659 
L 169.046675 180.979823 
L 171.432805 175.496972 
L 173.847855 170.504302 
L 176.282621 165.977955 
L 178.802019 161.767149 
L 181.399179 157.867101 
L 184.063012 154.272576 
L 186.779276 150.977065 
L 189.632308 147.868347 
L 192.512716 145.053419 
L 195.511074 142.430093 
L 198.620538 140.005562 
L 201.833333 137.785923 
L 205.141115 135.776149 
L 208.535304 133.980136 
L 212.007378 132.400819 
L 215.549127 131.040347 
L 219.152833 129.900291 
L 222.811408 128.981882 
L 226.518456 128.286271 
L 230.268283 127.814791 
L 234.055845 127.569209 
L 237.876631 127.551972 
L 241.588552 127.754725 
L 245.323947 128.176835 
L 249.079163 128.823271 
L 252.850219 129.700096 
L 256.632543 130.814472 
L 260.280357 132.119742 
L 263.927717 133.661021 
L 267.567569 135.447047 
L 271.052509 137.403671 
L 274.513902 139.603183 
L 277.941572 142.053545 
L 281.18971 144.648791 
L 284.384806 147.487876 
L 287.514539 150.575572 
L 290.440385 153.771127 
L 293.282082 157.199922 
L 296.02731 160.86221 
L 298.663734 164.756666 
L 301.179273 168.880333 
L 303.562339 173.228635 
L 305.802067 177.795443 
L 307.888473 182.573207 
L 309.812564 187.553125 
L 311.566345 192.725337 
L 313.142753 198.079125 
L 314.535475 203.603088 
L 315.738678 209.285267 
L 316.746628 215.113196 
L 317.553198 221.073834 
L 318.151246 227.153357 
L 318.531821 233.336723 
L 318.681523 239.332778 
L 318.607594 245.390782 
L 318.311051 251.211313 
L 317.80255 256.76643 
L 317.09065 262.028194 
L 316.239178 266.695397 
L 315.225528 271.021932 
L 314.144371 274.724147 
L 312.953804 278.059949 
L 311.672615 281.018864 
L 310.32448 283.596795 
L 308.938648 285.798246 
L 307.38663 287.832953 
L 305.839167 289.494948 
L 304.144896 290.973126 
L 302.516356 292.117306 
L 300.777035 293.092055 
L 298.934757 293.893306 
L 296.752225 294.589128 
L 294.469831 295.076105 
L 291.838164 295.389975 
L 289.127585 295.488 
L 286.078038 295.376439 
L 282.694038 295.028361 
L 278.984352 294.424844 
L 274.672618 293.483286 
L 270.059951 292.237815 
L 265.164563 290.687127 
L 259.720136 288.721005 
L 254.038789 286.425184 
L 248.146651 283.798555 
L 242.073409 280.837654 
L 236.120935 277.684848 
L 230.308203 274.357922 
L 224.654097 270.872244 
L 219.177192 267.242535 
L 213.895205 263.484161 
L 208.824187 259.614031 
L 203.762783 255.469083 
L 198.957732 251.246848 
L 194.223146 246.787111 
L 189.593624 242.11644 
L 184.928489 237.083951 
L 180.123084 231.557054 
L 174.95605 225.259939 
L 168.211887 216.655922 
L 157.841254 203.431863 
L 152.698444 197.264523 
L 148.028386 192.00368 
L 143.443928 187.171036 
L 138.82258 182.625252 
L 134.181449 178.373432 
L 129.557742 174.433418 
L 124.895943 170.745566 
L 120.096519 167.233763 
L 115.016859 163.802079 
L 110.651049 160.825043 
L 110.334312 160.378342 
L 110.427676 160.188295 
L 110.795707 160.063043 
L 111.777942 160.006918 
L 114.113789 160.13723 
L 118.528794 160.627366 
L 124.401492 161.504139 
L 130.613401 162.656639 
L 136.714025 164.01247 
L 142.689308 165.565874 
L 148.446896 167.28806 
L 154.088393 169.208271 
L 159.410796 171.252956 
L 164.382799 173.393088 
L 169.139509 175.679746 
L 173.50238 178.018991 
L 175.798705 179.358975 
L 175.798705 179.358975 
" style="fill:none;stroke:#bf00bf;stroke-linecap:square;stroke-width:1.5;"/>
   </g>
   <g id="line2d_16">
    <path clip-path="url(#pa5c061c4b2)" d="M 236.404731 53.568 
L 236.512676 53.596151 
L 237.163973 53.878876 
L 237.910744 54.423613 
L 238.853327 55.406512 
L 239.781852 56.672158 
L 240.95541 58.665008 
L 242.38692 61.646218 
L 243.717123 64.911648 
L 245.20718 69.076339 
L 247.290018 75.666069 
L 249.623864 83.881614 
L 252.802316 95.936318 
L 258.692672 118.376688 
L 261.139411 126.915335 
L 263.974062 135.903291 
L 266.14673 142.112328 
L 268.600646 148.47241 
L 271.380613 154.970221 
L 274.516144 161.605059 
L 278.007007 168.394385 
L 283.815676 178.949219 
L 292.200069 193.954945 
L 296.45563 201.940757 
L 300.63772 210.274279 
L 304.668127 218.957954 
L 308.468552 227.981092 
L 310.255422 232.612492 
L 311.949527 237.317255 
L 313.534988 242.088156 
L 314.992227 246.91515 
L 316.296291 251.784006 
L 317.414343 256.674003 
L 318.301803 261.554008 
L 318.896405 266.375586 
L 319.109372 271.060885 
L 318.814378 275.482368 
L 317.842467 279.435896 
L 316.01185 282.633793 
L 313.229831 284.79027 
L 309.598416 285.802303 
L 305.358843 285.808361 
L 300.743285 285.048423 
L 295.910176 283.73612 
L 290.954829 282.025349 
L 285.933701 280.019963 
L 280.881484 277.789263 
L 275.820928 275.379662 
L 270.768287 272.82226 
L 265.736406 270.137601 
L 260.736577 267.338689 
L 255.779738 264.432945 
L 250.877308 261.42354 
L 246.041823 258.310371 
L 241.287435 255.090838 
L 236.630307 251.760553 
L 232.088899 248.314046 
L 227.684107 244.745524 
L 223.43923 241.049693 
L 219.379712 237.222642 
L 215.532646 233.262728 
L 211.92602 229.171406 
L 208.587749 224.953908 
L 205.544566 220.619677 
L 202.820859 216.1825 
L 200.437588 211.660309 
L 198.411385 207.074663 
L 196.75391 202.449979 
L 195.471521 197.812595 
L 194.56525 193.189772 
L 194.031054 188.608719 
L 193.860288 184.095724 
L 194.040327 179.67543 
L 194.555269 175.370282 
L 195.386676 171.200157 
L 196.514285 167.182149 
L 197.916676 163.330499 
L 199.571867 159.656643 
L 201.457818 156.16934 
L 203.552862 152.87488 
L 205.836037 149.777318 
L 208.287348 146.878744 
L 210.887957 144.179555 
L 213.620306 141.678732 
L 216.468188 139.374096 
L 219.416777 137.262555 
L 222.452615 135.340325 
L 225.563576 133.603129 
L 228.738806 132.04637 
L 231.968646 130.665281 
L 235.244546 129.455048 
L 238.558971 128.410913 
L 241.905308 127.52826 
L 245.277767 126.802674 
L 248.671288 126.229988 
L 252.081453 125.806323 
L 255.504399 125.528103 
L 258.936736 125.39207 
L 262.375479 125.395285 
L 265.817977 125.535131 
L 269.26185 125.809298 
L 272.704937 126.215775 
L 276.145242 126.752837 
L 279.580888 127.419026 
L 283.010081 128.213134 
L 286.431064 129.13419 
L 289.842088 130.181435 
L 293.241378 131.354312 
L 296.6271 132.652447 
L 299.997332 134.075635 
L 303.350036 135.623825 
L 306.683019 137.29711 
L 309.993906 139.095719 
L 313.280095 141.020002 
L 316.538716 143.070433 
L 319.766574 145.247595 
L 322.960088 147.552187 
L 326.11521 149.985015 
L 329.22732 152.546997 
L 332.291104 155.23916 
L 335.300382 158.062641 
L 338.247894 161.018683 
L 341.12501 164.108621 
L 343.921342 167.333863 
L 346.624221 170.695839 
L 349.217981 174.195906 
L 351.682969 177.835185 
L 353.994174 181.614244 
L 356.119363 185.532563 
L 358.016573 189.587565 
L 359.631026 193.77298 
L 360.891946 198.076165 
L 361.711091 202.474167 
L 361.987033 206.929213 
L 361.620996 211.38648 
L 360.545406 215.779285 
L 358.75138 220.043794 
L 356.292436 224.13529 
L 353.260665 228.034217 
L 349.756225 231.740585 
L 345.868195 235.264488 
L 341.668435 238.618813 
L 337.212615 241.815332 
L 332.543571 244.863167 
L 327.694739 247.768502 
L 322.692969 250.534852 
L 317.560639 253.163544 
L 312.317203 255.65428 
L 306.980292 258.00571 
L 301.566474 260.216011 
L 296.091752 262.283458 
L 290.571839 264.206968 
L 285.022245 265.986614 
L 279.458209 267.624068 
L 273.894494 269.12295 
L 268.345095 270.489052 
L 257.339281 272.857195 
L 246.52439 274.816758 
L 235.953265 276.478516 
L 210.688097 280.052472 
L 191.694265 282.875281 
L 178.42708 284.869115 
L 174.310177 285.398283 
L 170.423136 285.778618 
L 166.838567 285.926751 
L 163.648086 285.727922 
L 160.949439 285.043236 
L 158.812252 283.746038 
L 157.236966 281.781551 
L 156.149371 279.19713 
L 155.44031 276.108935 
L 155.007729 272.646482 
L 154.773708 268.9204 
L 154.700551 260.992463 
L 154.961171 252.762424 
L 155.431931 244.463947 
L 156.406299 232.152322 
L 157.633668 220.177809 
L 159.111289 208.611709 
L 160.261656 201.130564 
L 161.576778 193.827243 
L 163.092159 186.69831 
L 164.846148 179.746394 
L 166.875664 172.982594 
L 169.212019 166.426938 
L 171.877565 160.107071 
L 174.88366 154.055701 
L 176.514797 151.141544 
L 178.230138 148.307494 
L 180.027992 145.557696 
L 181.906109 142.896068 
L 183.861745 140.326246 
L 185.89174 137.851535 
L 187.992601 135.474877 
L 190.16057 133.198834 
L 192.391709 131.02558 
L 194.68196 128.9569 
L 197.027219 126.994202 
L 199.423383 125.138536 
L 201.866409 123.390618 
L 204.352352 121.750854 
L 209.437912 118.796062 
L 214.651689 116.272454 
L 219.968534 114.175464 
L 225.366825 112.498692 
L 230.828507 111.234851 
L 236.338923 110.376607 
L 241.886502 109.917292 
L 247.462337 109.851509 
L 253.059683 110.175613 
L 258.673406 110.888086 
L 264.299378 111.989808 
L 269.933851 113.484208 
L 275.572796 115.377313 
L 281.211243 117.677663 
L 286.84262 120.396103 
L 292.458109 123.545428 
L 298.046066 127.139904 
L 303.591485 131.194657 
L 309.075555 135.72497 
L 314.475273 140.745528 
L 317.13508 143.443883 
L 319.763091 146.269646 
L 322.355083 149.224147 
L 324.906484 152.308547 
L 327.412343 155.523817 
L 329.867291 158.87072 
L 332.265483 162.349795 
L 334.600526 165.961337 
L 336.865376 169.705377 
L 339.0522 173.581649 
L 341.152197 177.589553 
L 343.155345 181.728091 
L 345.050069 185.995775 
L 346.822791 190.390483 
L 348.45731 194.909238 
L 349.933967 199.547859 
L 351.228492 204.300416 
L 352.310458 209.158368 
L 353.141215 214.1092 
L 353.671341 219.134307 
L 353.837917 224.205831 
L 353.562868 229.282381 
L 352.755412 234.304541 
L 351.32371 239.193441 
L 349.199141 243.858337 
L 346.365184 248.216377 
L 342.869195 252.215416 
L 338.804658 255.842827 
L 334.279344 259.116111 
L 329.391759 262.066853 
L 324.222206 264.728655 
L 318.833109 267.131239 
L 313.272645 269.298706 
L 307.578632 271.249779 
L 301.781679 272.998771 
L 295.907476 274.556708 
L 289.97837 275.932394 
L 284.014399 277.133346 
L 278.033915 278.166593 
L 272.053913 279.039336 
L 266.090138 279.759462 
L 260.157031 280.335906 
L 254.267587 280.778864 
L 242.66329 281.311499 
L 231.345606 281.462026 
L 220.352199 281.343671 
L 204.49191 280.892011 
L 175.129148 279.742508 
L 166.271155 279.213795 
L 162.126341 278.837726 
L 158.240338 278.326504 
L 154.686534 277.610961 
L 151.55304 276.600989 
L 148.927272 275.19573 
L 146.864765 273.312547 
L 145.359051 270.923933 
L 144.342463 268.070044 
L 143.718347 264.834671 
L 143.39374 261.310897 
L 143.294183 257.580435 
L 143.364852 253.707776 
L 143.871767 245.718212 
L 144.718342 237.601037 
L 145.803208 229.501537 
L 147.07318 221.502977 
L 148.502138 213.65322 
L 150.081149 205.979099 
L 151.813359 198.495114 
L 153.710753 191.209407 
L 155.791402 184.128235 
L 158.076672 177.259268 
L 160.58829 170.613717 
L 163.345511 164.207258 
L 166.362701 158.059824 
L 169.647645 152.194498 
L 173.200728 146.635865 
L 175.07592 143.979204 
L 175.07592 143.979204 
" style="fill:none;stroke:#000000;stroke-linecap:square;stroke-width:1.5;"/>
   </g>
   <g id="patch_3">
    <path d="M 97.750263 307.584 
L 97.750263 41.472 
" style="fill:none;stroke:#000000;stroke-linecap:square;stroke-linejoin:miter;stroke-width:0.8;"/>
   </g>
   <g id="patch_4">
    <path d="M 374.569737 307.584 
L 374.569737 41.472 
" style="fill:none;stroke:#000000;stroke-linecap:square;stroke-linejoin:miter;stroke-width:0.8;"/>
   </g>
   <g id="patch_5">
    <path d="M 97.750263 307.584 
L 374.569737 307.584 
" style="fill:none;stroke:#000000;stroke-linecap:square;stroke-linejoin:miter;stroke-width:0.8;"/>
   </g>
   <g id="patch_6">
    <path d="M 97.750263 41.472 
L 374.569737 41.472 
" style="fill:none;stroke:#000000;stroke-linecap:square;stroke-linejoin:miter;stroke-width:0.8;"/>
   </g>
   <g id="legend_1">
    <g id="patch_7">
     <path d="M 274.810362 94.472 
L 367.569737 94.472 
Q 369.569737 94.472 369.569737 92.472 
L 369.569737 48.472 
Q 369.569737 46.472 367.569737 46.472 
L 274.810362 46.472 
Q 272.810362 46.472 272.810362 48.472 
L 272.810362 92.472 
Q 272.810362 94.472 274.810362 94.472 
z
" style="fill:#ffffff;opacity:0.8;stroke:#cccccc;stroke-linejoin:miter;"/>
    </g>
    <g id="line2d_17">
     <path d="M 276.810362 54.614188 
L 296.810362 54.614188 
" style="fill:none;stroke:#0000ff;stroke-linecap:square;stroke-width:1.5;"/>
    </g>
    <g id="line2d_18"/>
    <g id="text_16">
     <!-- 1e-05 | E |  -->
     <defs>
      <path d="M 56.203125 29.59375 
L 56.203125 25.203125 
L 14.890625 25.203125 
Q 15.484375 15.921875 20.484375 11.0625 
Q 25.484375 6.203125 34.421875 6.203125 
Q 39.59375 6.203125 44.453125 7.46875 
Q 49.3125 8.734375 54.109375 11.28125 
L 54.109375 2.78125 
Q 49.265625 0.734375 44.1875 -0.34375 
Q 39.109375 -1.421875 33.890625 -1.421875 
Q 20.796875 -1.421875 13.15625 6.1875 
Q 5.515625 13.8125 5.515625 26.8125 
Q 5.515625 40.234375 12.765625 48.109375 
Q 20.015625 56 32.328125 56 
Q 43.359375 56 49.78125 48.890625 
Q 56.203125 41.796875 56.203125 29.59375 
z
M 47.21875 32.234375 
Q 47.125 39.59375 43.09375 43.984375 
Q 39.0625 48.390625 32.421875 48.390625 
Q 24.90625 48.390625 20.390625 44.140625 
Q 15.875 39.890625 15.1875 32.171875 
z
" id="DejaVuSans-101"/>
      <path id="DejaVuSans-32"/>
      <path d="M 21 76.421875 
L 21 -23.578125 
L 12.703125 -23.578125 
L 12.703125 76.421875 
z
" id="DejaVuSans-124"/>
      <path d="M 9.8125 72.90625 
L 55.90625 72.90625 
L 55.90625 64.59375 
L 19.671875 64.59375 
L 19.671875 43.015625 
L 54.390625 43.015625 
L 54.390625 34.71875 
L 19.671875 34.71875 
L 19.671875 8.296875 
L 56.78125 8.296875 
L 56.78125 0 
L 9.8125 0 
z
" id="DejaVuSans-69"/>
     </defs>
     <g transform="translate(304.810362 58.114188)scale(0.1 -0.1)">
      <use xlink:href="#DejaVuSans-49"/>
      <use x="63.623047" xlink:href="#DejaVuSans-101"/>
      <use x="125.146484" xlink:href="#DejaVuSans-45"/>
      <use x="161.230469" xlink:href="#DejaVuSans-48"/>
      <use x="224.853516" xlink:href="#DejaVuSans-53"/>
      <use x="288.476562" xlink:href="#DejaVuSans-32"/>
      <use x="320.263672" xlink:href="#DejaVuSans-124"/>
      <use x="353.955078" xlink:href="#DejaVuSans-32"/>
      <use x="385.742188" xlink:href="#DejaVuSans-69"/>
      <use x="448.925781" xlink:href="#DejaVuSans-32"/>
      <use x="480.712891" xlink:href="#DejaVuSans-124"/>
      <use x="514.404297" xlink:href="#DejaVuSans-32"/>
     </g>
    </g>
    <g id="line2d_19">
     <path d="M 276.810362 69.614188 
L 296.810362 69.614188 
" style="fill:none;stroke:#bf00bf;stroke-linecap:square;stroke-width:1.5;"/>
    </g>
    <g id="line2d_20"/>
    <g id="text_17">
     <!-- 0.0005 | E |  -->
     <g transform="translate(304.810362 73.114188)scale(0.1 -0.1)">
      <use xlink:href="#DejaVuSans-48"/>
      <use x="63.623047" xlink:href="#DejaVuSans-46"/>
      <use x="95.410156" xlink:href="#DejaVuSans-48"/>
      <use x="159.033203" xlink:href="#DejaVuSans-48"/>
      <use x="222.65625" xlink:href="#DejaVuSans-48"/>
      <use x="286.279297" xlink:href="#DejaVuSans-53"/>
      <use x="349.902344" xlink:href="#DejaVuSans-32"/>
      <use x="381.689453" xlink:href="#DejaVuSans-124"/>
      <use x="415.380859" xlink:href="#DejaVuSans-32"/>
      <use x="447.167969" xlink:href="#DejaVuSans-69"/>
      <use x="510.351562" xlink:href="#DejaVuSans-32"/>
      <use x="542.138672" xlink:href="#DejaVuSans-124"/>
      <use x="575.830078" xlink:href="#DejaVuSans-32"/>
     </g>
    </g>
    <g id="line2d_21">
     <path d="M 276.810362 84.614188 
L 296.810362 84.614188 
" style="fill:none;stroke:#000000;stroke-linecap:square;stroke-width:1.5;"/>
    </g>
    <g id="line2d_22"/>
    <g id="text_18">
     <!-- 0.01 | rk4 -->
     <defs>
      <path d="M 41.109375 46.296875 
Q 39.59375 47.171875 37.8125 47.578125 
Q 36.03125 48 33.890625 48 
Q 26.265625 48 22.1875 43.046875 
Q 18.109375 38.09375 18.109375 28.8125 
L 18.109375 0 
L 9.078125 0 
L 9.078125 54.6875 
L 18.109375 54.6875 
L 18.109375 46.1875 
Q 20.953125 51.171875 25.484375 53.578125 
Q 30.03125 56 36.53125 56 
Q 37.453125 56 38.578125 55.875 
Q 39.703125 55.765625 41.0625 55.515625 
z
" id="DejaVuSans-114"/>
      <path d="M 9.078125 75.984375 
L 18.109375 75.984375 
L 18.109375 31.109375 
L 44.921875 54.6875 
L 56.390625 54.6875 
L 27.390625 29.109375 
L 57.625 0 
L 45.90625 0 
L 18.109375 26.703125 
L 18.109375 0 
L 9.078125 0 
z
" id="DejaVuSans-107"/>
      <path d="M 37.796875 64.3125 
L 12.890625 25.390625 
L 37.796875 25.390625 
z
M 35.203125 72.90625 
L 47.609375 72.90625 
L 47.609375 25.390625 
L 58.015625 25.390625 
L 58.015625 17.1875 
L 47.609375 17.1875 
L 47.609375 0 
L 37.796875 0 
L 37.796875 17.1875 
L 4.890625 17.1875 
L 4.890625 26.703125 
z
" id="DejaVuSans-52"/>
     </defs>
     <g transform="translate(304.810362 88.114188)scale(0.1 -0.1)">
      <use xlink:href="#DejaVuSans-48"/>
      <use x="63.623047" xlink:href="#DejaVuSans-46"/>
      <use x="95.410156" xlink:href="#DejaVuSans-48"/>
      <use x="159.033203" xlink:href="#DejaVuSans-49"/>
      <use x="222.65625" xlink:href="#DejaVuSans-32"/>
      <use x="254.443359" xlink:href="#DejaVuSans-124"/>
      <use x="288.134766" xlink:href="#DejaVuSans-32"/>
      <use x="319.921875" xlink:href="#DejaVuSans-114"/>
      <use x="361.035156" xlink:href="#DejaVuSans-107"/>
      <use x="418.945312" xlink:href="#DejaVuSans-52"/>
     </g>
    </g>
   </g>
  </g>
  <g id="text_19">
   <!-- Trajectory of the centre of 2nd link -->
   <defs>
    <path d="M -0.296875 72.90625 
L 61.375 72.90625 
L 61.375 64.59375 
L 35.5 64.59375 
L 35.5 0 
L 25.59375 0 
L 25.59375 64.59375 
L -0.296875 64.59375 
z
" id="DejaVuSans-84"/>
    <path d="M 9.421875 54.6875 
L 18.40625 54.6875 
L 18.40625 -0.984375 
Q 18.40625 -11.421875 14.421875 -16.109375 
Q 10.453125 -20.796875 1.609375 -20.796875 
L -1.8125 -20.796875 
L -1.8125 -13.1875 
L 0.59375 -13.1875 
Q 5.71875 -13.1875 7.5625 -10.8125 
Q 9.421875 -8.453125 9.421875 -0.984375 
z
M 9.421875 75.984375 
L 18.40625 75.984375 
L 18.40625 64.59375 
L 9.421875 64.59375 
z
" id="DejaVuSans-106"/>
    <path d="M 48.78125 52.59375 
L 48.78125 44.1875 
Q 44.96875 46.296875 41.140625 47.34375 
Q 37.3125 48.390625 33.40625 48.390625 
Q 24.65625 48.390625 19.8125 42.84375 
Q 14.984375 37.3125 14.984375 27.296875 
Q 14.984375 17.28125 19.8125 11.734375 
Q 24.65625 6.203125 33.40625 6.203125 
Q 37.3125 6.203125 41.140625 7.25 
Q 44.96875 8.296875 48.78125 10.40625 
L 48.78125 2.09375 
Q 45.015625 0.34375 40.984375 -0.53125 
Q 36.96875 -1.421875 32.421875 -1.421875 
Q 20.0625 -1.421875 12.78125 6.34375 
Q 5.515625 14.109375 5.515625 27.296875 
Q 5.515625 40.671875 12.859375 48.328125 
Q 20.21875 56 33.015625 56 
Q 37.15625 56 41.109375 55.140625 
Q 45.0625 54.296875 48.78125 52.59375 
z
" id="DejaVuSans-99"/>
    <path d="M 18.3125 70.21875 
L 18.3125 54.6875 
L 36.8125 54.6875 
L 36.8125 47.703125 
L 18.3125 47.703125 
L 18.3125 18.015625 
Q 18.3125 11.328125 20.140625 9.421875 
Q 21.96875 7.515625 27.59375 7.515625 
L 36.8125 7.515625 
L 36.8125 0 
L 27.59375 0 
Q 17.1875 0 13.234375 3.875 
Q 9.28125 7.765625 9.28125 18.015625 
L 9.28125 47.703125 
L 2.6875 47.703125 
L 2.6875 54.6875 
L 9.28125 54.6875 
L 9.28125 70.21875 
z
" id="DejaVuSans-116"/>
    <path d="M 30.609375 48.390625 
Q 23.390625 48.390625 19.1875 42.75 
Q 14.984375 37.109375 14.984375 27.296875 
Q 14.984375 17.484375 19.15625 11.84375 
Q 23.34375 6.203125 30.609375 6.203125 
Q 37.796875 6.203125 41.984375 11.859375 
Q 46.1875 17.53125 46.1875 27.296875 
Q 46.1875 37.015625 41.984375 42.703125 
Q 37.796875 48.390625 30.609375 48.390625 
z
M 30.609375 56 
Q 42.328125 56 49.015625 48.375 
Q 55.71875 40.765625 55.71875 27.296875 
Q 55.71875 13.875 49.015625 6.21875 
Q 42.328125 -1.421875 30.609375 -1.421875 
Q 18.84375 -1.421875 12.171875 6.21875 
Q 5.515625 13.875 5.515625 27.296875 
Q 5.515625 40.765625 12.171875 48.375 
Q 18.84375 56 30.609375 56 
z
" id="DejaVuSans-111"/>
    <path d="M 32.171875 -5.078125 
Q 28.375 -14.84375 24.75 -17.8125 
Q 21.140625 -20.796875 15.09375 -20.796875 
L 7.90625 -20.796875 
L 7.90625 -13.28125 
L 13.1875 -13.28125 
Q 16.890625 -13.28125 18.9375 -11.515625 
Q 21 -9.765625 23.484375 -3.21875 
L 25.09375 0.875 
L 2.984375 54.6875 
L 12.5 54.6875 
L 29.59375 11.921875 
L 46.6875 54.6875 
L 56.203125 54.6875 
z
" id="DejaVuSans-121"/>
    <path d="M 37.109375 75.984375 
L 37.109375 68.5 
L 28.515625 68.5 
Q 23.6875 68.5 21.796875 66.546875 
Q 19.921875 64.59375 19.921875 59.515625 
L 19.921875 54.6875 
L 34.71875 54.6875 
L 34.71875 47.703125 
L 19.921875 47.703125 
L 19.921875 0 
L 10.890625 0 
L 10.890625 47.703125 
L 2.296875 47.703125 
L 2.296875 54.6875 
L 10.890625 54.6875 
L 10.890625 58.5 
Q 10.890625 67.625 15.140625 71.796875 
Q 19.390625 75.984375 28.609375 75.984375 
z
" id="DejaVuSans-102"/>
    <path d="M 54.890625 33.015625 
L 54.890625 0 
L 45.90625 0 
L 45.90625 32.71875 
Q 45.90625 40.484375 42.875 44.328125 
Q 39.84375 48.1875 33.796875 48.1875 
Q 26.515625 48.1875 22.3125 43.546875 
Q 18.109375 38.921875 18.109375 30.90625 
L 18.109375 0 
L 9.078125 0 
L 9.078125 75.984375 
L 18.109375 75.984375 
L 18.109375 46.1875 
Q 21.34375 51.125 25.703125 53.5625 
Q 30.078125 56 35.796875 56 
Q 45.21875 56 50.046875 50.171875 
Q 54.890625 44.34375 54.890625 33.015625 
z
" id="DejaVuSans-104"/>
    <path d="M 54.890625 33.015625 
L 54.890625 0 
L 45.90625 0 
L 45.90625 32.71875 
Q 45.90625 40.484375 42.875 44.328125 
Q 39.84375 48.1875 33.796875 48.1875 
Q 26.515625 48.1875 22.3125 43.546875 
Q 18.109375 38.921875 18.109375 30.90625 
L 18.109375 0 
L 9.078125 0 
L 9.078125 54.6875 
L 18.109375 54.6875 
L 18.109375 46.1875 
Q 21.34375 51.125 25.703125 53.5625 
Q 30.078125 56 35.796875 56 
Q 45.21875 56 50.046875 50.171875 
Q 54.890625 44.34375 54.890625 33.015625 
z
" id="DejaVuSans-110"/>
    <path d="M 19.1875 8.296875 
L 53.609375 8.296875 
L 53.609375 0 
L 7.328125 0 
L 7.328125 8.296875 
Q 12.9375 14.109375 22.625 23.890625 
Q 32.328125 33.6875 34.8125 36.53125 
Q 39.546875 41.84375 41.421875 45.53125 
Q 43.3125 49.21875 43.3125 52.78125 
Q 43.3125 58.59375 39.234375 62.25 
Q 35.15625 65.921875 28.609375 65.921875 
Q 23.96875 65.921875 18.8125 64.3125 
Q 13.671875 62.703125 7.8125 59.421875 
L 7.8125 69.390625 
Q 13.765625 71.78125 18.9375 73 
Q 24.125 74.21875 28.421875 74.21875 
Q 39.75 74.21875 46.484375 68.546875 
Q 53.21875 62.890625 53.21875 53.421875 
Q 53.21875 48.921875 51.53125 44.890625 
Q 49.859375 40.875 45.40625 35.40625 
Q 44.1875 33.984375 37.640625 27.21875 
Q 31.109375 20.453125 19.1875 8.296875 
z
" id="DejaVuSans-50"/>
    <path d="M 45.40625 46.390625 
L 45.40625 75.984375 
L 54.390625 75.984375 
L 54.390625 0 
L 45.40625 0 
L 45.40625 8.203125 
Q 42.578125 3.328125 38.25 0.953125 
Q 33.9375 -1.421875 27.875 -1.421875 
Q 17.96875 -1.421875 11.734375 6.484375 
Q 5.515625 14.40625 5.515625 27.296875 
Q 5.515625 40.1875 11.734375 48.09375 
Q 17.96875 56 27.875 56 
Q 33.9375 56 38.25 53.625 
Q 42.578125 51.265625 45.40625 46.390625 
z
M 14.796875 27.296875 
Q 14.796875 17.390625 18.875 11.75 
Q 22.953125 6.109375 30.078125 6.109375 
Q 37.203125 6.109375 41.296875 11.75 
Q 45.40625 17.390625 45.40625 27.296875 
Q 45.40625 37.203125 41.296875 42.84375 
Q 37.203125 48.484375 30.078125 48.484375 
Q 22.953125 48.484375 18.875 42.84375 
Q 14.796875 37.203125 14.796875 27.296875 
z
" id="DejaVuSans-100"/>
    <path d="M 9.421875 75.984375 
L 18.40625 75.984375 
L 18.40625 0 
L 9.421875 0 
z
" id="DejaVuSans-108"/>
   </defs>
   <g transform="translate(126.714375 16.030125)scale(0.12 -0.12)">
    <use xlink:href="#DejaVuSans-84"/>
    <use x="46.333984" xlink:href="#DejaVuSans-114"/>
    <use x="87.447266" xlink:href="#DejaVuSans-97"/>
    <use x="148.726562" xlink:href="#DejaVuSans-106"/>
    <use x="176.509766" xlink:href="#DejaVuSans-101"/>
    <use x="238.033203" xlink:href="#DejaVuSans-99"/>
    <use x="293.013672" xlink:href="#DejaVuSans-116"/>
    <use x="332.222656" xlink:href="#DejaVuSans-111"/>
    <use x="393.404297" xlink:href="#DejaVuSans-114"/>
    <use x="434.517578" xlink:href="#DejaVuSans-121"/>
    <use x="493.697266" xlink:href="#DejaVuSans-32"/>
    <use x="525.484375" xlink:href="#DejaVuSans-111"/>
    <use x="586.666016" xlink:href="#DejaVuSans-102"/>
    <use x="621.871094" xlink:href="#DejaVuSans-32"/>
    <use x="653.658203" xlink:href="#DejaVuSans-116"/>
    <use x="692.867188" xlink:href="#DejaVuSans-104"/>
    <use x="756.246094" xlink:href="#DejaVuSans-101"/>
    <use x="817.769531" xlink:href="#DejaVuSans-32"/>
    <use x="849.556641" xlink:href="#DejaVuSans-99"/>
    <use x="904.537109" xlink:href="#DejaVuSans-101"/>
    <use x="966.060547" xlink:href="#DejaVuSans-110"/>
    <use x="1029.439453" xlink:href="#DejaVuSans-116"/>
    <use x="1068.648438" xlink:href="#DejaVuSans-114"/>
    <use x="1107.511719" xlink:href="#DejaVuSans-101"/>
    <use x="1169.035156" xlink:href="#DejaVuSans-32"/>
    <use x="1200.822266" xlink:href="#DejaVuSans-111"/>
    <use x="1262.003906" xlink:href="#DejaVuSans-102"/>
    <use x="1297.208984" xlink:href="#DejaVuSans-32"/>
    <use x="1328.996094" xlink:href="#DejaVuSans-50"/>
    <use x="1392.619141" xlink:href="#DejaVuSans-110"/>
    <use x="1455.998047" xlink:href="#DejaVuSans-100"/>
    <use x="1519.474609" xlink:href="#DejaVuSans-32"/>
    <use x="1551.261719" xlink:href="#DejaVuSans-108"/>
    <use x="1579.044922" xlink:href="#DejaVuSans-105"/>
    <use x="1606.828125" xlink:href="#DejaVuSans-110"/>
    <use x="1670.207031" xlink:href="#DejaVuSans-107"/>
   </g>
  </g>
 </g>
 <defs>
  <clipPath id="pa5c061c4b2">
   <rect height="266.112" width="276.819473" x="97.750263" y="41.472"/>
  </clipPath>
 </defs>
</svg>
