<?xml version="1.0" encoding="utf-8" standalone="no"?>
<!DOCTYPE svg PUBLIC "-//W3C//DTD SVG 1.1//EN"
  "http://www.w3.org/Graphics/SVG/1.1/DTD/svg11.dtd">
<!-- Created with matplotlib (https://matplotlib.org/) -->
<svg height="345.6pt" version="1.1" viewBox="0 0 460.8 345.6" width="460.8pt" xmlns="http://www.w3.org/2000/svg" xmlns:xlink="http://www.w3.org/1999/xlink">
 <defs>
  <style type="text/css">
*{stroke-linecap:butt;stroke-linejoin:round;}
  </style>
 </defs>
 <g id="figure_1">
  <g id="patch_1">
   <path d="M 0 345.6 
L 460.8 345.6 
L 460.8 0 
L 0 0 
z
" style="fill:#ffffff;"/>
  </g>
  <g id="axes_1">
   <g id="patch_2">
    <path d="M 135.817634 162.432 
L 336.502366 162.432 
L 336.502366 41.472 
L 135.817634 41.472 
z
" style="fill:#ffffff;"/>
   </g>
   <g id="matplotlib.axis_1">
    <g id="xtick_1">
     <g id="line2d_1">
      <defs>
       <path d="M 0 0 
L 0 3.5 
" id="me799994578" style="stroke:#000000;stroke-width:0.8;"/>
      </defs>
      <g>
       <use style="stroke:#000000;stroke-width:0.8;" x="177.869673" xlink:href="#me799994578" y="162.432"/>
      </g>
     </g>
     <g id="text_1">
      <!-- −3 -->
      <defs>
       <path d="M 10.59375 35.5 
L 73.1875 35.5 
L 73.1875 27.203125 
L 10.59375 27.203125 
z
" id="DejaVuSans-8722"/>
       <path d="M 40.578125 39.3125 
Q 47.65625 37.796875 51.625 33 
Q 55.609375 28.21875 55.609375 21.1875 
Q 55.609375 10.40625 48.1875 4.484375 
Q 40.765625 -1.421875 27.09375 -1.421875 
Q 22.515625 -1.421875 17.65625 -0.515625 
Q 12.796875 0.390625 7.625 2.203125 
L 7.625 11.71875 
Q 11.71875 9.328125 16.59375 8.109375 
Q 21.484375 6.890625 26.8125 6.890625 
Q 36.078125 6.890625 40.9375 10.546875 
Q 45.796875 14.203125 45.796875 21.1875 
Q 45.796875 27.640625 41.28125 31.265625 
Q 36.765625 34.90625 28.71875 34.90625 
L 20.21875 34.90625 
L 20.21875 43.015625 
L 29.109375 43.015625 
Q 36.375 43.015625 40.234375 45.921875 
Q 44.09375 48.828125 44.09375 54.296875 
Q 44.09375 59.90625 40.109375 62.90625 
Q 36.140625 65.921875 28.71875 65.921875 
Q 24.65625 65.921875 20.015625 65.03125 
Q 15.375 64.15625 9.8125 62.3125 
L 9.8125 71.09375 
Q 15.4375 72.65625 20.34375 73.4375 
Q 25.25 74.21875 29.59375 74.21875 
Q 40.828125 74.21875 47.359375 69.109375 
Q 53.90625 64.015625 53.90625 55.328125 
Q 53.90625 49.265625 50.4375 45.09375 
Q 46.96875 40.921875 40.578125 39.3125 
z
" id="DejaVuSans-51"/>
      </defs>
      <g transform="translate(170.498579 177.030437)scale(0.1 -0.1)">
       <use xlink:href="#DejaVuSans-8722"/>
       <use x="83.789062" xlink:href="#DejaVuSans-51"/>
      </g>
     </g>
    </g>
    <g id="xtick_2">
     <g id="line2d_2">
      <g>
       <use style="stroke:#000000;stroke-width:0.8;" x="222.252911" xlink:href="#me799994578" y="162.432"/>
      </g>
     </g>
     <g id="text_2">
      <!-- −2 -->
      <defs>
       <path d="M 19.1875 8.296875 
L 53.609375 8.296875 
L 53.609375 0 
L 7.328125 0 
L 7.328125 8.296875 
Q 12.9375 14.109375 22.625 23.890625 
Q 32.328125 33.6875 34.8125 36.53125 
Q 39.546875 41.84375 41.421875 45.53125 
Q 43.3125 49.21875 43.3125 52.78125 
Q 43.3125 58.59375 39.234375 62.25 
Q 35.15625 65.921875 28.609375 65.921875 
Q 23.96875 65.921875 18.8125 64.3125 
Q 13.671875 62.703125 7.8125 59.421875 
L 7.8125 69.390625 
Q 13.765625 71.78125 18.9375 73 
Q 24.125 74.21875 28.421875 74.21875 
Q 39.75 74.21875 46.484375 68.546875 
Q 53.21875 62.890625 53.21875 53.421875 
Q 53.21875 48.921875 51.53125 44.890625 
Q 49.859375 40.875 45.40625 35.40625 
Q 44.1875 33.984375 37.640625 27.21875 
Q 31.109375 20.453125 19.1875 8.296875 
z
" id="DejaVuSans-50"/>
      </defs>
      <g transform="translate(214.881817 177.030437)scale(0.1 -0.1)">
       <use xlink:href="#DejaVuSans-8722"/>
       <use x="83.789062" xlink:href="#DejaVuSans-50"/>
      </g>
     </g>
    </g>
    <g id="xtick_3">
     <g id="line2d_3">
      <g>
       <use style="stroke:#000000;stroke-width:0.8;" x="266.636149" xlink:href="#me799994578" y="162.432"/>
      </g>
     </g>
     <g id="text_3">
      <!-- −1 -->
      <defs>
       <path d="M 12.40625 8.296875 
L 28.515625 8.296875 
L 28.515625 63.921875 
L 10.984375 60.40625 
L 10.984375 69.390625 
L 28.421875 72.90625 
L 38.28125 72.90625 
L 38.28125 8.296875 
L 54.390625 8.296875 
L 54.390625 0 
L 12.40625 0 
z
" id="DejaVuSans-49"/>
      </defs>
      <g transform="translate(259.265056 177.030437)scale(0.1 -0.1)">
       <use xlink:href="#DejaVuSans-8722"/>
       <use x="83.789062" xlink:href="#DejaVuSans-49"/>
      </g>
     </g>
    </g>
    <g id="xtick_4">
     <g id="line2d_4">
      <g>
       <use style="stroke:#000000;stroke-width:0.8;" x="311.019387" xlink:href="#me799994578" y="162.432"/>
      </g>
     </g>
     <g id="text_4">
      <!-- 0 -->
      <defs>
       <path d="M 31.78125 66.40625 
Q 24.171875 66.40625 20.328125 58.90625 
Q 16.5 51.421875 16.5 36.375 
Q 16.5 21.390625 20.328125 13.890625 
Q 24.171875 6.390625 31.78125 6.390625 
Q 39.453125 6.390625 43.28125 13.890625 
Q 47.125 21.390625 47.125 36.375 
Q 47.125 51.421875 43.28125 58.90625 
Q 39.453125 66.40625 31.78125 66.40625 
z
M 31.78125 74.21875 
Q 44.046875 74.21875 50.515625 64.515625 
Q 56.984375 54.828125 56.984375 36.375 
Q 56.984375 17.96875 50.515625 8.265625 
Q 44.046875 -1.421875 31.78125 -1.421875 
Q 19.53125 -1.421875 13.0625 8.265625 
Q 6.59375 17.96875 6.59375 36.375 
Q 6.59375 54.828125 13.0625 64.515625 
Q 19.53125 74.21875 31.78125 74.21875 
z
" id="DejaVuSans-48"/>
      </defs>
      <g transform="translate(307.838137 177.030437)scale(0.1 -0.1)">
       <use xlink:href="#DejaVuSans-48"/>
      </g>
     </g>
    </g>
    <g id="text_5">
     <!-- X-axis -->
     <defs>
      <path d="M 6.296875 72.90625 
L 16.890625 72.90625 
L 35.015625 45.796875 
L 53.21875 72.90625 
L 63.8125 72.90625 
L 40.375 37.890625 
L 65.375 0 
L 54.78125 0 
L 34.28125 31 
L 13.625 0 
L 2.984375 0 
L 29 38.921875 
z
" id="DejaVuSans-88"/>
      <path d="M 4.890625 31.390625 
L 31.203125 31.390625 
L 31.203125 23.390625 
L 4.890625 23.390625 
z
" id="DejaVuSans-45"/>
      <path d="M 34.28125 27.484375 
Q 23.390625 27.484375 19.1875 25 
Q 14.984375 22.515625 14.984375 16.5 
Q 14.984375 11.71875 18.140625 8.90625 
Q 21.296875 6.109375 26.703125 6.109375 
Q 34.1875 6.109375 38.703125 11.40625 
Q 43.21875 16.703125 43.21875 25.484375 
L 43.21875 27.484375 
z
M 52.203125 31.203125 
L 52.203125 0 
L 43.21875 0 
L 43.21875 8.296875 
Q 40.140625 3.328125 35.546875 0.953125 
Q 30.953125 -1.421875 24.3125 -1.421875 
Q 15.921875 -1.421875 10.953125 3.296875 
Q 6 8.015625 6 15.921875 
Q 6 25.140625 12.171875 29.828125 
Q 18.359375 34.515625 30.609375 34.515625 
L 43.21875 34.515625 
L 43.21875 35.40625 
Q 43.21875 41.609375 39.140625 45 
Q 35.0625 48.390625 27.6875 48.390625 
Q 23 48.390625 18.546875 47.265625 
Q 14.109375 46.140625 10.015625 43.890625 
L 10.015625 52.203125 
Q 14.9375 54.109375 19.578125 55.046875 
Q 24.21875 56 28.609375 56 
Q 40.484375 56 46.34375 49.84375 
Q 52.203125 43.703125 52.203125 31.203125 
z
" id="DejaVuSans-97"/>
      <path d="M 54.890625 54.6875 
L 35.109375 28.078125 
L 55.90625 0 
L 45.3125 0 
L 29.390625 21.484375 
L 13.484375 0 
L 2.875 0 
L 24.125 28.609375 
L 4.6875 54.6875 
L 15.28125 54.6875 
L 29.78125 35.203125 
L 44.28125 54.6875 
z
" id="DejaVuSans-120"/>
      <path d="M 9.421875 54.6875 
L 18.40625 54.6875 
L 18.40625 0 
L 9.421875 0 
z
M 9.421875 75.984375 
L 18.40625 75.984375 
L 18.40625 64.59375 
L 9.421875 64.59375 
z
" id="DejaVuSans-105"/>
      <path d="M 44.28125 53.078125 
L 44.28125 44.578125 
Q 40.484375 46.53125 36.375 47.5 
Q 32.28125 48.484375 27.875 48.484375 
Q 21.1875 48.484375 17.84375 46.4375 
Q 14.5 44.390625 14.5 40.28125 
Q 14.5 37.15625 16.890625 35.375 
Q 19.28125 33.59375 26.515625 31.984375 
L 29.59375 31.296875 
Q 39.15625 29.25 43.1875 25.515625 
Q 47.21875 21.78125 47.21875 15.09375 
Q 47.21875 7.46875 41.1875 3.015625 
Q 35.15625 -1.421875 24.609375 -1.421875 
Q 20.21875 -1.421875 15.453125 -0.5625 
Q 10.6875 0.296875 5.421875 2 
L 5.421875 11.28125 
Q 10.40625 8.6875 15.234375 7.390625 
Q 20.0625 6.109375 24.8125 6.109375 
Q 31.15625 6.109375 34.5625 8.28125 
Q 37.984375 10.453125 37.984375 14.40625 
Q 37.984375 18.0625 35.515625 20.015625 
Q 33.0625 21.96875 24.703125 23.78125 
L 21.578125 24.515625 
Q 13.234375 26.265625 9.515625 29.90625 
Q 5.8125 33.546875 5.8125 39.890625 
Q 5.8125 47.609375 11.28125 51.796875 
Q 16.75 56 26.8125 56 
Q 31.78125 56 36.171875 55.265625 
Q 40.578125 54.546875 44.28125 53.078125 
z
" id="DejaVuSans-115"/>
     </defs>
     <g transform="translate(221.163906 190.708562)scale(0.1 -0.1)">
      <use xlink:href="#DejaVuSans-88"/>
      <use x="63.505859" xlink:href="#DejaVuSans-45"/>
      <use x="99.589844" xlink:href="#DejaVuSans-97"/>
      <use x="160.869141" xlink:href="#DejaVuSans-120"/>
      <use x="220.048828" xlink:href="#DejaVuSans-105"/>
      <use x="247.832031" xlink:href="#DejaVuSans-115"/>
     </g>
    </g>
   </g>
   <g id="matplotlib.axis_2">
    <g id="ytick_1">
     <g id="line2d_5">
      <defs>
       <path d="M 0 0 
L -3.5 0 
" id="m1978fbdc70" style="stroke:#000000;stroke-width:0.8;"/>
      </defs>
      <g>
       <use style="stroke:#000000;stroke-width:0.8;" x="135.817634" xlink:href="#m1978fbdc70" y="157.917181"/>
      </g>
     </g>
     <g id="text_6">
      <!-- 3.5 -->
      <defs>
       <path d="M 10.6875 12.40625 
L 21 12.40625 
L 21 0 
L 10.6875 0 
z
" id="DejaVuSans-46"/>
       <path d="M 10.796875 72.90625 
L 49.515625 72.90625 
L 49.515625 64.59375 
L 19.828125 64.59375 
L 19.828125 46.734375 
Q 21.96875 47.46875 24.109375 47.828125 
Q 26.265625 48.1875 28.421875 48.1875 
Q 40.625 48.1875 47.75 41.5 
Q 54.890625 34.8125 54.890625 23.390625 
Q 54.890625 11.625 47.5625 5.09375 
Q 40.234375 -1.421875 26.90625 -1.421875 
Q 22.3125 -1.421875 17.546875 -0.640625 
Q 12.796875 0.140625 7.71875 1.703125 
L 7.71875 11.625 
Q 12.109375 9.234375 16.796875 8.0625 
Q 21.484375 6.890625 26.703125 6.890625 
Q 35.15625 6.890625 40.078125 11.328125 
Q 45.015625 15.765625 45.015625 23.390625 
Q 45.015625 31 40.078125 35.4375 
Q 35.15625 39.890625 26.703125 39.890625 
Q 22.75 39.890625 18.8125 39.015625 
Q 14.890625 38.140625 10.796875 36.28125 
z
" id="DejaVuSans-53"/>
      </defs>
      <g transform="translate(112.914509 161.7164)scale(0.1 -0.1)">
       <use xlink:href="#DejaVuSans-51"/>
       <use x="63.623047" xlink:href="#DejaVuSans-46"/>
       <use x="95.410156" xlink:href="#DejaVuSans-53"/>
      </g>
     </g>
    </g>
    <g id="ytick_2">
     <g id="line2d_6">
      <g>
       <use style="stroke:#000000;stroke-width:0.8;" x="135.817634" xlink:href="#m1978fbdc70" y="135.725562"/>
      </g>
     </g>
     <g id="text_7">
      <!-- 4.0 -->
      <defs>
       <path d="M 37.796875 64.3125 
L 12.890625 25.390625 
L 37.796875 25.390625 
z
M 35.203125 72.90625 
L 47.609375 72.90625 
L 47.609375 25.390625 
L 58.015625 25.390625 
L 58.015625 17.1875 
L 47.609375 17.1875 
L 47.609375 0 
L 37.796875 0 
L 37.796875 17.1875 
L 4.890625 17.1875 
L 4.890625 26.703125 
z
" id="DejaVuSans-52"/>
      </defs>
      <g transform="translate(112.914509 139.524781)scale(0.1 -0.1)">
       <use xlink:href="#DejaVuSans-52"/>
       <use x="63.623047" xlink:href="#DejaVuSans-46"/>
       <use x="95.410156" xlink:href="#DejaVuSans-48"/>
      </g>
     </g>
    </g>
    <g id="ytick_3">
     <g id="line2d_7">
      <g>
       <use style="stroke:#000000;stroke-width:0.8;" x="135.817634" xlink:href="#m1978fbdc70" y="113.533943"/>
      </g>
     </g>
     <g id="text_8">
      <!-- 4.5 -->
      <g transform="translate(112.914509 117.333162)scale(0.1 -0.1)">
       <use xlink:href="#DejaVuSans-52"/>
       <use x="63.623047" xlink:href="#DejaVuSans-46"/>
       <use x="95.410156" xlink:href="#DejaVuSans-53"/>
      </g>
     </g>
    </g>
    <g id="ytick_4">
     <g id="line2d_8">
      <g>
       <use style="stroke:#000000;stroke-width:0.8;" x="135.817634" xlink:href="#m1978fbdc70" y="91.342324"/>
      </g>
     </g>
     <g id="text_9">
      <!-- 5.0 -->
      <g transform="translate(112.914509 95.141543)scale(0.1 -0.1)">
       <use xlink:href="#DejaVuSans-53"/>
       <use x="63.623047" xlink:href="#DejaVuSans-46"/>
       <use x="95.410156" xlink:href="#DejaVuSans-48"/>
      </g>
     </g>
    </g>
    <g id="ytick_5">
     <g id="line2d_9">
      <g>
       <use style="stroke:#000000;stroke-width:0.8;" x="135.817634" xlink:href="#m1978fbdc70" y="69.150705"/>
      </g>
     </g>
     <g id="text_10">
      <!-- 5.5 -->
      <g transform="translate(112.914509 72.949924)scale(0.1 -0.1)">
       <use xlink:href="#DejaVuSans-53"/>
       <use x="63.623047" xlink:href="#DejaVuSans-46"/>
       <use x="95.410156" xlink:href="#DejaVuSans-53"/>
      </g>
     </g>
    </g>
    <g id="ytick_6">
     <g id="line2d_10">
      <g>
       <use style="stroke:#000000;stroke-width:0.8;" x="135.817634" xlink:href="#m1978fbdc70" y="46.959086"/>
      </g>
     </g>
     <g id="text_11">
      <!-- 6.0 -->
      <defs>
       <path d="M 33.015625 40.375 
Q 26.375 40.375 22.484375 35.828125 
Q 18.609375 31.296875 18.609375 23.390625 
Q 18.609375 15.53125 22.484375 10.953125 
Q 26.375 6.390625 33.015625 6.390625 
Q 39.65625 6.390625 43.53125 10.953125 
Q 47.40625 15.53125 47.40625 23.390625 
Q 47.40625 31.296875 43.53125 35.828125 
Q 39.65625 40.375 33.015625 40.375 
z
M 52.59375 71.296875 
L 52.59375 62.3125 
Q 48.875 64.0625 45.09375 64.984375 
Q 41.3125 65.921875 37.59375 65.921875 
Q 27.828125 65.921875 22.671875 59.328125 
Q 17.53125 52.734375 16.796875 39.40625 
Q 19.671875 43.65625 24.015625 45.921875 
Q 28.375 48.1875 33.59375 48.1875 
Q 44.578125 48.1875 50.953125 41.515625 
Q 57.328125 34.859375 57.328125 23.390625 
Q 57.328125 12.15625 50.6875 5.359375 
Q 44.046875 -1.421875 33.015625 -1.421875 
Q 20.359375 -1.421875 13.671875 8.265625 
Q 6.984375 17.96875 6.984375 36.375 
Q 6.984375 53.65625 15.1875 63.9375 
Q 23.390625 74.21875 37.203125 74.21875 
Q 40.921875 74.21875 44.703125 73.484375 
Q 48.484375 72.75 52.59375 71.296875 
z
" id="DejaVuSans-54"/>
      </defs>
      <g transform="translate(112.914509 50.758305)scale(0.1 -0.1)">
       <use xlink:href="#DejaVuSans-54"/>
       <use x="63.623047" xlink:href="#DejaVuSans-46"/>
       <use x="95.410156" xlink:href="#DejaVuSans-48"/>
      </g>
     </g>
    </g>
    <g id="text_12">
     <!-- Y-axis -->
     <defs>
      <path d="M -0.203125 72.90625 
L 10.40625 72.90625 
L 30.609375 42.921875 
L 50.6875 72.90625 
L 61.28125 72.90625 
L 35.5 34.71875 
L 35.5 0 
L 25.59375 0 
L 25.59375 34.71875 
z
" id="DejaVuSans-89"/>
     </defs>
     <g transform="translate(106.834821 116.23325)rotate(-90)scale(0.1 -0.1)">
      <use xlink:href="#DejaVuSans-89"/>
      <use x="49.208984" xlink:href="#DejaVuSans-45"/>
      <use x="85.292969" xlink:href="#DejaVuSans-97"/>
      <use x="146.572266" xlink:href="#DejaVuSans-120"/>
      <use x="205.751953" xlink:href="#DejaVuSans-105"/>
      <use x="233.535156" xlink:href="#DejaVuSans-115"/>
     </g>
    </g>
   </g>
   <g id="line2d_11">
    <path clip-path="url(#p663169cd4f)" d="M 308.800262 46.970182 
L 308.911276 46.983619 
L 310.121119 47.23242 
L 311.432587 47.732446 
L 312.796349 48.49384 
L 314.196426 49.534516 
L 315.619689 50.874199 
L 317.055209 52.53606 
L 318.488309 54.541588 
L 319.89527 56.898711 
L 321.259033 59.624216 
L 322.547909 62.703015 
L 323.739309 66.131778 
L 324.799886 69.866315 
L 325.707619 73.881933 
L 326.43505 78.110847 
L 326.965491 82.50946 
L 327.282915 86.999248 
L 327.379873 91.515015 
L 327.254751 95.991766 
L 326.911989 100.366043 
L 326.358863 104.599283 
L 325.608687 108.63642 
L 324.681022 112.42704 
L 323.586474 115.971759 
L 322.35743 119.210419 
L 321.005897 122.156353 
L 319.549177 124.805537 
L 318.016914 127.139011 
L 316.412352 129.182291 
L 314.763779 130.925839 
L 313.084295 132.382989 
L 311.383785 133.568227 
L 309.668869 134.495787 
L 307.943104 135.17829 
L 306.20743 135.625541 
L 304.482012 135.842285 
L 302.743694 135.836865 
L 301.010614 135.610277 
L 299.258916 135.15589 
L 297.507759 134.470745 
L 295.756509 133.546425 
L 294.006703 132.371351 
L 292.262599 130.931906 
L 290.531508 129.21373 
L 288.823892 127.203082 
L 287.153252 124.888202 
L 285.535833 122.260613 
L 284.000678 119.337964 
L 282.554721 116.100995 
L 281.227111 112.579212 
L 280.029467 108.7649 
L 278.988728 104.701904 
L 278.122197 100.419375 
L 277.445894 95.954436 
L 276.973768 91.352644 
L 276.716788 86.668273 
L 276.681621 81.981412 
L 276.86775 77.35904 
L 277.268693 72.874636 
L 277.872482 68.593919 
L 278.659125 64.591077 
L 279.602583 60.926188 
L 280.675992 57.633448 
L 281.850175 54.73556 
L 283.10549 52.218731 
L 284.496414 49.931066 
L 285.288462 48.523697 
L 285.185298 48.334949 
L 284.84043 48.269691 
L 283.900057 48.361159 
L 282.227704 48.747585 
L 280.909864 49.261689 
L 280.032396 49.8322 
L 279.427831 50.485973 
L 279.002415 51.277713 
L 278.715638 52.299918 
L 278.564542 53.712222 
L 278.580094 55.838448 
L 278.863114 59.648625 
L 279.910842 72.448227 
L 280.172442 78.954786 
L 280.199862 85.130905 
L 280.005804 91.048154 
L 279.600599 96.694951 
L 278.994468 102.062289 
L 278.20176 107.115952 
L 277.238622 111.834949 
L 276.123849 116.201656 
L 274.865486 120.242431 
L 273.488728 123.92809 
L 272.000053 127.288649 
L 270.40824 130.338926 
L 268.730961 133.076872 
L 266.98567 135.507001 
L 265.170262 137.659669 
L 263.293717 139.5453 
L 261.362358 141.176448 
L 259.35638 142.581111 
L 257.296018 143.753291 
L 255.178313 144.70387 
L 252.997359 145.441088 
L 250.744841 145.969709 
L 248.410762 146.290511 
L 245.984295 146.400144 
L 243.454682 146.291357 
L 240.812096 145.953579 
L 238.04839 145.373777 
L 235.157704 144.537539 
L 232.13688 143.43028 
L 228.959839 142.026128 
L 225.632108 140.309798 
L 222.114963 138.241207 
L 218.42744 135.810991 
L 214.527557 132.970977 
L 210.391643 129.68033 
L 205.958886 125.864679 
L 201.136818 121.414378 
L 195.711367 116.095929 
L 188.857193 109.044275 
L 177.732324 97.57307 
L 174.380362 94.463084 
L 171.989506 92.53169 
L 170.16966 91.33325 
L 168.723495 90.635426 
L 167.534609 90.298308 
L 166.509741 90.231882 
L 165.581696 90.392493 
L 164.696538 90.774217 
L 163.808913 91.406085 
L 162.878297 92.351349 
L 161.861605 93.714565 
L 160.71488 95.642554 
L 159.399582 98.310269 
L 157.88761 101.901838 
L 156.186912 106.535828 
L 154.352265 112.196894 
L 152.449457 118.803373 
L 150.538216 126.254675 
L 148.659072 134.487588 
L 146.843462 143.452343 
L 145.113458 153.126089 
L 144.939667 154.169589 
L 144.939667 154.169589 
" style="fill:none;stroke:#0000ff;stroke-linecap:square;stroke-width:1.5;"/>
   </g>
   <g id="line2d_12">
    <path clip-path="url(#p663169cd4f)" d="M 308.800262 46.970182 
L 308.911328 46.983641 
L 310.120823 47.232487 
L 311.431475 47.732274 
L 312.79419 48.493046 
L 314.193091 49.532665 
L 315.615123 50.870833 
L 317.049412 52.530719 
L 318.481333 54.533827 
L 319.891039 56.895121 
L 321.253908 59.618915 
L 322.541944 62.695765 
L 323.73258 66.122377 
L 324.795819 69.867673 
L 325.702583 73.882413 
L 326.429068 78.110371 
L 326.958597 82.507986 
L 327.275161 86.996778 
L 327.371319 91.511587 
L 327.245467 95.987449 
L 326.902049 100.360935 
L 326.348343 104.593501 
L 325.597663 108.630101 
L 324.66957 112.420331 
L 323.574665 115.964813 
L 322.345334 119.203396 
L 320.993575 122.14941 
L 319.536683 124.798831 
L 318.004292 127.132693 
L 316.399636 129.176506 
L 314.750987 130.920717 
L 313.071433 132.378643 
L 311.370844 133.564749 
L 309.655825 134.493244 
L 307.929923 135.176722 
L 306.194071 135.624956 
L 304.468428 135.842648 
L 302.72984 135.83812 
L 300.99645 135.612326 
L 299.244408 135.158614 
L 297.492886 134.473986 
L 295.741269 133.550004 
L 293.991109 132.375065 
L 292.246682 130.935536 
L 290.515319 129.217041 
L 288.807499 127.205828 
L 287.136741 124.890127 
L 285.519309 122.261456 
L 283.984257 119.33747 
L 282.538536 116.0989 
L 281.211308 112.575265 
L 280.014209 108.758843 
L 278.974191 104.693501 
L 278.108575 100.408407 
L 277.433403 95.940706 
L 276.962646 91.335987 
L 276.707301 86.64857 
L 276.674061 81.958613 
L 276.862443 77.333171 
L 277.266004 72.845817 
L 277.870722 68.574856 
L 278.658107 64.578678 
L 279.602673 60.917376 
L 280.675608 57.632489 
L 281.849192 54.741697 
L 283.101176 52.237609 
L 284.46732 50.00179 
L 285.364504 48.453529 
L 285.247502 48.292655 
L 284.871584 48.250993 
L 283.884025 48.400548 
L 282.517676 48.819582 
L 281.546501 49.335082 
L 280.901103 49.921555 
L 280.460969 50.622753 
L 280.170807 51.517176 
L 280.019417 52.746743 
L 280.035661 54.589141 
L 280.317161 57.818391 
L 281.702781 71.74511 
L 282.028636 78.004792 
L 282.121547 84.048626 
L 281.99001 89.889959 
L 281.643405 95.490921 
L 281.093207 100.823903 
L 280.350566 105.875671 
L 279.433273 110.603879 
L 278.353533 115.013008 
L 277.130821 119.081304 
L 275.784597 122.801352 
L 274.321237 126.201732 
L 272.76194 129.2727 
L 271.114445 132.035399 
L 269.379453 134.514892 
L 267.585501 136.696512 
L 265.726717 138.612042 
L 263.809186 140.272849 
L 261.836039 141.691107 
L 259.807238 142.878535 
L 257.719625 143.845187 
L 255.567227 144.598396 
L 253.341796 145.141955 
L 251.033553 145.475632 
L 248.632043 145.595045 
L 246.154911 145.494275 
L 243.564957 145.164148 
L 240.881763 144.597253 
L 238.071433 143.775012 
L 235.130888 142.680942 
L 232.060226 141.299634 
L 228.838052 139.604148 
L 225.45018 137.566469 
L 221.890353 135.161188 
L 218.160536 132.369268 
L 214.210722 129.13041 
L 210.015052 125.3969 
L 205.504312 121.078653 
L 200.551073 116.020852 
L 194.759654 109.775554 
L 179.147363 92.73449 
L 176.625016 90.432864 
L 174.745419 89.001433 
L 173.267624 88.141044 
L 172.05742 87.682487 
L 171.024807 87.520851 
L 170.095765 87.597301 
L 169.215655 87.894504 
L 168.338471 88.430185 
L 167.414626 89.264507 
L 166.405219 90.489927 
L 165.270072 92.235147 
L 163.970588 94.660052 
L 162.479182 97.934746 
L 160.80882 102.158268 
L 159.006645 107.336413 
L 157.138273 113.39468 
L 155.254163 120.270829 
L 153.393479 127.914228 
L 151.578157 136.324521 
L 149.832721 145.477474 
L 148.172418 155.38253 
L 147.931606 156.933818 
L 147.931606 156.933818 
" style="fill:none;stroke:#008000;stroke-linecap:square;stroke-width:1.5;"/>
   </g>
   <g id="line2d_13">
    <path clip-path="url(#p663169cd4f)" d="M 308.800262 46.970182 
L 308.911302 46.98363 
L 310.120972 47.232454 
L 311.432032 47.732361 
L 312.795271 48.493444 
L 314.194761 49.533592 
L 315.617409 50.872519 
L 317.052314 52.533393 
L 318.484824 54.537712 
L 319.895071 56.900421 
L 321.258414 59.625808 
L 322.546838 62.704391 
L 323.737763 66.13285 
L 324.801178 69.880062 
L 325.707993 73.89674 
L 326.434395 78.126611 
L 326.963699 82.526078 
L 327.279892 87.016609 
L 327.37553 91.533004 
L 327.24901 96.010262 
L 326.904781 100.384918 
L 326.350124 104.6184 
L 325.598363 108.65563 
L 324.66908 112.446182 
L 323.580562 115.96831 
L 322.351373 119.206931 
L 320.999726 122.152904 
L 319.542919 124.802205 
L 318.01059 127.135872 
L 316.40598 129.179418 
L 314.757368 130.923295 
L 313.077847 132.380831 
L 311.377296 133.566501 
L 309.662328 134.494526 
L 307.936493 135.177514 
L 306.20073 135.625253 
L 304.475199 135.842468 
L 302.736746 135.837491 
L 301.003511 135.611297 
L 299.251641 135.157244 
L 297.500302 134.472354 
L 295.748869 133.548201 
L 293.998887 132.373191 
L 292.254624 130.933702 
L 290.523398 129.215364 
L 288.815681 127.204432 
L 287.144984 124.88914 
L 285.527561 122.261009 
L 283.992459 119.337691 
L 282.546622 116.09992 
L 281.219205 112.577211 
L 280.021834 108.761845 
L 278.981458 104.697677 
L 278.115386 100.413866 
L 277.43965 95.947546 
L 276.968209 91.344293 
L 276.712047 86.6584 
L 276.677844 81.969992 
L 276.865101 77.346087 
L 277.267352 72.860209 
L 277.872661 68.578131 
L 278.661062 64.574106 
L 279.606564 60.908284 
L 280.67976 57.622134 
L 281.85462 54.727711 
L 283.108537 52.218824 
L 284.488172 49.957248 
L 285.326487 48.489608 
L 285.217004 48.313577 
L 284.858432 48.259151 
L 283.892645 48.377445 
L 282.369917 48.781111 
L 281.238896 49.294067 
L 280.485728 49.870598 
L 279.968846 50.543859 
L 279.613411 51.380113 
L 279.393803 52.493524 
L 279.321937 54.089108 
L 279.452747 56.642074 
L 280.041523 62.565897 
L 280.760458 70.624052 
L 281.110701 77.095485 
L 281.222331 83.252118 
L 281.109169 89.172564 
L 280.780054 94.857615 
L 280.246739 100.264949 
L 279.52292 105.369634 
L 278.620875 110.166275 
L 277.556985 114.63337 
L 276.345342 118.769324 
L 275.003817 122.564675 
L 273.548484 126.022136 
L 271.991735 129.154242 
L 270.340556 131.980588 
L 268.611135 134.503099 
L 266.818716 136.729287 
L 264.9572 138.690168 
L 263.03241 140.396165 
L 261.047356 141.858541 
L 259.002031 143.088189 
L 256.918529 144.083931 
L 254.768041 144.867962 
L 252.54206 145.443909 
L 250.230545 145.811377 
L 247.850624 145.965289 
L 245.364278 145.902685 
L 242.761473 145.611558 
L 240.061736 145.083904 
L 237.230817 144.301387 
L 234.265429 143.247347 
L 231.165476 141.906208 
L 227.909118 140.251185 
L 224.505666 138.269175 
L 220.922166 135.921854 
L 217.138195 133.172827 
L 213.146729 129.994018 
L 208.897473 126.321179 
L 204.318451 122.063698 
L 199.261531 117.050061 
L 193.309822 110.821579 
L 177.621421 94.211624 
L 174.965069 91.836872 
L 172.992123 90.354652 
L 171.44924 89.459297 
L 170.194669 88.97625 
L 169.128017 88.795678 
L 168.182128 88.856334 
L 167.294387 89.135875 
L 166.417399 89.648983 
L 165.505182 90.44861 
L 164.518756 91.621095 
L 163.414407 93.295681 
L 162.154295 95.629321 
L 160.702461 98.807618 
L 159.06171 102.955247 
L 157.271927 108.101387 
L 155.396367 114.185964 
L 153.497397 121.113634 
L 151.614787 128.834961 
L 149.779639 137.313337 
L 148.017482 146.517237 
L 146.486075 155.557353 
L 146.486075 155.557353 
" style="fill:none;stroke:#bfbf00;stroke-linecap:square;stroke-width:1.5;"/>
   </g>
   <g id="patch_3">
    <path d="M 135.817634 162.432 
L 135.817634 41.472 
" style="fill:none;stroke:#000000;stroke-linecap:square;stroke-linejoin:miter;stroke-width:0.8;"/>
   </g>
   <g id="patch_4">
    <path d="M 336.502366 162.432 
L 336.502366 41.472 
" style="fill:none;stroke:#000000;stroke-linecap:square;stroke-linejoin:miter;stroke-width:0.8;"/>
   </g>
   <g id="patch_5">
    <path d="M 135.817634 162.432 
L 336.502366 162.432 
" style="fill:none;stroke:#000000;stroke-linecap:square;stroke-linejoin:miter;stroke-width:0.8;"/>
   </g>
   <g id="patch_6">
    <path d="M 135.817634 41.472 
L 336.502366 41.472 
" style="fill:none;stroke:#000000;stroke-linecap:square;stroke-linejoin:miter;stroke-width:0.8;"/>
   </g>
   <g id="legend_1">
    <g id="patch_7">
     <path d="M 142.817634 94.472 
L 250.134821 94.472 
Q 252.134821 94.472 252.134821 92.472 
L 252.134821 48.472 
Q 252.134821 46.472 250.134821 46.472 
L 142.817634 46.472 
Q 140.817634 46.472 140.817634 48.472 
L 140.817634 92.472 
Q 140.817634 94.472 142.817634 94.472 
z
" style="fill:#ffffff;opacity:0.8;stroke:#cccccc;stroke-linejoin:miter;"/>
    </g>
    <g id="line2d_14">
     <path d="M 144.817634 54.614187 
L 164.817634 54.614187 
" style="fill:none;stroke:#0000ff;stroke-linecap:square;stroke-width:1.5;"/>
    </g>
    <g id="line2d_15"/>
    <g id="text_13">
     <!-- [ 1. 10.] | I |  -->
     <defs>
      <path d="M 8.59375 75.984375 
L 29.296875 75.984375 
L 29.296875 69 
L 17.578125 69 
L 17.578125 -6.203125 
L 29.296875 -6.203125 
L 29.296875 -13.1875 
L 8.59375 -13.1875 
z
" id="DejaVuSans-91"/>
      <path id="DejaVuSans-32"/>
      <path d="M 30.421875 75.984375 
L 30.421875 -13.1875 
L 9.71875 -13.1875 
L 9.71875 -6.203125 
L 21.390625 -6.203125 
L 21.390625 69 
L 9.71875 69 
L 9.71875 75.984375 
z
" id="DejaVuSans-93"/>
      <path d="M 21 76.421875 
L 21 -23.578125 
L 12.703125 -23.578125 
L 12.703125 76.421875 
z
" id="DejaVuSans-124"/>
      <path d="M 9.8125 72.90625 
L 19.671875 72.90625 
L 19.671875 0 
L 9.8125 0 
z
" id="DejaVuSans-73"/>
     </defs>
     <g transform="translate(172.817634 58.114187)scale(0.1 -0.1)">
      <use xlink:href="#DejaVuSans-91"/>
      <use x="39.013672" xlink:href="#DejaVuSans-32"/>
      <use x="70.800781" xlink:href="#DejaVuSans-49"/>
      <use x="134.423828" xlink:href="#DejaVuSans-46"/>
      <use x="166.210938" xlink:href="#DejaVuSans-32"/>
      <use x="197.998047" xlink:href="#DejaVuSans-49"/>
      <use x="261.621094" xlink:href="#DejaVuSans-48"/>
      <use x="325.244141" xlink:href="#DejaVuSans-46"/>
      <use x="357.03125" xlink:href="#DejaVuSans-93"/>
      <use x="396.044922" xlink:href="#DejaVuSans-32"/>
      <use x="427.832031" xlink:href="#DejaVuSans-124"/>
      <use x="461.523438" xlink:href="#DejaVuSans-32"/>
      <use x="493.310547" xlink:href="#DejaVuSans-73"/>
      <use x="522.802734" xlink:href="#DejaVuSans-32"/>
      <use x="554.589844" xlink:href="#DejaVuSans-124"/>
      <use x="588.28125" xlink:href="#DejaVuSans-32"/>
     </g>
    </g>
    <g id="line2d_16">
     <path d="M 144.817634 69.614187 
L 164.817634 69.614187 
" style="fill:none;stroke:#008000;stroke-linecap:square;stroke-width:1.5;"/>
    </g>
    <g id="line2d_17"/>
    <g id="text_14">
     <!-- [ 1. 10.] | E |  -->
     <defs>
      <path d="M 9.8125 72.90625 
L 55.90625 72.90625 
L 55.90625 64.59375 
L 19.671875 64.59375 
L 19.671875 43.015625 
L 54.390625 43.015625 
L 54.390625 34.71875 
L 19.671875 34.71875 
L 19.671875 8.296875 
L 56.78125 8.296875 
L 56.78125 0 
L 9.8125 0 
z
" id="DejaVuSans-69"/>
     </defs>
     <g transform="translate(172.817634 73.114187)scale(0.1 -0.1)">
      <use xlink:href="#DejaVuSans-91"/>
      <use x="39.013672" xlink:href="#DejaVuSans-32"/>
      <use x="70.800781" xlink:href="#DejaVuSans-49"/>
      <use x="134.423828" xlink:href="#DejaVuSans-46"/>
      <use x="166.210938" xlink:href="#DejaVuSans-32"/>
      <use x="197.998047" xlink:href="#DejaVuSans-49"/>
      <use x="261.621094" xlink:href="#DejaVuSans-48"/>
      <use x="325.244141" xlink:href="#DejaVuSans-46"/>
      <use x="357.03125" xlink:href="#DejaVuSans-93"/>
      <use x="396.044922" xlink:href="#DejaVuSans-32"/>
      <use x="427.832031" xlink:href="#DejaVuSans-124"/>
      <use x="461.523438" xlink:href="#DejaVuSans-32"/>
      <use x="493.310547" xlink:href="#DejaVuSans-69"/>
      <use x="556.494141" xlink:href="#DejaVuSans-32"/>
      <use x="588.28125" xlink:href="#DejaVuSans-124"/>
      <use x="621.972656" xlink:href="#DejaVuSans-32"/>
     </g>
    </g>
    <g id="line2d_18">
     <path d="M 144.817634 84.614187 
L 164.817634 84.614187 
" style="fill:none;stroke:#bfbf00;stroke-linecap:square;stroke-width:1.5;"/>
    </g>
    <g id="line2d_19"/>
    <g id="text_15">
     <!-- [ 1. 10.] | rk4 |  -->
     <defs>
      <path d="M 41.109375 46.296875 
Q 39.59375 47.171875 37.8125 47.578125 
Q 36.03125 48 33.890625 48 
Q 26.265625 48 22.1875 43.046875 
Q 18.109375 38.09375 18.109375 28.8125 
L 18.109375 0 
L 9.078125 0 
L 9.078125 54.6875 
L 18.109375 54.6875 
L 18.109375 46.1875 
Q 20.953125 51.171875 25.484375 53.578125 
Q 30.03125 56 36.53125 56 
Q 37.453125 56 38.578125 55.875 
Q 39.703125 55.765625 41.0625 55.515625 
z
" id="DejaVuSans-114"/>
      <path d="M 9.078125 75.984375 
L 18.109375 75.984375 
L 18.109375 31.109375 
L 44.921875 54.6875 
L 56.390625 54.6875 
L 27.390625 29.109375 
L 57.625 0 
L 45.90625 0 
L 18.109375 26.703125 
L 18.109375 0 
L 9.078125 0 
z
" id="DejaVuSans-107"/>
     </defs>
     <g transform="translate(172.817634 88.114187)scale(0.1 -0.1)">
      <use xlink:href="#DejaVuSans-91"/>
      <use x="39.013672" xlink:href="#DejaVuSans-32"/>
      <use x="70.800781" xlink:href="#DejaVuSans-49"/>
      <use x="134.423828" xlink:href="#DejaVuSans-46"/>
      <use x="166.210938" xlink:href="#DejaVuSans-32"/>
      <use x="197.998047" xlink:href="#DejaVuSans-49"/>
      <use x="261.621094" xlink:href="#DejaVuSans-48"/>
      <use x="325.244141" xlink:href="#DejaVuSans-46"/>
      <use x="357.03125" xlink:href="#DejaVuSans-93"/>
      <use x="396.044922" xlink:href="#DejaVuSans-32"/>
      <use x="427.832031" xlink:href="#DejaVuSans-124"/>
      <use x="461.523438" xlink:href="#DejaVuSans-32"/>
      <use x="493.310547" xlink:href="#DejaVuSans-114"/>
      <use x="534.423828" xlink:href="#DejaVuSans-107"/>
      <use x="592.333984" xlink:href="#DejaVuSans-52"/>
      <use x="655.957031" xlink:href="#DejaVuSans-32"/>
      <use x="687.744141" xlink:href="#DejaVuSans-124"/>
      <use x="721.435547" xlink:href="#DejaVuSans-32"/>
     </g>
    </g>
   </g>
  </g>
  <g id="axes_2">
   <g id="patch_8">
    <path d="M 100.237882 307.584 
L 372.082118 307.584 
L 372.082118 186.624 
L 100.237882 186.624 
z
" style="fill:#ffffff;"/>
   </g>
   <g id="matplotlib.axis_3">
    <g id="xtick_5">
     <g id="line2d_20">
      <g>
       <use style="stroke:#000000;stroke-width:0.8;" x="113.125448" xlink:href="#me799994578" y="307.584"/>
      </g>
     </g>
     <g id="text_16">
      <!-- 0.0 -->
      <g transform="translate(105.173885 322.182437)scale(0.1 -0.1)">
       <use xlink:href="#DejaVuSans-48"/>
       <use x="63.623047" xlink:href="#DejaVuSans-46"/>
       <use x="95.410156" xlink:href="#DejaVuSans-48"/>
      </g>
     </g>
    </g>
    <g id="xtick_6">
     <g id="line2d_21">
      <g>
       <use style="stroke:#000000;stroke-width:0.8;" x="166.227273" xlink:href="#me799994578" y="307.584"/>
      </g>
     </g>
     <g id="text_17">
      <!-- 0.5 -->
      <g transform="translate(158.27571 322.182437)scale(0.1 -0.1)">
       <use xlink:href="#DejaVuSans-48"/>
       <use x="63.623047" xlink:href="#DejaVuSans-46"/>
       <use x="95.410156" xlink:href="#DejaVuSans-53"/>
      </g>
     </g>
    </g>
    <g id="xtick_7">
     <g id="line2d_22">
      <g>
       <use style="stroke:#000000;stroke-width:0.8;" x="219.329098" xlink:href="#me799994578" y="307.584"/>
      </g>
     </g>
     <g id="text_18">
      <!-- 1.0 -->
      <g transform="translate(211.377535 322.182437)scale(0.1 -0.1)">
       <use xlink:href="#DejaVuSans-49"/>
       <use x="63.623047" xlink:href="#DejaVuSans-46"/>
       <use x="95.410156" xlink:href="#DejaVuSans-48"/>
      </g>
     </g>
    </g>
    <g id="xtick_8">
     <g id="line2d_23">
      <g>
       <use style="stroke:#000000;stroke-width:0.8;" x="272.430923" xlink:href="#me799994578" y="307.584"/>
      </g>
     </g>
     <g id="text_19">
      <!-- 1.5 -->
      <g transform="translate(264.47936 322.182437)scale(0.1 -0.1)">
       <use xlink:href="#DejaVuSans-49"/>
       <use x="63.623047" xlink:href="#DejaVuSans-46"/>
       <use x="95.410156" xlink:href="#DejaVuSans-53"/>
      </g>
     </g>
    </g>
    <g id="xtick_9">
     <g id="line2d_24">
      <g>
       <use style="stroke:#000000;stroke-width:0.8;" x="325.532748" xlink:href="#me799994578" y="307.584"/>
      </g>
     </g>
     <g id="text_20">
      <!-- 2.0 -->
      <g transform="translate(317.581186 322.182437)scale(0.1 -0.1)">
       <use xlink:href="#DejaVuSans-50"/>
       <use x="63.623047" xlink:href="#DejaVuSans-46"/>
       <use x="95.410156" xlink:href="#DejaVuSans-48"/>
      </g>
     </g>
    </g>
    <g id="text_21">
     <!-- X-axis -->
     <g transform="translate(221.163906 335.860562)scale(0.1 -0.1)">
      <use xlink:href="#DejaVuSans-88"/>
      <use x="63.505859" xlink:href="#DejaVuSans-45"/>
      <use x="99.589844" xlink:href="#DejaVuSans-97"/>
      <use x="160.869141" xlink:href="#DejaVuSans-120"/>
      <use x="220.048828" xlink:href="#DejaVuSans-105"/>
      <use x="247.832031" xlink:href="#DejaVuSans-115"/>
     </g>
    </g>
   </g>
   <g id="matplotlib.axis_4">
    <g id="ytick_7">
     <g id="line2d_25">
      <g>
       <use style="stroke:#000000;stroke-width:0.8;" x="100.237882" xlink:href="#m1978fbdc70" y="287.702812"/>
      </g>
     </g>
     <g id="text_22">
      <!-- 9.6 -->
      <defs>
       <path d="M 10.984375 1.515625 
L 10.984375 10.5 
Q 14.703125 8.734375 18.5 7.8125 
Q 22.3125 6.890625 25.984375 6.890625 
Q 35.75 6.890625 40.890625 13.453125 
Q 46.046875 20.015625 46.78125 33.40625 
Q 43.953125 29.203125 39.59375 26.953125 
Q 35.25 24.703125 29.984375 24.703125 
Q 19.046875 24.703125 12.671875 31.3125 
Q 6.296875 37.9375 6.296875 49.421875 
Q 6.296875 60.640625 12.9375 67.421875 
Q 19.578125 74.21875 30.609375 74.21875 
Q 43.265625 74.21875 49.921875 64.515625 
Q 56.59375 54.828125 56.59375 36.375 
Q 56.59375 19.140625 48.40625 8.859375 
Q 40.234375 -1.421875 26.421875 -1.421875 
Q 22.703125 -1.421875 18.890625 -0.6875 
Q 15.09375 0.046875 10.984375 1.515625 
z
M 30.609375 32.421875 
Q 37.25 32.421875 41.125 36.953125 
Q 45.015625 41.5 45.015625 49.421875 
Q 45.015625 57.28125 41.125 61.84375 
Q 37.25 66.40625 30.609375 66.40625 
Q 23.96875 66.40625 20.09375 61.84375 
Q 16.21875 57.28125 16.21875 49.421875 
Q 16.21875 41.5 20.09375 36.953125 
Q 23.96875 32.421875 30.609375 32.421875 
z
" id="DejaVuSans-57"/>
      </defs>
      <g transform="translate(77.334757 291.502031)scale(0.1 -0.1)">
       <use xlink:href="#DejaVuSans-57"/>
       <use x="63.623047" xlink:href="#DejaVuSans-46"/>
       <use x="95.410156" xlink:href="#DejaVuSans-54"/>
      </g>
     </g>
    </g>
    <g id="ytick_8">
     <g id="line2d_26">
      <g>
       <use style="stroke:#000000;stroke-width:0.8;" x="100.237882" xlink:href="#m1978fbdc70" y="266.462082"/>
      </g>
     </g>
     <g id="text_23">
      <!-- 9.8 -->
      <defs>
       <path d="M 31.78125 34.625 
Q 24.75 34.625 20.71875 30.859375 
Q 16.703125 27.09375 16.703125 20.515625 
Q 16.703125 13.921875 20.71875 10.15625 
Q 24.75 6.390625 31.78125 6.390625 
Q 38.8125 6.390625 42.859375 10.171875 
Q 46.921875 13.96875 46.921875 20.515625 
Q 46.921875 27.09375 42.890625 30.859375 
Q 38.875 34.625 31.78125 34.625 
z
M 21.921875 38.8125 
Q 15.578125 40.375 12.03125 44.71875 
Q 8.5 49.078125 8.5 55.328125 
Q 8.5 64.0625 14.71875 69.140625 
Q 20.953125 74.21875 31.78125 74.21875 
Q 42.671875 74.21875 48.875 69.140625 
Q 55.078125 64.0625 55.078125 55.328125 
Q 55.078125 49.078125 51.53125 44.71875 
Q 48 40.375 41.703125 38.8125 
Q 48.828125 37.15625 52.796875 32.3125 
Q 56.78125 27.484375 56.78125 20.515625 
Q 56.78125 9.90625 50.3125 4.234375 
Q 43.84375 -1.421875 31.78125 -1.421875 
Q 19.734375 -1.421875 13.25 4.234375 
Q 6.78125 9.90625 6.78125 20.515625 
Q 6.78125 27.484375 10.78125 32.3125 
Q 14.796875 37.15625 21.921875 38.8125 
z
M 18.3125 54.390625 
Q 18.3125 48.734375 21.84375 45.5625 
Q 25.390625 42.390625 31.78125 42.390625 
Q 38.140625 42.390625 41.71875 45.5625 
Q 45.3125 48.734375 45.3125 54.390625 
Q 45.3125 60.0625 41.71875 63.234375 
Q 38.140625 66.40625 31.78125 66.40625 
Q 25.390625 66.40625 21.84375 63.234375 
Q 18.3125 60.0625 18.3125 54.390625 
z
" id="DejaVuSans-56"/>
      </defs>
      <g transform="translate(77.334757 270.261301)scale(0.1 -0.1)">
       <use xlink:href="#DejaVuSans-57"/>
       <use x="63.623047" xlink:href="#DejaVuSans-46"/>
       <use x="95.410156" xlink:href="#DejaVuSans-56"/>
      </g>
     </g>
    </g>
    <g id="ytick_9">
     <g id="line2d_27">
      <g>
       <use style="stroke:#000000;stroke-width:0.8;" x="100.237882" xlink:href="#m1978fbdc70" y="245.221352"/>
      </g>
     </g>
     <g id="text_24">
      <!-- 10.0 -->
      <g transform="translate(70.972257 249.020571)scale(0.1 -0.1)">
       <use xlink:href="#DejaVuSans-49"/>
       <use x="63.623047" xlink:href="#DejaVuSans-48"/>
       <use x="127.246094" xlink:href="#DejaVuSans-46"/>
       <use x="159.033203" xlink:href="#DejaVuSans-48"/>
      </g>
     </g>
    </g>
    <g id="ytick_10">
     <g id="line2d_28">
      <g>
       <use style="stroke:#000000;stroke-width:0.8;" x="100.237882" xlink:href="#m1978fbdc70" y="223.980622"/>
      </g>
     </g>
     <g id="text_25">
      <!-- 10.2 -->
      <g transform="translate(70.972257 227.779841)scale(0.1 -0.1)">
       <use xlink:href="#DejaVuSans-49"/>
       <use x="63.623047" xlink:href="#DejaVuSans-48"/>
       <use x="127.246094" xlink:href="#DejaVuSans-46"/>
       <use x="159.033203" xlink:href="#DejaVuSans-50"/>
      </g>
     </g>
    </g>
    <g id="ytick_11">
     <g id="line2d_29">
      <g>
       <use style="stroke:#000000;stroke-width:0.8;" x="100.237882" xlink:href="#m1978fbdc70" y="202.739892"/>
      </g>
     </g>
     <g id="text_26">
      <!-- 10.4 -->
      <g transform="translate(70.972257 206.539111)scale(0.1 -0.1)">
       <use xlink:href="#DejaVuSans-49"/>
       <use x="63.623047" xlink:href="#DejaVuSans-48"/>
       <use x="127.246094" xlink:href="#DejaVuSans-46"/>
       <use x="159.033203" xlink:href="#DejaVuSans-52"/>
      </g>
     </g>
    </g>
    <g id="text_27">
     <!-- Y-axis -->
     <g transform="translate(64.89257 261.38525)rotate(-90)scale(0.1 -0.1)">
      <use xlink:href="#DejaVuSans-89"/>
      <use x="49.208984" xlink:href="#DejaVuSans-45"/>
      <use x="85.292969" xlink:href="#DejaVuSans-97"/>
      <use x="146.572266" xlink:href="#DejaVuSans-120"/>
      <use x="205.751953" xlink:href="#DejaVuSans-105"/>
      <use x="233.535156" xlink:href="#DejaVuSans-115"/>
     </g>
    </g>
   </g>
   <g id="line2d_30">
    <path clip-path="url(#p7d0a2b23fe)" d="M 112.594438 192.122182 
L 112.705519 192.375599 
L 112.955776 193.467586 
L 113.322967 196.189151 
L 113.818814 201.705657 
L 114.479536 211.788542 
L 115.439819 230.258511 
L 117.814163 277.082316 
L 118.616099 288.096302 
L 119.25268 294.070102 
L 119.76013 296.979201 
L 120.148194 298.106314 
L 120.419574 298.348946 
L 120.616197 298.255221 
L 120.856447 297.845919 
L 121.186797 296.781602 
L 121.631147 294.508373 
L 122.214242 290.246753 
L 122.98898 282.787879 
L 124.098878 269.713575 
L 128.025256 221.646394 
L 129.115084 211.825249 
L 130.052599 205.269128 
L 130.889555 200.887757 
L 131.659433 197.969794 
L 132.385746 196.036945 
L 133.093363 194.752477 
L 133.812256 193.890372 
L 134.586977 193.303266 
L 135.491072 192.901285 
L 136.662935 192.635478 
L 138.402481 192.488883 
L 141.491406 192.481427 
L 146.257632 192.692634 
L 149.808384 193.054658 
L 152.435424 193.538338 
L 154.586324 194.155854 
L 156.457955 194.921845 
L 158.159094 195.857177 
L 159.761957 196.993716 
L 161.308488 198.366477 
L 162.831803 200.020884 
L 164.361781 202.017801 
L 165.918091 204.423113 
L 167.523203 207.323427 
L 169.197113 210.819791 
L 170.962189 215.036852 
L 172.843532 220.125583 
L 174.875375 226.282176 
L 177.126699 233.838697 
L 179.727746 243.382235 
L 183.212481 257.092719 
L 188.665505 278.545831 
L 190.81453 286.04817 
L 192.505788 291.18588 
L 193.934808 294.849602 
L 195.174783 297.449878 
L 196.289563 299.29447 
L 197.29789 300.551461 
L 198.224221 301.366185 
L 199.099059 301.848171 
L 199.947479 302.064389 
L 200.798528 302.051252 
L 201.696683 301.810122 
L 202.678824 301.308332 
L 203.784856 300.484467 
L 205.070158 299.237418 
L 206.593553 297.434266 
L 208.443195 294.883818 
L 210.792775 291.243507 
L 214.033019 285.779104 
L 220.581602 274.183474 
L 226.708811 263.546623 
L 231.216755 256.161798 
L 235.259251 249.958584 
L 239.031041 244.570721 
L 242.630211 239.811231 
L 246.098368 235.588715 
L 249.463564 231.83723 
L 252.754765 228.497576 
L 255.986617 225.531854 
L 259.174254 222.905442 
L 262.333287 220.587367 
L 265.495218 218.541093 
L 268.661497 216.754782 
L 271.86501 215.201271 
L 275.1241 213.866898 
L 278.473874 212.735825 
L 281.935092 211.802354 
L 285.546087 211.059623 
L 289.347623 210.505786 
L 293.400136 210.142225 
L 297.751926 209.97755 
L 302.473332 210.024018 
L 307.641947 210.300103 
L 313.344286 210.831109 
L 319.621787 211.643066 
L 326.444723 212.752981 
L 333.679073 214.156458 
L 341.128201 215.828588 
L 348.522646 217.715228 
L 355.708832 219.776256 
L 358.367943 220.599447 
L 358.367943 220.599447 
" style="fill:none;stroke:#000000;stroke-linecap:square;stroke-width:1.5;"/>
   </g>
   <g id="line2d_31">
    <path clip-path="url(#p7d0a2b23fe)" d="M 112.594438 192.122182 
L 112.705533 192.375826 
L 112.955977 193.468975 
L 113.323822 196.194666 
L 113.82128 201.721612 
L 114.486165 211.837635 
L 115.458816 230.447567 
L 117.815586 276.59567 
L 118.628544 287.788705 
L 119.272772 293.892237 
L 119.788066 296.901288 
L 120.181528 298.081298 
L 120.458172 298.348166 
L 120.654726 298.26526 
L 120.892064 297.874738 
L 121.216483 296.851898 
L 121.651849 294.658896 
L 122.225673 290.506346 
L 122.986318 283.2183 
L 124.072097 270.434878 
L 128.097469 221.044022 
L 129.173947 211.434401 
L 130.103653 205.007878 
L 130.937208 200.703258 
L 131.704607 197.839388 
L 132.429153 195.943389 
L 133.137021 194.681424 
L 133.858202 193.833561 
L 134.637519 193.256236 
L 135.550774 192.861419 
L 136.738298 192.602613 
L 138.501284 192.465949 
L 141.486084 192.481978 
L 145.2498 192.715358 
L 148.086794 193.101292 
L 150.297908 193.620341 
L 152.161467 194.282668 
L 153.818341 195.105755 
L 155.355242 196.11829 
L 156.821664 197.353277 
L 158.259574 198.860076 
L 159.69365 200.691531 
L 161.148776 202.91839 
L 162.649063 205.631517 
L 164.212265 208.931277 
L 165.858386 212.941036 
L 167.609994 217.810172 
L 169.50325 223.749919 
L 171.590721 231.055539 
L 173.985225 240.279352 
L 177.049794 253.037752 
L 183.405406 279.730936 
L 185.355733 286.817112 
L 186.914385 291.688883 
L 188.238972 295.138047 
L 189.399991 297.571217 
L 190.432086 299.244103 
L 191.370411 300.360129 
L 192.229146 301.050903 
L 193.037141 301.425425 
L 193.828707 301.549692 
L 194.632153 301.449505 
L 195.490152 301.114586 
L 196.449438 300.493208 
L 197.548821 299.505049 
L 198.841398 298.030394 
L 200.395332 295.903839 
L 202.331843 292.854516 
L 204.867222 288.417433 
L 208.65799 281.285357 
L 219.268153 261.133528 
L 223.481406 253.71412 
L 227.288059 247.452542 
L 230.8565 242.004449 
L 234.250821 237.221299 
L 237.523541 232.987714 
L 240.700897 229.235918 
L 243.809945 225.905325 
L 246.8504 222.969435 
L 249.864498 220.365294 
L 252.852934 218.074912 
L 255.830858 216.069855 
L 258.828342 214.317569 
L 261.861983 212.800144 
L 264.963764 211.49694 
L 268.152341 210.398518 
L 271.462444 209.493728 
L 274.945991 208.77401 
L 278.627681 208.242272 
L 282.581309 207.898697 
L 286.855165 207.753195 
L 291.535215 207.819286 
L 296.716919 208.119018 
L 302.456434 208.67803 
L 308.782825 209.521362 
L 315.619618 210.65952 
L 322.763894 212.074709 
L 329.979175 213.730336 
L 337.012916 215.570793 
L 343.766793 217.565708 
L 350.220221 219.70213 
L 356.377786 221.973325 
L 359.725562 223.311975 
L 359.725562 223.311975 
" style="fill:none;stroke:#ff0000;stroke-linecap:square;stroke-width:1.5;"/>
   </g>
   <g id="line2d_32">
    <path clip-path="url(#p7d0a2b23fe)" d="M 112.594438 192.122182 
L 112.705448 192.375483 
L 112.955772 193.467689 
L 113.323395 196.191911 
L 113.820321 201.717213 
L 114.483213 211.819376 
L 115.449776 230.362818 
L 117.81574 276.852216 
L 118.622355 287.942842 
L 119.261621 293.973199 
L 119.771661 296.930295 
L 120.162305 298.08947 
L 120.436261 298.348293 
L 120.632825 298.262942 
L 120.870282 297.869608 
L 121.197674 296.832775 
L 121.636306 294.615284 
L 122.213725 290.428688 
L 122.978334 283.10225 
L 124.07069 270.259838 
L 128.084518 221.113624 
L 129.163404 211.480473 
L 130.094777 205.038307 
L 130.928076 200.730474 
L 131.694993 197.863686 
L 132.420323 195.962088 
L 133.128838 194.696952 
L 133.849093 193.848772 
L 134.627261 193.270956 
L 135.538962 192.87543 
L 136.725769 192.615186 
L 138.493813 192.475461 
L 141.570051 192.482486 
L 145.764542 192.70765 
L 148.883126 193.083068 
L 151.261377 193.586277 
L 153.241923 194.228214 
L 154.988732 195.025895 
L 156.594662 196.003632 
L 158.11643 197.192018 
L 159.600279 198.637174 
L 161.070831 200.385242 
L 162.557623 202.505424 
L 164.080354 205.073428 
L 165.661442 208.187931 
L 167.315939 211.951452 
L 169.071217 216.512408 
L 170.958144 222.054519 
L 173.017633 228.816719 
L 175.337767 237.228798 
L 178.138265 248.268411 
L 187.07512 284.20508 
L 188.809755 289.867397 
L 190.258328 293.875052 
L 191.50908 296.714818 
L 192.618974 298.710594 
L 193.621304 300.075839 
L 194.538088 300.963835 
L 195.38684 301.489304 
L 196.200201 301.739867 
L 197.016117 301.760056 
L 197.865936 301.556192 
L 198.795798 301.09761 
L 199.844019 300.322731 
L 201.063761 299.129835 
L 202.499004 297.400392 
L 204.246321 294.929496 
L 206.459293 291.391293 
L 209.47177 286.120997 
L 214.886747 276.111714 
L 221.689132 263.671865 
L 226.149633 255.982187 
L 230.109016 249.590025 
L 233.795217 244.052368 
L 237.302028 239.17786 
L 240.68346 234.852954 
L 243.952079 231.02731 
L 247.149943 227.622198 
L 250.291152 224.599191 
L 253.390278 221.923061 
L 256.462365 219.562186 
L 259.522942 217.488659 
L 262.588074 215.678219 
L 265.689385 214.103063 
L 268.844579 212.748877 
L 272.087464 211.599071 
L 275.438118 210.647151 
L 278.949074 209.882415 
L 282.644547 209.306649 
L 286.582942 208.919782 
L 290.827404 208.728507 
L 295.463662 208.745938 
L 300.552447 208.991519 
L 306.179685 209.490055 
L 312.388531 210.267522 
L 319.13541 211.339016 
L 326.292636 212.701861 
L 333.631519 214.325856 
L 340.887523 216.158214 
L 347.907569 218.158641 
L 354.630981 220.304142 
L 359.106203 221.868511 
L 359.106203 221.868511 
" style="fill:none;stroke:#00bfbf;stroke-linecap:square;stroke-width:1.5;"/>
   </g>
   <g id="patch_9">
    <path d="M 100.237882 307.584 
L 100.237882 186.624 
" style="fill:none;stroke:#000000;stroke-linecap:square;stroke-linejoin:miter;stroke-width:0.8;"/>
   </g>
   <g id="patch_10">
    <path d="M 372.082118 307.584 
L 372.082118 186.624 
" style="fill:none;stroke:#000000;stroke-linecap:square;stroke-linejoin:miter;stroke-width:0.8;"/>
   </g>
   <g id="patch_11">
    <path d="M 100.237882 307.584 
L 372.082118 307.584 
" style="fill:none;stroke:#000000;stroke-linecap:square;stroke-linejoin:miter;stroke-width:0.8;"/>
   </g>
   <g id="patch_12">
    <path d="M 100.237882 186.624 
L 372.082118 186.624 
" style="fill:none;stroke:#000000;stroke-linecap:square;stroke-linejoin:miter;stroke-width:0.8;"/>
   </g>
   <g id="legend_2">
    <g id="patch_13">
     <path d="M 257.76493 302.584 
L 365.082118 302.584 
Q 367.082118 302.584 367.082118 300.584 
L 367.082118 256.584 
Q 367.082118 254.584 365.082118 254.584 
L 257.76493 254.584 
Q 255.76493 254.584 255.76493 256.584 
L 255.76493 300.584 
Q 255.76493 302.584 257.76493 302.584 
z
" style="fill:#ffffff;opacity:0.8;stroke:#cccccc;stroke-linejoin:miter;"/>
    </g>
    <g id="line2d_33">
     <path d="M 259.76493 262.726187 
L 279.76493 262.726187 
" style="fill:none;stroke:#000000;stroke-linecap:square;stroke-width:1.5;"/>
    </g>
    <g id="line2d_34"/>
    <g id="text_28">
     <!-- [10.  1.] | I |  -->
     <g transform="translate(287.76493 266.226187)scale(0.1 -0.1)">
      <use xlink:href="#DejaVuSans-91"/>
      <use x="39.013672" xlink:href="#DejaVuSans-49"/>
      <use x="102.636719" xlink:href="#DejaVuSans-48"/>
      <use x="166.259766" xlink:href="#DejaVuSans-46"/>
      <use x="198.046875" xlink:href="#DejaVuSans-32"/>
      <use x="229.833984" xlink:href="#DejaVuSans-32"/>
      <use x="261.621094" xlink:href="#DejaVuSans-49"/>
      <use x="325.244141" xlink:href="#DejaVuSans-46"/>
      <use x="357.03125" xlink:href="#DejaVuSans-93"/>
      <use x="396.044922" xlink:href="#DejaVuSans-32"/>
      <use x="427.832031" xlink:href="#DejaVuSans-124"/>
      <use x="461.523438" xlink:href="#DejaVuSans-32"/>
      <use x="493.310547" xlink:href="#DejaVuSans-73"/>
      <use x="522.802734" xlink:href="#DejaVuSans-32"/>
      <use x="554.589844" xlink:href="#DejaVuSans-124"/>
      <use x="588.28125" xlink:href="#DejaVuSans-32"/>
     </g>
    </g>
    <g id="line2d_35">
     <path d="M 259.76493 277.726187 
L 279.76493 277.726187 
" style="fill:none;stroke:#ff0000;stroke-linecap:square;stroke-width:1.5;"/>
    </g>
    <g id="line2d_36"/>
    <g id="text_29">
     <!-- [10.  1.] | E |  -->
     <g transform="translate(287.76493 281.226187)scale(0.1 -0.1)">
      <use xlink:href="#DejaVuSans-91"/>
      <use x="39.013672" xlink:href="#DejaVuSans-49"/>
      <use x="102.636719" xlink:href="#DejaVuSans-48"/>
      <use x="166.259766" xlink:href="#DejaVuSans-46"/>
      <use x="198.046875" xlink:href="#DejaVuSans-32"/>
      <use x="229.833984" xlink:href="#DejaVuSans-32"/>
      <use x="261.621094" xlink:href="#DejaVuSans-49"/>
      <use x="325.244141" xlink:href="#DejaVuSans-46"/>
      <use x="357.03125" xlink:href="#DejaVuSans-93"/>
      <use x="396.044922" xlink:href="#DejaVuSans-32"/>
      <use x="427.832031" xlink:href="#DejaVuSans-124"/>
      <use x="461.523438" xlink:href="#DejaVuSans-32"/>
      <use x="493.310547" xlink:href="#DejaVuSans-69"/>
      <use x="556.494141" xlink:href="#DejaVuSans-32"/>
      <use x="588.28125" xlink:href="#DejaVuSans-124"/>
      <use x="621.972656" xlink:href="#DejaVuSans-32"/>
     </g>
    </g>
    <g id="line2d_37">
     <path d="M 259.76493 292.726187 
L 279.76493 292.726187 
" style="fill:none;stroke:#00bfbf;stroke-linecap:square;stroke-width:1.5;"/>
    </g>
    <g id="line2d_38"/>
    <g id="text_30">
     <!-- [10.  1.] | rk4 |  -->
     <g transform="translate(287.76493 296.226187)scale(0.1 -0.1)">
      <use xlink:href="#DejaVuSans-91"/>
      <use x="39.013672" xlink:href="#DejaVuSans-49"/>
      <use x="102.636719" xlink:href="#DejaVuSans-48"/>
      <use x="166.259766" xlink:href="#DejaVuSans-46"/>
      <use x="198.046875" xlink:href="#DejaVuSans-32"/>
      <use x="229.833984" xlink:href="#DejaVuSans-32"/>
      <use x="261.621094" xlink:href="#DejaVuSans-49"/>
      <use x="325.244141" xlink:href="#DejaVuSans-46"/>
      <use x="357.03125" xlink:href="#DejaVuSans-93"/>
      <use x="396.044922" xlink:href="#DejaVuSans-32"/>
      <use x="427.832031" xlink:href="#DejaVuSans-124"/>
      <use x="461.523438" xlink:href="#DejaVuSans-32"/>
      <use x="493.310547" xlink:href="#DejaVuSans-114"/>
      <use x="534.423828" xlink:href="#DejaVuSans-107"/>
      <use x="592.333984" xlink:href="#DejaVuSans-52"/>
      <use x="655.957031" xlink:href="#DejaVuSans-32"/>
      <use x="687.744141" xlink:href="#DejaVuSans-124"/>
      <use x="721.435547" xlink:href="#DejaVuSans-32"/>
     </g>
    </g>
   </g>
  </g>
  <g id="text_31">
   <!-- Trajectory of the centre of 2nd link -->
   <defs>
    <path d="M -0.296875 72.90625 
L 61.375 72.90625 
L 61.375 64.59375 
L 35.5 64.59375 
L 35.5 0 
L 25.59375 0 
L 25.59375 64.59375 
L -0.296875 64.59375 
z
" id="DejaVuSans-84"/>
    <path d="M 9.421875 54.6875 
L 18.40625 54.6875 
L 18.40625 -0.984375 
Q 18.40625 -11.421875 14.421875 -16.109375 
Q 10.453125 -20.796875 1.609375 -20.796875 
L -1.8125 -20.796875 
L -1.8125 -13.1875 
L 0.59375 -13.1875 
Q 5.71875 -13.1875 7.5625 -10.8125 
Q 9.421875 -8.453125 9.421875 -0.984375 
z
M 9.421875 75.984375 
L 18.40625 75.984375 
L 18.40625 64.59375 
L 9.421875 64.59375 
z
" id="DejaVuSans-106"/>
    <path d="M 56.203125 29.59375 
L 56.203125 25.203125 
L 14.890625 25.203125 
Q 15.484375 15.921875 20.484375 11.0625 
Q 25.484375 6.203125 34.421875 6.203125 
Q 39.59375 6.203125 44.453125 7.46875 
Q 49.3125 8.734375 54.109375 11.28125 
L 54.109375 2.78125 
Q 49.265625 0.734375 44.1875 -0.34375 
Q 39.109375 -1.421875 33.890625 -1.421875 
Q 20.796875 -1.421875 13.15625 6.1875 
Q 5.515625 13.8125 5.515625 26.8125 
Q 5.515625 40.234375 12.765625 48.109375 
Q 20.015625 56 32.328125 56 
Q 43.359375 56 49.78125 48.890625 
Q 56.203125 41.796875 56.203125 29.59375 
z
M 47.21875 32.234375 
Q 47.125 39.59375 43.09375 43.984375 
Q 39.0625 48.390625 32.421875 48.390625 
Q 24.90625 48.390625 20.390625 44.140625 
Q 15.875 39.890625 15.1875 32.171875 
z
" id="DejaVuSans-101"/>
    <path d="M 48.78125 52.59375 
L 48.78125 44.1875 
Q 44.96875 46.296875 41.140625 47.34375 
Q 37.3125 48.390625 33.40625 48.390625 
Q 24.65625 48.390625 19.8125 42.84375 
Q 14.984375 37.3125 14.984375 27.296875 
Q 14.984375 17.28125 19.8125 11.734375 
Q 24.65625 6.203125 33.40625 6.203125 
Q 37.3125 6.203125 41.140625 7.25 
Q 44.96875 8.296875 48.78125 10.40625 
L 48.78125 2.09375 
Q 45.015625 0.34375 40.984375 -0.53125 
Q 36.96875 -1.421875 32.421875 -1.421875 
Q 20.0625 -1.421875 12.78125 6.34375 
Q 5.515625 14.109375 5.515625 27.296875 
Q 5.515625 40.671875 12.859375 48.328125 
Q 20.21875 56 33.015625 56 
Q 37.15625 56 41.109375 55.140625 
Q 45.0625 54.296875 48.78125 52.59375 
z
" id="DejaVuSans-99"/>
    <path d="M 18.3125 70.21875 
L 18.3125 54.6875 
L 36.8125 54.6875 
L 36.8125 47.703125 
L 18.3125 47.703125 
L 18.3125 18.015625 
Q 18.3125 11.328125 20.140625 9.421875 
Q 21.96875 7.515625 27.59375 7.515625 
L 36.8125 7.515625 
L 36.8125 0 
L 27.59375 0 
Q 17.1875 0 13.234375 3.875 
Q 9.28125 7.765625 9.28125 18.015625 
L 9.28125 47.703125 
L 2.6875 47.703125 
L 2.6875 54.6875 
L 9.28125 54.6875 
L 9.28125 70.21875 
z
" id="DejaVuSans-116"/>
    <path d="M 30.609375 48.390625 
Q 23.390625 48.390625 19.1875 42.75 
Q 14.984375 37.109375 14.984375 27.296875 
Q 14.984375 17.484375 19.15625 11.84375 
Q 23.34375 6.203125 30.609375 6.203125 
Q 37.796875 6.203125 41.984375 11.859375 
Q 46.1875 17.53125 46.1875 27.296875 
Q 46.1875 37.015625 41.984375 42.703125 
Q 37.796875 48.390625 30.609375 48.390625 
z
M 30.609375 56 
Q 42.328125 56 49.015625 48.375 
Q 55.71875 40.765625 55.71875 27.296875 
Q 55.71875 13.875 49.015625 6.21875 
Q 42.328125 -1.421875 30.609375 -1.421875 
Q 18.84375 -1.421875 12.171875 6.21875 
Q 5.515625 13.875 5.515625 27.296875 
Q 5.515625 40.765625 12.171875 48.375 
Q 18.84375 56 30.609375 56 
z
" id="DejaVuSans-111"/>
    <path d="M 32.171875 -5.078125 
Q 28.375 -14.84375 24.75 -17.8125 
Q 21.140625 -20.796875 15.09375 -20.796875 
L 7.90625 -20.796875 
L 7.90625 -13.28125 
L 13.1875 -13.28125 
Q 16.890625 -13.28125 18.9375 -11.515625 
Q 21 -9.765625 23.484375 -3.21875 
L 25.09375 0.875 
L 2.984375 54.6875 
L 12.5 54.6875 
L 29.59375 11.921875 
L 46.6875 54.6875 
L 56.203125 54.6875 
z
" id="DejaVuSans-121"/>
    <path d="M 37.109375 75.984375 
L 37.109375 68.5 
L 28.515625 68.5 
Q 23.6875 68.5 21.796875 66.546875 
Q 19.921875 64.59375 19.921875 59.515625 
L 19.921875 54.6875 
L 34.71875 54.6875 
L 34.71875 47.703125 
L 19.921875 47.703125 
L 19.921875 0 
L 10.890625 0 
L 10.890625 47.703125 
L 2.296875 47.703125 
L 2.296875 54.6875 
L 10.890625 54.6875 
L 10.890625 58.5 
Q 10.890625 67.625 15.140625 71.796875 
Q 19.390625 75.984375 28.609375 75.984375 
z
" id="DejaVuSans-102"/>
    <path d="M 54.890625 33.015625 
L 54.890625 0 
L 45.90625 0 
L 45.90625 32.71875 
Q 45.90625 40.484375 42.875 44.328125 
Q 39.84375 48.1875 33.796875 48.1875 
Q 26.515625 48.1875 22.3125 43.546875 
Q 18.109375 38.921875 18.109375 30.90625 
L 18.109375 0 
L 9.078125 0 
L 9.078125 75.984375 
L 18.109375 75.984375 
L 18.109375 46.1875 
Q 21.34375 51.125 25.703125 53.5625 
Q 30.078125 56 35.796875 56 
Q 45.21875 56 50.046875 50.171875 
Q 54.890625 44.34375 54.890625 33.015625 
z
" id="DejaVuSans-104"/>
    <path d="M 54.890625 33.015625 
L 54.890625 0 
L 45.90625 0 
L 45.90625 32.71875 
Q 45.90625 40.484375 42.875 44.328125 
Q 39.84375 48.1875 33.796875 48.1875 
Q 26.515625 48.1875 22.3125 43.546875 
Q 18.109375 38.921875 18.109375 30.90625 
L 18.109375 0 
L 9.078125 0 
L 9.078125 54.6875 
L 18.109375 54.6875 
L 18.109375 46.1875 
Q 21.34375 51.125 25.703125 53.5625 
Q 30.078125 56 35.796875 56 
Q 45.21875 56 50.046875 50.171875 
Q 54.890625 44.34375 54.890625 33.015625 
z
" id="DejaVuSans-110"/>
    <path d="M 45.40625 46.390625 
L 45.40625 75.984375 
L 54.390625 75.984375 
L 54.390625 0 
L 45.40625 0 
L 45.40625 8.203125 
Q 42.578125 3.328125 38.25 0.953125 
Q 33.9375 -1.421875 27.875 -1.421875 
Q 17.96875 -1.421875 11.734375 6.484375 
Q 5.515625 14.40625 5.515625 27.296875 
Q 5.515625 40.1875 11.734375 48.09375 
Q 17.96875 56 27.875 56 
Q 33.9375 56 38.25 53.625 
Q 42.578125 51.265625 45.40625 46.390625 
z
M 14.796875 27.296875 
Q 14.796875 17.390625 18.875 11.75 
Q 22.953125 6.109375 30.078125 6.109375 
Q 37.203125 6.109375 41.296875 11.75 
Q 45.40625 17.390625 45.40625 27.296875 
Q 45.40625 37.203125 41.296875 42.84375 
Q 37.203125 48.484375 30.078125 48.484375 
Q 22.953125 48.484375 18.875 42.84375 
Q 14.796875 37.203125 14.796875 27.296875 
z
" id="DejaVuSans-100"/>
    <path d="M 9.421875 75.984375 
L 18.40625 75.984375 
L 18.40625 0 
L 9.421875 0 
z
" id="DejaVuSans-108"/>
   </defs>
   <g transform="translate(126.714375 16.030125)scale(0.12 -0.12)">
    <use xlink:href="#DejaVuSans-84"/>
    <use x="46.333984" xlink:href="#DejaVuSans-114"/>
    <use x="87.447266" xlink:href="#DejaVuSans-97"/>
    <use x="148.726562" xlink:href="#DejaVuSans-106"/>
    <use x="176.509766" xlink:href="#DejaVuSans-101"/>
    <use x="238.033203" xlink:href="#DejaVuSans-99"/>
    <use x="293.013672" xlink:href="#DejaVuSans-116"/>
    <use x="332.222656" xlink:href="#DejaVuSans-111"/>
    <use x="393.404297" xlink:href="#DejaVuSans-114"/>
    <use x="434.517578" xlink:href="#DejaVuSans-121"/>
    <use x="493.697266" xlink:href="#DejaVuSans-32"/>
    <use x="525.484375" xlink:href="#DejaVuSans-111"/>
    <use x="586.666016" xlink:href="#DejaVuSans-102"/>
    <use x="621.871094" xlink:href="#DejaVuSans-32"/>
    <use x="653.658203" xlink:href="#DejaVuSans-116"/>
    <use x="692.867188" xlink:href="#DejaVuSans-104"/>
    <use x="756.246094" xlink:href="#DejaVuSans-101"/>
    <use x="817.769531" xlink:href="#DejaVuSans-32"/>
    <use x="849.556641" xlink:href="#DejaVuSans-99"/>
    <use x="904.537109" xlink:href="#DejaVuSans-101"/>
    <use x="966.060547" xlink:href="#DejaVuSans-110"/>
    <use x="1029.439453" xlink:href="#DejaVuSans-116"/>
    <use x="1068.648438" xlink:href="#DejaVuSans-114"/>
    <use x="1107.511719" xlink:href="#DejaVuSans-101"/>
    <use x="1169.035156" xlink:href="#DejaVuSans-32"/>
    <use x="1200.822266" xlink:href="#DejaVuSans-111"/>
    <use x="1262.003906" xlink:href="#DejaVuSans-102"/>
    <use x="1297.208984" xlink:href="#DejaVuSans-32"/>
    <use x="1328.996094" xlink:href="#DejaVuSans-50"/>
    <use x="1392.619141" xlink:href="#DejaVuSans-110"/>
    <use x="1455.998047" xlink:href="#DejaVuSans-100"/>
    <use x="1519.474609" xlink:href="#DejaVuSans-32"/>
    <use x="1551.261719" xlink:href="#DejaVuSans-108"/>
    <use x="1579.044922" xlink:href="#DejaVuSans-105"/>
    <use x="1606.828125" xlink:href="#DejaVuSans-110"/>
    <use x="1670.207031" xlink:href="#DejaVuSans-107"/>
   </g>
  </g>
 </g>
 <defs>
  <clipPath id="p663169cd4f">
   <rect height="120.96" width="200.684733" x="135.817634" y="41.472"/>
  </clipPath>
  <clipPath id="p7d0a2b23fe">
   <rect height="120.96" width="271.844236" x="100.237882" y="186.624"/>
  </clipPath>
 </defs>
</svg>
