<?xml version="1.0" encoding="utf-8" standalone="no"?>
<!DOCTYPE svg PUBLIC "-//W3C//DTD SVG 1.1//EN"
  "http://www.w3.org/Graphics/SVG/1.1/DTD/svg11.dtd">
<!-- Created with matplotlib (https://matplotlib.org/) -->
<svg height="345.6pt" version="1.1" viewBox="0 0 460.8 345.6" width="460.8pt" xmlns="http://www.w3.org/2000/svg" xmlns:xlink="http://www.w3.org/1999/xlink">
 <defs>
  <style type="text/css">
*{stroke-linecap:butt;stroke-linejoin:round;}
  </style>
 </defs>
 <g id="figure_1">
  <g id="patch_1">
   <path d="M 0 345.6 
L 460.8 345.6 
L 460.8 0 
L 0 0 
z
" style="fill:#ffffff;"/>
  </g>
  <g id="axes_1">
   <g id="patch_2">
    <path d="M 57.6 162.432 
L 414.72 162.432 
L 414.72 41.472 
L 57.6 41.472 
z
" style="fill:#ffffff;"/>
   </g>
   <g id="matplotlib.axis_1">
    <g id="xtick_1">
     <g id="line2d_1">
      <defs>
       <path d="M 0 0 
L 0 3.5 
" id="maabbebd324" style="stroke:#000000;stroke-width:0.8;"/>
      </defs>
      <g>
       <use style="stroke:#000000;stroke-width:0.8;" x="73.832727" xlink:href="#maabbebd324" y="162.432"/>
      </g>
     </g>
     <g id="text_1">
      <!-- 0 -->
      <defs>
       <path d="M 31.78125 66.40625 
Q 24.171875 66.40625 20.328125 58.90625 
Q 16.5 51.421875 16.5 36.375 
Q 16.5 21.390625 20.328125 13.890625 
Q 24.171875 6.390625 31.78125 6.390625 
Q 39.453125 6.390625 43.28125 13.890625 
Q 47.125 21.390625 47.125 36.375 
Q 47.125 51.421875 43.28125 58.90625 
Q 39.453125 66.40625 31.78125 66.40625 
z
M 31.78125 74.21875 
Q 44.046875 74.21875 50.515625 64.515625 
Q 56.984375 54.828125 56.984375 36.375 
Q 56.984375 17.96875 50.515625 8.265625 
Q 44.046875 -1.421875 31.78125 -1.421875 
Q 19.53125 -1.421875 13.0625 8.265625 
Q 6.59375 17.96875 6.59375 36.375 
Q 6.59375 54.828125 13.0625 64.515625 
Q 19.53125 74.21875 31.78125 74.21875 
z
" id="DejaVuSans-48"/>
      </defs>
      <g transform="translate(70.651477 177.030437)scale(0.1 -0.1)">
       <use xlink:href="#DejaVuSans-48"/>
      </g>
     </g>
    </g>
    <g id="xtick_2">
     <g id="line2d_2">
      <g>
       <use style="stroke:#000000;stroke-width:0.8;" x="138.762338" xlink:href="#maabbebd324" y="162.432"/>
      </g>
     </g>
     <g id="text_2">
      <!-- 1 -->
      <defs>
       <path d="M 12.40625 8.296875 
L 28.515625 8.296875 
L 28.515625 63.921875 
L 10.984375 60.40625 
L 10.984375 69.390625 
L 28.421875 72.90625 
L 38.28125 72.90625 
L 38.28125 8.296875 
L 54.390625 8.296875 
L 54.390625 0 
L 12.40625 0 
z
" id="DejaVuSans-49"/>
      </defs>
      <g transform="translate(135.581088 177.030437)scale(0.1 -0.1)">
       <use xlink:href="#DejaVuSans-49"/>
      </g>
     </g>
    </g>
    <g id="xtick_3">
     <g id="line2d_3">
      <g>
       <use style="stroke:#000000;stroke-width:0.8;" x="203.691948" xlink:href="#maabbebd324" y="162.432"/>
      </g>
     </g>
     <g id="text_3">
      <!-- 2 -->
      <defs>
       <path d="M 19.1875 8.296875 
L 53.609375 8.296875 
L 53.609375 0 
L 7.328125 0 
L 7.328125 8.296875 
Q 12.9375 14.109375 22.625 23.890625 
Q 32.328125 33.6875 34.8125 36.53125 
Q 39.546875 41.84375 41.421875 45.53125 
Q 43.3125 49.21875 43.3125 52.78125 
Q 43.3125 58.59375 39.234375 62.25 
Q 35.15625 65.921875 28.609375 65.921875 
Q 23.96875 65.921875 18.8125 64.3125 
Q 13.671875 62.703125 7.8125 59.421875 
L 7.8125 69.390625 
Q 13.765625 71.78125 18.9375 73 
Q 24.125 74.21875 28.421875 74.21875 
Q 39.75 74.21875 46.484375 68.546875 
Q 53.21875 62.890625 53.21875 53.421875 
Q 53.21875 48.921875 51.53125 44.890625 
Q 49.859375 40.875 45.40625 35.40625 
Q 44.1875 33.984375 37.640625 27.21875 
Q 31.109375 20.453125 19.1875 8.296875 
z
" id="DejaVuSans-50"/>
      </defs>
      <g transform="translate(200.510698 177.030437)scale(0.1 -0.1)">
       <use xlink:href="#DejaVuSans-50"/>
      </g>
     </g>
    </g>
    <g id="xtick_4">
     <g id="line2d_4">
      <g>
       <use style="stroke:#000000;stroke-width:0.8;" x="268.621559" xlink:href="#maabbebd324" y="162.432"/>
      </g>
     </g>
     <g id="text_4">
      <!-- 3 -->
      <defs>
       <path d="M 40.578125 39.3125 
Q 47.65625 37.796875 51.625 33 
Q 55.609375 28.21875 55.609375 21.1875 
Q 55.609375 10.40625 48.1875 4.484375 
Q 40.765625 -1.421875 27.09375 -1.421875 
Q 22.515625 -1.421875 17.65625 -0.515625 
Q 12.796875 0.390625 7.625 2.203125 
L 7.625 11.71875 
Q 11.71875 9.328125 16.59375 8.109375 
Q 21.484375 6.890625 26.8125 6.890625 
Q 36.078125 6.890625 40.9375 10.546875 
Q 45.796875 14.203125 45.796875 21.1875 
Q 45.796875 27.640625 41.28125 31.265625 
Q 36.765625 34.90625 28.71875 34.90625 
L 20.21875 34.90625 
L 20.21875 43.015625 
L 29.109375 43.015625 
Q 36.375 43.015625 40.234375 45.921875 
Q 44.09375 48.828125 44.09375 54.296875 
Q 44.09375 59.90625 40.109375 62.90625 
Q 36.140625 65.921875 28.71875 65.921875 
Q 24.65625 65.921875 20.015625 65.03125 
Q 15.375 64.15625 9.8125 62.3125 
L 9.8125 71.09375 
Q 15.4375 72.65625 20.34375 73.4375 
Q 25.25 74.21875 29.59375 74.21875 
Q 40.828125 74.21875 47.359375 69.109375 
Q 53.90625 64.015625 53.90625 55.328125 
Q 53.90625 49.265625 50.4375 45.09375 
Q 46.96875 40.921875 40.578125 39.3125 
z
" id="DejaVuSans-51"/>
      </defs>
      <g transform="translate(265.440309 177.030437)scale(0.1 -0.1)">
       <use xlink:href="#DejaVuSans-51"/>
      </g>
     </g>
    </g>
    <g id="xtick_5">
     <g id="line2d_5">
      <g>
       <use style="stroke:#000000;stroke-width:0.8;" x="333.551169" xlink:href="#maabbebd324" y="162.432"/>
      </g>
     </g>
     <g id="text_5">
      <!-- 4 -->
      <defs>
       <path d="M 37.796875 64.3125 
L 12.890625 25.390625 
L 37.796875 25.390625 
z
M 35.203125 72.90625 
L 47.609375 72.90625 
L 47.609375 25.390625 
L 58.015625 25.390625 
L 58.015625 17.1875 
L 47.609375 17.1875 
L 47.609375 0 
L 37.796875 0 
L 37.796875 17.1875 
L 4.890625 17.1875 
L 4.890625 26.703125 
z
" id="DejaVuSans-52"/>
      </defs>
      <g transform="translate(330.369919 177.030437)scale(0.1 -0.1)">
       <use xlink:href="#DejaVuSans-52"/>
      </g>
     </g>
    </g>
    <g id="xtick_6">
     <g id="line2d_6">
      <g>
       <use style="stroke:#000000;stroke-width:0.8;" x="398.48078" xlink:href="#maabbebd324" y="162.432"/>
      </g>
     </g>
     <g id="text_6">
      <!-- 5 -->
      <defs>
       <path d="M 10.796875 72.90625 
L 49.515625 72.90625 
L 49.515625 64.59375 
L 19.828125 64.59375 
L 19.828125 46.734375 
Q 21.96875 47.46875 24.109375 47.828125 
Q 26.265625 48.1875 28.421875 48.1875 
Q 40.625 48.1875 47.75 41.5 
Q 54.890625 34.8125 54.890625 23.390625 
Q 54.890625 11.625 47.5625 5.09375 
Q 40.234375 -1.421875 26.90625 -1.421875 
Q 22.3125 -1.421875 17.546875 -0.640625 
Q 12.796875 0.140625 7.71875 1.703125 
L 7.71875 11.625 
Q 12.109375 9.234375 16.796875 8.0625 
Q 21.484375 6.890625 26.703125 6.890625 
Q 35.15625 6.890625 40.078125 11.328125 
Q 45.015625 15.765625 45.015625 23.390625 
Q 45.015625 31 40.078125 35.4375 
Q 35.15625 39.890625 26.703125 39.890625 
Q 22.75 39.890625 18.8125 39.015625 
Q 14.890625 38.140625 10.796875 36.28125 
z
" id="DejaVuSans-53"/>
      </defs>
      <g transform="translate(395.29953 177.030437)scale(0.1 -0.1)">
       <use xlink:href="#DejaVuSans-53"/>
      </g>
     </g>
    </g>
    <g id="text_7">
     <!-- time -->
     <defs>
      <path d="M 18.3125 70.21875 
L 18.3125 54.6875 
L 36.8125 54.6875 
L 36.8125 47.703125 
L 18.3125 47.703125 
L 18.3125 18.015625 
Q 18.3125 11.328125 20.140625 9.421875 
Q 21.96875 7.515625 27.59375 7.515625 
L 36.8125 7.515625 
L 36.8125 0 
L 27.59375 0 
Q 17.1875 0 13.234375 3.875 
Q 9.28125 7.765625 9.28125 18.015625 
L 9.28125 47.703125 
L 2.6875 47.703125 
L 2.6875 54.6875 
L 9.28125 54.6875 
L 9.28125 70.21875 
z
" id="DejaVuSans-116"/>
      <path d="M 9.421875 54.6875 
L 18.40625 54.6875 
L 18.40625 0 
L 9.421875 0 
z
M 9.421875 75.984375 
L 18.40625 75.984375 
L 18.40625 64.59375 
L 9.421875 64.59375 
z
" id="DejaVuSans-105"/>
      <path d="M 52 44.1875 
Q 55.375 50.25 60.0625 53.125 
Q 64.75 56 71.09375 56 
Q 79.640625 56 84.28125 50.015625 
Q 88.921875 44.046875 88.921875 33.015625 
L 88.921875 0 
L 79.890625 0 
L 79.890625 32.71875 
Q 79.890625 40.578125 77.09375 44.375 
Q 74.3125 48.1875 68.609375 48.1875 
Q 61.625 48.1875 57.5625 43.546875 
Q 53.515625 38.921875 53.515625 30.90625 
L 53.515625 0 
L 44.484375 0 
L 44.484375 32.71875 
Q 44.484375 40.625 41.703125 44.40625 
Q 38.921875 48.1875 33.109375 48.1875 
Q 26.21875 48.1875 22.15625 43.53125 
Q 18.109375 38.875 18.109375 30.90625 
L 18.109375 0 
L 9.078125 0 
L 9.078125 54.6875 
L 18.109375 54.6875 
L 18.109375 46.1875 
Q 21.1875 51.21875 25.484375 53.609375 
Q 29.78125 56 35.6875 56 
Q 41.65625 56 45.828125 52.96875 
Q 50 49.953125 52 44.1875 
z
" id="DejaVuSans-109"/>
      <path d="M 56.203125 29.59375 
L 56.203125 25.203125 
L 14.890625 25.203125 
Q 15.484375 15.921875 20.484375 11.0625 
Q 25.484375 6.203125 34.421875 6.203125 
Q 39.59375 6.203125 44.453125 7.46875 
Q 49.3125 8.734375 54.109375 11.28125 
L 54.109375 2.78125 
Q 49.265625 0.734375 44.1875 -0.34375 
Q 39.109375 -1.421875 33.890625 -1.421875 
Q 20.796875 -1.421875 13.15625 6.1875 
Q 5.515625 13.8125 5.515625 26.8125 
Q 5.515625 40.234375 12.765625 48.109375 
Q 20.015625 56 32.328125 56 
Q 43.359375 56 49.78125 48.890625 
Q 56.203125 41.796875 56.203125 29.59375 
z
M 47.21875 32.234375 
Q 47.125 39.59375 43.09375 43.984375 
Q 39.0625 48.390625 32.421875 48.390625 
Q 24.90625 48.390625 20.390625 44.140625 
Q 15.875 39.890625 15.1875 32.171875 
z
" id="DejaVuSans-101"/>
     </defs>
     <g transform="translate(224.863906 190.708562)scale(0.1 -0.1)">
      <use xlink:href="#DejaVuSans-116"/>
      <use x="39.208984" xlink:href="#DejaVuSans-105"/>
      <use x="66.992188" xlink:href="#DejaVuSans-109"/>
      <use x="164.404297" xlink:href="#DejaVuSans-101"/>
     </g>
    </g>
   </g>
   <g id="matplotlib.axis_2">
    <g id="ytick_1">
     <g id="line2d_7">
      <defs>
       <path d="M 0 0 
L -3.5 0 
" id="mdcb35bf18c" style="stroke:#000000;stroke-width:0.8;"/>
      </defs>
      <g>
       <use style="stroke:#000000;stroke-width:0.8;" x="57.6" xlink:href="#mdcb35bf18c" y="161.378309"/>
      </g>
     </g>
     <g id="text_8">
      <!-- 56 -->
      <defs>
       <path d="M 33.015625 40.375 
Q 26.375 40.375 22.484375 35.828125 
Q 18.609375 31.296875 18.609375 23.390625 
Q 18.609375 15.53125 22.484375 10.953125 
Q 26.375 6.390625 33.015625 6.390625 
Q 39.65625 6.390625 43.53125 10.953125 
Q 47.40625 15.53125 47.40625 23.390625 
Q 47.40625 31.296875 43.53125 35.828125 
Q 39.65625 40.375 33.015625 40.375 
z
M 52.59375 71.296875 
L 52.59375 62.3125 
Q 48.875 64.0625 45.09375 64.984375 
Q 41.3125 65.921875 37.59375 65.921875 
Q 27.828125 65.921875 22.671875 59.328125 
Q 17.53125 52.734375 16.796875 39.40625 
Q 19.671875 43.65625 24.015625 45.921875 
Q 28.375 48.1875 33.59375 48.1875 
Q 44.578125 48.1875 50.953125 41.515625 
Q 57.328125 34.859375 57.328125 23.390625 
Q 57.328125 12.15625 50.6875 5.359375 
Q 44.046875 -1.421875 33.015625 -1.421875 
Q 20.359375 -1.421875 13.671875 8.265625 
Q 6.984375 17.96875 6.984375 36.375 
Q 6.984375 53.65625 15.1875 63.9375 
Q 23.390625 74.21875 37.203125 74.21875 
Q 40.921875 74.21875 44.703125 73.484375 
Q 48.484375 72.75 52.59375 71.296875 
z
" id="DejaVuSans-54"/>
      </defs>
      <g transform="translate(37.875 165.177528)scale(0.1 -0.1)">
       <use xlink:href="#DejaVuSans-53"/>
       <use x="63.623047" xlink:href="#DejaVuSans-54"/>
      </g>
     </g>
    </g>
    <g id="ytick_2">
     <g id="line2d_8">
      <g>
       <use style="stroke:#000000;stroke-width:0.8;" x="57.6" xlink:href="#mdcb35bf18c" y="134.148759"/>
      </g>
     </g>
     <g id="text_9">
      <!-- 58 -->
      <defs>
       <path d="M 31.78125 34.625 
Q 24.75 34.625 20.71875 30.859375 
Q 16.703125 27.09375 16.703125 20.515625 
Q 16.703125 13.921875 20.71875 10.15625 
Q 24.75 6.390625 31.78125 6.390625 
Q 38.8125 6.390625 42.859375 10.171875 
Q 46.921875 13.96875 46.921875 20.515625 
Q 46.921875 27.09375 42.890625 30.859375 
Q 38.875 34.625 31.78125 34.625 
z
M 21.921875 38.8125 
Q 15.578125 40.375 12.03125 44.71875 
Q 8.5 49.078125 8.5 55.328125 
Q 8.5 64.0625 14.71875 69.140625 
Q 20.953125 74.21875 31.78125 74.21875 
Q 42.671875 74.21875 48.875 69.140625 
Q 55.078125 64.0625 55.078125 55.328125 
Q 55.078125 49.078125 51.53125 44.71875 
Q 48 40.375 41.703125 38.8125 
Q 48.828125 37.15625 52.796875 32.3125 
Q 56.78125 27.484375 56.78125 20.515625 
Q 56.78125 9.90625 50.3125 4.234375 
Q 43.84375 -1.421875 31.78125 -1.421875 
Q 19.734375 -1.421875 13.25 4.234375 
Q 6.78125 9.90625 6.78125 20.515625 
Q 6.78125 27.484375 10.78125 32.3125 
Q 14.796875 37.15625 21.921875 38.8125 
z
M 18.3125 54.390625 
Q 18.3125 48.734375 21.84375 45.5625 
Q 25.390625 42.390625 31.78125 42.390625 
Q 38.140625 42.390625 41.71875 45.5625 
Q 45.3125 48.734375 45.3125 54.390625 
Q 45.3125 60.0625 41.71875 63.234375 
Q 38.140625 66.40625 31.78125 66.40625 
Q 25.390625 66.40625 21.84375 63.234375 
Q 18.3125 60.0625 18.3125 54.390625 
z
" id="DejaVuSans-56"/>
      </defs>
      <g transform="translate(37.875 137.947978)scale(0.1 -0.1)">
       <use xlink:href="#DejaVuSans-53"/>
       <use x="63.623047" xlink:href="#DejaVuSans-56"/>
      </g>
     </g>
    </g>
    <g id="ytick_3">
     <g id="line2d_9">
      <g>
       <use style="stroke:#000000;stroke-width:0.8;" x="57.6" xlink:href="#mdcb35bf18c" y="106.919209"/>
      </g>
     </g>
     <g id="text_10">
      <!-- 60 -->
      <g transform="translate(37.875 110.718428)scale(0.1 -0.1)">
       <use xlink:href="#DejaVuSans-54"/>
       <use x="63.623047" xlink:href="#DejaVuSans-48"/>
      </g>
     </g>
    </g>
    <g id="ytick_4">
     <g id="line2d_10">
      <g>
       <use style="stroke:#000000;stroke-width:0.8;" x="57.6" xlink:href="#mdcb35bf18c" y="79.689659"/>
      </g>
     </g>
     <g id="text_11">
      <!-- 62 -->
      <g transform="translate(37.875 83.488878)scale(0.1 -0.1)">
       <use xlink:href="#DejaVuSans-54"/>
       <use x="63.623047" xlink:href="#DejaVuSans-50"/>
      </g>
     </g>
    </g>
    <g id="ytick_5">
     <g id="line2d_11">
      <g>
       <use style="stroke:#000000;stroke-width:0.8;" x="57.6" xlink:href="#mdcb35bf18c" y="52.460109"/>
      </g>
     </g>
     <g id="text_12">
      <!-- 64 -->
      <g transform="translate(37.875 56.259327)scale(0.1 -0.1)">
       <use xlink:href="#DejaVuSans-54"/>
       <use x="63.623047" xlink:href="#DejaVuSans-52"/>
      </g>
     </g>
    </g>
    <g id="text_13">
     <!-- Total energy -->
     <defs>
      <path d="M -0.296875 72.90625 
L 61.375 72.90625 
L 61.375 64.59375 
L 35.5 64.59375 
L 35.5 0 
L 25.59375 0 
L 25.59375 64.59375 
L -0.296875 64.59375 
z
" id="DejaVuSans-84"/>
      <path d="M 30.609375 48.390625 
Q 23.390625 48.390625 19.1875 42.75 
Q 14.984375 37.109375 14.984375 27.296875 
Q 14.984375 17.484375 19.15625 11.84375 
Q 23.34375 6.203125 30.609375 6.203125 
Q 37.796875 6.203125 41.984375 11.859375 
Q 46.1875 17.53125 46.1875 27.296875 
Q 46.1875 37.015625 41.984375 42.703125 
Q 37.796875 48.390625 30.609375 48.390625 
z
M 30.609375 56 
Q 42.328125 56 49.015625 48.375 
Q 55.71875 40.765625 55.71875 27.296875 
Q 55.71875 13.875 49.015625 6.21875 
Q 42.328125 -1.421875 30.609375 -1.421875 
Q 18.84375 -1.421875 12.171875 6.21875 
Q 5.515625 13.875 5.515625 27.296875 
Q 5.515625 40.765625 12.171875 48.375 
Q 18.84375 56 30.609375 56 
z
" id="DejaVuSans-111"/>
      <path d="M 34.28125 27.484375 
Q 23.390625 27.484375 19.1875 25 
Q 14.984375 22.515625 14.984375 16.5 
Q 14.984375 11.71875 18.140625 8.90625 
Q 21.296875 6.109375 26.703125 6.109375 
Q 34.1875 6.109375 38.703125 11.40625 
Q 43.21875 16.703125 43.21875 25.484375 
L 43.21875 27.484375 
z
M 52.203125 31.203125 
L 52.203125 0 
L 43.21875 0 
L 43.21875 8.296875 
Q 40.140625 3.328125 35.546875 0.953125 
Q 30.953125 -1.421875 24.3125 -1.421875 
Q 15.921875 -1.421875 10.953125 3.296875 
Q 6 8.015625 6 15.921875 
Q 6 25.140625 12.171875 29.828125 
Q 18.359375 34.515625 30.609375 34.515625 
L 43.21875 34.515625 
L 43.21875 35.40625 
Q 43.21875 41.609375 39.140625 45 
Q 35.0625 48.390625 27.6875 48.390625 
Q 23 48.390625 18.546875 47.265625 
Q 14.109375 46.140625 10.015625 43.890625 
L 10.015625 52.203125 
Q 14.9375 54.109375 19.578125 55.046875 
Q 24.21875 56 28.609375 56 
Q 40.484375 56 46.34375 49.84375 
Q 52.203125 43.703125 52.203125 31.203125 
z
" id="DejaVuSans-97"/>
      <path d="M 9.421875 75.984375 
L 18.40625 75.984375 
L 18.40625 0 
L 9.421875 0 
z
" id="DejaVuSans-108"/>
      <path id="DejaVuSans-32"/>
      <path d="M 54.890625 33.015625 
L 54.890625 0 
L 45.90625 0 
L 45.90625 32.71875 
Q 45.90625 40.484375 42.875 44.328125 
Q 39.84375 48.1875 33.796875 48.1875 
Q 26.515625 48.1875 22.3125 43.546875 
Q 18.109375 38.921875 18.109375 30.90625 
L 18.109375 0 
L 9.078125 0 
L 9.078125 54.6875 
L 18.109375 54.6875 
L 18.109375 46.1875 
Q 21.34375 51.125 25.703125 53.5625 
Q 30.078125 56 35.796875 56 
Q 45.21875 56 50.046875 50.171875 
Q 54.890625 44.34375 54.890625 33.015625 
z
" id="DejaVuSans-110"/>
      <path d="M 41.109375 46.296875 
Q 39.59375 47.171875 37.8125 47.578125 
Q 36.03125 48 33.890625 48 
Q 26.265625 48 22.1875 43.046875 
Q 18.109375 38.09375 18.109375 28.8125 
L 18.109375 0 
L 9.078125 0 
L 9.078125 54.6875 
L 18.109375 54.6875 
L 18.109375 46.1875 
Q 20.953125 51.171875 25.484375 53.578125 
Q 30.03125 56 36.53125 56 
Q 37.453125 56 38.578125 55.875 
Q 39.703125 55.765625 41.0625 55.515625 
z
" id="DejaVuSans-114"/>
      <path d="M 45.40625 27.984375 
Q 45.40625 37.75 41.375 43.109375 
Q 37.359375 48.484375 30.078125 48.484375 
Q 22.859375 48.484375 18.828125 43.109375 
Q 14.796875 37.75 14.796875 27.984375 
Q 14.796875 18.265625 18.828125 12.890625 
Q 22.859375 7.515625 30.078125 7.515625 
Q 37.359375 7.515625 41.375 12.890625 
Q 45.40625 18.265625 45.40625 27.984375 
z
M 54.390625 6.78125 
Q 54.390625 -7.171875 48.1875 -13.984375 
Q 42 -20.796875 29.203125 -20.796875 
Q 24.46875 -20.796875 20.265625 -20.09375 
Q 16.0625 -19.390625 12.109375 -17.921875 
L 12.109375 -9.1875 
Q 16.0625 -11.328125 19.921875 -12.34375 
Q 23.78125 -13.375 27.78125 -13.375 
Q 36.625 -13.375 41.015625 -8.765625 
Q 45.40625 -4.15625 45.40625 5.171875 
L 45.40625 9.625 
Q 42.625 4.78125 38.28125 2.390625 
Q 33.9375 0 27.875 0 
Q 17.828125 0 11.671875 7.65625 
Q 5.515625 15.328125 5.515625 27.984375 
Q 5.515625 40.671875 11.671875 48.328125 
Q 17.828125 56 27.875 56 
Q 33.9375 56 38.28125 53.609375 
Q 42.625 51.21875 45.40625 46.390625 
L 45.40625 54.6875 
L 54.390625 54.6875 
z
" id="DejaVuSans-103"/>
      <path d="M 32.171875 -5.078125 
Q 28.375 -14.84375 24.75 -17.8125 
Q 21.140625 -20.796875 15.09375 -20.796875 
L 7.90625 -20.796875 
L 7.90625 -13.28125 
L 13.1875 -13.28125 
Q 16.890625 -13.28125 18.9375 -11.515625 
Q 21 -9.765625 23.484375 -3.21875 
L 25.09375 0.875 
L 2.984375 54.6875 
L 12.5 54.6875 
L 29.59375 11.921875 
L 46.6875 54.6875 
L 56.203125 54.6875 
z
" id="DejaVuSans-121"/>
     </defs>
     <g transform="translate(31.795312 132.641063)rotate(-90)scale(0.1 -0.1)">
      <use xlink:href="#DejaVuSans-84"/>
      <use x="44.083984" xlink:href="#DejaVuSans-111"/>
      <use x="105.265625" xlink:href="#DejaVuSans-116"/>
      <use x="144.474609" xlink:href="#DejaVuSans-97"/>
      <use x="205.753906" xlink:href="#DejaVuSans-108"/>
      <use x="233.537109" xlink:href="#DejaVuSans-32"/>
      <use x="265.324219" xlink:href="#DejaVuSans-101"/>
      <use x="326.847656" xlink:href="#DejaVuSans-110"/>
      <use x="390.226562" xlink:href="#DejaVuSans-101"/>
      <use x="451.75" xlink:href="#DejaVuSans-114"/>
      <use x="491.113281" xlink:href="#DejaVuSans-103"/>
      <use x="554.589844" xlink:href="#DejaVuSans-121"/>
     </g>
    </g>
   </g>
   <g id="line2d_12">
    <path clip-path="url(#pea883da577)" d="M 73.832727 55.692971 
L 122.633823 55.80404 
L 131.879799 56.041036 
L 137.580619 56.398557 
L 141.820522 56.879251 
L 145.287764 57.490644 
L 148.294005 58.243005 
L 151.014555 59.150955 
L 153.566289 60.236323 
L 156.033614 61.528281 
L 158.487953 63.06664 
L 161.007222 64.91205 
L 163.695308 67.162972 
L 166.772972 70.042182 
L 171.266101 74.591403 
L 176.064399 79.36322 
L 178.797936 81.765584 
L 181.193838 83.579747 
L 183.505332 85.053739 
L 185.544122 86.104096 
L 187.082954 86.660785 
L 188.375053 86.896131 
L 189.680138 86.90372 
L 191.2839 86.677279 
L 193.478521 86.131784 
L 195.634184 85.376333 
L 197.582072 84.457497 
L 199.542946 83.282045 
L 201.692116 81.725965 
L 204.276315 79.565837 
L 208.224035 75.935875 
L 213.775517 70.878985 
L 216.963561 68.287097 
L 219.826956 66.241718 
L 222.579972 64.545936 
L 225.332987 63.110143 
L 228.163918 61.884592 
L 231.144188 60.838176 
L 234.345217 59.952635 
L 237.844923 59.218499 
L 241.7407 58.632421 
L 246.123449 58.2023 
L 251.012648 57.949358 
L 256.252468 57.901781 
L 261.479302 58.074341 
L 266.336036 58.452934 
L 270.68632 59.010509 
L 274.582097 59.730484 
L 278.120761 60.607792 
L 281.425678 61.654962 
L 284.594243 62.891962 
L 287.736836 64.358919 
L 290.970331 66.117144 
L 294.483023 68.28727 
L 298.859278 71.271214 
L 305.560014 75.849097 
L 307.89748 77.154713 
L 309.689537 77.911272 
L 311.169933 78.302829 
L 312.442553 78.416059 
L 313.578821 78.298472 
L 314.630681 77.966912 
L 315.630597 77.416652 
L 316.611034 76.617666 
L 317.591471 75.52251 
L 318.584894 74.068184 
L 319.610782 72.156088 
L 320.68212 69.668001 
L 321.824882 66.426609 
L 323.116981 62.055366 
L 325.344067 53.529293 
L 326.506307 49.608669 
L 327.220532 47.904033 
L 327.733476 47.182998 
L 328.123054 46.974217 
L 328.447702 47.04562 
L 328.785336 47.368018 
L 329.187899 48.088855 
L 329.687857 49.484487 
L 330.311182 51.943205 
L 331.122802 56.137671 
L 332.298028 63.525779 
L 336.479495 90.754288 
L 337.992355 98.697831 
L 339.414313 105.018224 
L 340.790821 110.158956 
L 342.141357 114.370296 
L 343.472414 117.815827 
L 344.796978 120.644266 
L 346.121542 122.959891 
L 347.452599 124.848061 
L 348.803135 126.385221 
L 350.192628 127.634685 
L 351.640559 128.640911 
L 353.179391 129.439552 
L 354.815617 130.037938 
L 356.542744 130.432914 
L 358.295844 130.607589 
L 360.003493 130.556882 
L 361.652705 130.285975 
L 363.295424 129.788619 
L 365.080988 129.008052 
L 367.613243 127.625982 
L 370.489625 126.117393 
L 372.132344 125.509347 
L 373.554302 125.21493 
L 374.885359 125.164205 
L 376.183952 125.336745 
L 377.49553 125.736562 
L 378.859051 126.389017 
L 380.293996 127.3276 
L 381.826335 128.601724 
L 383.48204 130.276084 
L 385.267604 132.406457 
L 387.202506 135.070359 
L 389.29324 138.337034 
L 391.546297 142.280382 
L 393.961679 146.966452 
L 396.545877 152.475746 
L 398.487273 156.933818 
L 398.487273 156.933818 
" style="fill:none;stroke:#0000ff;stroke-linecap:square;stroke-width:1.5;"/>
   </g>
   <g id="line2d_13">
    <path clip-path="url(#pea883da577)" d="M 73.832727 55.692971 
L 122.653301 55.804026 
L 131.905771 56.041109 
L 137.606591 56.398545 
L 141.846494 56.879119 
L 145.313735 57.490423 
L 148.319976 58.242788 
L 151.040527 59.150877 
L 153.592261 60.236523 
L 156.059586 61.528835 
L 158.513925 63.067458 
L 161.039687 64.917783 
L 163.740759 67.179485 
L 166.844394 70.081213 
L 171.57127 74.85341 
L 175.973498 79.18629 
L 178.65509 81.515706 
L 181.012035 83.273442 
L 183.355994 84.744363 
L 185.615545 85.909631 
L 187.277743 86.535724 
L 188.602307 86.804079 
L 189.894406 86.836832 
L 191.400773 86.641574 
L 193.335675 86.155801 
L 195.419916 85.407072 
L 197.393776 84.461341 
L 199.380622 83.258427 
L 201.555764 81.672763 
L 204.165934 79.479381 
L 208.14612 75.803536 
L 213.691108 70.732404 
L 216.879152 68.128586 
L 219.742548 66.07246 
L 222.495563 64.366705 
L 225.248579 62.921697 
L 228.073017 61.690405 
L 231.0403 60.640472 
L 234.221851 59.752841 
L 237.695585 59.017762 
L 241.552404 58.433061 
L 245.86373 58.008446 
L 250.636057 57.764787 
L 255.700566 57.72924 
L 260.713132 57.914054 
L 265.355599 58.303495 
L 269.537066 58.873462 
L 273.296491 59.606769 
L 276.744253 60.503277 
L 279.990734 61.576348 
L 283.133327 62.849911 
L 286.27592 64.365622 
L 289.541879 66.191773 
L 293.158459 68.47681 
L 298.190503 71.950995 
L 302.930365 75.143805 
L 305.300296 76.476487 
L 307.105339 77.247295 
L 308.592227 77.649047 
L 309.87134 77.770908 
L 311.014101 77.660074 
L 312.065961 77.335976 
L 313.065877 76.794193 
L 314.046314 76.005266 
L 315.026751 74.922535 
L 316.020174 73.484189 
L 317.046062 71.593774 
L 318.117401 69.136702 
L 319.273148 65.903292 
L 320.591219 61.516047 
L 324.155855 49.196429 
L 324.772686 48.031286 
L 325.227193 47.586766 
L 325.577813 47.519111 
L 325.902461 47.685548 
L 326.27256 48.152924 
L 326.720574 49.115266 
L 327.278969 50.896898 
L 327.980209 53.943657 
L 328.928181 59.151635 
L 330.564407 69.617874 
L 333.038225 85.160616 
L 334.616015 93.644051 
L 336.063945 100.254415 
L 337.453439 105.589492 
L 338.803975 109.919738 
L 340.128539 113.444705 
L 341.440117 116.322332 
L 342.745202 118.664103 
L 344.050287 120.560908 
L 345.368358 122.093309 
L 346.718894 123.327346 
L 348.114881 124.305085 
L 349.588783 125.066609 
L 351.16008 125.627804 
L 352.84825 125.993463 
L 354.627321 126.151344 
L 356.438857 126.089911 
L 358.224421 125.807753 
L 360.003493 125.300205 
L 361.90593 124.519744 
L 364.483636 123.194511 
L 367.658694 121.607118 
L 369.359849 121.012319 
L 370.827259 120.730318 
L 372.197273 120.690941 
L 373.541316 120.875477 
L 374.898345 121.289177 
L 376.300825 121.953121 
L 377.78122 122.905389 
L 379.365502 124.196244 
L 381.073151 125.883207 
L 382.917152 128.025947 
L 384.916984 130.69962 
L 387.085633 133.980384 
L 389.429592 137.940038 
L 391.961847 142.665012 
L 394.708369 148.272744 
L 397.721103 154.943392 
L 398.487273 156.717364 
L 398.487273 156.717364 
" style="fill:none;stroke:#008000;stroke-linecap:square;stroke-width:1.5;"/>
   </g>
   <g id="line2d_14">
    <path clip-path="url(#pea883da577)" d="M 73.832727 55.692971 
L 122.646808 55.804077 
L 131.892785 56.041073 
L 137.593605 56.398551 
L 141.833508 56.879186 
L 145.30075 57.490535 
L 148.306991 58.242899 
L 151.027541 59.150919 
L 153.579275 60.236427 
L 156.0466 61.528563 
L 158.500939 63.067054 
L 161.020208 64.912375 
L 163.714787 67.168356 
L 166.805437 70.058544 
L 171.402453 74.706245 
L 176.005962 79.262293 
L 178.713527 81.629397 
L 181.089951 83.416682 
L 183.420924 84.892964 
L 185.570094 86.002478 
L 187.167362 86.593562 
L 188.478941 86.847567 
L 189.777533 86.869771 
L 191.32935 86.661812 
L 193.381126 86.151042 
L 195.504324 85.400093 
L 197.465199 84.470818 
L 199.439059 83.284735 
L 201.594722 81.721846 
L 204.185413 79.553923 
L 208.113655 75.936745 
L 213.736559 70.802834 
L 216.924603 68.205294 
L 219.787999 66.154858 
L 222.541014 64.454398 
L 225.29403 63.014289 
L 228.124961 61.784861 
L 231.098737 60.737184 
L 234.286781 59.851839 
L 237.773501 59.117433 
L 241.649799 58.532231 
L 245.99359 58.105298 
L 250.824353 57.857113 
L 255.973271 57.815837 
L 261.089724 57.994928 
L 265.836078 58.379575 
L 270.095461 58.943613 
L 273.919815 59.670928 
L 277.413028 60.559331 
L 280.68548 61.620017 
L 283.841059 62.876925 
L 286.983653 64.369937 
L 290.236626 66.165659 
L 293.801262 68.394917 
L 298.463208 71.596849 
L 304.073126 75.411947 
L 306.456043 76.759049 
L 308.267579 77.539346 
L 309.76096 77.949418 
L 311.046566 78.07807 
L 312.189327 77.973445 
L 313.241187 77.656216 
L 314.241103 77.122045 
L 315.22154 76.341578 
L 316.201977 75.268135 
L 317.1954 73.839659 
L 318.214795 71.972365 
L 319.286134 69.526501 
L 320.428895 66.338477 
L 321.720994 62.03897 
L 324.064953 53.235136 
L 325.162264 49.676422 
L 325.85701 48.099037 
L 326.363461 47.436081 
L 326.746546 47.260136 
L 327.071194 47.350866 
L 327.415321 47.698113 
L 327.830871 48.466652 
L 328.343815 49.929893 
L 328.986618 52.498925 
L 329.82421 56.846883 
L 331.077351 64.681347 
L 334.752367 88.235185 
L 336.291199 96.363628 
L 337.726143 102.783941 
L 339.109144 107.981539 
L 340.45968 112.217078 
L 341.790737 115.679268 
L 343.108808 118.504074 
L 344.420386 120.802944 
L 345.738457 122.674694 
L 347.076007 124.194262 
L 348.446022 125.418522 
L 349.874473 126.398332 
L 351.38084 127.162318 
L 352.991095 127.728977 
L 354.705236 128.095936 
L 356.484308 128.249695 
L 358.250393 128.180717 
L 359.971028 127.891598 
L 361.691662 127.374282 
L 363.555142 126.573929 
L 366.243228 125.142987 
L 369.041694 123.72769 
L 370.710385 123.133845 
L 372.151823 122.851623 
L 373.502359 122.811166 
L 374.826923 122.994577 
L 376.164473 123.40692 
L 377.547473 124.069597 
L 379.00839 125.021496 
L 380.573193 126.314133 
L 382.25487 127.999651 
L 384.072899 130.144604 
L 386.046759 132.827012 
L 388.182944 136.116071 
L 390.487945 140.084643 
L 392.968256 144.809302 
L 395.636863 150.3828 
L 398.487273 156.853054 
L 398.487273 156.853054 
" style="fill:none;stroke:#bfbf00;stroke-linecap:square;stroke-width:1.5;"/>
   </g>
   <g id="patch_3">
    <path d="M 57.6 162.432 
L 57.6 41.472 
" style="fill:none;stroke:#000000;stroke-linecap:square;stroke-linejoin:miter;stroke-width:0.8;"/>
   </g>
   <g id="patch_4">
    <path d="M 414.72 162.432 
L 414.72 41.472 
" style="fill:none;stroke:#000000;stroke-linecap:square;stroke-linejoin:miter;stroke-width:0.8;"/>
   </g>
   <g id="patch_5">
    <path d="M 57.6 162.432 
L 414.72 162.432 
" style="fill:none;stroke:#000000;stroke-linecap:square;stroke-linejoin:miter;stroke-width:0.8;"/>
   </g>
   <g id="patch_6">
    <path d="M 57.6 41.472 
L 414.72 41.472 
" style="fill:none;stroke:#000000;stroke-linecap:square;stroke-linejoin:miter;stroke-width:0.8;"/>
   </g>
   <g id="legend_1">
    <g id="patch_7">
     <path d="M 64.6 157.432 
L 171.917188 157.432 
Q 173.917188 157.432 173.917188 155.432 
L 173.917188 111.432 
Q 173.917188 109.432 171.917188 109.432 
L 64.6 109.432 
Q 62.6 109.432 62.6 111.432 
L 62.6 155.432 
Q 62.6 157.432 64.6 157.432 
z
" style="fill:#ffffff;opacity:0.8;stroke:#cccccc;stroke-linejoin:miter;"/>
    </g>
    <g id="line2d_15">
     <path d="M 66.6 117.574187 
L 86.6 117.574187 
" style="fill:none;stroke:#0000ff;stroke-linecap:square;stroke-width:1.5;"/>
    </g>
    <g id="line2d_16"/>
    <g id="text_14">
     <!-- [ 1. 10.] | I |  -->
     <defs>
      <path d="M 8.59375 75.984375 
L 29.296875 75.984375 
L 29.296875 69 
L 17.578125 69 
L 17.578125 -6.203125 
L 29.296875 -6.203125 
L 29.296875 -13.1875 
L 8.59375 -13.1875 
z
" id="DejaVuSans-91"/>
      <path d="M 10.6875 12.40625 
L 21 12.40625 
L 21 0 
L 10.6875 0 
z
" id="DejaVuSans-46"/>
      <path d="M 30.421875 75.984375 
L 30.421875 -13.1875 
L 9.71875 -13.1875 
L 9.71875 -6.203125 
L 21.390625 -6.203125 
L 21.390625 69 
L 9.71875 69 
L 9.71875 75.984375 
z
" id="DejaVuSans-93"/>
      <path d="M 21 76.421875 
L 21 -23.578125 
L 12.703125 -23.578125 
L 12.703125 76.421875 
z
" id="DejaVuSans-124"/>
      <path d="M 9.8125 72.90625 
L 19.671875 72.90625 
L 19.671875 0 
L 9.8125 0 
z
" id="DejaVuSans-73"/>
     </defs>
     <g transform="translate(94.6 121.074187)scale(0.1 -0.1)">
      <use xlink:href="#DejaVuSans-91"/>
      <use x="39.013672" xlink:href="#DejaVuSans-32"/>
      <use x="70.800781" xlink:href="#DejaVuSans-49"/>
      <use x="134.423828" xlink:href="#DejaVuSans-46"/>
      <use x="166.210938" xlink:href="#DejaVuSans-32"/>
      <use x="197.998047" xlink:href="#DejaVuSans-49"/>
      <use x="261.621094" xlink:href="#DejaVuSans-48"/>
      <use x="325.244141" xlink:href="#DejaVuSans-46"/>
      <use x="357.03125" xlink:href="#DejaVuSans-93"/>
      <use x="396.044922" xlink:href="#DejaVuSans-32"/>
      <use x="427.832031" xlink:href="#DejaVuSans-124"/>
      <use x="461.523438" xlink:href="#DejaVuSans-32"/>
      <use x="493.310547" xlink:href="#DejaVuSans-73"/>
      <use x="522.802734" xlink:href="#DejaVuSans-32"/>
      <use x="554.589844" xlink:href="#DejaVuSans-124"/>
      <use x="588.28125" xlink:href="#DejaVuSans-32"/>
     </g>
    </g>
    <g id="line2d_17">
     <path d="M 66.6 132.574187 
L 86.6 132.574187 
" style="fill:none;stroke:#008000;stroke-linecap:square;stroke-width:1.5;"/>
    </g>
    <g id="line2d_18"/>
    <g id="text_15">
     <!-- [ 1. 10.] | E |  -->
     <defs>
      <path d="M 9.8125 72.90625 
L 55.90625 72.90625 
L 55.90625 64.59375 
L 19.671875 64.59375 
L 19.671875 43.015625 
L 54.390625 43.015625 
L 54.390625 34.71875 
L 19.671875 34.71875 
L 19.671875 8.296875 
L 56.78125 8.296875 
L 56.78125 0 
L 9.8125 0 
z
" id="DejaVuSans-69"/>
     </defs>
     <g transform="translate(94.6 136.074187)scale(0.1 -0.1)">
      <use xlink:href="#DejaVuSans-91"/>
      <use x="39.013672" xlink:href="#DejaVuSans-32"/>
      <use x="70.800781" xlink:href="#DejaVuSans-49"/>
      <use x="134.423828" xlink:href="#DejaVuSans-46"/>
      <use x="166.210938" xlink:href="#DejaVuSans-32"/>
      <use x="197.998047" xlink:href="#DejaVuSans-49"/>
      <use x="261.621094" xlink:href="#DejaVuSans-48"/>
      <use x="325.244141" xlink:href="#DejaVuSans-46"/>
      <use x="357.03125" xlink:href="#DejaVuSans-93"/>
      <use x="396.044922" xlink:href="#DejaVuSans-32"/>
      <use x="427.832031" xlink:href="#DejaVuSans-124"/>
      <use x="461.523438" xlink:href="#DejaVuSans-32"/>
      <use x="493.310547" xlink:href="#DejaVuSans-69"/>
      <use x="556.494141" xlink:href="#DejaVuSans-32"/>
      <use x="588.28125" xlink:href="#DejaVuSans-124"/>
      <use x="621.972656" xlink:href="#DejaVuSans-32"/>
     </g>
    </g>
    <g id="line2d_19">
     <path d="M 66.6 147.574187 
L 86.6 147.574187 
" style="fill:none;stroke:#bfbf00;stroke-linecap:square;stroke-width:1.5;"/>
    </g>
    <g id="line2d_20"/>
    <g id="text_16">
     <!-- [ 1. 10.] | rk4 |  -->
     <defs>
      <path d="M 9.078125 75.984375 
L 18.109375 75.984375 
L 18.109375 31.109375 
L 44.921875 54.6875 
L 56.390625 54.6875 
L 27.390625 29.109375 
L 57.625 0 
L 45.90625 0 
L 18.109375 26.703125 
L 18.109375 0 
L 9.078125 0 
z
" id="DejaVuSans-107"/>
     </defs>
     <g transform="translate(94.6 151.074187)scale(0.1 -0.1)">
      <use xlink:href="#DejaVuSans-91"/>
      <use x="39.013672" xlink:href="#DejaVuSans-32"/>
      <use x="70.800781" xlink:href="#DejaVuSans-49"/>
      <use x="134.423828" xlink:href="#DejaVuSans-46"/>
      <use x="166.210938" xlink:href="#DejaVuSans-32"/>
      <use x="197.998047" xlink:href="#DejaVuSans-49"/>
      <use x="261.621094" xlink:href="#DejaVuSans-48"/>
      <use x="325.244141" xlink:href="#DejaVuSans-46"/>
      <use x="357.03125" xlink:href="#DejaVuSans-93"/>
      <use x="396.044922" xlink:href="#DejaVuSans-32"/>
      <use x="427.832031" xlink:href="#DejaVuSans-124"/>
      <use x="461.523438" xlink:href="#DejaVuSans-32"/>
      <use x="493.310547" xlink:href="#DejaVuSans-114"/>
      <use x="534.423828" xlink:href="#DejaVuSans-107"/>
      <use x="592.333984" xlink:href="#DejaVuSans-52"/>
      <use x="655.957031" xlink:href="#DejaVuSans-32"/>
      <use x="687.744141" xlink:href="#DejaVuSans-124"/>
      <use x="721.435547" xlink:href="#DejaVuSans-32"/>
     </g>
    </g>
   </g>
  </g>
  <g id="axes_2">
   <g id="patch_8">
    <path d="M 57.6 307.584 
L 414.72 307.584 
L 414.72 186.624 
L 57.6 186.624 
z
" style="fill:#ffffff;"/>
   </g>
   <g id="matplotlib.axis_3">
    <g id="xtick_7">
     <g id="line2d_21">
      <g>
       <use style="stroke:#000000;stroke-width:0.8;" x="73.832727" xlink:href="#maabbebd324" y="307.584"/>
      </g>
     </g>
     <g id="text_17">
      <!-- 0 -->
      <g transform="translate(70.651477 322.182437)scale(0.1 -0.1)">
       <use xlink:href="#DejaVuSans-48"/>
      </g>
     </g>
    </g>
    <g id="xtick_8">
     <g id="line2d_22">
      <g>
       <use style="stroke:#000000;stroke-width:0.8;" x="138.762338" xlink:href="#maabbebd324" y="307.584"/>
      </g>
     </g>
     <g id="text_18">
      <!-- 1 -->
      <g transform="translate(135.581088 322.182437)scale(0.1 -0.1)">
       <use xlink:href="#DejaVuSans-49"/>
      </g>
     </g>
    </g>
    <g id="xtick_9">
     <g id="line2d_23">
      <g>
       <use style="stroke:#000000;stroke-width:0.8;" x="203.691948" xlink:href="#maabbebd324" y="307.584"/>
      </g>
     </g>
     <g id="text_19">
      <!-- 2 -->
      <g transform="translate(200.510698 322.182437)scale(0.1 -0.1)">
       <use xlink:href="#DejaVuSans-50"/>
      </g>
     </g>
    </g>
    <g id="xtick_10">
     <g id="line2d_24">
      <g>
       <use style="stroke:#000000;stroke-width:0.8;" x="268.621559" xlink:href="#maabbebd324" y="307.584"/>
      </g>
     </g>
     <g id="text_20">
      <!-- 3 -->
      <g transform="translate(265.440309 322.182437)scale(0.1 -0.1)">
       <use xlink:href="#DejaVuSans-51"/>
      </g>
     </g>
    </g>
    <g id="xtick_11">
     <g id="line2d_25">
      <g>
       <use style="stroke:#000000;stroke-width:0.8;" x="333.551169" xlink:href="#maabbebd324" y="307.584"/>
      </g>
     </g>
     <g id="text_21">
      <!-- 4 -->
      <g transform="translate(330.369919 322.182437)scale(0.1 -0.1)">
       <use xlink:href="#DejaVuSans-52"/>
      </g>
     </g>
    </g>
    <g id="xtick_12">
     <g id="line2d_26">
      <g>
       <use style="stroke:#000000;stroke-width:0.8;" x="398.48078" xlink:href="#maabbebd324" y="307.584"/>
      </g>
     </g>
     <g id="text_22">
      <!-- 5 -->
      <g transform="translate(395.29953 322.182437)scale(0.1 -0.1)">
       <use xlink:href="#DejaVuSans-53"/>
      </g>
     </g>
    </g>
    <g id="text_23">
     <!-- time -->
     <g transform="translate(224.863906 335.860562)scale(0.1 -0.1)">
      <use xlink:href="#DejaVuSans-116"/>
      <use x="39.208984" xlink:href="#DejaVuSans-105"/>
      <use x="66.992188" xlink:href="#DejaVuSans-109"/>
      <use x="164.404297" xlink:href="#DejaVuSans-101"/>
     </g>
    </g>
   </g>
   <g id="matplotlib.axis_4">
    <g id="ytick_6">
     <g id="line2d_27">
      <g>
       <use style="stroke:#000000;stroke-width:0.8;" x="57.6" xlink:href="#mdcb35bf18c" y="286.613983"/>
      </g>
     </g>
     <g id="text_24">
      <!-- 148 -->
      <g transform="translate(31.5125 290.413202)scale(0.1 -0.1)">
       <use xlink:href="#DejaVuSans-49"/>
       <use x="63.623047" xlink:href="#DejaVuSans-52"/>
       <use x="127.246094" xlink:href="#DejaVuSans-56"/>
      </g>
     </g>
    </g>
    <g id="ytick_7">
     <g id="line2d_28">
      <g>
       <use style="stroke:#000000;stroke-width:0.8;" x="57.6" xlink:href="#mdcb35bf18c" y="264.175375"/>
      </g>
     </g>
     <g id="text_25">
      <!-- 149 -->
      <defs>
       <path d="M 10.984375 1.515625 
L 10.984375 10.5 
Q 14.703125 8.734375 18.5 7.8125 
Q 22.3125 6.890625 25.984375 6.890625 
Q 35.75 6.890625 40.890625 13.453125 
Q 46.046875 20.015625 46.78125 33.40625 
Q 43.953125 29.203125 39.59375 26.953125 
Q 35.25 24.703125 29.984375 24.703125 
Q 19.046875 24.703125 12.671875 31.3125 
Q 6.296875 37.9375 6.296875 49.421875 
Q 6.296875 60.640625 12.9375 67.421875 
Q 19.578125 74.21875 30.609375 74.21875 
Q 43.265625 74.21875 49.921875 64.515625 
Q 56.59375 54.828125 56.59375 36.375 
Q 56.59375 19.140625 48.40625 8.859375 
Q 40.234375 -1.421875 26.421875 -1.421875 
Q 22.703125 -1.421875 18.890625 -0.6875 
Q 15.09375 0.046875 10.984375 1.515625 
z
M 30.609375 32.421875 
Q 37.25 32.421875 41.125 36.953125 
Q 45.015625 41.5 45.015625 49.421875 
Q 45.015625 57.28125 41.125 61.84375 
Q 37.25 66.40625 30.609375 66.40625 
Q 23.96875 66.40625 20.09375 61.84375 
Q 16.21875 57.28125 16.21875 49.421875 
Q 16.21875 41.5 20.09375 36.953125 
Q 23.96875 32.421875 30.609375 32.421875 
z
" id="DejaVuSans-57"/>
      </defs>
      <g transform="translate(31.5125 267.974594)scale(0.1 -0.1)">
       <use xlink:href="#DejaVuSans-49"/>
       <use x="63.623047" xlink:href="#DejaVuSans-52"/>
       <use x="127.246094" xlink:href="#DejaVuSans-57"/>
      </g>
     </g>
    </g>
    <g id="ytick_8">
     <g id="line2d_29">
      <g>
       <use style="stroke:#000000;stroke-width:0.8;" x="57.6" xlink:href="#mdcb35bf18c" y="241.736766"/>
      </g>
     </g>
     <g id="text_26">
      <!-- 150 -->
      <g transform="translate(31.5125 245.535985)scale(0.1 -0.1)">
       <use xlink:href="#DejaVuSans-49"/>
       <use x="63.623047" xlink:href="#DejaVuSans-53"/>
       <use x="127.246094" xlink:href="#DejaVuSans-48"/>
      </g>
     </g>
    </g>
    <g id="ytick_9">
     <g id="line2d_30">
      <g>
       <use style="stroke:#000000;stroke-width:0.8;" x="57.6" xlink:href="#mdcb35bf18c" y="219.298158"/>
      </g>
     </g>
     <g id="text_27">
      <!-- 151 -->
      <g transform="translate(31.5125 223.097376)scale(0.1 -0.1)">
       <use xlink:href="#DejaVuSans-49"/>
       <use x="63.623047" xlink:href="#DejaVuSans-53"/>
       <use x="127.246094" xlink:href="#DejaVuSans-49"/>
      </g>
     </g>
    </g>
    <g id="ytick_10">
     <g id="line2d_31">
      <g>
       <use style="stroke:#000000;stroke-width:0.8;" x="57.6" xlink:href="#mdcb35bf18c" y="196.859549"/>
      </g>
     </g>
     <g id="text_28">
      <!-- 152 -->
      <g transform="translate(31.5125 200.658768)scale(0.1 -0.1)">
       <use xlink:href="#DejaVuSans-49"/>
       <use x="63.623047" xlink:href="#DejaVuSans-53"/>
       <use x="127.246094" xlink:href="#DejaVuSans-50"/>
      </g>
     </g>
    </g>
    <g id="text_29">
     <!-- Total energy -->
     <g transform="translate(25.432812 277.793062)rotate(-90)scale(0.1 -0.1)">
      <use xlink:href="#DejaVuSans-84"/>
      <use x="44.083984" xlink:href="#DejaVuSans-111"/>
      <use x="105.265625" xlink:href="#DejaVuSans-116"/>
      <use x="144.474609" xlink:href="#DejaVuSans-97"/>
      <use x="205.753906" xlink:href="#DejaVuSans-108"/>
      <use x="233.537109" xlink:href="#DejaVuSans-32"/>
      <use x="265.324219" xlink:href="#DejaVuSans-101"/>
      <use x="326.847656" xlink:href="#DejaVuSans-110"/>
      <use x="390.226562" xlink:href="#DejaVuSans-101"/>
      <use x="451.75" xlink:href="#DejaVuSans-114"/>
      <use x="491.113281" xlink:href="#DejaVuSans-103"/>
      <use x="554.589844" xlink:href="#DejaVuSans-121"/>
     </g>
    </g>
   </g>
   <g id="line2d_32">
    <path clip-path="url(#pd1896515c2)" d="M 73.832727 195.630928 
L 113.556663 195.741948 
L 121.828695 195.981574 
L 126.984106 196.342414 
L 130.814953 196.825429 
L 133.918589 197.435067 
L 136.567717 198.177441 
L 138.924662 199.066004 
L 141.080325 200.114659 
L 143.106129 201.347654 
L 145.041031 202.786578 
L 146.92399 204.465663 
L 148.78747 206.429073 
L 150.650949 208.721216 
L 152.527415 211.38779 
L 154.436346 214.493495 
L 156.39722 218.117588 
L 158.416531 222.326473 
L 160.52025 227.236715 
L 162.73435 232.982566 
L 165.12376 239.820514 
L 167.863789 248.368841 
L 174.850215 270.575652 
L 176.070892 273.492605 
L 177.012371 275.207472 
L 177.765555 276.154014 
L 178.395372 276.613615 
L 178.940781 276.750477 
L 179.460218 276.650434 
L 180.005626 276.306382 
L 180.622458 275.635595 
L 181.349669 274.493868 
L 182.239205 272.654083 
L 183.36898 269.767377 
L 184.907812 265.170498 
L 187.524475 256.536438 
L 192.024097 241.764655 
L 194.653746 233.926101 
L 197.017184 227.562408 
L 199.231284 222.224297 
L 201.341496 217.70355 
L 203.373793 213.863902 
L 205.34116 210.611233 
L 207.263077 207.853928 
L 209.152529 205.523917 
L 211.028994 203.5565 
L 212.911953 201.899542 
L 214.827376 200.506885 
L 216.80773 199.340298 
L 218.898463 198.367464 
L 221.151521 197.566701 
L 223.644818 196.920032 
L 226.508213 196.412903 
L 229.94299 196.038688 
L 234.35171 195.793965 
L 240.740784 195.681607 
L 254.109791 195.723133 
L 283.399538 196.00089 
L 287.697878 196.317124 
L 290.872936 196.765944 
L 293.470121 197.352602 
L 295.710192 198.082684 
L 297.729503 198.97272 
L 299.599476 200.03913 
L 301.378547 201.310607 
L 303.099182 202.815378 
L 304.793845 204.59587 
L 306.482015 206.696173 
L 308.18317 209.173469 
L 309.910298 212.089747 
L 311.669891 215.507204 
L 313.468441 219.497341 
L 315.305949 224.125545 
L 317.1954 229.501033 
L 319.130303 235.691204 
L 321.117149 242.808744 
L 323.168925 251.00575 
L 325.318095 260.534059 
L 327.701011 272.154285 
L 332.505803 295.96039 
L 333.447282 299.302493 
L 334.142029 301.02496 
L 334.674452 301.813048 
L 335.083508 302.07012 
L 335.427635 302.041368 
L 335.784748 301.772685 
L 336.20679 301.14729 
L 336.726227 299.944229 
L 337.382016 297.816237 
L 338.239087 294.208002 
L 339.440285 288.089134 
L 341.751779 274.900322 
L 344.907358 257.279983 
L 347.173402 245.893323 
L 349.277121 236.433952 
L 351.289939 228.383317 
L 353.231334 221.5141 
L 355.101307 215.693996 
L 356.90635 210.783977 
L 358.646464 206.679095 
L 360.315155 203.295597 
L 361.925409 200.519419 
L 363.477227 198.27536 
L 364.977101 196.486595 
L 366.438017 195.081415 
L 367.879454 193.998129 
L 369.314399 193.194514 
L 370.768822 192.633108 
L 372.275189 192.289807 
L 373.87895 192.153901 
L 375.651529 192.231554 
L 377.696811 192.55137 
L 380.255038 193.189 
L 384.365082 194.477251 
L 390.416522 196.33557 
L 394.701876 197.397839 
L 398.487273 198.222102 
L 398.487273 198.222102 
" style="fill:none;stroke:#000000;stroke-linecap:square;stroke-width:1.5;"/>
   </g>
   <g id="line2d_33">
    <path clip-path="url(#pd1896515c2)" d="M 73.832727 195.630928 
L 113.576142 195.741962 
L 121.848174 195.981464 
L 127.003585 196.342004 
L 130.834432 196.824532 
L 133.938068 197.433502 
L 136.593689 198.177158 
L 138.950634 199.065375 
L 141.106297 200.113596 
L 143.132101 201.346054 
L 145.067003 202.784323 
L 146.949962 204.462595 
L 148.813441 206.424974 
L 150.676921 208.715779 
L 152.553387 211.380587 
L 154.462318 214.483917 
L 156.423192 218.104772 
L 158.448996 222.323536 
L 160.552715 227.22931 
L 162.773308 232.986036 
L 165.16921 239.834718 
L 167.915733 248.390596 
L 174.869694 270.452621 
L 176.103357 273.407929 
L 177.051329 275.14322 
L 177.811006 276.105957 
L 178.440823 276.57285 
L 178.986231 276.716828 
L 179.499175 276.62608 
L 180.038091 276.296613 
L 180.64843 275.645785 
L 181.369148 274.528696 
L 182.245698 272.731225 
L 183.355994 269.910172 
L 184.862361 265.423444 
L 187.375137 257.131075 
L 192.076041 241.643365 
L 194.699197 233.812036 
L 197.056142 227.457505 
L 199.263749 222.128322 
L 201.373961 217.602305 
L 203.406258 213.759065 
L 205.373625 210.504015 
L 207.295542 207.745203 
L 209.184993 205.414323 
L 211.061459 203.446506 
L 212.944418 201.789495 
L 214.859841 200.397045 
L 216.840194 199.230861 
L 218.930928 198.258577 
L 221.183985 197.458467 
L 223.677282 196.812501 
L 226.540678 196.306052 
L 229.975455 195.932359 
L 234.390668 195.687475 
L 240.805714 195.573909 
L 254.453918 195.61067 
L 275.309309 195.830626 
L 280.269931 196.118623 
L 283.763144 196.535588 
L 286.542131 197.08487 
L 288.905569 197.773989 
L 291.009288 198.616354 
L 292.944191 199.630203 
L 294.76222 200.833893 
L 296.515319 202.262982 
L 298.229461 203.949924 
L 299.930617 205.939806 
L 301.638266 208.28474 
L 303.365393 211.040774 
L 305.124986 214.276109 
L 306.923536 218.059294 
L 308.761044 222.452678 
L 310.650496 227.559622 
L 312.585398 233.442984 
L 314.578737 240.231135 
L 316.637006 248.048132 
L 318.786176 257.105082 
L 321.136628 268.009527 
L 326.824462 294.969736 
L 327.688025 297.690317 
L 328.337322 299.077448 
L 328.83728 299.683613 
L 329.23335 299.852615 
L 329.58397 299.764685 
L 329.960562 299.42127 
L 330.415069 298.672626 
L 330.973464 297.285868 
L 331.681196 294.883395 
L 332.616183 290.850818 
L 333.979705 283.87598 
L 340.927173 246.92218 
L 343.076343 237.323298 
L 345.121626 229.18179 
L 347.088993 222.241298 
L 348.984938 216.347671 
L 350.80946 211.381432 
L 352.569052 207.218433 
L 354.263715 203.764308 
L 355.893448 200.932207 
L 357.471238 198.624682 
L 358.997084 196.776983 
L 360.483972 195.31693 
L 361.951381 194.182028 
L 363.412297 193.329214 
L 364.892692 192.719714 
L 366.431524 192.32652 
L 368.06775 192.139458 
L 369.872793 192.160795 
L 371.957034 192.414661 
L 374.567204 192.968775 
L 378.755164 194.119394 
L 385.059829 195.816466 
L 389.572437 196.777239 
L 396.851047 198.285614 
L 398.487273 198.797158 
L 398.487273 198.797158 
" style="fill:none;stroke:#ff0000;stroke-linecap:square;stroke-width:1.5;"/>
   </g>
   <g id="line2d_34">
    <path clip-path="url(#pd1896515c2)" d="M 73.832727 195.630928 
L 113.569649 195.742005 
L 121.841681 195.981677 
L 126.997092 196.342524 
L 130.827939 196.825501 
L 133.931575 197.435055 
L 136.587196 198.179428 
L 138.944141 199.068487 
L 141.099804 200.117676 
L 143.125608 201.351238 
L 145.06051 202.790753 
L 146.943469 204.470436 
L 148.806949 206.434428 
L 150.670428 208.727095 
L 152.546894 211.394073 
L 154.455825 214.499975 
L 156.416699 218.123933 
L 158.442503 222.346501 
L 160.546222 227.256998 
L 162.766815 233.019718 
L 165.156224 239.856767 
L 167.902747 248.421696 
L 174.850215 270.488352 
L 176.077385 273.429809 
L 177.018864 275.155445 
L 177.778541 276.120362 
L 178.408358 276.58847 
L 178.953767 276.733286 
L 179.466711 276.643368 
L 180.005626 276.315041 
L 180.615965 275.666062 
L 181.336683 274.552081 
L 182.213233 272.759663 
L 183.323529 269.946364 
L 184.829896 265.470817 
L 187.329686 257.238466 
L 192.076041 241.622968 
L 194.699197 233.804645 
L 197.056142 227.460297 
L 199.263749 222.13939 
L 201.373961 217.62025 
L 203.406258 213.782781 
L 205.373625 210.532611 
L 207.295542 207.777961 
L 209.184993 205.450645 
L 211.061459 203.485889 
L 212.944418 201.831507 
L 214.859841 200.441306 
L 216.840194 199.277037 
L 218.930928 198.306367 
L 221.183985 197.507594 
L 223.683775 196.86131 
L 226.547171 196.356218 
L 229.988441 195.983106 
L 234.410147 195.739268 
L 240.838178 195.627243 
L 254.538326 195.667398 
L 278.854465 195.9075 
L 283.53589 196.205073 
L 286.899244 196.633718 
L 289.600316 197.196037 
L 291.918303 197.902067 
L 293.989558 198.763804 
L 295.898488 199.798739 
L 297.703531 201.031632 
L 299.443645 202.491778 
L 301.151294 204.218522 
L 302.852449 206.260788 
L 304.560098 208.665478 
L 306.287226 211.489492 
L 308.046818 214.802204 
L 309.845368 218.673426 
L 311.682876 223.166807 
L 313.572328 228.388208 
L 315.507231 234.402427 
L 317.494077 241.31778 
L 319.545852 249.280741 
L 321.695022 258.536374 
L 324.05846 269.73973 
L 329.376195 295.44495 
L 330.272224 298.420918 
L 330.940999 299.946351 
L 331.453943 300.62569 
L 331.856506 300.830949 
L 332.200633 300.768935 
L 332.564239 300.464388 
L 332.999268 299.784612 
L 333.538183 298.49448 
L 334.219944 296.235702 
L 335.115973 292.423537 
L 336.395086 285.903304 
L 339.277961 269.676333 
L 342.056948 254.690313 
L 344.303513 243.77541 
L 346.400739 234.661565 
L 348.407064 226.908166 
L 350.341967 220.295255 
L 352.205446 214.695592 
L 354.003997 209.975322 
L 355.737617 206.03315 
L 357.406308 202.776196 
L 359.01007 200.11906 
L 360.561887 197.966633 
L 362.068254 196.248677 
L 363.535663 194.904417 
L 364.983594 193.873126 
L 366.438017 193.107166 
L 367.918412 192.577457 
L 369.463737 192.261098 
L 371.125935 192.150797 
L 372.976429 192.256174 
L 375.145078 192.610325 
L 377.95653 193.309276 
L 384.358589 195.216805 
L 388.916648 196.419431 
L 393.721439 197.439432 
L 398.487273 198.47109 
L 398.487273 198.47109 
" style="fill:none;stroke:#00bfbf;stroke-linecap:square;stroke-width:1.5;"/>
   </g>
   <g id="patch_9">
    <path d="M 57.6 307.584 
L 57.6 186.624 
" style="fill:none;stroke:#000000;stroke-linecap:square;stroke-linejoin:miter;stroke-width:0.8;"/>
   </g>
   <g id="patch_10">
    <path d="M 414.72 307.584 
L 414.72 186.624 
" style="fill:none;stroke:#000000;stroke-linecap:square;stroke-linejoin:miter;stroke-width:0.8;"/>
   </g>
   <g id="patch_11">
    <path d="M 57.6 307.584 
L 414.72 307.584 
" style="fill:none;stroke:#000000;stroke-linecap:square;stroke-linejoin:miter;stroke-width:0.8;"/>
   </g>
   <g id="patch_12">
    <path d="M 57.6 186.624 
L 414.72 186.624 
" style="fill:none;stroke:#000000;stroke-linecap:square;stroke-linejoin:miter;stroke-width:0.8;"/>
   </g>
   <g id="legend_2">
    <g id="patch_13">
     <path d="M 64.6 302.584 
L 171.917188 302.584 
Q 173.917188 302.584 173.917188 300.584 
L 173.917188 256.584 
Q 173.917188 254.584 171.917188 254.584 
L 64.6 254.584 
Q 62.6 254.584 62.6 256.584 
L 62.6 300.584 
Q 62.6 302.584 64.6 302.584 
z
" style="fill:#ffffff;opacity:0.8;stroke:#cccccc;stroke-linejoin:miter;"/>
    </g>
    <g id="line2d_35">
     <path d="M 66.6 262.726187 
L 86.6 262.726187 
" style="fill:none;stroke:#000000;stroke-linecap:square;stroke-width:1.5;"/>
    </g>
    <g id="line2d_36"/>
    <g id="text_30">
     <!-- [10.  1.] | I |  -->
     <g transform="translate(94.6 266.226187)scale(0.1 -0.1)">
      <use xlink:href="#DejaVuSans-91"/>
      <use x="39.013672" xlink:href="#DejaVuSans-49"/>
      <use x="102.636719" xlink:href="#DejaVuSans-48"/>
      <use x="166.259766" xlink:href="#DejaVuSans-46"/>
      <use x="198.046875" xlink:href="#DejaVuSans-32"/>
      <use x="229.833984" xlink:href="#DejaVuSans-32"/>
      <use x="261.621094" xlink:href="#DejaVuSans-49"/>
      <use x="325.244141" xlink:href="#DejaVuSans-46"/>
      <use x="357.03125" xlink:href="#DejaVuSans-93"/>
      <use x="396.044922" xlink:href="#DejaVuSans-32"/>
      <use x="427.832031" xlink:href="#DejaVuSans-124"/>
      <use x="461.523438" xlink:href="#DejaVuSans-32"/>
      <use x="493.310547" xlink:href="#DejaVuSans-73"/>
      <use x="522.802734" xlink:href="#DejaVuSans-32"/>
      <use x="554.589844" xlink:href="#DejaVuSans-124"/>
      <use x="588.28125" xlink:href="#DejaVuSans-32"/>
     </g>
    </g>
    <g id="line2d_37">
     <path d="M 66.6 277.726187 
L 86.6 277.726187 
" style="fill:none;stroke:#ff0000;stroke-linecap:square;stroke-width:1.5;"/>
    </g>
    <g id="line2d_38"/>
    <g id="text_31">
     <!-- [10.  1.] | E |  -->
     <g transform="translate(94.6 281.226187)scale(0.1 -0.1)">
      <use xlink:href="#DejaVuSans-91"/>
      <use x="39.013672" xlink:href="#DejaVuSans-49"/>
      <use x="102.636719" xlink:href="#DejaVuSans-48"/>
      <use x="166.259766" xlink:href="#DejaVuSans-46"/>
      <use x="198.046875" xlink:href="#DejaVuSans-32"/>
      <use x="229.833984" xlink:href="#DejaVuSans-32"/>
      <use x="261.621094" xlink:href="#DejaVuSans-49"/>
      <use x="325.244141" xlink:href="#DejaVuSans-46"/>
      <use x="357.03125" xlink:href="#DejaVuSans-93"/>
      <use x="396.044922" xlink:href="#DejaVuSans-32"/>
      <use x="427.832031" xlink:href="#DejaVuSans-124"/>
      <use x="461.523438" xlink:href="#DejaVuSans-32"/>
      <use x="493.310547" xlink:href="#DejaVuSans-69"/>
      <use x="556.494141" xlink:href="#DejaVuSans-32"/>
      <use x="588.28125" xlink:href="#DejaVuSans-124"/>
      <use x="621.972656" xlink:href="#DejaVuSans-32"/>
     </g>
    </g>
    <g id="line2d_39">
     <path d="M 66.6 292.726187 
L 86.6 292.726187 
" style="fill:none;stroke:#00bfbf;stroke-linecap:square;stroke-width:1.5;"/>
    </g>
    <g id="line2d_40"/>
    <g id="text_32">
     <!-- [10.  1.] | rk4 |  -->
     <g transform="translate(94.6 296.226187)scale(0.1 -0.1)">
      <use xlink:href="#DejaVuSans-91"/>
      <use x="39.013672" xlink:href="#DejaVuSans-49"/>
      <use x="102.636719" xlink:href="#DejaVuSans-48"/>
      <use x="166.259766" xlink:href="#DejaVuSans-46"/>
      <use x="198.046875" xlink:href="#DejaVuSans-32"/>
      <use x="229.833984" xlink:href="#DejaVuSans-32"/>
      <use x="261.621094" xlink:href="#DejaVuSans-49"/>
      <use x="325.244141" xlink:href="#DejaVuSans-46"/>
      <use x="357.03125" xlink:href="#DejaVuSans-93"/>
      <use x="396.044922" xlink:href="#DejaVuSans-32"/>
      <use x="427.832031" xlink:href="#DejaVuSans-124"/>
      <use x="461.523438" xlink:href="#DejaVuSans-32"/>
      <use x="493.310547" xlink:href="#DejaVuSans-114"/>
      <use x="534.423828" xlink:href="#DejaVuSans-107"/>
      <use x="592.333984" xlink:href="#DejaVuSans-52"/>
      <use x="655.957031" xlink:href="#DejaVuSans-32"/>
      <use x="687.744141" xlink:href="#DejaVuSans-124"/>
      <use x="721.435547" xlink:href="#DejaVuSans-32"/>
     </g>
    </g>
   </g>
  </g>
  <g id="text_33">
   <!-- Total energy of the system -->
   <defs>
    <path d="M 37.109375 75.984375 
L 37.109375 68.5 
L 28.515625 68.5 
Q 23.6875 68.5 21.796875 66.546875 
Q 19.921875 64.59375 19.921875 59.515625 
L 19.921875 54.6875 
L 34.71875 54.6875 
L 34.71875 47.703125 
L 19.921875 47.703125 
L 19.921875 0 
L 10.890625 0 
L 10.890625 47.703125 
L 2.296875 47.703125 
L 2.296875 54.6875 
L 10.890625 54.6875 
L 10.890625 58.5 
Q 10.890625 67.625 15.140625 71.796875 
Q 19.390625 75.984375 28.609375 75.984375 
z
" id="DejaVuSans-102"/>
    <path d="M 54.890625 33.015625 
L 54.890625 0 
L 45.90625 0 
L 45.90625 32.71875 
Q 45.90625 40.484375 42.875 44.328125 
Q 39.84375 48.1875 33.796875 48.1875 
Q 26.515625 48.1875 22.3125 43.546875 
Q 18.109375 38.921875 18.109375 30.90625 
L 18.109375 0 
L 9.078125 0 
L 9.078125 75.984375 
L 18.109375 75.984375 
L 18.109375 46.1875 
Q 21.34375 51.125 25.703125 53.5625 
Q 30.078125 56 35.796875 56 
Q 45.21875 56 50.046875 50.171875 
Q 54.890625 44.34375 54.890625 33.015625 
z
" id="DejaVuSans-104"/>
    <path d="M 44.28125 53.078125 
L 44.28125 44.578125 
Q 40.484375 46.53125 36.375 47.5 
Q 32.28125 48.484375 27.875 48.484375 
Q 21.1875 48.484375 17.84375 46.4375 
Q 14.5 44.390625 14.5 40.28125 
Q 14.5 37.15625 16.890625 35.375 
Q 19.28125 33.59375 26.515625 31.984375 
L 29.59375 31.296875 
Q 39.15625 29.25 43.1875 25.515625 
Q 47.21875 21.78125 47.21875 15.09375 
Q 47.21875 7.46875 41.1875 3.015625 
Q 35.15625 -1.421875 24.609375 -1.421875 
Q 20.21875 -1.421875 15.453125 -0.5625 
Q 10.6875 0.296875 5.421875 2 
L 5.421875 11.28125 
Q 10.40625 8.6875 15.234375 7.390625 
Q 20.0625 6.109375 24.8125 6.109375 
Q 31.15625 6.109375 34.5625 8.28125 
Q 37.984375 10.453125 37.984375 14.40625 
Q 37.984375 18.0625 35.515625 20.015625 
Q 33.0625 21.96875 24.703125 23.78125 
L 21.578125 24.515625 
Q 13.234375 26.265625 9.515625 29.90625 
Q 5.8125 33.546875 5.8125 39.890625 
Q 5.8125 47.609375 11.28125 51.796875 
Q 16.75 56 26.8125 56 
Q 31.78125 56 36.171875 55.265625 
Q 40.578125 54.546875 44.28125 53.078125 
z
" id="DejaVuSans-115"/>
   </defs>
   <g transform="translate(150.531563 16.030125)scale(0.12 -0.12)">
    <use xlink:href="#DejaVuSans-84"/>
    <use x="44.083984" xlink:href="#DejaVuSans-111"/>
    <use x="105.265625" xlink:href="#DejaVuSans-116"/>
    <use x="144.474609" xlink:href="#DejaVuSans-97"/>
    <use x="205.753906" xlink:href="#DejaVuSans-108"/>
    <use x="233.537109" xlink:href="#DejaVuSans-32"/>
    <use x="265.324219" xlink:href="#DejaVuSans-101"/>
    <use x="326.847656" xlink:href="#DejaVuSans-110"/>
    <use x="390.226562" xlink:href="#DejaVuSans-101"/>
    <use x="451.75" xlink:href="#DejaVuSans-114"/>
    <use x="491.113281" xlink:href="#DejaVuSans-103"/>
    <use x="554.589844" xlink:href="#DejaVuSans-121"/>
    <use x="613.769531" xlink:href="#DejaVuSans-32"/>
    <use x="645.556641" xlink:href="#DejaVuSans-111"/>
    <use x="706.738281" xlink:href="#DejaVuSans-102"/>
    <use x="741.943359" xlink:href="#DejaVuSans-32"/>
    <use x="773.730469" xlink:href="#DejaVuSans-116"/>
    <use x="812.939453" xlink:href="#DejaVuSans-104"/>
    <use x="876.318359" xlink:href="#DejaVuSans-101"/>
    <use x="937.841797" xlink:href="#DejaVuSans-32"/>
    <use x="969.628906" xlink:href="#DejaVuSans-115"/>
    <use x="1021.728516" xlink:href="#DejaVuSans-121"/>
    <use x="1080.908203" xlink:href="#DejaVuSans-115"/>
    <use x="1133.007812" xlink:href="#DejaVuSans-116"/>
    <use x="1172.216797" xlink:href="#DejaVuSans-101"/>
    <use x="1233.740234" xlink:href="#DejaVuSans-109"/>
   </g>
  </g>
 </g>
 <defs>
  <clipPath id="pea883da577">
   <rect height="120.96" width="357.12" x="57.6" y="41.472"/>
  </clipPath>
  <clipPath id="pd1896515c2">
   <rect height="120.96" width="357.12" x="57.6" y="186.624"/>
  </clipPath>
 </defs>
</svg>
