<?xml version="1.0" encoding="utf-8" standalone="no"?>
<!DOCTYPE svg PUBLIC "-//W3C//DTD SVG 1.1//EN"
  "http://www.w3.org/Graphics/SVG/1.1/DTD/svg11.dtd">
<!-- Created with matplotlib (https://matplotlib.org/) -->
<svg height="345.6pt" version="1.1" viewBox="0 0 460.8 345.6" width="460.8pt" xmlns="http://www.w3.org/2000/svg" xmlns:xlink="http://www.w3.org/1999/xlink">
 <defs>
  <style type="text/css">
*{stroke-linecap:butt;stroke-linejoin:round;}
  </style>
 </defs>
 <g id="figure_1">
  <g id="patch_1">
   <path d="M 0 345.6 
L 460.8 345.6 
L 460.8 0 
L 0 0 
z
" style="fill:#ffffff;"/>
  </g>
  <g id="axes_1">
   <g id="patch_2">
    <path d="M 57.6 307.584 
L 414.72 307.584 
L 414.72 41.472 
L 57.6 41.472 
z
" style="fill:#ffffff;"/>
   </g>
   <g id="matplotlib.axis_1">
    <g id="xtick_1">
     <g id="line2d_1">
      <defs>
       <path d="M 0 0 
L 0 3.5 
" id="md13f93ef33" style="stroke:#000000;stroke-width:0.8;"/>
      </defs>
      <g>
       <use style="stroke:#000000;stroke-width:0.8;" x="95.645082" xlink:href="#md13f93ef33" y="307.584"/>
      </g>
     </g>
     <g id="text_1">
      <!-- −1.0 -->
      <defs>
       <path d="M 10.59375 35.5 
L 73.1875 35.5 
L 73.1875 27.203125 
L 10.59375 27.203125 
z
" id="DejaVuSans-8722"/>
       <path d="M 12.40625 8.296875 
L 28.515625 8.296875 
L 28.515625 63.921875 
L 10.984375 60.40625 
L 10.984375 69.390625 
L 28.421875 72.90625 
L 38.28125 72.90625 
L 38.28125 8.296875 
L 54.390625 8.296875 
L 54.390625 0 
L 12.40625 0 
z
" id="DejaVuSans-49"/>
       <path d="M 10.6875 12.40625 
L 21 12.40625 
L 21 0 
L 10.6875 0 
z
" id="DejaVuSans-46"/>
       <path d="M 31.78125 66.40625 
Q 24.171875 66.40625 20.328125 58.90625 
Q 16.5 51.421875 16.5 36.375 
Q 16.5 21.390625 20.328125 13.890625 
Q 24.171875 6.390625 31.78125 6.390625 
Q 39.453125 6.390625 43.28125 13.890625 
Q 47.125 21.390625 47.125 36.375 
Q 47.125 51.421875 43.28125 58.90625 
Q 39.453125 66.40625 31.78125 66.40625 
z
M 31.78125 74.21875 
Q 44.046875 74.21875 50.515625 64.515625 
Q 56.984375 54.828125 56.984375 36.375 
Q 56.984375 17.96875 50.515625 8.265625 
Q 44.046875 -1.421875 31.78125 -1.421875 
Q 19.53125 -1.421875 13.0625 8.265625 
Q 6.59375 17.96875 6.59375 36.375 
Q 6.59375 54.828125 13.0625 64.515625 
Q 19.53125 74.21875 31.78125 74.21875 
z
" id="DejaVuSans-48"/>
      </defs>
      <g transform="translate(83.503675 322.182437)scale(0.1 -0.1)">
       <use xlink:href="#DejaVuSans-8722"/>
       <use x="83.789062" xlink:href="#DejaVuSans-49"/>
       <use x="147.412109" xlink:href="#DejaVuSans-46"/>
       <use x="179.199219" xlink:href="#DejaVuSans-48"/>
      </g>
     </g>
    </g>
    <g id="xtick_2">
     <g id="line2d_2">
      <g>
       <use style="stroke:#000000;stroke-width:0.8;" x="157.022752" xlink:href="#md13f93ef33" y="307.584"/>
      </g>
     </g>
     <g id="text_2">
      <!-- −0.5 -->
      <defs>
       <path d="M 10.796875 72.90625 
L 49.515625 72.90625 
L 49.515625 64.59375 
L 19.828125 64.59375 
L 19.828125 46.734375 
Q 21.96875 47.46875 24.109375 47.828125 
Q 26.265625 48.1875 28.421875 48.1875 
Q 40.625 48.1875 47.75 41.5 
Q 54.890625 34.8125 54.890625 23.390625 
Q 54.890625 11.625 47.5625 5.09375 
Q 40.234375 -1.421875 26.90625 -1.421875 
Q 22.3125 -1.421875 17.546875 -0.640625 
Q 12.796875 0.140625 7.71875 1.703125 
L 7.71875 11.625 
Q 12.109375 9.234375 16.796875 8.0625 
Q 21.484375 6.890625 26.703125 6.890625 
Q 35.15625 6.890625 40.078125 11.328125 
Q 45.015625 15.765625 45.015625 23.390625 
Q 45.015625 31 40.078125 35.4375 
Q 35.15625 39.890625 26.703125 39.890625 
Q 22.75 39.890625 18.8125 39.015625 
Q 14.890625 38.140625 10.796875 36.28125 
z
" id="DejaVuSans-53"/>
      </defs>
      <g transform="translate(144.881346 322.182437)scale(0.1 -0.1)">
       <use xlink:href="#DejaVuSans-8722"/>
       <use x="83.789062" xlink:href="#DejaVuSans-48"/>
       <use x="147.412109" xlink:href="#DejaVuSans-46"/>
       <use x="179.199219" xlink:href="#DejaVuSans-53"/>
      </g>
     </g>
    </g>
    <g id="xtick_3">
     <g id="line2d_3">
      <g>
       <use style="stroke:#000000;stroke-width:0.8;" x="218.400423" xlink:href="#md13f93ef33" y="307.584"/>
      </g>
     </g>
     <g id="text_3">
      <!-- 0.0 -->
      <g transform="translate(210.44886 322.182437)scale(0.1 -0.1)">
       <use xlink:href="#DejaVuSans-48"/>
       <use x="63.623047" xlink:href="#DejaVuSans-46"/>
       <use x="95.410156" xlink:href="#DejaVuSans-48"/>
      </g>
     </g>
    </g>
    <g id="xtick_4">
     <g id="line2d_4">
      <g>
       <use style="stroke:#000000;stroke-width:0.8;" x="279.778094" xlink:href="#md13f93ef33" y="307.584"/>
      </g>
     </g>
     <g id="text_4">
      <!-- 0.5 -->
      <g transform="translate(271.826531 322.182437)scale(0.1 -0.1)">
       <use xlink:href="#DejaVuSans-48"/>
       <use x="63.623047" xlink:href="#DejaVuSans-46"/>
       <use x="95.410156" xlink:href="#DejaVuSans-53"/>
      </g>
     </g>
    </g>
    <g id="xtick_5">
     <g id="line2d_5">
      <g>
       <use style="stroke:#000000;stroke-width:0.8;" x="341.155764" xlink:href="#md13f93ef33" y="307.584"/>
      </g>
     </g>
     <g id="text_5">
      <!-- 1.0 -->
      <g transform="translate(333.204202 322.182437)scale(0.1 -0.1)">
       <use xlink:href="#DejaVuSans-49"/>
       <use x="63.623047" xlink:href="#DejaVuSans-46"/>
       <use x="95.410156" xlink:href="#DejaVuSans-48"/>
      </g>
     </g>
    </g>
    <g id="xtick_6">
     <g id="line2d_6">
      <g>
       <use style="stroke:#000000;stroke-width:0.8;" x="402.533435" xlink:href="#md13f93ef33" y="307.584"/>
      </g>
     </g>
     <g id="text_6">
      <!-- 1.5 -->
      <g transform="translate(394.581872 322.182437)scale(0.1 -0.1)">
       <use xlink:href="#DejaVuSans-49"/>
       <use x="63.623047" xlink:href="#DejaVuSans-46"/>
       <use x="95.410156" xlink:href="#DejaVuSans-53"/>
      </g>
     </g>
    </g>
    <g id="text_7">
     <!-- X-axis -->
     <defs>
      <path d="M 6.296875 72.90625 
L 16.890625 72.90625 
L 35.015625 45.796875 
L 53.21875 72.90625 
L 63.8125 72.90625 
L 40.375 37.890625 
L 65.375 0 
L 54.78125 0 
L 34.28125 31 
L 13.625 0 
L 2.984375 0 
L 29 38.921875 
z
" id="DejaVuSans-88"/>
      <path d="M 4.890625 31.390625 
L 31.203125 31.390625 
L 31.203125 23.390625 
L 4.890625 23.390625 
z
" id="DejaVuSans-45"/>
      <path d="M 34.28125 27.484375 
Q 23.390625 27.484375 19.1875 25 
Q 14.984375 22.515625 14.984375 16.5 
Q 14.984375 11.71875 18.140625 8.90625 
Q 21.296875 6.109375 26.703125 6.109375 
Q 34.1875 6.109375 38.703125 11.40625 
Q 43.21875 16.703125 43.21875 25.484375 
L 43.21875 27.484375 
z
M 52.203125 31.203125 
L 52.203125 0 
L 43.21875 0 
L 43.21875 8.296875 
Q 40.140625 3.328125 35.546875 0.953125 
Q 30.953125 -1.421875 24.3125 -1.421875 
Q 15.921875 -1.421875 10.953125 3.296875 
Q 6 8.015625 6 15.921875 
Q 6 25.140625 12.171875 29.828125 
Q 18.359375 34.515625 30.609375 34.515625 
L 43.21875 34.515625 
L 43.21875 35.40625 
Q 43.21875 41.609375 39.140625 45 
Q 35.0625 48.390625 27.6875 48.390625 
Q 23 48.390625 18.546875 47.265625 
Q 14.109375 46.140625 10.015625 43.890625 
L 10.015625 52.203125 
Q 14.9375 54.109375 19.578125 55.046875 
Q 24.21875 56 28.609375 56 
Q 40.484375 56 46.34375 49.84375 
Q 52.203125 43.703125 52.203125 31.203125 
z
" id="DejaVuSans-97"/>
      <path d="M 54.890625 54.6875 
L 35.109375 28.078125 
L 55.90625 0 
L 45.3125 0 
L 29.390625 21.484375 
L 13.484375 0 
L 2.875 0 
L 24.125 28.609375 
L 4.6875 54.6875 
L 15.28125 54.6875 
L 29.78125 35.203125 
L 44.28125 54.6875 
z
" id="DejaVuSans-120"/>
      <path d="M 9.421875 54.6875 
L 18.40625 54.6875 
L 18.40625 0 
L 9.421875 0 
z
M 9.421875 75.984375 
L 18.40625 75.984375 
L 18.40625 64.59375 
L 9.421875 64.59375 
z
" id="DejaVuSans-105"/>
      <path d="M 44.28125 53.078125 
L 44.28125 44.578125 
Q 40.484375 46.53125 36.375 47.5 
Q 32.28125 48.484375 27.875 48.484375 
Q 21.1875 48.484375 17.84375 46.4375 
Q 14.5 44.390625 14.5 40.28125 
Q 14.5 37.15625 16.890625 35.375 
Q 19.28125 33.59375 26.515625 31.984375 
L 29.59375 31.296875 
Q 39.15625 29.25 43.1875 25.515625 
Q 47.21875 21.78125 47.21875 15.09375 
Q 47.21875 7.46875 41.1875 3.015625 
Q 35.15625 -1.421875 24.609375 -1.421875 
Q 20.21875 -1.421875 15.453125 -0.5625 
Q 10.6875 0.296875 5.421875 2 
L 5.421875 11.28125 
Q 10.40625 8.6875 15.234375 7.390625 
Q 20.0625 6.109375 24.8125 6.109375 
Q 31.15625 6.109375 34.5625 8.28125 
Q 37.984375 10.453125 37.984375 14.40625 
Q 37.984375 18.0625 35.515625 20.015625 
Q 33.0625 21.96875 24.703125 23.78125 
L 21.578125 24.515625 
Q 13.234375 26.265625 9.515625 29.90625 
Q 5.8125 33.546875 5.8125 39.890625 
Q 5.8125 47.609375 11.28125 51.796875 
Q 16.75 56 26.8125 56 
Q 31.78125 56 36.171875 55.265625 
Q 40.578125 54.546875 44.28125 53.078125 
z
" id="DejaVuSans-115"/>
     </defs>
     <g transform="translate(221.163906 335.860562)scale(0.1 -0.1)">
      <use xlink:href="#DejaVuSans-88"/>
      <use x="63.505859" xlink:href="#DejaVuSans-45"/>
      <use x="99.589844" xlink:href="#DejaVuSans-97"/>
      <use x="160.869141" xlink:href="#DejaVuSans-120"/>
      <use x="220.048828" xlink:href="#DejaVuSans-105"/>
      <use x="247.832031" xlink:href="#DejaVuSans-115"/>
     </g>
    </g>
   </g>
   <g id="matplotlib.axis_2">
    <g id="ytick_1">
     <g id="line2d_7">
      <defs>
       <path d="M 0 0 
L -3.5 0 
" id="m435438eca5" style="stroke:#000000;stroke-width:0.8;"/>
      </defs>
      <g>
       <use style="stroke:#000000;stroke-width:0.8;" x="57.6" xlink:href="#m435438eca5" y="275.035809"/>
      </g>
     </g>
     <g id="text_8">
      <!-- −1.0 -->
      <g transform="translate(26.317187 278.835028)scale(0.1 -0.1)">
       <use xlink:href="#DejaVuSans-8722"/>
       <use x="83.789062" xlink:href="#DejaVuSans-49"/>
       <use x="147.412109" xlink:href="#DejaVuSans-46"/>
       <use x="179.199219" xlink:href="#DejaVuSans-48"/>
      </g>
     </g>
    </g>
    <g id="ytick_2">
     <g id="line2d_8">
      <g>
       <use style="stroke:#000000;stroke-width:0.8;" x="57.6" xlink:href="#m435438eca5" y="230.741805"/>
      </g>
     </g>
     <g id="text_9">
      <!-- −0.5 -->
      <g transform="translate(26.317187 234.541023)scale(0.1 -0.1)">
       <use xlink:href="#DejaVuSans-8722"/>
       <use x="83.789062" xlink:href="#DejaVuSans-48"/>
       <use x="147.412109" xlink:href="#DejaVuSans-46"/>
       <use x="179.199219" xlink:href="#DejaVuSans-53"/>
      </g>
     </g>
    </g>
    <g id="ytick_3">
     <g id="line2d_9">
      <g>
       <use style="stroke:#000000;stroke-width:0.8;" x="57.6" xlink:href="#m435438eca5" y="186.4478"/>
      </g>
     </g>
     <g id="text_10">
      <!-- 0.0 -->
      <g transform="translate(34.696875 190.247018)scale(0.1 -0.1)">
       <use xlink:href="#DejaVuSans-48"/>
       <use x="63.623047" xlink:href="#DejaVuSans-46"/>
       <use x="95.410156" xlink:href="#DejaVuSans-48"/>
      </g>
     </g>
    </g>
    <g id="ytick_4">
     <g id="line2d_10">
      <g>
       <use style="stroke:#000000;stroke-width:0.8;" x="57.6" xlink:href="#m435438eca5" y="142.153795"/>
      </g>
     </g>
     <g id="text_11">
      <!-- 0.5 -->
      <g transform="translate(34.696875 145.953014)scale(0.1 -0.1)">
       <use xlink:href="#DejaVuSans-48"/>
       <use x="63.623047" xlink:href="#DejaVuSans-46"/>
       <use x="95.410156" xlink:href="#DejaVuSans-53"/>
      </g>
     </g>
    </g>
    <g id="ytick_5">
     <g id="line2d_11">
      <g>
       <use style="stroke:#000000;stroke-width:0.8;" x="57.6" xlink:href="#m435438eca5" y="97.85979"/>
      </g>
     </g>
     <g id="text_12">
      <!-- 1.0 -->
      <g transform="translate(34.696875 101.659009)scale(0.1 -0.1)">
       <use xlink:href="#DejaVuSans-49"/>
       <use x="63.623047" xlink:href="#DejaVuSans-46"/>
       <use x="95.410156" xlink:href="#DejaVuSans-48"/>
      </g>
     </g>
    </g>
    <g id="ytick_6">
     <g id="line2d_12">
      <g>
       <use style="stroke:#000000;stroke-width:0.8;" x="57.6" xlink:href="#m435438eca5" y="53.565785"/>
      </g>
     </g>
     <g id="text_13">
      <!-- 1.5 -->
      <g transform="translate(34.696875 57.365004)scale(0.1 -0.1)">
       <use xlink:href="#DejaVuSans-49"/>
       <use x="63.623047" xlink:href="#DejaVuSans-46"/>
       <use x="95.410156" xlink:href="#DejaVuSans-53"/>
      </g>
     </g>
    </g>
    <g id="text_14">
     <!-- Y-axis -->
     <defs>
      <path d="M -0.203125 72.90625 
L 10.40625 72.90625 
L 30.609375 42.921875 
L 50.6875 72.90625 
L 61.28125 72.90625 
L 35.5 34.71875 
L 35.5 0 
L 25.59375 0 
L 25.59375 34.71875 
z
" id="DejaVuSans-89"/>
     </defs>
     <g transform="translate(20.2375 188.80925)rotate(-90)scale(0.1 -0.1)">
      <use xlink:href="#DejaVuSans-89"/>
      <use x="49.208984" xlink:href="#DejaVuSans-45"/>
      <use x="85.292969" xlink:href="#DejaVuSans-97"/>
      <use x="146.572266" xlink:href="#DejaVuSans-120"/>
      <use x="205.751953" xlink:href="#DejaVuSans-105"/>
      <use x="233.535156" xlink:href="#DejaVuSans-115"/>
     </g>
    </g>
   </g>
   <g id="line2d_13">
    <path clip-path="url(#p086e70b1cf)" d="M 217.786656 53.568 
L 217.897761 53.588773 
L 218.845221 53.876945 
L 219.937272 54.447156 
L 221.138473 55.332563 
L 222.447617 56.582222 
L 223.874135 58.260554 
L 225.436457 60.453563 
L 227.14765 63.251361 
L 229.037977 66.782811 
L 231.142759 71.202067 
L 233.532621 76.755538 
L 236.353846 83.899391 
L 240.034064 93.869068 
L 250.54649 122.698983 
L 253.824351 130.830518 
L 256.838265 137.723789 
L 259.763594 143.865436 
L 262.70467 149.526351 
L 265.761373 154.926608 
L 269.009923 160.213576 
L 272.596417 165.622831 
L 276.756397 171.485391 
L 282.02201 178.50106 
L 292.124738 191.493621 
L 299.870304 201.645389 
L 305.439897 209.307587 
L 310.249932 216.299329 
L 314.516636 222.888536 
L 318.372983 229.249346 
L 321.838019 235.39043 
L 324.908117 241.277009 
L 327.607232 246.925126 
L 329.934812 252.304892 
L 331.874473 257.33685 
L 333.45383 262.043347 
L 334.668244 266.348271 
L 335.549177 270.2797 
L 336.109364 273.769157 
L 336.391418 276.902471 
L 336.419675 279.668959 
L 336.227406 282.064435 
L 335.836923 284.178901 
L 335.273283 286.011119 
L 334.549482 287.604199 
L 333.691435 288.962141 
L 332.671445 290.15671 
L 331.49784 291.182902 
L 330.144416 292.062841 
L 328.615786 292.78875 
L 326.872766 293.37146 
L 324.864117 293.809391 
L 322.52895 294.088878 
L 319.799677 294.185467 
L 316.669301 294.070492 
L 313.007282 293.708673 
L 308.742353 293.056848 
L 303.806572 292.070632 
L 298.136164 290.705882 
L 291.599803 288.898051 
L 284.214865 286.620488 
L 275.934727 283.829636 
L 266.938902 280.559636 
L 257.48602 276.885142 
L 247.978871 272.951538 
L 238.739894 268.889629 
L 230.076635 264.841546 
L 222.071956 260.860867 
L 214.732073 256.967773 
L 207.993789 253.14512 
L 201.856701 249.410035 
L 196.313775 245.781312 
L 191.239577 242.197494 
L 186.629841 238.672896 
L 182.425308 235.179862 
L 178.620748 231.731473 
L 175.206649 228.341414 
L 172.129572 224.977629 
L 169.38261 221.651497 
L 166.923015 218.32724 
L 164.748949 215.014451 
L 162.881964 211.770655 
L 161.261 208.509856 
L 159.907325 205.288754 
L 158.811311 202.115987 
L 157.950681 198.95169 
L 157.323766 195.803996 
L 156.927613 192.680878 
L 156.758081 189.590057 
L 156.812429 186.493017 
L 157.088527 183.44413 
L 157.588007 180.405926 
L 158.312072 177.387539 
L 159.260676 174.398063 
L 160.432564 171.446457 
L 161.82534 168.541458 
L 163.458929 165.653146 
L 165.310564 162.830787 
L 167.402863 160.046787 
L 169.736127 157.313151 
L 172.309143 154.641649 
L 175.11927 152.043711 
L 178.199295 149.501641 
L 181.510836 147.058178 
L 185.087393 144.698256 
L 188.884354 142.4599 
L 192.936044 140.33049 
L 197.236984 138.323641 
L 201.735566 136.469699 
L 206.467618 134.759699 
L 211.425477 133.205276 
L 216.601052 131.817491 
L 221.938107 130.616691 
L 227.475282 129.599528 
L 233.155825 128.782025 
L 239.020018 128.16428 
L 245.01119 127.758606 
L 251.121653 127.569642 
L 257.294818 127.601249 
L 263.573297 127.856499 
L 269.901328 128.336771 
L 276.272881 129.043448 
L 282.682132 129.978557 
L 289.07418 131.135012 
L 295.492527 132.522439 
L 301.882315 134.131574 
L 308.237657 135.961755 
L 314.552224 138.012829 
L 320.771431 140.266918 
L 326.888866 142.719694 
L 332.89749 145.367201 
L 338.789445 148.205813 
L 344.51042 151.207346 
L 350.052507 154.363761 
L 355.40679 157.667278 
L 360.520226 161.080602 
L 365.384295 164.591542 
L 369.989308 168.188127 
L 374.285066 171.824084 
L 378.226033 175.447167 
L 381.84436 179.074202 
L 385.063871 182.611642 
L 387.920023 186.07544 
L 390.383658 189.40461 
L 392.491093 192.618556 
L 394.248521 195.698279 
L 395.666731 198.625312 
L 396.778074 201.42688 
L 397.594224 204.088433 
L 398.133094 206.596397 
L 398.422777 208.984773 
L 398.480406 211.290016 
L 398.316413 213.503884 
L 397.936055 215.665147 
L 397.330647 217.812686 
L 396.497071 219.939422 
L 395.41196 222.083236 
L 394.067377 224.236385 
L 392.425994 226.434489 
L 390.476283 228.668653 
L 388.168809 230.97146 
L 385.442564 233.372151 
L 382.277795 235.858007 
L 378.605769 238.454266 
L 374.407528 241.146317 
L 369.607848 243.9546 
L 364.18841 246.861334 
L 358.202446 249.816353 
L 351.57759 252.83451 
L 344.449769 255.836059 
L 336.753473 258.832847 
L 328.643574 261.749453 
L 320.138461 264.571242 
L 311.336124 267.25739 
L 302.184836 269.816079 
L 292.791818 272.210946 
L 283.111294 274.449968 
L 273.020934 276.553792 
L 262.483873 278.521226 
L 251.314833 280.378112 
L 239.113695 282.177203 
L 225.065572 284.016267 
L 206.545634 286.199309 
L 155.189029 292.145354 
L 134.24301 294.576221 
L 126.592851 295.242576 
L 121.501262 295.47567 
L 117.764119 295.433391 
L 114.9447 295.189688 
L 112.723574 294.785174 
L 110.918645 294.238112 
L 109.417598 293.553966 
L 108.158772 292.738411 
L 107.069911 291.767571 
L 106.120823 290.622297 
L 105.274838 289.247766 
L 104.514035 287.571393 
L 103.845009 285.54025 
L 103.2614 283.028494 
L 102.778777 279.934671 
L 102.410072 276.078746 
L 102.182235 271.278705 
L 102.130525 265.322902 
L 102.296829 258.113018 
L 102.717743 249.67987 
L 103.408337 240.347449 
L 104.33646 230.812595 
L 105.435395 221.783896 
L 106.656167 213.565926 
L 107.966417 206.230517 
L 109.370361 199.61497 
L 110.867992 193.609769 
L 112.483098 188.042877 
L 114.214611 182.864658 
L 116.0748 177.994578 
L 118.082291 173.358391 
L 120.24598 168.921889 
L 122.558148 164.687123 
L 125.028614 160.623418 
L 127.670788 156.703002 
L 130.501925 152.90129 
L 133.492679 149.255962 
L 136.686074 145.71504 
L 140.050635 142.31608 
L 143.606622 139.039606 
L 147.347569 135.894881 
L 151.265781 132.890449 
L 155.385291 130.012268 
L 159.665937 127.291866 
L 164.132134 124.716445 
L 168.775887 122.295674 
L 173.588687 120.038508 
L 178.561731 117.95319 
L 183.686145 116.047293 
L 188.915609 114.339223 
L 194.278488 112.82094 
L 199.766987 111.498452 
L 205.37387 110.37746 
L 211.053818 109.468914 
L 216.839385 108.76987 
L 222.68656 108.288377 
L 228.590815 108.02583 
L 234.548504 107.984037 
L 240.55676 108.165346 
L 246.574015 108.569386 
L 252.637832 109.200369 
L 258.707435 110.056603 
L 264.78154 111.139178 
L 270.819362 112.44083 
L 276.858803 113.970685 
L 282.858412 115.720155 
L 288.815612 117.689095 
L 294.727082 119.877937 
L 300.54932 122.270606 
L 306.277484 124.863478 
L 311.944903 127.673161 
L 317.505643 130.679062 
L 322.952251 133.877305 
L 328.238394 137.238451 
L 333.394155 140.779622 
L 338.410258 144.495568 
L 343.240342 148.350197 
L 347.876242 152.332031 
L 352.345008 156.462672 
L 356.601984 160.699302 
L 360.639281 165.028934 
L 364.449201 169.438217 
L 368.024167 173.913501 
L 371.356501 178.440874 
L 374.411002 182.963267 
L 377.184684 187.462174 
L 379.675219 191.919289 
L 381.880786 196.316508 
L 383.800096 200.635933 
L 385.414959 204.810807 
L 386.748392 208.870855 
L 387.790434 212.748429 
L 388.563206 216.476431 
L 389.068009 219.987407 
L 389.327817 223.317797 
L 389.356035 226.506859 
L 389.160361 229.543089 
L 388.75257 232.416029 
L 388.13532 235.168483 
L 387.316843 237.791844 
L 386.30997 240.278958 
L 385.1048 242.674012 
L 383.677532 245.019073 
L 382.02686 247.305825 
L 380.114619 249.572747 
L 377.934841 251.809759 
L 375.436243 254.050405 
L 372.609802 256.282407 
L 369.393446 258.53369 
L 365.777031 260.789771 
L 361.690299 263.072664 
L 357.123529 265.365613 
L 352.000594 267.684245 
L 346.313328 270.008838 
L 340.058538 272.320583 
L 333.237289 274.601069 
L 325.854509 276.831778 
L 317.918919 278.993573 
L 309.526315 281.047773 
L 300.696871 282.979755 
L 291.454335 284.774908 
L 281.741922 286.432817 
L 271.676271 287.924211 
L 261.210114 289.250172 
L 250.218369 290.417712 
L 238.587095 291.427807 
L 226.054713 292.289818 
L 212.151599 293.017654 
L 196.085187 293.629227 
L 176.01554 294.16024 
L 153.137405 294.546832 
L 137.96018 294.603685 
L 128.473817 294.431722 
L 121.668503 294.097094 
L 116.549971 293.633322 
L 112.531718 293.054223 
L 109.310439 292.373032 
L 106.67029 291.595746 
L 104.431052 290.708915 
L 102.519278 289.714676 
L 100.87039 288.610735 
L 99.402808 287.36293 
L 98.082032 285.948176 
L 96.88206 284.337372 
L 95.766555 282.46265 
L 94.731319 280.278823 
L 93.763227 277.701486 
L 92.871095 274.679088 
L 92.0475 271.081658 
L 91.306309 266.817313 
L 90.666074 261.801054 
L 90.149834 255.958645 
L 89.789959 249.317542 
L 89.618397 242.007364 
L 89.659717 234.294609 
L 89.92306 226.480195 
L 90.401715 218.845872 
L 91.079257 211.568173 
L 91.936413 204.726593 
L 92.966168 198.271641 
L 94.165264 192.156152 
L 95.523112 186.375429 
L 97.048875 180.84739 
L 98.734078 175.571888 
L 100.581732 170.511331 
L 102.598031 165.630895 
L 104.792622 160.898679 
L 107.159814 156.320705 
L 108.452444 154.009992 
L 108.452444 154.009992 
" style="fill:none;stroke:#0000ff;stroke-linecap:square;stroke-width:1.5;"/>
   </g>
   <g id="line2d_14">
    <path clip-path="url(#p086e70b1cf)" d="M 217.786656 53.568 
L 217.897694 53.588793 
L 218.844972 53.877124 
L 219.936243 54.447145 
L 221.136402 55.331892 
L 222.447252 56.583422 
L 223.876644 58.265934 
L 225.438789 60.459831 
L 227.149712 63.258251 
L 229.039707 66.789993 
L 231.14413 71.20915 
L 233.539991 76.777516 
L 236.361508 83.923168 
L 240.050127 93.916168 
L 250.534706 122.667663 
L 253.82328 130.82671 
L 256.836468 137.718765 
L 259.76091 143.859364 
L 262.700963 149.519311 
L 265.756535 154.918599 
L 269.003913 160.204516 
L 272.589275 165.612529 
L 276.748295 171.473486 
L 281.985412 178.450336 
L 291.845623 191.124275 
L 299.744082 201.457032 
L 305.348753 209.151611 
L 310.16453 216.135555 
L 314.466412 222.763034 
L 318.328965 229.118367 
L 321.800668 235.254351 
L 324.902214 241.184928 
L 327.606989 246.82957 
L 329.94042 252.206157 
L 331.886079 257.235294 
L 333.471668 261.939347 
L 334.692519 266.242291 
L 335.580208 270.172253 
L 336.147401 273.660854 
L 336.436912 276.79398 
L 336.473066 279.561037 
L 336.289042 281.957885 
L 335.907348 284.074603 
L 335.352895 285.909968 
L 334.638673 287.507119 
L 333.790339 288.869946 
L 332.780438 290.070356 
L 331.617025 291.103219 
L 330.273872 291.990668 
L 328.755275 292.7247 
L 327.022012 293.316109 
L 325.022789 293.763269 
L 322.696638 294.052444 
L 319.975892 294.159078 
L 316.853352 294.054208 
L 313.198673 293.702696 
L 308.940639 293.061347 
L 304.011417 292.085808 
L 298.347371 290.732027 
L 291.817379 288.935735 
L 284.438839 286.67033 
L 276.165175 283.892486 
L 267.175706 280.636269 
L 257.728766 276.976205 
L 248.226739 273.057344 
L 238.99172 269.010243 
L 230.262402 264.943761 
L 222.193297 260.941686 
L 214.791298 257.024225 
L 208.05698 253.211316 
L 201.922928 249.485747 
L 196.323794 245.826724 
L 191.253466 242.250852 
L 186.646863 238.73414 
L 182.444734 235.249005 
L 178.641825 231.808509 
L 175.228626 228.426307 
L 172.151709 225.070414 
L 169.367778 221.70576 
L 166.910417 218.388924 
L 164.737911 215.083737 
L 162.846169 211.799848 
L 161.22903 208.546749 
L 159.878476 205.333574 
L 158.770113 202.121026 
L 157.914762 198.965337 
L 157.292401 195.826638 
L 156.900055 192.712881 
L 156.733575 189.631754 
L 156.790249 186.54487 
L 157.067912 183.506426 
L 157.568223 180.479089 
L 158.292388 177.47198 
L 159.240373 174.494182 
L 160.41095 171.554648 
L 161.801758 168.662111 
L 163.432727 165.786834 
L 165.281172 162.977921 
L 167.369725 160.207983 
L 169.698745 157.489062 
L 172.267088 154.832982 
L 175.072191 152.251237 
L 178.146864 149.726413 
L 181.452872 147.301155 
L 185.023743 144.960726 
L 188.815017 142.743079 
L 192.861039 140.635977 
L 197.112453 138.672303 
L 201.604643 136.842277 
L 206.330627 135.158388 
L 211.282755 133.632515 
L 216.405605 132.287356 
L 221.73703 131.118537 
L 227.220556 130.144142 
L 232.895634 129.363038 
L 238.705518 128.789248 
L 244.641945 128.427406 
L 250.697205 128.282367 
L 256.814698 128.357818 
L 263.03688 128.657321 
L 269.307909 129.181985 
L 275.621611 129.933234 
L 281.972 130.913099 
L 288.304105 132.114037 
L 294.661207 133.546 
L 300.988424 135.199169 
L 307.279797 137.072707 
L 313.52897 139.166245 
L 319.68153 141.4612 
L 325.778224 143.973262 
L 331.764142 146.68119 
L 337.585628 149.557331 
L 343.281225 152.6183 
L 348.79685 155.833652 
L 354.124011 159.195182 
L 359.253055 162.694904 
L 364.131346 166.29318 
L 368.709381 169.944178 
L 372.980746 173.63101 
L 376.938417 177.337061 
L 380.539218 181.008094 
L 383.780726 184.623636 
L 386.661362 188.163529 
L 389.180902 191.60788 
L 391.315267 194.894377 
L 393.101401 198.044447 
L 394.549234 201.039661 
L 395.690046 203.907616 
L 396.521889 206.588013 
L 397.089171 209.158166 
L 397.402284 211.607016 
L 397.477427 213.92455 
L 397.331482 216.148599 
L 396.968424 218.318004 
L 396.39314 220.425875 
L 395.595523 222.511368 
L 394.550754 224.612225 
L 393.248867 226.72028 
L 391.685013 228.827987 
L 389.781641 231.011777 
L 387.560327 233.219335 
L 384.923385 235.521252 
L 381.848841 237.903777 
L 378.266005 240.390691 
L 374.154615 242.966428 
L 369.500346 245.616324 
L 364.228527 248.358602 
L 358.324813 251.174889 
L 351.77892 254.045913 
L 344.656439 256.922615 
L 337.034451 259.75947 
L 328.923776 262.53941 
L 320.415101 265.219531 
L 311.529077 267.783187 
L 302.369181 270.19288 
L 292.965632 272.436618 
L 283.271434 274.520689 
L 273.242538 276.447714 
L 262.840139 278.218668 
L 251.874017 279.857815 
L 240.091477 281.391287 
L 226.883691 282.881143 
L 210.593539 284.483343 
L 139.633562 291.186338 
L 126.322148 292.401371 
L 119.526386 292.811026 
L 114.889012 292.878342 
L 111.515698 292.714209 
L 108.943057 292.374107 
L 106.949634 291.896115 
L 105.325538 291.282832 
L 103.998312 290.545712 
L 102.90648 289.690378 
L 101.963911 288.668258 
L 101.152625 287.451217 
L 100.462364 286.004784 
L 99.880258 284.257512 
L 99.408702 282.124616 
L 99.057569 279.475714 
L 98.852503 276.169337 
L 98.828467 272.063094 
L 99.029242 266.941204 
L 99.507038 260.646089 
L 100.305963 253.141916 
L 101.446969 244.56419 
L 102.895852 235.367085 
L 104.565692 226.181404 
L 106.361562 217.521919 
L 108.219332 209.638115 
L 110.112533 202.557186 
L 112.039966 196.193575 
L 114.022934 190.400907 
L 116.08844 185.047911 
L 118.239987 180.084203 
L 120.496805 175.431163 
L 122.883929 171.01729 
L 125.393543 166.841274 
L 128.057184 162.840049 
L 130.869131 159.017141 
L 133.845536 155.346769 
L 136.980133 151.834437 
L 140.292072 148.458321 
L 143.775542 145.225953 
L 147.423135 142.144185 
L 151.257428 139.196126 
L 155.272189 136.390948 
L 159.460025 133.737126 
L 163.812648 131.242372 
L 168.321129 128.913606 
L 173.012361 126.741108 
L 177.842129 124.749081 
L 182.838377 122.929397 
L 187.955254 121.301975 
L 193.222253 119.860578 
L 198.592936 118.621109 
L 204.098682 117.579662 
L 209.693256 116.748578 
L 215.369941 116.130413 
L 221.122832 115.727852 
L 226.946802 115.543855 
L 232.79672 115.580778 
L 238.709177 115.840503 
L 244.639901 116.323519 
L 250.585568 117.030525 
L 256.54305 117.962988 
L 262.468028 119.114375 
L 268.398229 120.493306 
L 274.288692 122.091479 
L 280.135096 123.90832 
L 285.932496 125.943654 
L 291.634254 128.180632 
L 297.275172 130.633005 
L 302.807508 133.280548 
L 308.224107 136.118017 
L 313.557323 139.16354 
L 318.758508 142.390708 
L 323.819361 145.792871 
L 328.731474 149.36279 
L 333.48644 153.092628 
L 338.075933 156.973968 
L 342.49177 160.997846 
L 346.725938 165.154805 
L 350.770575 169.434954 
L 354.617925 173.828028 
L 358.260228 178.323449 
L 361.689573 182.910366 
L 364.869027 187.53414 
L 367.794657 192.179213 
L 370.46247 196.83013 
L 372.868189 201.471518 
L 374.985815 206.039366 
L 376.816677 210.515073 
L 378.362418 214.880479 
L 379.611241 219.066383 
L 380.585505 223.105513 
L 381.281808 226.928737 
L 381.721027 230.572038 
L 381.912648 234.020792 
L 381.869475 237.261546 
L 381.608483 240.282471 
L 381.140796 243.126346 
L 380.480757 245.78436 
L 379.627941 248.300726 
L 378.592883 250.66823 
L 377.361712 252.93019 
L 375.9401 255.079483 
L 374.299491 257.156189 
L 372.440381 259.151908 
L 370.319646 261.101524 
L 367.933481 262.994487 
L 365.225901 264.859313 
L 362.129096 266.717724 
L 358.630814 268.552219 
L 354.65635 270.377728 
L 350.195967 272.175065 
L 345.246309 273.927875 
L 339.653299 275.667656 
L 333.488934 277.34841 
L 326.675366 278.97117 
L 319.299365 280.496791 
L 311.373231 281.90862 
L 302.912815 283.189242 
L 293.938073 284.320242 
L 284.647837 285.266689 
L 274.986054 286.026949 
L 265.073867 286.584272 
L 254.862336 286.935655 
L 244.308369 287.074214 
L 233.460831 286.993298 
L 222.123492 286.6855 
L 210.040615 286.133107 
L 196.676021 285.295196 
L 180.661881 284.057918 
L 154.487232 281.772571 
L 122.773824 279.074045 
L 99.901326 277.099105 
L 92.39559 276.225411 
L 87.497376 275.444744 
L 83.962058 274.665943 
L 81.354127 273.87365 
L 79.361862 273.044114 
L 77.835909 272.176886 
L 76.634241 271.242749 
L 75.698407 270.235227 
L 74.982629 269.143111 
L 74.435429 267.896744 
L 74.063555 266.490098 
L 73.86184 264.829436 
L 73.856417 262.867649 
L 74.080672 260.523404 
L 74.579752 257.71173 
L 75.416062 254.311824 
L 76.664095 250.205846 
L 78.375315 245.365328 
L 80.589513 239.784258 
L 83.303137 233.556288 
L 86.461964 226.867571 
L 89.979162 219.942398 
L 93.740129 213.025933 
L 97.667857 206.265185 
L 101.689183 199.783995 
L 105.734109 193.683626 
L 109.7784 187.983823 
L 113.799988 182.697343 
L 117.799728 177.803847 
L 121.777878 173.284113 
L 125.758094 169.094526 
L 129.764523 165.197433 
L 133.821789 161.560778 
L 137.927156 158.179871 
L 139.418575 157.022421 
L 139.418575 157.022421 
" style="fill:none;stroke:#000000;stroke-linecap:square;stroke-width:1.5;"/>
   </g>
   <g id="line2d_15">
    <path clip-path="url(#p086e70b1cf)" d="M 217.786656 53.568 
L 217.897663 53.588771 
L 218.844247 53.876684 
L 219.936759 54.447151 
L 221.13744 55.332229 
L 222.445979 56.581275 
L 223.875394 58.263249 
L 225.437629 60.456705 
L 227.148688 63.254817 
L 229.03885 66.786416 
L 231.143453 71.205626 
L 233.533137 76.758826 
L 236.354193 83.902134 
L 240.034256 93.870873 
L 250.546253 122.697878 
L 253.823835 130.828657 
L 256.837388 137.721322 
L 259.762276 143.862446 
L 262.702842 149.522878 
L 265.758982 154.922651 
L 269.006949 160.209094 
L 272.59288 165.617729 
L 276.752382 171.479488 
L 281.989753 178.457492 
L 291.909668 191.211721 
L 299.776662 201.510209 
L 305.379273 209.2083 
L 310.19254 216.195412 
L 314.491577 222.825835 
L 318.351027 229.183908 
L 321.819395 235.322444 
L 324.917385 241.255382 
L 327.618426 246.902155 
L 329.947909 252.280637 
L 331.889428 257.311386 
L 333.470619 262.016746 
L 334.686832 266.320632 
L 335.569563 270.25113 
L 336.13154 273.739803 
L 336.415439 276.872487 
L 336.445611 279.638538 
L 336.255323 282.033799 
L 335.866949 284.148285 
L 335.305528 285.980785 
L 334.584064 287.574423 
L 333.728418 288.933186 
L 332.710956 290.128869 
L 331.539942 291.156447 
L 330.18917 292.03805 
L 328.663174 292.765853 
L 326.922762 293.350681 
L 324.916689 293.790948 
L 322.584054 294.072987 
L 319.857267 294.172335 
L 316.729287 294.06027 
L 313.069652 293.701577 
L 308.807131 293.05312 
L 303.873829 292.070556 
L 298.206025 290.709795 
L 291.672467 288.906411 
L 284.290527 286.633776 
L 276.013591 283.848418 
L 267.021064 280.584422 
L 257.571422 276.916347 
L 248.067245 272.989382 
L 238.830795 268.934181 
L 230.169472 264.892702 
L 222.099081 260.884121 
L 214.761632 256.996005 
L 208.025338 253.178227 
L 201.889773 249.447903 
L 196.289589 245.784202 
L 191.218677 242.203747 
L 186.611946 238.682512 
L 182.410141 235.192884 
L 178.608002 231.747941 
L 175.195999 228.361363 
L 172.120701 225.001129 
L 169.375188 221.67861 
L 166.916718 218.358065 
L 164.74344 215.049079 
L 162.851271 211.761313 
L 161.23405 208.504273 
L 159.883756 205.287107 
L 158.775994 202.070473 
L 157.921572 198.910674 
L 157.300468 195.767794 
L 156.909699 192.649793 
L 156.745105 189.564369 
L 156.803993 186.473077 
L 157.08415 183.430187 
L 157.587257 180.398303 
L 158.314503 177.386548 
L 159.265835 174.404005 
L 160.44 171.459624 
L 161.834608 168.562132 
L 163.469615 165.681712 
L 165.322248 162.867522 
L 167.415158 160.092085 
L 169.748666 157.367413 
L 172.321582 154.705297 
L 175.131302 152.11719 
L 178.210641 149.585548 
L 181.521262 147.153034 
L 185.096697 144.804759 
L 188.89239 142.578681 
L 192.942695 140.462383 
L 197.242173 138.469569 
L 201.739263 136.630533 
L 206.469803 134.936551 
L 211.426146 133.399372 
L 216.600206 132.030176 
L 221.935748 130.849252 
L 227.471375 129.85354 
L 233.150304 129.058989 
L 238.963763 128.470035 
L 244.903603 128.091228 
L 250.962244 127.927353 
L 257.132586 127.983529 
L 263.358486 128.262214 
L 269.682935 128.769047 
L 276.050368 129.504087 
L 282.405612 130.461074 
L 288.792235 131.647504 
L 295.155403 133.05495 
L 301.489511 134.682137 
L 307.788705 136.528327 
L 314.046711 138.593264 
L 320.256673 140.877127 
L 326.363858 143.360391 
L 332.361234 146.038934 
L 338.240988 148.90895 
L 343.948998 151.941814 
L 349.477507 155.129282 
L 354.817798 158.463363 
L 359.917215 161.906297 
L 364.767569 165.445689 
L 369.359584 169.069364 
L 373.643654 172.730629 
L 377.61222 176.413016 
L 381.221423 180.062615 
L 384.468261 183.658989 
L 387.350575 187.181965 
L 389.838936 190.57015 
L 391.969088 193.842997 
L 393.723768 196.937861 
L 395.142414 199.877873 
L 396.257219 202.690633 
L 397.07953 205.361762 
L 397.626699 207.877859 
L 397.926271 210.273202 
L 397.994827 212.584431 
L 397.841974 214.8033 
L 397.472328 216.968612 
L 396.87651 219.119158 
L 396.050451 221.247608 
L 394.99491 223.347228 
L 393.685774 225.455816 
L 392.084705 227.608854 
L 390.178913 229.797205 
L 387.91782 232.053037 
L 385.239232 234.405004 
L 382.122254 236.839858 
L 378.497215 239.382122 
L 374.34451 242.016711 
L 369.650141 244.729287 
L 364.339793 247.538649 
L 358.39903 250.426498 
L 351.887052 253.343427 
L 344.803404 256.272434 
L 337.14994 259.194164 
L 329.082588 262.035418 
L 320.619045 264.780905 
L 311.779445 267.413684 
L 302.666479 269.895489 
L 293.23051 272.23308 
L 283.503651 274.411208 
L 273.442828 276.433525 
L 263.010082 278.3024 
L 251.937812 280.056943 
L 239.977778 281.723043 
L 226.452857 283.376873 
L 209.357283 285.23004 
L 146.821292 291.807927 
L 130.576514 293.500499 
L 123.249023 294.050775 
L 118.342193 294.209157 
L 114.772033 294.113882 
L 112.06086 293.831192 
L 109.903843 293.389864 
L 108.195256 292.82257 
L 106.783774 292.128018 
L 105.584636 291.292176 
L 104.558661 290.303444 
L 103.676426 289.142741 
L 102.903715 287.755181 
L 102.225373 286.068502 
L 101.641508 283.996384 
L 101.16334 281.443071 
L 100.805747 278.270482 
L 100.594591 274.336511 
L 100.562426 269.422054 
L 100.75365 263.361662 
L 101.212627 256.065145 
L 101.970557 247.613797 
L 103.023221 238.375929 
L 104.314017 228.997795 
L 105.760437 220.095627 
L 107.295301 212.00901 
L 108.891396 204.766778 
L 110.551879 198.245127 
L 112.292626 192.296904 
L 114.122796 186.825276 
L 116.053997 181.742748 
L 118.117805 176.935043 
L 120.30627 172.398791 
L 122.625569 168.098029 
L 125.104443 163.967673 
L 127.737112 160.011542 
L 130.53845 156.202789 
L 133.502201 152.547113 
L 136.646372 149.021451 
L 139.965217 145.633439 
L 143.480366 142.364296 
L 147.156627 139.248469 
L 151.015495 136.268193 
L 155.04959 133.431971 
L 159.284161 130.727106 
L 163.67847 128.183816 
L 168.258156 125.790747 
L 172.979423 123.573756 
L 177.868905 121.522911 
L 182.918435 119.646638 
L 188.119778 117.952764 
L 193.426433 116.458575 
L 198.86822 115.157886 
L 204.398852 114.064169 
L 210.050252 113.173773 
L 215.776939 112.49689 
L 221.573132 112.035359 
L 227.433923 111.791276 
L 233.355206 111.767134 
L 239.333578 111.965952 
L 245.325949 112.387817 
L 251.329701 113.032641 
L 257.342542 113.90113 
L 263.362289 114.99481 
L 269.386663 116.316039 
L 275.372614 117.856797 
L 281.317058 119.616303 
L 287.216327 121.594333 
L 293.066025 123.7911 
L 298.820731 126.189527 
L 304.474775 128.785331 
L 310.061614 131.595029 
L 315.533933 134.596455 
L 320.884012 137.784675 
L 326.103627 141.154306 
L 331.184141 144.699443 
L 336.11659 148.413623 
L 340.854806 152.258665 
L 345.427896 156.254686 
L 349.826603 160.393535 
L 354.007181 164.630419 
L 357.996539 168.989092 
L 361.753074 173.420742 
L 365.270794 177.91087 
L 368.543872 182.444868 
L 371.566499 187.008063 
L 374.332698 191.585725 
L 376.812055 196.116639 
L 379.003876 200.582254 
L 380.90788 204.964338 
L 382.506916 209.195273 
L 383.824466 213.305357 
L 384.851151 217.226331 
L 385.608997 220.991716 
L 386.099309 224.533636 
L 386.344374 227.889099 
L 386.356585 231.097666 
L 386.148277 234.095087 
L 385.732679 236.923753 
L 385.111366 239.62677 
L 384.291563 242.195512 
L 383.285018 244.622797 
L 382.080259 246.952419 
L 380.651601 249.225493 
L 378.996359 251.432863 
L 377.116596 253.566718 
L 374.972132 255.663901 
L 372.509256 257.755931 
L 369.717752 259.829402 
L 366.533298 261.90958 
L 362.94523 263.980818 
L 358.881651 266.062202 
L 354.333263 268.136143 
L 349.223054 270.215413 
L 343.544101 272.280017 
L 337.294706 274.311373 
L 330.477492 276.291671 
L 323.016954 278.223224 
L 315.08553 280.045916 
L 306.616908 281.762865 
L 297.714612 283.340346 
L 288.403663 284.764145 
L 278.713109 286.020324 
L 268.676396 287.096351 
L 258.246046 287.988938 
L 247.465727 288.687578 
L 236.13293 289.197579 
L 224.063484 289.515047 
L 210.856632 289.634916 
L 195.696923 289.54241 
L 176.173653 289.186028 
L 140.413993 288.267342 
L 121.581705 287.620407 
L 112.348111 287.094032 
L 106.166537 286.532038 
L 101.624243 285.905467 
L 98.193515 285.218702 
L 95.480644 284.457764 
L 93.287386 283.615826 
L 91.518438 282.704323 
L 90.033716 281.690204 
L 88.806115 280.586157 
L 87.765511 279.356661 
L 86.867517 277.949953 
L 86.103144 276.330343 
L 85.470397 274.458028 
L 84.966226 272.255133 
L 84.602116 269.635454 
L 84.400249 266.508677 
L 84.389904 262.785234 
L 84.607515 258.340137 
L 85.094278 253.098329 
L 85.885988 247.043871 
L 87.000296 240.264474 
L 88.438312 232.90358 
L 90.157233 225.271127 
L 92.099731 217.657582 
L 94.19787 210.32488 
L 96.422672 203.352146 
L 98.730099 196.843828 
L 101.125927 190.746155 
L 103.603448 185.044893 
L 106.170981 179.692013 
L 108.838528 174.643902 
L 111.59774 169.894108 
L 114.479827 165.372269 
L 117.500867 161.046598 
L 120.655593 156.919189 
L 123.936408 152.991812 
L 124.189979 152.702306 
L 124.189979 152.702306 
" style="fill:none;stroke:#008000;stroke-linecap:square;stroke-width:1.5;"/>
   </g>
   <g id="patch_3">
    <path d="M 57.6 307.584 
L 57.6 41.472 
" style="fill:none;stroke:#000000;stroke-linecap:square;stroke-linejoin:miter;stroke-width:0.8;"/>
   </g>
   <g id="patch_4">
    <path d="M 414.72 307.584 
L 414.72 41.472 
" style="fill:none;stroke:#000000;stroke-linecap:square;stroke-linejoin:miter;stroke-width:0.8;"/>
   </g>
   <g id="patch_5">
    <path d="M 57.6 307.584 
L 414.72 307.584 
" style="fill:none;stroke:#000000;stroke-linecap:square;stroke-linejoin:miter;stroke-width:0.8;"/>
   </g>
   <g id="patch_6">
    <path d="M 57.6 41.472 
L 414.72 41.472 
" style="fill:none;stroke:#000000;stroke-linecap:square;stroke-linejoin:miter;stroke-width:0.8;"/>
   </g>
   <g id="legend_1">
    <g id="patch_7">
     <path d="M 349.730938 94.472 
L 407.72 94.472 
Q 409.72 94.472 409.72 92.472 
L 409.72 48.472 
Q 409.72 46.472 407.72 46.472 
L 349.730938 46.472 
Q 347.730938 46.472 347.730938 48.472 
L 347.730938 92.472 
Q 347.730938 94.472 349.730938 94.472 
z
" style="fill:#ffffff;opacity:0.8;stroke:#cccccc;stroke-linejoin:miter;"/>
    </g>
    <g id="line2d_16">
     <path d="M 351.730938 54.614188 
L 371.730938 54.614188 
" style="fill:none;stroke:#0000ff;stroke-linecap:square;stroke-width:1.5;"/>
    </g>
    <g id="line2d_17"/>
    <g id="text_15">
     <!-- I |  -->
     <defs>
      <path d="M 9.8125 72.90625 
L 19.671875 72.90625 
L 19.671875 0 
L 9.8125 0 
z
" id="DejaVuSans-73"/>
      <path id="DejaVuSans-32"/>
      <path d="M 21 76.421875 
L 21 -23.578125 
L 12.703125 -23.578125 
L 12.703125 76.421875 
z
" id="DejaVuSans-124"/>
     </defs>
     <g transform="translate(379.730938 58.114188)scale(0.1 -0.1)">
      <use xlink:href="#DejaVuSans-73"/>
      <use x="29.492188" xlink:href="#DejaVuSans-32"/>
      <use x="61.279297" xlink:href="#DejaVuSans-124"/>
      <use x="94.970703" xlink:href="#DejaVuSans-32"/>
     </g>
    </g>
    <g id="line2d_18">
     <path d="M 351.730938 69.614188 
L 371.730938 69.614188 
" style="fill:none;stroke:#000000;stroke-linecap:square;stroke-width:1.5;"/>
    </g>
    <g id="line2d_19"/>
    <g id="text_16">
     <!-- E |  -->
     <defs>
      <path d="M 9.8125 72.90625 
L 55.90625 72.90625 
L 55.90625 64.59375 
L 19.671875 64.59375 
L 19.671875 43.015625 
L 54.390625 43.015625 
L 54.390625 34.71875 
L 19.671875 34.71875 
L 19.671875 8.296875 
L 56.78125 8.296875 
L 56.78125 0 
L 9.8125 0 
z
" id="DejaVuSans-69"/>
     </defs>
     <g transform="translate(379.730938 73.114188)scale(0.1 -0.1)">
      <use xlink:href="#DejaVuSans-69"/>
      <use x="63.183594" xlink:href="#DejaVuSans-32"/>
      <use x="94.970703" xlink:href="#DejaVuSans-124"/>
      <use x="128.662109" xlink:href="#DejaVuSans-32"/>
     </g>
    </g>
    <g id="line2d_20">
     <path d="M 351.730938 84.614188 
L 371.730938 84.614188 
" style="fill:none;stroke:#008000;stroke-linecap:square;stroke-width:1.5;"/>
    </g>
    <g id="line2d_21"/>
    <g id="text_17">
     <!-- rk4 |  -->
     <defs>
      <path d="M 41.109375 46.296875 
Q 39.59375 47.171875 37.8125 47.578125 
Q 36.03125 48 33.890625 48 
Q 26.265625 48 22.1875 43.046875 
Q 18.109375 38.09375 18.109375 28.8125 
L 18.109375 0 
L 9.078125 0 
L 9.078125 54.6875 
L 18.109375 54.6875 
L 18.109375 46.1875 
Q 20.953125 51.171875 25.484375 53.578125 
Q 30.03125 56 36.53125 56 
Q 37.453125 56 38.578125 55.875 
Q 39.703125 55.765625 41.0625 55.515625 
z
" id="DejaVuSans-114"/>
      <path d="M 9.078125 75.984375 
L 18.109375 75.984375 
L 18.109375 31.109375 
L 44.921875 54.6875 
L 56.390625 54.6875 
L 27.390625 29.109375 
L 57.625 0 
L 45.90625 0 
L 18.109375 26.703125 
L 18.109375 0 
L 9.078125 0 
z
" id="DejaVuSans-107"/>
      <path d="M 37.796875 64.3125 
L 12.890625 25.390625 
L 37.796875 25.390625 
z
M 35.203125 72.90625 
L 47.609375 72.90625 
L 47.609375 25.390625 
L 58.015625 25.390625 
L 58.015625 17.1875 
L 47.609375 17.1875 
L 47.609375 0 
L 37.796875 0 
L 37.796875 17.1875 
L 4.890625 17.1875 
L 4.890625 26.703125 
z
" id="DejaVuSans-52"/>
     </defs>
     <g transform="translate(379.730938 88.114188)scale(0.1 -0.1)">
      <use xlink:href="#DejaVuSans-114"/>
      <use x="41.113281" xlink:href="#DejaVuSans-107"/>
      <use x="99.023438" xlink:href="#DejaVuSans-52"/>
      <use x="162.646484" xlink:href="#DejaVuSans-32"/>
      <use x="194.433594" xlink:href="#DejaVuSans-124"/>
      <use x="228.125" xlink:href="#DejaVuSans-32"/>
     </g>
    </g>
   </g>
  </g>
  <g id="text_18">
   <!-- Trajectory of the centre of 2nd link -->
   <defs>
    <path d="M -0.296875 72.90625 
L 61.375 72.90625 
L 61.375 64.59375 
L 35.5 64.59375 
L 35.5 0 
L 25.59375 0 
L 25.59375 64.59375 
L -0.296875 64.59375 
z
" id="DejaVuSans-84"/>
    <path d="M 9.421875 54.6875 
L 18.40625 54.6875 
L 18.40625 -0.984375 
Q 18.40625 -11.421875 14.421875 -16.109375 
Q 10.453125 -20.796875 1.609375 -20.796875 
L -1.8125 -20.796875 
L -1.8125 -13.1875 
L 0.59375 -13.1875 
Q 5.71875 -13.1875 7.5625 -10.8125 
Q 9.421875 -8.453125 9.421875 -0.984375 
z
M 9.421875 75.984375 
L 18.40625 75.984375 
L 18.40625 64.59375 
L 9.421875 64.59375 
z
" id="DejaVuSans-106"/>
    <path d="M 56.203125 29.59375 
L 56.203125 25.203125 
L 14.890625 25.203125 
Q 15.484375 15.921875 20.484375 11.0625 
Q 25.484375 6.203125 34.421875 6.203125 
Q 39.59375 6.203125 44.453125 7.46875 
Q 49.3125 8.734375 54.109375 11.28125 
L 54.109375 2.78125 
Q 49.265625 0.734375 44.1875 -0.34375 
Q 39.109375 -1.421875 33.890625 -1.421875 
Q 20.796875 -1.421875 13.15625 6.1875 
Q 5.515625 13.8125 5.515625 26.8125 
Q 5.515625 40.234375 12.765625 48.109375 
Q 20.015625 56 32.328125 56 
Q 43.359375 56 49.78125 48.890625 
Q 56.203125 41.796875 56.203125 29.59375 
z
M 47.21875 32.234375 
Q 47.125 39.59375 43.09375 43.984375 
Q 39.0625 48.390625 32.421875 48.390625 
Q 24.90625 48.390625 20.390625 44.140625 
Q 15.875 39.890625 15.1875 32.171875 
z
" id="DejaVuSans-101"/>
    <path d="M 48.78125 52.59375 
L 48.78125 44.1875 
Q 44.96875 46.296875 41.140625 47.34375 
Q 37.3125 48.390625 33.40625 48.390625 
Q 24.65625 48.390625 19.8125 42.84375 
Q 14.984375 37.3125 14.984375 27.296875 
Q 14.984375 17.28125 19.8125 11.734375 
Q 24.65625 6.203125 33.40625 6.203125 
Q 37.3125 6.203125 41.140625 7.25 
Q 44.96875 8.296875 48.78125 10.40625 
L 48.78125 2.09375 
Q 45.015625 0.34375 40.984375 -0.53125 
Q 36.96875 -1.421875 32.421875 -1.421875 
Q 20.0625 -1.421875 12.78125 6.34375 
Q 5.515625 14.109375 5.515625 27.296875 
Q 5.515625 40.671875 12.859375 48.328125 
Q 20.21875 56 33.015625 56 
Q 37.15625 56 41.109375 55.140625 
Q 45.0625 54.296875 48.78125 52.59375 
z
" id="DejaVuSans-99"/>
    <path d="M 18.3125 70.21875 
L 18.3125 54.6875 
L 36.8125 54.6875 
L 36.8125 47.703125 
L 18.3125 47.703125 
L 18.3125 18.015625 
Q 18.3125 11.328125 20.140625 9.421875 
Q 21.96875 7.515625 27.59375 7.515625 
L 36.8125 7.515625 
L 36.8125 0 
L 27.59375 0 
Q 17.1875 0 13.234375 3.875 
Q 9.28125 7.765625 9.28125 18.015625 
L 9.28125 47.703125 
L 2.6875 47.703125 
L 2.6875 54.6875 
L 9.28125 54.6875 
L 9.28125 70.21875 
z
" id="DejaVuSans-116"/>
    <path d="M 30.609375 48.390625 
Q 23.390625 48.390625 19.1875 42.75 
Q 14.984375 37.109375 14.984375 27.296875 
Q 14.984375 17.484375 19.15625 11.84375 
Q 23.34375 6.203125 30.609375 6.203125 
Q 37.796875 6.203125 41.984375 11.859375 
Q 46.1875 17.53125 46.1875 27.296875 
Q 46.1875 37.015625 41.984375 42.703125 
Q 37.796875 48.390625 30.609375 48.390625 
z
M 30.609375 56 
Q 42.328125 56 49.015625 48.375 
Q 55.71875 40.765625 55.71875 27.296875 
Q 55.71875 13.875 49.015625 6.21875 
Q 42.328125 -1.421875 30.609375 -1.421875 
Q 18.84375 -1.421875 12.171875 6.21875 
Q 5.515625 13.875 5.515625 27.296875 
Q 5.515625 40.765625 12.171875 48.375 
Q 18.84375 56 30.609375 56 
z
" id="DejaVuSans-111"/>
    <path d="M 32.171875 -5.078125 
Q 28.375 -14.84375 24.75 -17.8125 
Q 21.140625 -20.796875 15.09375 -20.796875 
L 7.90625 -20.796875 
L 7.90625 -13.28125 
L 13.1875 -13.28125 
Q 16.890625 -13.28125 18.9375 -11.515625 
Q 21 -9.765625 23.484375 -3.21875 
L 25.09375 0.875 
L 2.984375 54.6875 
L 12.5 54.6875 
L 29.59375 11.921875 
L 46.6875 54.6875 
L 56.203125 54.6875 
z
" id="DejaVuSans-121"/>
    <path d="M 37.109375 75.984375 
L 37.109375 68.5 
L 28.515625 68.5 
Q 23.6875 68.5 21.796875 66.546875 
Q 19.921875 64.59375 19.921875 59.515625 
L 19.921875 54.6875 
L 34.71875 54.6875 
L 34.71875 47.703125 
L 19.921875 47.703125 
L 19.921875 0 
L 10.890625 0 
L 10.890625 47.703125 
L 2.296875 47.703125 
L 2.296875 54.6875 
L 10.890625 54.6875 
L 10.890625 58.5 
Q 10.890625 67.625 15.140625 71.796875 
Q 19.390625 75.984375 28.609375 75.984375 
z
" id="DejaVuSans-102"/>
    <path d="M 54.890625 33.015625 
L 54.890625 0 
L 45.90625 0 
L 45.90625 32.71875 
Q 45.90625 40.484375 42.875 44.328125 
Q 39.84375 48.1875 33.796875 48.1875 
Q 26.515625 48.1875 22.3125 43.546875 
Q 18.109375 38.921875 18.109375 30.90625 
L 18.109375 0 
L 9.078125 0 
L 9.078125 75.984375 
L 18.109375 75.984375 
L 18.109375 46.1875 
Q 21.34375 51.125 25.703125 53.5625 
Q 30.078125 56 35.796875 56 
Q 45.21875 56 50.046875 50.171875 
Q 54.890625 44.34375 54.890625 33.015625 
z
" id="DejaVuSans-104"/>
    <path d="M 54.890625 33.015625 
L 54.890625 0 
L 45.90625 0 
L 45.90625 32.71875 
Q 45.90625 40.484375 42.875 44.328125 
Q 39.84375 48.1875 33.796875 48.1875 
Q 26.515625 48.1875 22.3125 43.546875 
Q 18.109375 38.921875 18.109375 30.90625 
L 18.109375 0 
L 9.078125 0 
L 9.078125 54.6875 
L 18.109375 54.6875 
L 18.109375 46.1875 
Q 21.34375 51.125 25.703125 53.5625 
Q 30.078125 56 35.796875 56 
Q 45.21875 56 50.046875 50.171875 
Q 54.890625 44.34375 54.890625 33.015625 
z
" id="DejaVuSans-110"/>
    <path d="M 19.1875 8.296875 
L 53.609375 8.296875 
L 53.609375 0 
L 7.328125 0 
L 7.328125 8.296875 
Q 12.9375 14.109375 22.625 23.890625 
Q 32.328125 33.6875 34.8125 36.53125 
Q 39.546875 41.84375 41.421875 45.53125 
Q 43.3125 49.21875 43.3125 52.78125 
Q 43.3125 58.59375 39.234375 62.25 
Q 35.15625 65.921875 28.609375 65.921875 
Q 23.96875 65.921875 18.8125 64.3125 
Q 13.671875 62.703125 7.8125 59.421875 
L 7.8125 69.390625 
Q 13.765625 71.78125 18.9375 73 
Q 24.125 74.21875 28.421875 74.21875 
Q 39.75 74.21875 46.484375 68.546875 
Q 53.21875 62.890625 53.21875 53.421875 
Q 53.21875 48.921875 51.53125 44.890625 
Q 49.859375 40.875 45.40625 35.40625 
Q 44.1875 33.984375 37.640625 27.21875 
Q 31.109375 20.453125 19.1875 8.296875 
z
" id="DejaVuSans-50"/>
    <path d="M 45.40625 46.390625 
L 45.40625 75.984375 
L 54.390625 75.984375 
L 54.390625 0 
L 45.40625 0 
L 45.40625 8.203125 
Q 42.578125 3.328125 38.25 0.953125 
Q 33.9375 -1.421875 27.875 -1.421875 
Q 17.96875 -1.421875 11.734375 6.484375 
Q 5.515625 14.40625 5.515625 27.296875 
Q 5.515625 40.1875 11.734375 48.09375 
Q 17.96875 56 27.875 56 
Q 33.9375 56 38.25 53.625 
Q 42.578125 51.265625 45.40625 46.390625 
z
M 14.796875 27.296875 
Q 14.796875 17.390625 18.875 11.75 
Q 22.953125 6.109375 30.078125 6.109375 
Q 37.203125 6.109375 41.296875 11.75 
Q 45.40625 17.390625 45.40625 27.296875 
Q 45.40625 37.203125 41.296875 42.84375 
Q 37.203125 48.484375 30.078125 48.484375 
Q 22.953125 48.484375 18.875 42.84375 
Q 14.796875 37.203125 14.796875 27.296875 
z
" id="DejaVuSans-100"/>
    <path d="M 9.421875 75.984375 
L 18.40625 75.984375 
L 18.40625 0 
L 9.421875 0 
z
" id="DejaVuSans-108"/>
   </defs>
   <g transform="translate(126.714375 16.030125)scale(0.12 -0.12)">
    <use xlink:href="#DejaVuSans-84"/>
    <use x="46.333984" xlink:href="#DejaVuSans-114"/>
    <use x="87.447266" xlink:href="#DejaVuSans-97"/>
    <use x="148.726562" xlink:href="#DejaVuSans-106"/>
    <use x="176.509766" xlink:href="#DejaVuSans-101"/>
    <use x="238.033203" xlink:href="#DejaVuSans-99"/>
    <use x="293.013672" xlink:href="#DejaVuSans-116"/>
    <use x="332.222656" xlink:href="#DejaVuSans-111"/>
    <use x="393.404297" xlink:href="#DejaVuSans-114"/>
    <use x="434.517578" xlink:href="#DejaVuSans-121"/>
    <use x="493.697266" xlink:href="#DejaVuSans-32"/>
    <use x="525.484375" xlink:href="#DejaVuSans-111"/>
    <use x="586.666016" xlink:href="#DejaVuSans-102"/>
    <use x="621.871094" xlink:href="#DejaVuSans-32"/>
    <use x="653.658203" xlink:href="#DejaVuSans-116"/>
    <use x="692.867188" xlink:href="#DejaVuSans-104"/>
    <use x="756.246094" xlink:href="#DejaVuSans-101"/>
    <use x="817.769531" xlink:href="#DejaVuSans-32"/>
    <use x="849.556641" xlink:href="#DejaVuSans-99"/>
    <use x="904.537109" xlink:href="#DejaVuSans-101"/>
    <use x="966.060547" xlink:href="#DejaVuSans-110"/>
    <use x="1029.439453" xlink:href="#DejaVuSans-116"/>
    <use x="1068.648438" xlink:href="#DejaVuSans-114"/>
    <use x="1107.511719" xlink:href="#DejaVuSans-101"/>
    <use x="1169.035156" xlink:href="#DejaVuSans-32"/>
    <use x="1200.822266" xlink:href="#DejaVuSans-111"/>
    <use x="1262.003906" xlink:href="#DejaVuSans-102"/>
    <use x="1297.208984" xlink:href="#DejaVuSans-32"/>
    <use x="1328.996094" xlink:href="#DejaVuSans-50"/>
    <use x="1392.619141" xlink:href="#DejaVuSans-110"/>
    <use x="1455.998047" xlink:href="#DejaVuSans-100"/>
    <use x="1519.474609" xlink:href="#DejaVuSans-32"/>
    <use x="1551.261719" xlink:href="#DejaVuSans-108"/>
    <use x="1579.044922" xlink:href="#DejaVuSans-105"/>
    <use x="1606.828125" xlink:href="#DejaVuSans-110"/>
    <use x="1670.207031" xlink:href="#DejaVuSans-107"/>
   </g>
  </g>
 </g>
 <defs>
  <clipPath id="p086e70b1cf">
   <rect height="266.112" width="357.12" x="57.6" y="41.472"/>
  </clipPath>
 </defs>
</svg>
