<?xml version="1.0" encoding="utf-8" standalone="no"?>
<!DOCTYPE svg PUBLIC "-//W3C//DTD SVG 1.1//EN"
  "http://www.w3.org/Graphics/SVG/1.1/DTD/svg11.dtd">
<!-- Created with matplotlib (https://matplotlib.org/) -->
<svg height="345.6pt" version="1.1" viewBox="0 0 460.8 345.6" width="460.8pt" xmlns="http://www.w3.org/2000/svg" xmlns:xlink="http://www.w3.org/1999/xlink">
 <defs>
  <style type="text/css">
*{stroke-linecap:butt;stroke-linejoin:round;}
  </style>
 </defs>
 <g id="figure_1">
  <g id="patch_1">
   <path d="M 0 345.6 
L 460.8 345.6 
L 460.8 0 
L 0 0 
z
" style="fill:#ffffff;"/>
  </g>
  <g id="axes_1">
   <g id="patch_2">
    <path d="M 57.6 162.432 
L 414.72 162.432 
L 414.72 41.472 
L 57.6 41.472 
z
" style="fill:#ffffff;"/>
   </g>
   <g id="matplotlib.axis_1">
    <g id="xtick_1">
     <g id="line2d_1">
      <defs>
       <path d="M 0 0 
L 0 3.5 
" id="m83f3510c02" style="stroke:#000000;stroke-width:0.8;"/>
      </defs>
      <g>
       <use style="stroke:#000000;stroke-width:0.8;" x="73.832727" xlink:href="#m83f3510c02" y="162.432"/>
      </g>
     </g>
     <g id="text_1">
      <!-- 0 -->
      <defs>
       <path d="M 31.78125 66.40625 
Q 24.171875 66.40625 20.328125 58.90625 
Q 16.5 51.421875 16.5 36.375 
Q 16.5 21.390625 20.328125 13.890625 
Q 24.171875 6.390625 31.78125 6.390625 
Q 39.453125 6.390625 43.28125 13.890625 
Q 47.125 21.390625 47.125 36.375 
Q 47.125 51.421875 43.28125 58.90625 
Q 39.453125 66.40625 31.78125 66.40625 
z
M 31.78125 74.21875 
Q 44.046875 74.21875 50.515625 64.515625 
Q 56.984375 54.828125 56.984375 36.375 
Q 56.984375 17.96875 50.515625 8.265625 
Q 44.046875 -1.421875 31.78125 -1.421875 
Q 19.53125 -1.421875 13.0625 8.265625 
Q 6.59375 17.96875 6.59375 36.375 
Q 6.59375 54.828125 13.0625 64.515625 
Q 19.53125 74.21875 31.78125 74.21875 
z
" id="DejaVuSans-48"/>
      </defs>
      <g transform="translate(70.651477 177.030437)scale(0.1 -0.1)">
       <use xlink:href="#DejaVuSans-48"/>
      </g>
     </g>
    </g>
    <g id="xtick_2">
     <g id="line2d_2">
      <g>
       <use style="stroke:#000000;stroke-width:0.8;" x="138.762338" xlink:href="#m83f3510c02" y="162.432"/>
      </g>
     </g>
     <g id="text_2">
      <!-- 1 -->
      <defs>
       <path d="M 12.40625 8.296875 
L 28.515625 8.296875 
L 28.515625 63.921875 
L 10.984375 60.40625 
L 10.984375 69.390625 
L 28.421875 72.90625 
L 38.28125 72.90625 
L 38.28125 8.296875 
L 54.390625 8.296875 
L 54.390625 0 
L 12.40625 0 
z
" id="DejaVuSans-49"/>
      </defs>
      <g transform="translate(135.581088 177.030437)scale(0.1 -0.1)">
       <use xlink:href="#DejaVuSans-49"/>
      </g>
     </g>
    </g>
    <g id="xtick_3">
     <g id="line2d_3">
      <g>
       <use style="stroke:#000000;stroke-width:0.8;" x="203.691948" xlink:href="#m83f3510c02" y="162.432"/>
      </g>
     </g>
     <g id="text_3">
      <!-- 2 -->
      <defs>
       <path d="M 19.1875 8.296875 
L 53.609375 8.296875 
L 53.609375 0 
L 7.328125 0 
L 7.328125 8.296875 
Q 12.9375 14.109375 22.625 23.890625 
Q 32.328125 33.6875 34.8125 36.53125 
Q 39.546875 41.84375 41.421875 45.53125 
Q 43.3125 49.21875 43.3125 52.78125 
Q 43.3125 58.59375 39.234375 62.25 
Q 35.15625 65.921875 28.609375 65.921875 
Q 23.96875 65.921875 18.8125 64.3125 
Q 13.671875 62.703125 7.8125 59.421875 
L 7.8125 69.390625 
Q 13.765625 71.78125 18.9375 73 
Q 24.125 74.21875 28.421875 74.21875 
Q 39.75 74.21875 46.484375 68.546875 
Q 53.21875 62.890625 53.21875 53.421875 
Q 53.21875 48.921875 51.53125 44.890625 
Q 49.859375 40.875 45.40625 35.40625 
Q 44.1875 33.984375 37.640625 27.21875 
Q 31.109375 20.453125 19.1875 8.296875 
z
" id="DejaVuSans-50"/>
      </defs>
      <g transform="translate(200.510698 177.030437)scale(0.1 -0.1)">
       <use xlink:href="#DejaVuSans-50"/>
      </g>
     </g>
    </g>
    <g id="xtick_4">
     <g id="line2d_4">
      <g>
       <use style="stroke:#000000;stroke-width:0.8;" x="268.621559" xlink:href="#m83f3510c02" y="162.432"/>
      </g>
     </g>
     <g id="text_4">
      <!-- 3 -->
      <defs>
       <path d="M 40.578125 39.3125 
Q 47.65625 37.796875 51.625 33 
Q 55.609375 28.21875 55.609375 21.1875 
Q 55.609375 10.40625 48.1875 4.484375 
Q 40.765625 -1.421875 27.09375 -1.421875 
Q 22.515625 -1.421875 17.65625 -0.515625 
Q 12.796875 0.390625 7.625 2.203125 
L 7.625 11.71875 
Q 11.71875 9.328125 16.59375 8.109375 
Q 21.484375 6.890625 26.8125 6.890625 
Q 36.078125 6.890625 40.9375 10.546875 
Q 45.796875 14.203125 45.796875 21.1875 
Q 45.796875 27.640625 41.28125 31.265625 
Q 36.765625 34.90625 28.71875 34.90625 
L 20.21875 34.90625 
L 20.21875 43.015625 
L 29.109375 43.015625 
Q 36.375 43.015625 40.234375 45.921875 
Q 44.09375 48.828125 44.09375 54.296875 
Q 44.09375 59.90625 40.109375 62.90625 
Q 36.140625 65.921875 28.71875 65.921875 
Q 24.65625 65.921875 20.015625 65.03125 
Q 15.375 64.15625 9.8125 62.3125 
L 9.8125 71.09375 
Q 15.4375 72.65625 20.34375 73.4375 
Q 25.25 74.21875 29.59375 74.21875 
Q 40.828125 74.21875 47.359375 69.109375 
Q 53.90625 64.015625 53.90625 55.328125 
Q 53.90625 49.265625 50.4375 45.09375 
Q 46.96875 40.921875 40.578125 39.3125 
z
" id="DejaVuSans-51"/>
      </defs>
      <g transform="translate(265.440309 177.030437)scale(0.1 -0.1)">
       <use xlink:href="#DejaVuSans-51"/>
      </g>
     </g>
    </g>
    <g id="xtick_5">
     <g id="line2d_5">
      <g>
       <use style="stroke:#000000;stroke-width:0.8;" x="333.551169" xlink:href="#m83f3510c02" y="162.432"/>
      </g>
     </g>
     <g id="text_5">
      <!-- 4 -->
      <defs>
       <path d="M 37.796875 64.3125 
L 12.890625 25.390625 
L 37.796875 25.390625 
z
M 35.203125 72.90625 
L 47.609375 72.90625 
L 47.609375 25.390625 
L 58.015625 25.390625 
L 58.015625 17.1875 
L 47.609375 17.1875 
L 47.609375 0 
L 37.796875 0 
L 37.796875 17.1875 
L 4.890625 17.1875 
L 4.890625 26.703125 
z
" id="DejaVuSans-52"/>
      </defs>
      <g transform="translate(330.369919 177.030437)scale(0.1 -0.1)">
       <use xlink:href="#DejaVuSans-52"/>
      </g>
     </g>
    </g>
    <g id="xtick_6">
     <g id="line2d_6">
      <g>
       <use style="stroke:#000000;stroke-width:0.8;" x="398.48078" xlink:href="#m83f3510c02" y="162.432"/>
      </g>
     </g>
     <g id="text_6">
      <!-- 5 -->
      <defs>
       <path d="M 10.796875 72.90625 
L 49.515625 72.90625 
L 49.515625 64.59375 
L 19.828125 64.59375 
L 19.828125 46.734375 
Q 21.96875 47.46875 24.109375 47.828125 
Q 26.265625 48.1875 28.421875 48.1875 
Q 40.625 48.1875 47.75 41.5 
Q 54.890625 34.8125 54.890625 23.390625 
Q 54.890625 11.625 47.5625 5.09375 
Q 40.234375 -1.421875 26.90625 -1.421875 
Q 22.3125 -1.421875 17.546875 -0.640625 
Q 12.796875 0.140625 7.71875 1.703125 
L 7.71875 11.625 
Q 12.109375 9.234375 16.796875 8.0625 
Q 21.484375 6.890625 26.703125 6.890625 
Q 35.15625 6.890625 40.078125 11.328125 
Q 45.015625 15.765625 45.015625 23.390625 
Q 45.015625 31 40.078125 35.4375 
Q 35.15625 39.890625 26.703125 39.890625 
Q 22.75 39.890625 18.8125 39.015625 
Q 14.890625 38.140625 10.796875 36.28125 
z
" id="DejaVuSans-53"/>
      </defs>
      <g transform="translate(395.29953 177.030437)scale(0.1 -0.1)">
       <use xlink:href="#DejaVuSans-53"/>
      </g>
     </g>
    </g>
    <g id="text_7">
     <!-- time -->
     <defs>
      <path d="M 18.3125 70.21875 
L 18.3125 54.6875 
L 36.8125 54.6875 
L 36.8125 47.703125 
L 18.3125 47.703125 
L 18.3125 18.015625 
Q 18.3125 11.328125 20.140625 9.421875 
Q 21.96875 7.515625 27.59375 7.515625 
L 36.8125 7.515625 
L 36.8125 0 
L 27.59375 0 
Q 17.1875 0 13.234375 3.875 
Q 9.28125 7.765625 9.28125 18.015625 
L 9.28125 47.703125 
L 2.6875 47.703125 
L 2.6875 54.6875 
L 9.28125 54.6875 
L 9.28125 70.21875 
z
" id="DejaVuSans-116"/>
      <path d="M 9.421875 54.6875 
L 18.40625 54.6875 
L 18.40625 0 
L 9.421875 0 
z
M 9.421875 75.984375 
L 18.40625 75.984375 
L 18.40625 64.59375 
L 9.421875 64.59375 
z
" id="DejaVuSans-105"/>
      <path d="M 52 44.1875 
Q 55.375 50.25 60.0625 53.125 
Q 64.75 56 71.09375 56 
Q 79.640625 56 84.28125 50.015625 
Q 88.921875 44.046875 88.921875 33.015625 
L 88.921875 0 
L 79.890625 0 
L 79.890625 32.71875 
Q 79.890625 40.578125 77.09375 44.375 
Q 74.3125 48.1875 68.609375 48.1875 
Q 61.625 48.1875 57.5625 43.546875 
Q 53.515625 38.921875 53.515625 30.90625 
L 53.515625 0 
L 44.484375 0 
L 44.484375 32.71875 
Q 44.484375 40.625 41.703125 44.40625 
Q 38.921875 48.1875 33.109375 48.1875 
Q 26.21875 48.1875 22.15625 43.53125 
Q 18.109375 38.875 18.109375 30.90625 
L 18.109375 0 
L 9.078125 0 
L 9.078125 54.6875 
L 18.109375 54.6875 
L 18.109375 46.1875 
Q 21.1875 51.21875 25.484375 53.609375 
Q 29.78125 56 35.6875 56 
Q 41.65625 56 45.828125 52.96875 
Q 50 49.953125 52 44.1875 
z
" id="DejaVuSans-109"/>
      <path d="M 56.203125 29.59375 
L 56.203125 25.203125 
L 14.890625 25.203125 
Q 15.484375 15.921875 20.484375 11.0625 
Q 25.484375 6.203125 34.421875 6.203125 
Q 39.59375 6.203125 44.453125 7.46875 
Q 49.3125 8.734375 54.109375 11.28125 
L 54.109375 2.78125 
Q 49.265625 0.734375 44.1875 -0.34375 
Q 39.109375 -1.421875 33.890625 -1.421875 
Q 20.796875 -1.421875 13.15625 6.1875 
Q 5.515625 13.8125 5.515625 26.8125 
Q 5.515625 40.234375 12.765625 48.109375 
Q 20.015625 56 32.328125 56 
Q 43.359375 56 49.78125 48.890625 
Q 56.203125 41.796875 56.203125 29.59375 
z
M 47.21875 32.234375 
Q 47.125 39.59375 43.09375 43.984375 
Q 39.0625 48.390625 32.421875 48.390625 
Q 24.90625 48.390625 20.390625 44.140625 
Q 15.875 39.890625 15.1875 32.171875 
z
" id="DejaVuSans-101"/>
     </defs>
     <g transform="translate(224.863906 190.708562)scale(0.1 -0.1)">
      <use xlink:href="#DejaVuSans-116"/>
      <use x="39.208984" xlink:href="#DejaVuSans-105"/>
      <use x="66.992188" xlink:href="#DejaVuSans-109"/>
      <use x="164.404297" xlink:href="#DejaVuSans-101"/>
     </g>
    </g>
   </g>
   <g id="matplotlib.axis_2">
    <g id="ytick_1">
     <g id="line2d_7">
      <defs>
       <path d="M 0 0 
L -3.5 0 
" id="m6750b727a9" style="stroke:#000000;stroke-width:0.8;"/>
      </defs>
      <g>
       <use style="stroke:#000000;stroke-width:0.8;" x="57.6" xlink:href="#m6750b727a9" y="145.757629"/>
      </g>
     </g>
     <g id="text_8">
      <!-- 0 -->
      <g transform="translate(44.2375 149.556847)scale(0.1 -0.1)">
       <use xlink:href="#DejaVuSans-48"/>
      </g>
     </g>
    </g>
    <g id="ytick_2">
     <g id="line2d_8">
      <g>
       <use style="stroke:#000000;stroke-width:0.8;" x="57.6" xlink:href="#m6750b727a9" y="108.979957"/>
      </g>
     </g>
     <g id="text_9">
      <!-- 50 -->
      <g transform="translate(37.875 112.779176)scale(0.1 -0.1)">
       <use xlink:href="#DejaVuSans-53"/>
       <use x="63.623047" xlink:href="#DejaVuSans-48"/>
      </g>
     </g>
    </g>
    <g id="ytick_3">
     <g id="line2d_9">
      <g>
       <use style="stroke:#000000;stroke-width:0.8;" x="57.6" xlink:href="#m6750b727a9" y="72.202286"/>
      </g>
     </g>
     <g id="text_10">
      <!-- 100 -->
      <g transform="translate(31.5125 76.001505)scale(0.1 -0.1)">
       <use xlink:href="#DejaVuSans-49"/>
       <use x="63.623047" xlink:href="#DejaVuSans-48"/>
       <use x="127.246094" xlink:href="#DejaVuSans-48"/>
      </g>
     </g>
    </g>
    <g id="text_11">
     <!-- Total energy -->
     <defs>
      <path d="M -0.296875 72.90625 
L 61.375 72.90625 
L 61.375 64.59375 
L 35.5 64.59375 
L 35.5 0 
L 25.59375 0 
L 25.59375 64.59375 
L -0.296875 64.59375 
z
" id="DejaVuSans-84"/>
      <path d="M 30.609375 48.390625 
Q 23.390625 48.390625 19.1875 42.75 
Q 14.984375 37.109375 14.984375 27.296875 
Q 14.984375 17.484375 19.15625 11.84375 
Q 23.34375 6.203125 30.609375 6.203125 
Q 37.796875 6.203125 41.984375 11.859375 
Q 46.1875 17.53125 46.1875 27.296875 
Q 46.1875 37.015625 41.984375 42.703125 
Q 37.796875 48.390625 30.609375 48.390625 
z
M 30.609375 56 
Q 42.328125 56 49.015625 48.375 
Q 55.71875 40.765625 55.71875 27.296875 
Q 55.71875 13.875 49.015625 6.21875 
Q 42.328125 -1.421875 30.609375 -1.421875 
Q 18.84375 -1.421875 12.171875 6.21875 
Q 5.515625 13.875 5.515625 27.296875 
Q 5.515625 40.765625 12.171875 48.375 
Q 18.84375 56 30.609375 56 
z
" id="DejaVuSans-111"/>
      <path d="M 34.28125 27.484375 
Q 23.390625 27.484375 19.1875 25 
Q 14.984375 22.515625 14.984375 16.5 
Q 14.984375 11.71875 18.140625 8.90625 
Q 21.296875 6.109375 26.703125 6.109375 
Q 34.1875 6.109375 38.703125 11.40625 
Q 43.21875 16.703125 43.21875 25.484375 
L 43.21875 27.484375 
z
M 52.203125 31.203125 
L 52.203125 0 
L 43.21875 0 
L 43.21875 8.296875 
Q 40.140625 3.328125 35.546875 0.953125 
Q 30.953125 -1.421875 24.3125 -1.421875 
Q 15.921875 -1.421875 10.953125 3.296875 
Q 6 8.015625 6 15.921875 
Q 6 25.140625 12.171875 29.828125 
Q 18.359375 34.515625 30.609375 34.515625 
L 43.21875 34.515625 
L 43.21875 35.40625 
Q 43.21875 41.609375 39.140625 45 
Q 35.0625 48.390625 27.6875 48.390625 
Q 23 48.390625 18.546875 47.265625 
Q 14.109375 46.140625 10.015625 43.890625 
L 10.015625 52.203125 
Q 14.9375 54.109375 19.578125 55.046875 
Q 24.21875 56 28.609375 56 
Q 40.484375 56 46.34375 49.84375 
Q 52.203125 43.703125 52.203125 31.203125 
z
" id="DejaVuSans-97"/>
      <path d="M 9.421875 75.984375 
L 18.40625 75.984375 
L 18.40625 0 
L 9.421875 0 
z
" id="DejaVuSans-108"/>
      <path id="DejaVuSans-32"/>
      <path d="M 54.890625 33.015625 
L 54.890625 0 
L 45.90625 0 
L 45.90625 32.71875 
Q 45.90625 40.484375 42.875 44.328125 
Q 39.84375 48.1875 33.796875 48.1875 
Q 26.515625 48.1875 22.3125 43.546875 
Q 18.109375 38.921875 18.109375 30.90625 
L 18.109375 0 
L 9.078125 0 
L 9.078125 54.6875 
L 18.109375 54.6875 
L 18.109375 46.1875 
Q 21.34375 51.125 25.703125 53.5625 
Q 30.078125 56 35.796875 56 
Q 45.21875 56 50.046875 50.171875 
Q 54.890625 44.34375 54.890625 33.015625 
z
" id="DejaVuSans-110"/>
      <path d="M 41.109375 46.296875 
Q 39.59375 47.171875 37.8125 47.578125 
Q 36.03125 48 33.890625 48 
Q 26.265625 48 22.1875 43.046875 
Q 18.109375 38.09375 18.109375 28.8125 
L 18.109375 0 
L 9.078125 0 
L 9.078125 54.6875 
L 18.109375 54.6875 
L 18.109375 46.1875 
Q 20.953125 51.171875 25.484375 53.578125 
Q 30.03125 56 36.53125 56 
Q 37.453125 56 38.578125 55.875 
Q 39.703125 55.765625 41.0625 55.515625 
z
" id="DejaVuSans-114"/>
      <path d="M 45.40625 27.984375 
Q 45.40625 37.75 41.375 43.109375 
Q 37.359375 48.484375 30.078125 48.484375 
Q 22.859375 48.484375 18.828125 43.109375 
Q 14.796875 37.75 14.796875 27.984375 
Q 14.796875 18.265625 18.828125 12.890625 
Q 22.859375 7.515625 30.078125 7.515625 
Q 37.359375 7.515625 41.375 12.890625 
Q 45.40625 18.265625 45.40625 27.984375 
z
M 54.390625 6.78125 
Q 54.390625 -7.171875 48.1875 -13.984375 
Q 42 -20.796875 29.203125 -20.796875 
Q 24.46875 -20.796875 20.265625 -20.09375 
Q 16.0625 -19.390625 12.109375 -17.921875 
L 12.109375 -9.1875 
Q 16.0625 -11.328125 19.921875 -12.34375 
Q 23.78125 -13.375 27.78125 -13.375 
Q 36.625 -13.375 41.015625 -8.765625 
Q 45.40625 -4.15625 45.40625 5.171875 
L 45.40625 9.625 
Q 42.625 4.78125 38.28125 2.390625 
Q 33.9375 0 27.875 0 
Q 17.828125 0 11.671875 7.65625 
Q 5.515625 15.328125 5.515625 27.984375 
Q 5.515625 40.671875 11.671875 48.328125 
Q 17.828125 56 27.875 56 
Q 33.9375 56 38.28125 53.609375 
Q 42.625 51.21875 45.40625 46.390625 
L 45.40625 54.6875 
L 54.390625 54.6875 
z
" id="DejaVuSans-103"/>
      <path d="M 32.171875 -5.078125 
Q 28.375 -14.84375 24.75 -17.8125 
Q 21.140625 -20.796875 15.09375 -20.796875 
L 7.90625 -20.796875 
L 7.90625 -13.28125 
L 13.1875 -13.28125 
Q 16.890625 -13.28125 18.9375 -11.515625 
Q 21 -9.765625 23.484375 -3.21875 
L 25.09375 0.875 
L 2.984375 54.6875 
L 12.5 54.6875 
L 29.59375 11.921875 
L 46.6875 54.6875 
L 56.203125 54.6875 
z
" id="DejaVuSans-121"/>
     </defs>
     <g transform="translate(25.432812 132.641063)rotate(-90)scale(0.1 -0.1)">
      <use xlink:href="#DejaVuSans-84"/>
      <use x="44.083984" xlink:href="#DejaVuSans-111"/>
      <use x="105.265625" xlink:href="#DejaVuSans-116"/>
      <use x="144.474609" xlink:href="#DejaVuSans-97"/>
      <use x="205.753906" xlink:href="#DejaVuSans-108"/>
      <use x="233.537109" xlink:href="#DejaVuSans-32"/>
      <use x="265.324219" xlink:href="#DejaVuSans-101"/>
      <use x="326.847656" xlink:href="#DejaVuSans-110"/>
      <use x="390.226562" xlink:href="#DejaVuSans-101"/>
      <use x="451.75" xlink:href="#DejaVuSans-114"/>
      <use x="491.113281" xlink:href="#DejaVuSans-103"/>
      <use x="554.589844" xlink:href="#DejaVuSans-121"/>
     </g>
    </g>
   </g>
   <g id="line2d_10">
    <path clip-path="url(#p56e3d9e069)" d="M 73.832727 145.757629 
L 96.142541 145.990329 
L 106.083265 146.316258 
L 113.322916 146.767553 
L 119.114638 147.344911 
L 124.01033 148.05147 
L 128.341135 148.897996 
L 132.334306 149.9034 
L 136.236576 151.116382 
L 140.502451 152.683975 
L 149.469231 156.067833 
L 151.800204 156.643734 
L 153.741599 156.900733 
L 155.468727 156.909064 
L 157.059502 156.696665 
L 158.565869 156.272009 
L 160.026785 155.627546 
L 161.46173 154.748631 
L 162.890181 153.609061 
L 164.325125 152.174772 
L 165.773056 150.407087 
L 167.240465 148.256721 
L 168.72086 145.684905 
L 170.220734 142.622665 
L 171.727101 139.03038 
L 173.239961 134.835017 
L 174.752821 129.970666 
L 176.265681 124.342247 
L 177.785034 117.811323 
L 179.317372 110.217254 
L 180.901655 101.20665 
L 182.674233 89.770258 
L 186.310292 65.839036 
L 187.121912 62.191141 
L 187.725757 60.390674 
L 188.186757 59.629397 
L 188.530884 59.428448 
L 188.823067 59.507196 
L 189.141223 59.849514 
L 189.543786 60.650544 
L 190.05673 62.218687 
L 190.725505 65.047528 
L 191.647506 70.019101 
L 193.205816 79.854013 
L 196.134142 98.2554 
L 197.913213 107.949375 
L 199.59489 115.914456 
L 201.250595 122.706474 
L 202.899807 128.552984 
L 204.542526 133.575796 
L 206.178752 137.879803 
L 207.801993 141.538613 
L 209.405754 144.618382 
L 210.983544 147.178602 
L 212.528868 149.273489 
L 214.041728 150.959961 
L 215.528616 152.292171 
L 216.996025 153.313636 
L 218.456942 154.062731 
L 219.930844 154.569603 
L 221.443704 154.854012 
L 223.027986 154.924215 
L 224.742128 154.774457 
L 226.670537 154.37695 
L 228.975539 153.665085 
L 232.144104 152.433422 
L 241.403066 148.712504 
L 245.123533 147.530601 
L 248.753098 146.610699 
L 252.428114 145.909098 
L 256.174552 145.420738 
L 259.953456 145.152011 
L 263.706387 145.107001 
L 267.381403 145.284223 
L 270.965518 145.679154 
L 274.504181 146.293382 
L 278.133747 147.152012 
L 282.269763 148.36926 
L 291.327444 151.12435 
L 293.801262 151.57979 
L 295.885502 151.742902 
L 297.748982 151.668853 
L 299.463124 151.380588 
L 301.079871 150.884745 
L 302.631689 150.176555 
L 304.144549 149.239809 
L 305.624944 148.059281 
L 307.092353 146.600051 
L 308.546776 144.833695 
L 309.988214 142.726435 
L 311.416665 140.237489 
L 312.832131 137.317126 
L 314.23461 133.904395 
L 315.624104 129.924574 
L 316.994119 125.310336 
L 318.344654 119.965217 
L 319.688697 113.71519 
L 321.03274 106.377717 
L 322.409248 97.5856 
L 323.896136 86.584341 
L 326.227109 67.320838 
L 327.636082 56.666464 
L 328.506139 51.645839 
L 329.174914 48.959718 
L 329.713829 47.619352 
L 330.142365 47.080551 
L 330.479999 46.971283 
L 330.798154 47.106914 
L 331.168253 47.532968 
L 331.642239 48.45351 
L 332.265563 50.199275 
L 333.109648 53.288164 
L 334.382268 58.891809 
L 340.329821 86.125297 
L 342.446526 94.292967 
L 344.569724 101.612514 
L 346.744866 108.322477 
L 348.991431 114.540384 
L 351.315911 120.327018 
L 353.685841 125.638021 
L 356.003829 130.300611 
L 358.159492 134.15373 
L 360.068422 137.128981 
L 361.743606 139.345548 
L 363.236987 140.966684 
L 364.600509 142.129697 
L 365.886115 142.942097 
L 367.14575 143.479191 
L 368.431356 143.785821 
L 369.807864 143.881804 
L 371.359681 143.760743 
L 373.24264 143.380749 
L 375.800867 142.620516 
L 380.332954 141.002575 
L 391.747579 136.654831 
L 397.993808 134.043464 
L 398.487273 133.825467 
L 398.487273 133.825467 
" style="fill:none;stroke:#0000ff;stroke-linecap:square;stroke-width:1.5;"/>
   </g>
   <g id="line2d_11">
    <path clip-path="url(#p56e3d9e069)" d="M 73.832727 145.757629 
L 96.155527 145.990357 
L 106.102744 146.316417 
L 113.348888 146.768104 
L 119.140609 147.345449 
L 124.036302 148.051868 
L 128.367107 148.898103 
L 132.366771 149.904866 
L 136.269041 151.117554 
L 140.534916 152.684536 
L 149.501695 156.066703 
L 151.832668 156.642476 
L 153.780557 156.900087 
L 155.507684 156.907964 
L 157.09846 156.695271 
L 158.604827 156.270472 
L 160.065743 155.626012 
L 161.500687 154.747243 
L 162.929139 153.607959 
L 164.364083 152.174092 
L 165.812014 150.406955 
L 167.279423 148.257246 
L 168.759818 145.686165 
L 170.259692 142.624699 
L 171.766059 139.03316 
L 173.278919 134.838435 
L 174.791779 129.974504 
L 176.304639 124.346152 
L 177.823991 117.814766 
L 179.35633 110.219476 
L 180.940613 101.206573 
L 182.713191 89.766186 
L 186.349249 65.824807 
L 187.160869 62.175596 
L 187.764715 60.374655 
L 188.225715 59.613311 
L 188.569842 59.412464 
L 188.855532 59.487159 
L 189.173687 59.824356 
L 189.569758 60.60341 
L 190.082702 62.157476 
L 190.744984 64.940631 
L 191.653998 69.815675 
L 193.173351 79.375635 
L 196.192578 98.357944 
L 197.97165 108.038904 
L 199.653326 115.992855 
L 201.309032 122.775742 
L 202.958244 128.614918 
L 204.600963 133.631919 
L 206.237189 137.931335 
L 207.860429 141.586515 
L 209.464191 144.663392 
L 211.04198 147.221275 
L 212.587305 149.314239 
L 214.100165 150.999086 
L 215.587053 152.329892 
L 217.054462 153.350125 
L 218.515378 154.098143 
L 219.989281 154.604101 
L 221.50214 154.887804 
L 223.092916 154.95746 
L 224.813551 154.806029 
L 226.748453 154.406388 
L 229.072933 153.688637 
L 232.299935 152.437644 
L 241.013488 148.961096 
L 244.688504 147.796738 
L 248.233661 146.906024 
L 251.791804 146.241021 
L 255.395397 145.793823 
L 259.011976 145.568457 
L 262.602584 145.56648 
L 266.134755 145.786166 
L 269.608489 146.224799 
L 273.088716 146.889513 
L 276.750746 147.819527 
L 281.282833 149.216899 
L 287.730343 151.199162 
L 290.392457 151.767268 
L 292.561106 152.008718 
L 294.470037 152.001981 
L 296.216643 151.776254 
L 297.852869 151.342421 
L 299.417673 150.697985 
L 300.937026 149.830383 
L 302.423914 148.722799 
L 303.891323 147.348898 
L 305.345746 145.677821 
L 306.793677 143.668385 
L 308.228621 141.289127 
L 309.65058 138.493628 
L 311.059552 135.225112 
L 312.455539 131.414007 
L 313.83854 126.975403 
L 315.202061 121.833571 
L 316.552597 115.851871 
L 317.89664 108.865933 
L 319.260162 100.57046 
L 320.701599 90.378573 
L 322.487164 76.019165 
L 324.740221 58.103729 
L 325.655729 52.574091 
L 326.350475 49.61326 
L 326.902377 48.129887 
L 327.337406 47.512683 
L 327.681532 47.357627 
L 327.993195 47.456911 
L 328.350307 47.830255 
L 328.804815 48.665472 
L 329.395674 50.262192 
L 330.194308 53.123769 
L 331.363041 58.232596 
L 334.317339 72.551777 
L 336.73272 83.564922 
L 338.849425 92.192247 
L 340.933666 99.767625 
L 343.050371 106.632016 
L 345.21902 112.919302 
L 347.452599 118.720403 
L 349.731628 124.028501 
L 352.004165 128.768013 
L 354.179307 132.804417 
L 356.172646 136.052148 
L 357.95821 138.552531 
L 359.555478 140.41993 
L 361.003409 141.782146 
L 362.353944 142.756072 
L 363.652537 143.424297 
L 364.951129 143.84509 
L 366.308158 144.05017 
L 367.801539 144.046324 
L 369.548145 143.811638 
L 371.79471 143.272226 
L 375.287923 142.177294 
L 385.124759 138.77088 
L 391.721607 136.301867 
L 396.701708 134.203087 
L 398.487273 133.38336 
L 398.487273 133.38336 
" style="fill:none;stroke:#008000;stroke-linecap:square;stroke-width:1.5;"/>
   </g>
   <g id="line2d_12">
    <path clip-path="url(#p56e3d9e069)" d="M 73.832727 145.757629 
L 96.149034 145.990343 
L 106.089758 146.316185 
L 113.329409 146.767307 
L 119.121131 147.344392 
L 124.016823 148.05057 
L 128.347628 148.896601 
L 132.347292 149.903222 
L 136.249562 151.115867 
L 140.515437 152.68299 
L 149.488709 156.068233 
L 151.819682 156.643724 
L 153.761078 156.900411 
L 155.488205 156.908514 
L 157.078981 156.695967 
L 158.585348 156.271238 
L 160.046264 155.626775 
L 161.481208 154.747932 
L 162.90966 153.608504 
L 164.344604 152.174424 
L 165.792535 150.407011 
L 167.259944 148.256972 
L 168.740339 145.685521 
L 170.240213 142.623666 
L 171.74658 139.031751 
L 173.25944 134.836704 
L 174.7723 129.97256 
L 176.28516 124.344171 
L 177.804513 117.813011 
L 179.336851 110.218327 
L 180.921134 101.206568 
L 182.693712 89.768174 
L 186.32977 65.831888 
L 187.141391 62.183346 
L 187.745236 60.382653 
L 188.206236 59.621351 
L 188.550363 59.42046 
L 188.842546 59.4993 
L 189.160701 59.841756 
L 189.563265 60.643001 
L 190.076209 62.211453 
L 190.744984 65.040699 
L 191.666984 70.012737 
L 193.225295 79.848114 
L 196.15362 98.250094 
L 197.932692 107.944758 
L 199.614369 115.910808 
L 201.270074 122.704035 
L 202.919286 128.551942 
L 204.562005 133.576276 
L 206.198231 137.881882 
L 207.821471 141.542318 
L 209.425233 144.623701 
L 211.003022 147.185492 
L 212.548347 149.28188 
L 214.0677 150.976275 
L 215.554588 152.308458 
L 217.021997 153.329926 
L 218.482914 154.07905 
L 219.956816 154.585989 
L 221.469676 154.870528 
L 223.060451 154.940828 
L 224.781086 154.78975 
L 226.715988 154.389968 
L 229.033975 153.673408 
L 232.235005 152.430069 
L 241.188798 148.844007 
L 244.883293 147.670798 
L 248.473901 146.763762 
L 252.09048 146.079984 
L 255.759003 145.612821 
L 259.453498 145.366073 
L 263.122021 145.343113 
L 266.719121 145.541985 
L 270.244799 145.959304 
L 273.750998 146.599203 
L 277.393549 147.493777 
L 281.691889 148.791229 
L 289.366569 151.147601 
L 291.950768 151.67116 
L 294.086952 151.882861 
L 295.976404 151.850996 
L 297.710024 151.60234 
L 299.339757 151.145643 
L 300.904561 150.475587 
L 302.417421 149.584963 
L 303.904309 148.448955 
L 305.371718 147.043853 
L 306.826142 145.337998 
L 308.267579 143.299135 
L 309.702523 140.876538 
L 311.124482 138.030619 
L 312.533454 134.70264 
L 313.929441 130.820571 
L 315.305949 126.319513 
L 316.662978 121.105892 
L 318.007021 115.041421 
L 319.351063 107.924086 
L 320.721078 99.431071 
L 322.181994 88.912717 
L 324.084432 73.410708 
L 326.019334 58.103784 
L 326.941335 52.495429 
L 327.636082 49.503475 
L 328.194476 47.979118 
L 328.635998 47.339553 
L 328.986618 47.175339 
L 329.29828 47.270158 
L 329.655393 47.636736 
L 330.1099 48.460895 
L 330.700759 50.039635 
L 331.499394 52.872088 
L 332.668127 57.933308 
L 335.512044 71.614258 
L 337.979369 82.834961 
L 340.10906 91.499601 
L 342.206286 99.11527 
L 344.335978 106.022081 
L 346.524105 112.373331 
L 348.783656 118.25694 
L 351.09515 123.664097 
L 353.406644 128.515847 
L 355.614251 132.646921 
L 357.627069 135.958 
L 359.412633 138.482881 
L 360.996916 140.352248 
L 362.43186 141.712917 
L 363.76941 142.682516 
L 365.055016 143.344616 
L 366.340623 143.75822 
L 367.684666 143.95528 
L 369.165061 143.942196 
L 370.898681 143.695774 
L 373.125767 143.14066 
L 376.547557 142.032004 
L 385.813013 138.710193 
L 393.007214 135.951581 
L 398.331442 133.673088 
L 398.487273 133.602394 
L 398.487273 133.602394 
" style="fill:none;stroke:#bfbf00;stroke-linecap:square;stroke-width:1.5;"/>
   </g>
   <g id="patch_3">
    <path d="M 57.6 162.432 
L 57.6 41.472 
" style="fill:none;stroke:#000000;stroke-linecap:square;stroke-linejoin:miter;stroke-width:0.8;"/>
   </g>
   <g id="patch_4">
    <path d="M 414.72 162.432 
L 414.72 41.472 
" style="fill:none;stroke:#000000;stroke-linecap:square;stroke-linejoin:miter;stroke-width:0.8;"/>
   </g>
   <g id="patch_5">
    <path d="M 57.6 162.432 
L 414.72 162.432 
" style="fill:none;stroke:#000000;stroke-linecap:square;stroke-linejoin:miter;stroke-width:0.8;"/>
   </g>
   <g id="patch_6">
    <path d="M 57.6 41.472 
L 414.72 41.472 
" style="fill:none;stroke:#000000;stroke-linecap:square;stroke-linejoin:miter;stroke-width:0.8;"/>
   </g>
   <g id="legend_1">
    <g id="patch_7">
     <path d="M 64.6 94.472 
L 171.917188 94.472 
Q 173.917188 94.472 173.917188 92.472 
L 173.917188 48.472 
Q 173.917188 46.472 171.917188 46.472 
L 64.6 46.472 
Q 62.6 46.472 62.6 48.472 
L 62.6 92.472 
Q 62.6 94.472 64.6 94.472 
z
" style="fill:#ffffff;opacity:0.8;stroke:#cccccc;stroke-linejoin:miter;"/>
    </g>
    <g id="line2d_13">
     <path d="M 66.6 54.614187 
L 86.6 54.614187 
" style="fill:none;stroke:#0000ff;stroke-linecap:square;stroke-width:1.5;"/>
    </g>
    <g id="line2d_14"/>
    <g id="text_12">
     <!-- [ 1. 10.] | I |  -->
     <defs>
      <path d="M 8.59375 75.984375 
L 29.296875 75.984375 
L 29.296875 69 
L 17.578125 69 
L 17.578125 -6.203125 
L 29.296875 -6.203125 
L 29.296875 -13.1875 
L 8.59375 -13.1875 
z
" id="DejaVuSans-91"/>
      <path d="M 10.6875 12.40625 
L 21 12.40625 
L 21 0 
L 10.6875 0 
z
" id="DejaVuSans-46"/>
      <path d="M 30.421875 75.984375 
L 30.421875 -13.1875 
L 9.71875 -13.1875 
L 9.71875 -6.203125 
L 21.390625 -6.203125 
L 21.390625 69 
L 9.71875 69 
L 9.71875 75.984375 
z
" id="DejaVuSans-93"/>
      <path d="M 21 76.421875 
L 21 -23.578125 
L 12.703125 -23.578125 
L 12.703125 76.421875 
z
" id="DejaVuSans-124"/>
      <path d="M 9.8125 72.90625 
L 19.671875 72.90625 
L 19.671875 0 
L 9.8125 0 
z
" id="DejaVuSans-73"/>
     </defs>
     <g transform="translate(94.6 58.114187)scale(0.1 -0.1)">
      <use xlink:href="#DejaVuSans-91"/>
      <use x="39.013672" xlink:href="#DejaVuSans-32"/>
      <use x="70.800781" xlink:href="#DejaVuSans-49"/>
      <use x="134.423828" xlink:href="#DejaVuSans-46"/>
      <use x="166.210938" xlink:href="#DejaVuSans-32"/>
      <use x="197.998047" xlink:href="#DejaVuSans-49"/>
      <use x="261.621094" xlink:href="#DejaVuSans-48"/>
      <use x="325.244141" xlink:href="#DejaVuSans-46"/>
      <use x="357.03125" xlink:href="#DejaVuSans-93"/>
      <use x="396.044922" xlink:href="#DejaVuSans-32"/>
      <use x="427.832031" xlink:href="#DejaVuSans-124"/>
      <use x="461.523438" xlink:href="#DejaVuSans-32"/>
      <use x="493.310547" xlink:href="#DejaVuSans-73"/>
      <use x="522.802734" xlink:href="#DejaVuSans-32"/>
      <use x="554.589844" xlink:href="#DejaVuSans-124"/>
      <use x="588.28125" xlink:href="#DejaVuSans-32"/>
     </g>
    </g>
    <g id="line2d_15">
     <path d="M 66.6 69.614187 
L 86.6 69.614187 
" style="fill:none;stroke:#008000;stroke-linecap:square;stroke-width:1.5;"/>
    </g>
    <g id="line2d_16"/>
    <g id="text_13">
     <!-- [ 1. 10.] | E |  -->
     <defs>
      <path d="M 9.8125 72.90625 
L 55.90625 72.90625 
L 55.90625 64.59375 
L 19.671875 64.59375 
L 19.671875 43.015625 
L 54.390625 43.015625 
L 54.390625 34.71875 
L 19.671875 34.71875 
L 19.671875 8.296875 
L 56.78125 8.296875 
L 56.78125 0 
L 9.8125 0 
z
" id="DejaVuSans-69"/>
     </defs>
     <g transform="translate(94.6 73.114187)scale(0.1 -0.1)">
      <use xlink:href="#DejaVuSans-91"/>
      <use x="39.013672" xlink:href="#DejaVuSans-32"/>
      <use x="70.800781" xlink:href="#DejaVuSans-49"/>
      <use x="134.423828" xlink:href="#DejaVuSans-46"/>
      <use x="166.210938" xlink:href="#DejaVuSans-32"/>
      <use x="197.998047" xlink:href="#DejaVuSans-49"/>
      <use x="261.621094" xlink:href="#DejaVuSans-48"/>
      <use x="325.244141" xlink:href="#DejaVuSans-46"/>
      <use x="357.03125" xlink:href="#DejaVuSans-93"/>
      <use x="396.044922" xlink:href="#DejaVuSans-32"/>
      <use x="427.832031" xlink:href="#DejaVuSans-124"/>
      <use x="461.523438" xlink:href="#DejaVuSans-32"/>
      <use x="493.310547" xlink:href="#DejaVuSans-69"/>
      <use x="556.494141" xlink:href="#DejaVuSans-32"/>
      <use x="588.28125" xlink:href="#DejaVuSans-124"/>
      <use x="621.972656" xlink:href="#DejaVuSans-32"/>
     </g>
    </g>
    <g id="line2d_17">
     <path d="M 66.6 84.614187 
L 86.6 84.614187 
" style="fill:none;stroke:#bfbf00;stroke-linecap:square;stroke-width:1.5;"/>
    </g>
    <g id="line2d_18"/>
    <g id="text_14">
     <!-- [ 1. 10.] | rk4 |  -->
     <defs>
      <path d="M 9.078125 75.984375 
L 18.109375 75.984375 
L 18.109375 31.109375 
L 44.921875 54.6875 
L 56.390625 54.6875 
L 27.390625 29.109375 
L 57.625 0 
L 45.90625 0 
L 18.109375 26.703125 
L 18.109375 0 
L 9.078125 0 
z
" id="DejaVuSans-107"/>
     </defs>
     <g transform="translate(94.6 88.114187)scale(0.1 -0.1)">
      <use xlink:href="#DejaVuSans-91"/>
      <use x="39.013672" xlink:href="#DejaVuSans-32"/>
      <use x="70.800781" xlink:href="#DejaVuSans-49"/>
      <use x="134.423828" xlink:href="#DejaVuSans-46"/>
      <use x="166.210938" xlink:href="#DejaVuSans-32"/>
      <use x="197.998047" xlink:href="#DejaVuSans-49"/>
      <use x="261.621094" xlink:href="#DejaVuSans-48"/>
      <use x="325.244141" xlink:href="#DejaVuSans-46"/>
      <use x="357.03125" xlink:href="#DejaVuSans-93"/>
      <use x="396.044922" xlink:href="#DejaVuSans-32"/>
      <use x="427.832031" xlink:href="#DejaVuSans-124"/>
      <use x="461.523438" xlink:href="#DejaVuSans-32"/>
      <use x="493.310547" xlink:href="#DejaVuSans-114"/>
      <use x="534.423828" xlink:href="#DejaVuSans-107"/>
      <use x="592.333984" xlink:href="#DejaVuSans-52"/>
      <use x="655.957031" xlink:href="#DejaVuSans-32"/>
      <use x="687.744141" xlink:href="#DejaVuSans-124"/>
      <use x="721.435547" xlink:href="#DejaVuSans-32"/>
     </g>
    </g>
   </g>
  </g>
  <g id="axes_2">
   <g id="patch_8">
    <path d="M 57.6 307.584 
L 414.72 307.584 
L 414.72 186.624 
L 57.6 186.624 
z
" style="fill:#ffffff;"/>
   </g>
   <g id="matplotlib.axis_3">
    <g id="xtick_7">
     <g id="line2d_19">
      <g>
       <use style="stroke:#000000;stroke-width:0.8;" x="73.832727" xlink:href="#m83f3510c02" y="307.584"/>
      </g>
     </g>
     <g id="text_15">
      <!-- 0 -->
      <g transform="translate(70.651477 322.182437)scale(0.1 -0.1)">
       <use xlink:href="#DejaVuSans-48"/>
      </g>
     </g>
    </g>
    <g id="xtick_8">
     <g id="line2d_20">
      <g>
       <use style="stroke:#000000;stroke-width:0.8;" x="138.762338" xlink:href="#m83f3510c02" y="307.584"/>
      </g>
     </g>
     <g id="text_16">
      <!-- 1 -->
      <g transform="translate(135.581088 322.182437)scale(0.1 -0.1)">
       <use xlink:href="#DejaVuSans-49"/>
      </g>
     </g>
    </g>
    <g id="xtick_9">
     <g id="line2d_21">
      <g>
       <use style="stroke:#000000;stroke-width:0.8;" x="203.691948" xlink:href="#m83f3510c02" y="307.584"/>
      </g>
     </g>
     <g id="text_17">
      <!-- 2 -->
      <g transform="translate(200.510698 322.182437)scale(0.1 -0.1)">
       <use xlink:href="#DejaVuSans-50"/>
      </g>
     </g>
    </g>
    <g id="xtick_10">
     <g id="line2d_22">
      <g>
       <use style="stroke:#000000;stroke-width:0.8;" x="268.621559" xlink:href="#m83f3510c02" y="307.584"/>
      </g>
     </g>
     <g id="text_18">
      <!-- 3 -->
      <g transform="translate(265.440309 322.182437)scale(0.1 -0.1)">
       <use xlink:href="#DejaVuSans-51"/>
      </g>
     </g>
    </g>
    <g id="xtick_11">
     <g id="line2d_23">
      <g>
       <use style="stroke:#000000;stroke-width:0.8;" x="333.551169" xlink:href="#m83f3510c02" y="307.584"/>
      </g>
     </g>
     <g id="text_19">
      <!-- 4 -->
      <g transform="translate(330.369919 322.182437)scale(0.1 -0.1)">
       <use xlink:href="#DejaVuSans-52"/>
      </g>
     </g>
    </g>
    <g id="xtick_12">
     <g id="line2d_24">
      <g>
       <use style="stroke:#000000;stroke-width:0.8;" x="398.48078" xlink:href="#m83f3510c02" y="307.584"/>
      </g>
     </g>
     <g id="text_20">
      <!-- 5 -->
      <g transform="translate(395.29953 322.182437)scale(0.1 -0.1)">
       <use xlink:href="#DejaVuSans-53"/>
      </g>
     </g>
    </g>
    <g id="text_21">
     <!-- time -->
     <g transform="translate(224.863906 335.860562)scale(0.1 -0.1)">
      <use xlink:href="#DejaVuSans-116"/>
      <use x="39.208984" xlink:href="#DejaVuSans-105"/>
      <use x="66.992188" xlink:href="#DejaVuSans-109"/>
      <use x="164.404297" xlink:href="#DejaVuSans-101"/>
     </g>
    </g>
   </g>
   <g id="matplotlib.axis_4">
    <g id="ytick_4">
     <g id="line2d_25">
      <g>
       <use style="stroke:#000000;stroke-width:0.8;" x="57.6" xlink:href="#m6750b727a9" y="280.948199"/>
      </g>
     </g>
     <g id="text_22">
      <!-- −20 -->
      <defs>
       <path d="M 10.59375 35.5 
L 73.1875 35.5 
L 73.1875 27.203125 
L 10.59375 27.203125 
z
" id="DejaVuSans-8722"/>
      </defs>
      <g transform="translate(29.495313 284.747418)scale(0.1 -0.1)">
       <use xlink:href="#DejaVuSans-8722"/>
       <use x="83.789062" xlink:href="#DejaVuSans-50"/>
       <use x="147.412109" xlink:href="#DejaVuSans-48"/>
      </g>
     </g>
    </g>
    <g id="ytick_5">
     <g id="line2d_26">
      <g>
       <use style="stroke:#000000;stroke-width:0.8;" x="57.6" xlink:href="#m6750b727a9" y="240.826867"/>
      </g>
     </g>
     <g id="text_23">
      <!-- 0 -->
      <g transform="translate(44.2375 244.626086)scale(0.1 -0.1)">
       <use xlink:href="#DejaVuSans-48"/>
      </g>
     </g>
    </g>
    <g id="ytick_6">
     <g id="line2d_27">
      <g>
       <use style="stroke:#000000;stroke-width:0.8;" x="57.6" xlink:href="#m6750b727a9" y="200.705536"/>
      </g>
     </g>
     <g id="text_24">
      <!-- 20 -->
      <g transform="translate(37.875 204.504755)scale(0.1 -0.1)">
       <use xlink:href="#DejaVuSans-50"/>
       <use x="63.623047" xlink:href="#DejaVuSans-48"/>
      </g>
     </g>
    </g>
    <g id="text_25">
     <!-- Total energy -->
     <g transform="translate(23.415625 277.793062)rotate(-90)scale(0.1 -0.1)">
      <use xlink:href="#DejaVuSans-84"/>
      <use x="44.083984" xlink:href="#DejaVuSans-111"/>
      <use x="105.265625" xlink:href="#DejaVuSans-116"/>
      <use x="144.474609" xlink:href="#DejaVuSans-97"/>
      <use x="205.753906" xlink:href="#DejaVuSans-108"/>
      <use x="233.537109" xlink:href="#DejaVuSans-32"/>
      <use x="265.324219" xlink:href="#DejaVuSans-101"/>
      <use x="326.847656" xlink:href="#DejaVuSans-110"/>
      <use x="390.226562" xlink:href="#DejaVuSans-101"/>
      <use x="451.75" xlink:href="#DejaVuSans-114"/>
      <use x="491.113281" xlink:href="#DejaVuSans-103"/>
      <use x="554.589844" xlink:href="#DejaVuSans-121"/>
     </g>
    </g>
   </g>
   <g id="line2d_28">
    <path clip-path="url(#p6dd1b9f459)" d="M 73.832727 240.826867 
L 93.305117 241.227335 
L 102.349812 241.637168 
L 109.115478 242.15869 
L 114.640987 242.801787 
L 119.419807 243.577897 
L 123.763598 244.506455 
L 127.977529 245.635458 
L 132.665447 247.131944 
L 140.794635 249.769797 
L 143.365847 250.329936 
L 145.489045 250.570941 
L 147.378497 250.565267 
L 149.125104 250.339744 
L 150.787302 249.901524 
L 152.404049 249.244132 
L 153.994824 248.355773 
L 155.5856 247.209875 
L 157.182868 245.781835 
L 158.799616 244.032871 
L 160.429349 241.936893 
L 162.072068 239.456613 
L 163.727773 236.546497 
L 165.383478 233.178612 
L 167.039183 229.296622 
L 168.694888 224.834664 
L 170.363579 219.682546 
L 172.110186 213.542359 
L 174.291821 204.979279 
L 176.415019 196.865874 
L 177.337019 194.173769 
L 177.999301 192.854629 
L 178.505752 192.283433 
L 178.908316 192.128327 
L 179.271922 192.223219 
L 179.667992 192.577893 
L 180.141979 193.329577 
L 180.739331 194.729753 
L 181.531472 197.206461 
L 182.713191 201.721077 
L 187.115419 219.140585 
L 188.875011 224.908165 
L 190.595646 229.803186 
L 192.316281 234.041081 
L 194.043408 237.714483 
L 195.770536 240.875244 
L 197.49117 243.569912 
L 199.198819 245.839679 
L 200.886989 247.721683 
L 202.55568 249.255959 
L 204.211385 250.481319 
L 205.860597 251.429032 
L 207.522795 252.129767 
L 209.217458 252.604039 
L 210.990036 252.867825 
L 212.885981 252.922061 
L 214.996193 252.754717 
L 217.495983 252.324673 
L 220.943746 251.485931 
L 230.001426 249.193502 
L 233.95564 248.48156 
L 237.877388 248.002337 
L 241.974447 247.727603 
L 246.350702 247.659318 
L 251.03862 247.810571 
L 255.979764 248.193741 
L 260.998822 248.805619 
L 265.894515 249.624873 
L 270.523996 250.622765 
L 274.867787 251.78472 
L 278.990818 253.117027 
L 283.048918 254.663235 
L 287.425174 256.576037 
L 298.060644 261.356922 
L 300.456547 262.094731 
L 302.50183 262.497441 
L 304.34583 262.638053 
L 306.072958 262.548479 
L 307.72217 262.241041 
L 309.332425 261.714152 
L 310.929693 260.955156 
L 312.526961 259.946704 
L 314.137216 258.663112 
L 315.766949 257.074895 
L 317.416161 255.152222 
L 319.084852 252.859636 
L 320.766529 250.16542 
L 322.461192 247.022879 
L 324.168841 243.377764 
L 325.902461 239.140734 
L 327.726983 234.075849 
L 330.090421 226.783948 
L 332.090253 220.841715 
L 333.012254 218.750011 
L 333.668043 217.75739 
L 334.168001 217.364537 
L 334.570564 217.311646 
L 334.947156 217.490532 
L 335.369198 217.960566 
L 335.869156 218.880577 
L 336.492481 220.537451 
L 337.297608 223.367542 
L 338.48582 228.45638 
L 342.67378 247.002585 
L 344.400907 253.342083 
L 346.102063 258.757557 
L 347.822698 263.505693 
L 349.569304 267.684233 
L 351.341883 271.35953 
L 353.140433 274.585618 
L 354.951969 277.386866 
L 356.776491 279.805831 
L 358.613999 281.87763 
L 360.464493 283.632924 
L 362.340959 285.109824 
L 364.275861 286.351191 
L 366.314651 287.394452 
L 368.554722 288.287175 
L 371.223329 289.101887 
L 375.671008 290.183764 
L 379.969348 291.31854 
L 383.001561 292.352719 
L 385.845478 293.558549 
L 388.721859 295.023092 
L 391.799523 296.845941 
L 395.409609 299.25528 
L 398.487273 301.444768 
L 398.487273 301.444768 
" style="fill:none;stroke:#000000;stroke-linecap:square;stroke-width:1.5;"/>
   </g>
   <g id="line2d_29">
    <path clip-path="url(#p6dd1b9f459)" d="M 73.832727 240.826867 
L 93.324596 241.227706 
L 102.369291 241.637565 
L 109.134957 242.159008 
L 114.660466 242.801892 
L 119.439286 243.577627 
L 123.78957 244.507194 
L 128.009994 245.637699 
L 132.704405 247.135969 
L 140.820606 249.76832 
L 143.391819 250.328573 
L 145.52151 250.57037 
L 147.410962 250.5646 
L 149.157568 250.339154 
L 150.819766 249.90117 
L 152.436514 249.244163 
L 154.033782 248.352189 
L 155.624558 247.205854 
L 157.221826 245.777403 
L 158.838573 244.028011 
L 160.468307 241.931536 
L 162.111026 239.450615 
L 163.766731 236.539625 
L 165.422436 233.170528 
L 167.078141 229.286864 
L 168.727353 224.841375 
L 170.396044 219.688976 
L 172.142651 213.547897 
L 174.324285 204.982629 
L 176.447484 196.865709 
L 177.369484 194.171655 
L 178.031766 192.851049 
L 178.538217 192.278769 
L 178.940781 192.122869 
L 179.304387 192.217123 
L 179.700457 192.571209 
L 180.174443 193.322359 
L 180.771796 194.722131 
L 181.563937 197.198717 
L 182.745656 201.713742 
L 187.147884 219.136528 
L 188.907476 224.905779 
L 190.628111 229.802662 
L 192.348745 234.042625 
L 194.075873 237.718263 
L 195.803001 240.881367 
L 197.523635 243.578421 
L 199.231284 245.850559 
L 200.919454 247.734864 
L 202.588145 249.271335 
L 204.24385 250.498763 
L 205.893062 251.448404 
L 207.55526 252.150939 
L 209.249923 252.626904 
L 211.022501 252.892338 
L 212.918446 252.948261 
L 215.028658 252.782835 
L 217.534941 252.354016 
L 221.002182 251.51453 
L 229.832609 249.295514 
L 233.747865 248.596596 
L 237.604684 248.134884 
L 241.597855 247.882514 
L 245.811787 247.84095 
L 250.252972 248.020982 
L 254.849988 248.430612 
L 259.453498 249.06353 
L 263.920655 249.900554 
L 268.180037 250.923014 
L 272.251124 252.127752 
L 276.244295 253.541982 
L 280.432255 255.266164 
L 286.535638 258.058678 
L 290.853457 259.92341 
L 293.509078 260.833094 
L 295.68422 261.349028 
L 297.606137 261.580468 
L 299.378715 261.572065 
L 301.053899 261.343163 
L 302.677139 260.897009 
L 304.274408 260.226271 
L 305.865183 259.315244 
L 307.468945 258.136823 
L 309.085692 256.669041 
L 310.728411 254.871545 
L 312.390609 252.715984 
L 314.065793 250.172389 
L 315.753963 247.196401 
L 317.448626 243.749169 
L 319.156275 239.761649 
L 320.915867 235.072155 
L 322.863755 229.215242 
L 326.532278 217.998888 
L 327.350391 216.29865 
L 327.947744 215.517314 
L 328.408744 215.244383 
L 328.791829 215.261821 
L 329.174914 215.512786 
L 329.616435 216.095074 
L 330.148858 217.200252 
L 330.817633 219.147012 
L 331.713661 222.510888 
L 333.174578 228.999818 
L 336.148354 242.21697 
L 337.914439 248.977156 
L 339.622088 254.650898 
L 341.33623 259.58846 
L 343.076343 263.933689 
L 344.842429 267.755413 
L 346.627993 271.099398 
L 348.433036 274.015904 
L 350.244572 276.528272 
L 352.062601 278.676711 
L 353.893616 280.501319 
L 355.74411 282.034872 
L 357.633562 283.314231 
L 359.600929 284.378494 
L 361.717634 285.268662 
L 364.126523 286.034502 
L 367.295088 286.791499 
L 374.625641 288.470533 
L 377.60591 289.436072 
L 380.423855 290.583584 
L 383.274265 291.98714 
L 386.306478 293.733328 
L 389.793198 296.008823 
L 395.838145 300.283774 
L 398.487273 302.085818 
L 398.487273 302.085818 
" style="fill:none;stroke:#ff0000;stroke-linecap:square;stroke-width:1.5;"/>
   </g>
   <g id="line2d_30">
    <path clip-path="url(#p6dd1b9f459)" d="M 73.832727 240.826867 
L 93.31161 241.227413 
L 102.356305 241.63717 
L 109.121971 242.158537 
L 114.64748 242.801389 
L 119.4263 243.577153 
L 123.776584 244.506825 
L 127.997008 245.637536 
L 132.684926 247.133959 
L 140.807621 249.76906 
L 143.378833 250.329255 
L 145.508524 250.570837 
L 147.397976 250.56472 
L 149.144582 250.338813 
L 150.806781 249.90026 
L 152.423528 249.242582 
L 154.014303 248.353977 
L 155.605079 247.207859 
L 157.202347 245.779613 
L 158.819094 244.030433 
L 160.448828 241.934206 
L 162.091547 239.453604 
L 163.747252 236.543049 
L 165.402957 233.174557 
L 167.058662 229.291727 
L 168.714367 224.828637 
L 170.383058 219.675038 
L 172.129665 213.532997 
L 174.317792 204.941595 
L 176.434498 196.854933 
L 177.356498 194.164816 
L 178.01878 192.847893 
L 178.525231 192.278765 
L 178.927795 192.125456 
L 179.291401 192.222026 
L 179.687471 192.578523 
L 180.161457 193.332289 
L 180.765303 194.752504 
L 181.563937 197.259203 
L 182.758642 201.836217 
L 187.076461 218.944546 
L 188.836053 224.738144 
L 190.556688 229.656548 
L 192.277323 233.915263 
L 194.00445 237.607227 
L 195.731578 240.784606 
L 197.452213 243.494266 
L 199.159861 245.777656 
L 200.848031 247.672099 
L 202.516722 249.217798 
L 204.172427 250.453702 
L 205.821639 251.411158 
L 207.483838 252.12093 
L 209.1785 252.603566 
L 210.944586 252.874532 
L 212.834037 252.936816 
L 214.937757 252.778127 
L 217.424561 252.358306 
L 220.826872 251.538853 
L 230.085835 249.209705 
L 234.014076 248.515182 
L 237.909853 248.053571 
L 241.961461 247.799253 
L 246.266294 247.754063 
L 250.837338 247.930459 
L 255.596679 248.337646 
L 260.381991 248.969678 
L 265.024458 249.805354 
L 269.433179 250.823008 
L 273.608153 252.013609 
L 277.640282 253.394667 
L 281.743833 255.038389 
L 286.67199 257.268608 
L 293.275332 260.24518 
L 295.982897 261.206136 
L 298.18401 261.757866 
L 300.118913 262.018549 
L 301.897984 262.037065 
L 303.579661 261.834002 
L 305.209394 261.412856 
L 306.806663 260.769568 
L 308.397438 259.887578 
L 310.0012 258.740344 
L 311.617947 257.306265 
L 313.254173 255.553409 
L 314.909878 253.449186 
L 316.585062 250.954422 
L 318.273232 248.033604 
L 319.967895 244.64907 
L 321.675544 240.733223 
L 323.428643 236.144211 
L 325.357052 230.443836 
L 329.259322 218.674426 
L 330.051463 217.099166 
L 330.63583 216.382612 
L 331.083844 216.148056 
L 331.466929 216.188234 
L 331.856506 216.468254 
L 332.304521 217.091245 
L 332.849929 218.267616 
L 333.538183 220.333148 
L 334.460184 223.873612 
L 336.044466 231.002364 
L 338.739045 242.992865 
L 340.505131 249.80074 
L 342.212779 255.51456 
L 343.926921 260.486092 
L 345.660542 264.845434 
L 347.426627 268.695022 
L 349.212191 272.064144 
L 351.017234 275.004023 
L 352.835264 277.546989 
L 354.659786 279.722919 
L 356.497294 281.572782 
L 358.35428 283.130041 
L 360.250225 284.432256 
L 362.230578 285.522536 
L 364.360269 286.438456 
L 366.788637 287.234171 
L 370.002653 288.035472 
L 377.112445 289.746409 
L 380.1057 290.744942 
L 382.936631 291.925061 
L 385.800027 293.3628 
L 388.858211 295.153013 
L 392.409861 297.501604 
L 398.487273 301.81863 
L 398.487273 301.81863 
" style="fill:none;stroke:#00bfbf;stroke-linecap:square;stroke-width:1.5;"/>
   </g>
   <g id="patch_9">
    <path d="M 57.6 307.584 
L 57.6 186.624 
" style="fill:none;stroke:#000000;stroke-linecap:square;stroke-linejoin:miter;stroke-width:0.8;"/>
   </g>
   <g id="patch_10">
    <path d="M 414.72 307.584 
L 414.72 186.624 
" style="fill:none;stroke:#000000;stroke-linecap:square;stroke-linejoin:miter;stroke-width:0.8;"/>
   </g>
   <g id="patch_11">
    <path d="M 57.6 307.584 
L 414.72 307.584 
" style="fill:none;stroke:#000000;stroke-linecap:square;stroke-linejoin:miter;stroke-width:0.8;"/>
   </g>
   <g id="patch_12">
    <path d="M 57.6 186.624 
L 414.72 186.624 
" style="fill:none;stroke:#000000;stroke-linecap:square;stroke-linejoin:miter;stroke-width:0.8;"/>
   </g>
   <g id="legend_2">
    <g id="patch_13">
     <path d="M 64.6 302.584 
L 171.917188 302.584 
Q 173.917188 302.584 173.917188 300.584 
L 173.917188 256.584 
Q 173.917188 254.584 171.917188 254.584 
L 64.6 254.584 
Q 62.6 254.584 62.6 256.584 
L 62.6 300.584 
Q 62.6 302.584 64.6 302.584 
z
" style="fill:#ffffff;opacity:0.8;stroke:#cccccc;stroke-linejoin:miter;"/>
    </g>
    <g id="line2d_31">
     <path d="M 66.6 262.726187 
L 86.6 262.726187 
" style="fill:none;stroke:#000000;stroke-linecap:square;stroke-width:1.5;"/>
    </g>
    <g id="line2d_32"/>
    <g id="text_26">
     <!-- [10.  1.] | I |  -->
     <g transform="translate(94.6 266.226187)scale(0.1 -0.1)">
      <use xlink:href="#DejaVuSans-91"/>
      <use x="39.013672" xlink:href="#DejaVuSans-49"/>
      <use x="102.636719" xlink:href="#DejaVuSans-48"/>
      <use x="166.259766" xlink:href="#DejaVuSans-46"/>
      <use x="198.046875" xlink:href="#DejaVuSans-32"/>
      <use x="229.833984" xlink:href="#DejaVuSans-32"/>
      <use x="261.621094" xlink:href="#DejaVuSans-49"/>
      <use x="325.244141" xlink:href="#DejaVuSans-46"/>
      <use x="357.03125" xlink:href="#DejaVuSans-93"/>
      <use x="396.044922" xlink:href="#DejaVuSans-32"/>
      <use x="427.832031" xlink:href="#DejaVuSans-124"/>
      <use x="461.523438" xlink:href="#DejaVuSans-32"/>
      <use x="493.310547" xlink:href="#DejaVuSans-73"/>
      <use x="522.802734" xlink:href="#DejaVuSans-32"/>
      <use x="554.589844" xlink:href="#DejaVuSans-124"/>
      <use x="588.28125" xlink:href="#DejaVuSans-32"/>
     </g>
    </g>
    <g id="line2d_33">
     <path d="M 66.6 277.726187 
L 86.6 277.726187 
" style="fill:none;stroke:#ff0000;stroke-linecap:square;stroke-width:1.5;"/>
    </g>
    <g id="line2d_34"/>
    <g id="text_27">
     <!-- [10.  1.] | E |  -->
     <g transform="translate(94.6 281.226187)scale(0.1 -0.1)">
      <use xlink:href="#DejaVuSans-91"/>
      <use x="39.013672" xlink:href="#DejaVuSans-49"/>
      <use x="102.636719" xlink:href="#DejaVuSans-48"/>
      <use x="166.259766" xlink:href="#DejaVuSans-46"/>
      <use x="198.046875" xlink:href="#DejaVuSans-32"/>
      <use x="229.833984" xlink:href="#DejaVuSans-32"/>
      <use x="261.621094" xlink:href="#DejaVuSans-49"/>
      <use x="325.244141" xlink:href="#DejaVuSans-46"/>
      <use x="357.03125" xlink:href="#DejaVuSans-93"/>
      <use x="396.044922" xlink:href="#DejaVuSans-32"/>
      <use x="427.832031" xlink:href="#DejaVuSans-124"/>
      <use x="461.523438" xlink:href="#DejaVuSans-32"/>
      <use x="493.310547" xlink:href="#DejaVuSans-69"/>
      <use x="556.494141" xlink:href="#DejaVuSans-32"/>
      <use x="588.28125" xlink:href="#DejaVuSans-124"/>
      <use x="621.972656" xlink:href="#DejaVuSans-32"/>
     </g>
    </g>
    <g id="line2d_35">
     <path d="M 66.6 292.726187 
L 86.6 292.726187 
" style="fill:none;stroke:#00bfbf;stroke-linecap:square;stroke-width:1.5;"/>
    </g>
    <g id="line2d_36"/>
    <g id="text_28">
     <!-- [10.  1.] | rk4 |  -->
     <g transform="translate(94.6 296.226187)scale(0.1 -0.1)">
      <use xlink:href="#DejaVuSans-91"/>
      <use x="39.013672" xlink:href="#DejaVuSans-49"/>
      <use x="102.636719" xlink:href="#DejaVuSans-48"/>
      <use x="166.259766" xlink:href="#DejaVuSans-46"/>
      <use x="198.046875" xlink:href="#DejaVuSans-32"/>
      <use x="229.833984" xlink:href="#DejaVuSans-32"/>
      <use x="261.621094" xlink:href="#DejaVuSans-49"/>
      <use x="325.244141" xlink:href="#DejaVuSans-46"/>
      <use x="357.03125" xlink:href="#DejaVuSans-93"/>
      <use x="396.044922" xlink:href="#DejaVuSans-32"/>
      <use x="427.832031" xlink:href="#DejaVuSans-124"/>
      <use x="461.523438" xlink:href="#DejaVuSans-32"/>
      <use x="493.310547" xlink:href="#DejaVuSans-114"/>
      <use x="534.423828" xlink:href="#DejaVuSans-107"/>
      <use x="592.333984" xlink:href="#DejaVuSans-52"/>
      <use x="655.957031" xlink:href="#DejaVuSans-32"/>
      <use x="687.744141" xlink:href="#DejaVuSans-124"/>
      <use x="721.435547" xlink:href="#DejaVuSans-32"/>
     </g>
    </g>
   </g>
  </g>
  <g id="text_29">
   <!-- Total energy of the system -->
   <defs>
    <path d="M 37.109375 75.984375 
L 37.109375 68.5 
L 28.515625 68.5 
Q 23.6875 68.5 21.796875 66.546875 
Q 19.921875 64.59375 19.921875 59.515625 
L 19.921875 54.6875 
L 34.71875 54.6875 
L 34.71875 47.703125 
L 19.921875 47.703125 
L 19.921875 0 
L 10.890625 0 
L 10.890625 47.703125 
L 2.296875 47.703125 
L 2.296875 54.6875 
L 10.890625 54.6875 
L 10.890625 58.5 
Q 10.890625 67.625 15.140625 71.796875 
Q 19.390625 75.984375 28.609375 75.984375 
z
" id="DejaVuSans-102"/>
    <path d="M 54.890625 33.015625 
L 54.890625 0 
L 45.90625 0 
L 45.90625 32.71875 
Q 45.90625 40.484375 42.875 44.328125 
Q 39.84375 48.1875 33.796875 48.1875 
Q 26.515625 48.1875 22.3125 43.546875 
Q 18.109375 38.921875 18.109375 30.90625 
L 18.109375 0 
L 9.078125 0 
L 9.078125 75.984375 
L 18.109375 75.984375 
L 18.109375 46.1875 
Q 21.34375 51.125 25.703125 53.5625 
Q 30.078125 56 35.796875 56 
Q 45.21875 56 50.046875 50.171875 
Q 54.890625 44.34375 54.890625 33.015625 
z
" id="DejaVuSans-104"/>
    <path d="M 44.28125 53.078125 
L 44.28125 44.578125 
Q 40.484375 46.53125 36.375 47.5 
Q 32.28125 48.484375 27.875 48.484375 
Q 21.1875 48.484375 17.84375 46.4375 
Q 14.5 44.390625 14.5 40.28125 
Q 14.5 37.15625 16.890625 35.375 
Q 19.28125 33.59375 26.515625 31.984375 
L 29.59375 31.296875 
Q 39.15625 29.25 43.1875 25.515625 
Q 47.21875 21.78125 47.21875 15.09375 
Q 47.21875 7.46875 41.1875 3.015625 
Q 35.15625 -1.421875 24.609375 -1.421875 
Q 20.21875 -1.421875 15.453125 -0.5625 
Q 10.6875 0.296875 5.421875 2 
L 5.421875 11.28125 
Q 10.40625 8.6875 15.234375 7.390625 
Q 20.0625 6.109375 24.8125 6.109375 
Q 31.15625 6.109375 34.5625 8.28125 
Q 37.984375 10.453125 37.984375 14.40625 
Q 37.984375 18.0625 35.515625 20.015625 
Q 33.0625 21.96875 24.703125 23.78125 
L 21.578125 24.515625 
Q 13.234375 26.265625 9.515625 29.90625 
Q 5.8125 33.546875 5.8125 39.890625 
Q 5.8125 47.609375 11.28125 51.796875 
Q 16.75 56 26.8125 56 
Q 31.78125 56 36.171875 55.265625 
Q 40.578125 54.546875 44.28125 53.078125 
z
" id="DejaVuSans-115"/>
   </defs>
   <g transform="translate(150.531563 16.030125)scale(0.12 -0.12)">
    <use xlink:href="#DejaVuSans-84"/>
    <use x="44.083984" xlink:href="#DejaVuSans-111"/>
    <use x="105.265625" xlink:href="#DejaVuSans-116"/>
    <use x="144.474609" xlink:href="#DejaVuSans-97"/>
    <use x="205.753906" xlink:href="#DejaVuSans-108"/>
    <use x="233.537109" xlink:href="#DejaVuSans-32"/>
    <use x="265.324219" xlink:href="#DejaVuSans-101"/>
    <use x="326.847656" xlink:href="#DejaVuSans-110"/>
    <use x="390.226562" xlink:href="#DejaVuSans-101"/>
    <use x="451.75" xlink:href="#DejaVuSans-114"/>
    <use x="491.113281" xlink:href="#DejaVuSans-103"/>
    <use x="554.589844" xlink:href="#DejaVuSans-121"/>
    <use x="613.769531" xlink:href="#DejaVuSans-32"/>
    <use x="645.556641" xlink:href="#DejaVuSans-111"/>
    <use x="706.738281" xlink:href="#DejaVuSans-102"/>
    <use x="741.943359" xlink:href="#DejaVuSans-32"/>
    <use x="773.730469" xlink:href="#DejaVuSans-116"/>
    <use x="812.939453" xlink:href="#DejaVuSans-104"/>
    <use x="876.318359" xlink:href="#DejaVuSans-101"/>
    <use x="937.841797" xlink:href="#DejaVuSans-32"/>
    <use x="969.628906" xlink:href="#DejaVuSans-115"/>
    <use x="1021.728516" xlink:href="#DejaVuSans-121"/>
    <use x="1080.908203" xlink:href="#DejaVuSans-115"/>
    <use x="1133.007812" xlink:href="#DejaVuSans-116"/>
    <use x="1172.216797" xlink:href="#DejaVuSans-101"/>
    <use x="1233.740234" xlink:href="#DejaVuSans-109"/>
   </g>
  </g>
 </g>
 <defs>
  <clipPath id="p56e3d9e069">
   <rect height="120.96" width="357.12" x="57.6" y="41.472"/>
  </clipPath>
  <clipPath id="p6dd1b9f459">
   <rect height="120.96" width="357.12" x="57.6" y="186.624"/>
  </clipPath>
 </defs>
</svg>
