<?xml version="1.0" encoding="utf-8" standalone="no"?>
<!DOCTYPE svg PUBLIC "-//W3C//DTD SVG 1.1//EN"
  "http://www.w3.org/Graphics/SVG/1.1/DTD/svg11.dtd">
<!-- Created with matplotlib (https://matplotlib.org/) -->
<svg height="345.6pt" version="1.1" viewBox="0 0 460.8 345.6" width="460.8pt" xmlns="http://www.w3.org/2000/svg" xmlns:xlink="http://www.w3.org/1999/xlink">
 <defs>
  <style type="text/css">
*{stroke-linecap:butt;stroke-linejoin:round;}
  </style>
 </defs>
 <g id="figure_1">
  <g id="patch_1">
   <path d="M 0 345.6 
L 460.8 345.6 
L 460.8 0 
L 0 0 
z
" style="fill:#ffffff;"/>
  </g>
  <g id="axes_1">
   <g id="patch_2">
    <path d="M 57.6 307.584 
L 414.72 307.584 
L 414.72 41.472 
L 57.6 41.472 
z
" style="fill:#ffffff;"/>
   </g>
   <g id="matplotlib.axis_1">
    <g id="xtick_1">
     <g id="line2d_1">
      <defs>
       <path d="M 0 0 
L 0 3.5 
" id="m589c80d1cc" style="stroke:#000000;stroke-width:0.8;"/>
      </defs>
      <g>
       <use style="stroke:#000000;stroke-width:0.8;" x="60.064343" xlink:href="#m589c80d1cc" y="307.584"/>
      </g>
     </g>
     <g id="text_1">
      <!-- −1.5 -->
      <defs>
       <path d="M 10.59375 35.5 
L 73.1875 35.5 
L 73.1875 27.203125 
L 10.59375 27.203125 
z
" id="DejaVuSans-8722"/>
       <path d="M 12.40625 8.296875 
L 28.515625 8.296875 
L 28.515625 63.921875 
L 10.984375 60.40625 
L 10.984375 69.390625 
L 28.421875 72.90625 
L 38.28125 72.90625 
L 38.28125 8.296875 
L 54.390625 8.296875 
L 54.390625 0 
L 12.40625 0 
z
" id="DejaVuSans-49"/>
       <path d="M 10.6875 12.40625 
L 21 12.40625 
L 21 0 
L 10.6875 0 
z
" id="DejaVuSans-46"/>
       <path d="M 10.796875 72.90625 
L 49.515625 72.90625 
L 49.515625 64.59375 
L 19.828125 64.59375 
L 19.828125 46.734375 
Q 21.96875 47.46875 24.109375 47.828125 
Q 26.265625 48.1875 28.421875 48.1875 
Q 40.625 48.1875 47.75 41.5 
Q 54.890625 34.8125 54.890625 23.390625 
Q 54.890625 11.625 47.5625 5.09375 
Q 40.234375 -1.421875 26.90625 -1.421875 
Q 22.3125 -1.421875 17.546875 -0.640625 
Q 12.796875 0.140625 7.71875 1.703125 
L 7.71875 11.625 
Q 12.109375 9.234375 16.796875 8.0625 
Q 21.484375 6.890625 26.703125 6.890625 
Q 35.15625 6.890625 40.078125 11.328125 
Q 45.015625 15.765625 45.015625 23.390625 
Q 45.015625 31 40.078125 35.4375 
Q 35.15625 39.890625 26.703125 39.890625 
Q 22.75 39.890625 18.8125 39.015625 
Q 14.890625 38.140625 10.796875 36.28125 
z
" id="DejaVuSans-53"/>
      </defs>
      <g transform="translate(47.922937 322.182437)scale(0.1 -0.1)">
       <use xlink:href="#DejaVuSans-8722"/>
       <use x="83.789062" xlink:href="#DejaVuSans-49"/>
       <use x="147.412109" xlink:href="#DejaVuSans-46"/>
       <use x="179.199219" xlink:href="#DejaVuSans-53"/>
      </g>
     </g>
    </g>
    <g id="xtick_2">
     <g id="line2d_2">
      <g>
       <use style="stroke:#000000;stroke-width:0.8;" x="125.896134" xlink:href="#m589c80d1cc" y="307.584"/>
      </g>
     </g>
     <g id="text_2">
      <!-- −1.0 -->
      <defs>
       <path d="M 31.78125 66.40625 
Q 24.171875 66.40625 20.328125 58.90625 
Q 16.5 51.421875 16.5 36.375 
Q 16.5 21.390625 20.328125 13.890625 
Q 24.171875 6.390625 31.78125 6.390625 
Q 39.453125 6.390625 43.28125 13.890625 
Q 47.125 21.390625 47.125 36.375 
Q 47.125 51.421875 43.28125 58.90625 
Q 39.453125 66.40625 31.78125 66.40625 
z
M 31.78125 74.21875 
Q 44.046875 74.21875 50.515625 64.515625 
Q 56.984375 54.828125 56.984375 36.375 
Q 56.984375 17.96875 50.515625 8.265625 
Q 44.046875 -1.421875 31.78125 -1.421875 
Q 19.53125 -1.421875 13.0625 8.265625 
Q 6.59375 17.96875 6.59375 36.375 
Q 6.59375 54.828125 13.0625 64.515625 
Q 19.53125 74.21875 31.78125 74.21875 
z
" id="DejaVuSans-48"/>
      </defs>
      <g transform="translate(113.754728 322.182437)scale(0.1 -0.1)">
       <use xlink:href="#DejaVuSans-8722"/>
       <use x="83.789062" xlink:href="#DejaVuSans-49"/>
       <use x="147.412109" xlink:href="#DejaVuSans-46"/>
       <use x="179.199219" xlink:href="#DejaVuSans-48"/>
      </g>
     </g>
    </g>
    <g id="xtick_3">
     <g id="line2d_3">
      <g>
       <use style="stroke:#000000;stroke-width:0.8;" x="191.727925" xlink:href="#m589c80d1cc" y="307.584"/>
      </g>
     </g>
     <g id="text_3">
      <!-- −0.5 -->
      <g transform="translate(179.586519 322.182437)scale(0.1 -0.1)">
       <use xlink:href="#DejaVuSans-8722"/>
       <use x="83.789062" xlink:href="#DejaVuSans-48"/>
       <use x="147.412109" xlink:href="#DejaVuSans-46"/>
       <use x="179.199219" xlink:href="#DejaVuSans-53"/>
      </g>
     </g>
    </g>
    <g id="xtick_4">
     <g id="line2d_4">
      <g>
       <use style="stroke:#000000;stroke-width:0.8;" x="257.559716" xlink:href="#m589c80d1cc" y="307.584"/>
      </g>
     </g>
     <g id="text_4">
      <!-- 0.0 -->
      <g transform="translate(249.608153 322.182437)scale(0.1 -0.1)">
       <use xlink:href="#DejaVuSans-48"/>
       <use x="63.623047" xlink:href="#DejaVuSans-46"/>
       <use x="95.410156" xlink:href="#DejaVuSans-48"/>
      </g>
     </g>
    </g>
    <g id="xtick_5">
     <g id="line2d_5">
      <g>
       <use style="stroke:#000000;stroke-width:0.8;" x="323.391507" xlink:href="#m589c80d1cc" y="307.584"/>
      </g>
     </g>
     <g id="text_5">
      <!-- 0.5 -->
      <g transform="translate(315.439944 322.182437)scale(0.1 -0.1)">
       <use xlink:href="#DejaVuSans-48"/>
       <use x="63.623047" xlink:href="#DejaVuSans-46"/>
       <use x="95.410156" xlink:href="#DejaVuSans-53"/>
      </g>
     </g>
    </g>
    <g id="xtick_6">
     <g id="line2d_6">
      <g>
       <use style="stroke:#000000;stroke-width:0.8;" x="389.223297" xlink:href="#m589c80d1cc" y="307.584"/>
      </g>
     </g>
     <g id="text_6">
      <!-- 1.0 -->
      <g transform="translate(381.271735 322.182437)scale(0.1 -0.1)">
       <use xlink:href="#DejaVuSans-49"/>
       <use x="63.623047" xlink:href="#DejaVuSans-46"/>
       <use x="95.410156" xlink:href="#DejaVuSans-48"/>
      </g>
     </g>
    </g>
    <g id="text_7">
     <!-- X-axis -->
     <defs>
      <path d="M 6.296875 72.90625 
L 16.890625 72.90625 
L 35.015625 45.796875 
L 53.21875 72.90625 
L 63.8125 72.90625 
L 40.375 37.890625 
L 65.375 0 
L 54.78125 0 
L 34.28125 31 
L 13.625 0 
L 2.984375 0 
L 29 38.921875 
z
" id="DejaVuSans-88"/>
      <path d="M 4.890625 31.390625 
L 31.203125 31.390625 
L 31.203125 23.390625 
L 4.890625 23.390625 
z
" id="DejaVuSans-45"/>
      <path d="M 34.28125 27.484375 
Q 23.390625 27.484375 19.1875 25 
Q 14.984375 22.515625 14.984375 16.5 
Q 14.984375 11.71875 18.140625 8.90625 
Q 21.296875 6.109375 26.703125 6.109375 
Q 34.1875 6.109375 38.703125 11.40625 
Q 43.21875 16.703125 43.21875 25.484375 
L 43.21875 27.484375 
z
M 52.203125 31.203125 
L 52.203125 0 
L 43.21875 0 
L 43.21875 8.296875 
Q 40.140625 3.328125 35.546875 0.953125 
Q 30.953125 -1.421875 24.3125 -1.421875 
Q 15.921875 -1.421875 10.953125 3.296875 
Q 6 8.015625 6 15.921875 
Q 6 25.140625 12.171875 29.828125 
Q 18.359375 34.515625 30.609375 34.515625 
L 43.21875 34.515625 
L 43.21875 35.40625 
Q 43.21875 41.609375 39.140625 45 
Q 35.0625 48.390625 27.6875 48.390625 
Q 23 48.390625 18.546875 47.265625 
Q 14.109375 46.140625 10.015625 43.890625 
L 10.015625 52.203125 
Q 14.9375 54.109375 19.578125 55.046875 
Q 24.21875 56 28.609375 56 
Q 40.484375 56 46.34375 49.84375 
Q 52.203125 43.703125 52.203125 31.203125 
z
" id="DejaVuSans-97"/>
      <path d="M 54.890625 54.6875 
L 35.109375 28.078125 
L 55.90625 0 
L 45.3125 0 
L 29.390625 21.484375 
L 13.484375 0 
L 2.875 0 
L 24.125 28.609375 
L 4.6875 54.6875 
L 15.28125 54.6875 
L 29.78125 35.203125 
L 44.28125 54.6875 
z
" id="DejaVuSans-120"/>
      <path d="M 9.421875 54.6875 
L 18.40625 54.6875 
L 18.40625 0 
L 9.421875 0 
z
M 9.421875 75.984375 
L 18.40625 75.984375 
L 18.40625 64.59375 
L 9.421875 64.59375 
z
" id="DejaVuSans-105"/>
      <path d="M 44.28125 53.078125 
L 44.28125 44.578125 
Q 40.484375 46.53125 36.375 47.5 
Q 32.28125 48.484375 27.875 48.484375 
Q 21.1875 48.484375 17.84375 46.4375 
Q 14.5 44.390625 14.5 40.28125 
Q 14.5 37.15625 16.890625 35.375 
Q 19.28125 33.59375 26.515625 31.984375 
L 29.59375 31.296875 
Q 39.15625 29.25 43.1875 25.515625 
Q 47.21875 21.78125 47.21875 15.09375 
Q 47.21875 7.46875 41.1875 3.015625 
Q 35.15625 -1.421875 24.609375 -1.421875 
Q 20.21875 -1.421875 15.453125 -0.5625 
Q 10.6875 0.296875 5.421875 2 
L 5.421875 11.28125 
Q 10.40625 8.6875 15.234375 7.390625 
Q 20.0625 6.109375 24.8125 6.109375 
Q 31.15625 6.109375 34.5625 8.28125 
Q 37.984375 10.453125 37.984375 14.40625 
Q 37.984375 18.0625 35.515625 20.015625 
Q 33.0625 21.96875 24.703125 23.78125 
L 21.578125 24.515625 
Q 13.234375 26.265625 9.515625 29.90625 
Q 5.8125 33.546875 5.8125 39.890625 
Q 5.8125 47.609375 11.28125 51.796875 
Q 16.75 56 26.8125 56 
Q 31.78125 56 36.171875 55.265625 
Q 40.578125 54.546875 44.28125 53.078125 
z
" id="DejaVuSans-115"/>
     </defs>
     <g transform="translate(221.163906 335.860562)scale(0.1 -0.1)">
      <use xlink:href="#DejaVuSans-88"/>
      <use x="63.505859" xlink:href="#DejaVuSans-45"/>
      <use x="99.589844" xlink:href="#DejaVuSans-97"/>
      <use x="160.869141" xlink:href="#DejaVuSans-120"/>
      <use x="220.048828" xlink:href="#DejaVuSans-105"/>
      <use x="247.832031" xlink:href="#DejaVuSans-115"/>
     </g>
    </g>
   </g>
   <g id="matplotlib.axis_2">
    <g id="ytick_1">
     <g id="line2d_7">
      <defs>
       <path d="M 0 0 
L -3.5 0 
" id="me60c358b03" style="stroke:#000000;stroke-width:0.8;"/>
      </defs>
      <g>
       <use style="stroke:#000000;stroke-width:0.8;" x="57.6" xlink:href="#me60c358b03" y="298.793574"/>
      </g>
     </g>
     <g id="text_8">
      <!-- −1.5 -->
      <g transform="translate(26.317187 302.592793)scale(0.1 -0.1)">
       <use xlink:href="#DejaVuSans-8722"/>
       <use x="83.789062" xlink:href="#DejaVuSans-49"/>
       <use x="147.412109" xlink:href="#DejaVuSans-46"/>
       <use x="179.199219" xlink:href="#DejaVuSans-53"/>
      </g>
     </g>
    </g>
    <g id="ytick_2">
     <g id="line2d_8">
      <g>
       <use style="stroke:#000000;stroke-width:0.8;" x="57.6" xlink:href="#me60c358b03" y="257.922304"/>
      </g>
     </g>
     <g id="text_9">
      <!-- −1.0 -->
      <g transform="translate(26.317187 261.721523)scale(0.1 -0.1)">
       <use xlink:href="#DejaVuSans-8722"/>
       <use x="83.789062" xlink:href="#DejaVuSans-49"/>
       <use x="147.412109" xlink:href="#DejaVuSans-46"/>
       <use x="179.199219" xlink:href="#DejaVuSans-48"/>
      </g>
     </g>
    </g>
    <g id="ytick_3">
     <g id="line2d_9">
      <g>
       <use style="stroke:#000000;stroke-width:0.8;" x="57.6" xlink:href="#me60c358b03" y="217.051035"/>
      </g>
     </g>
     <g id="text_10">
      <!-- −0.5 -->
      <g transform="translate(26.317187 220.850253)scale(0.1 -0.1)">
       <use xlink:href="#DejaVuSans-8722"/>
       <use x="83.789062" xlink:href="#DejaVuSans-48"/>
       <use x="147.412109" xlink:href="#DejaVuSans-46"/>
       <use x="179.199219" xlink:href="#DejaVuSans-53"/>
      </g>
     </g>
    </g>
    <g id="ytick_4">
     <g id="line2d_10">
      <g>
       <use style="stroke:#000000;stroke-width:0.8;" x="57.6" xlink:href="#me60c358b03" y="176.179765"/>
      </g>
     </g>
     <g id="text_11">
      <!-- 0.0 -->
      <g transform="translate(34.696875 179.978984)scale(0.1 -0.1)">
       <use xlink:href="#DejaVuSans-48"/>
       <use x="63.623047" xlink:href="#DejaVuSans-46"/>
       <use x="95.410156" xlink:href="#DejaVuSans-48"/>
      </g>
     </g>
    </g>
    <g id="ytick_5">
     <g id="line2d_11">
      <g>
       <use style="stroke:#000000;stroke-width:0.8;" x="57.6" xlink:href="#me60c358b03" y="135.308496"/>
      </g>
     </g>
     <g id="text_12">
      <!-- 0.5 -->
      <g transform="translate(34.696875 139.107714)scale(0.1 -0.1)">
       <use xlink:href="#DejaVuSans-48"/>
       <use x="63.623047" xlink:href="#DejaVuSans-46"/>
       <use x="95.410156" xlink:href="#DejaVuSans-53"/>
      </g>
     </g>
    </g>
    <g id="ytick_6">
     <g id="line2d_12">
      <g>
       <use style="stroke:#000000;stroke-width:0.8;" x="57.6" xlink:href="#me60c358b03" y="94.437226"/>
      </g>
     </g>
     <g id="text_13">
      <!-- 1.0 -->
      <g transform="translate(34.696875 98.236445)scale(0.1 -0.1)">
       <use xlink:href="#DejaVuSans-49"/>
       <use x="63.623047" xlink:href="#DejaVuSans-46"/>
       <use x="95.410156" xlink:href="#DejaVuSans-48"/>
      </g>
     </g>
    </g>
    <g id="ytick_7">
     <g id="line2d_13">
      <g>
       <use style="stroke:#000000;stroke-width:0.8;" x="57.6" xlink:href="#me60c358b03" y="53.565956"/>
      </g>
     </g>
     <g id="text_14">
      <!-- 1.5 -->
      <g transform="translate(34.696875 57.365175)scale(0.1 -0.1)">
       <use xlink:href="#DejaVuSans-49"/>
       <use x="63.623047" xlink:href="#DejaVuSans-46"/>
       <use x="95.410156" xlink:href="#DejaVuSans-53"/>
      </g>
     </g>
    </g>
    <g id="text_15">
     <!-- Y-axis -->
     <defs>
      <path d="M -0.203125 72.90625 
L 10.40625 72.90625 
L 30.609375 42.921875 
L 50.6875 72.90625 
L 61.28125 72.90625 
L 35.5 34.71875 
L 35.5 0 
L 25.59375 0 
L 25.59375 34.71875 
z
" id="DejaVuSans-89"/>
     </defs>
     <g transform="translate(20.2375 188.80925)rotate(-90)scale(0.1 -0.1)">
      <use xlink:href="#DejaVuSans-89"/>
      <use x="49.208984" xlink:href="#DejaVuSans-45"/>
      <use x="85.292969" xlink:href="#DejaVuSans-97"/>
      <use x="146.572266" xlink:href="#DejaVuSans-120"/>
      <use x="205.751953" xlink:href="#DejaVuSans-105"/>
      <use x="233.535156" xlink:href="#DejaVuSans-115"/>
     </g>
    </g>
   </g>
   <g id="line2d_14">
    <path clip-path="url(#p8f4de4a318)" d="M 256.901409 53.568 
L 257.011398 53.585731 
L 258.060603 53.861695 
L 259.27 54.413247 
L 260.595356 55.269175 
L 262.03481 56.473969 
L 263.589721 58.076697 
L 265.269237 60.136876 
L 267.100771 62.745335 
L 269.100592 65.98826 
L 271.308561 69.997187 
L 273.858875 75.109613 
L 276.868891 81.676742 
L 280.763496 90.756545 
L 291.7974 116.821256 
L 295.239719 124.212324 
L 298.402393 130.491591 
L 301.460295 136.079647 
L 304.505731 141.194965 
L 307.680942 146.099714 
L 310.959406 150.77315 
L 314.547367 155.520083 
L 318.717501 160.671848 
L 323.804897 166.595447 
L 331.439434 175.10279 
L 343.758347 188.833669 
L 349.974015 196.121578 
L 355.124628 202.491795 
L 359.825616 208.658793 
L 364.056651 214.58221 
L 367.811813 220.222313 
L 371.09551 225.541361 
L 373.920065 230.504497 
L 376.532067 235.540951 
L 378.685726 240.171134 
L 380.408136 244.36709 
L 381.884057 248.573358 
L 382.945744 252.301745 
L 383.640828 255.536294 
L 384.028453 258.269997 
L 384.187312 260.946901 
L 384.114029 263.114941 
L 383.822163 265.204327 
L 383.408497 266.802032 
L 382.814314 268.317086 
L 382.020585 269.731406 
L 381.009828 271.025424 
L 379.768461 272.179486 
L 378.289412 273.175955 
L 376.574211 274.001619 
L 374.633655 274.649677 
L 372.486609 275.120558 
L 370.157298 275.421275 
L 367.029512 275.576269 
L 363.707847 275.512892 
L 359.526607 275.190914 
L 354.453527 274.53618 
L 349.235847 273.640723 
L 343.156736 272.385112 
L 336.226415 270.740523 
L 327.686715 268.472575 
L 318.341396 265.747968 
L 308.234326 262.563412 
L 297.417871 258.90977 
L 286.717909 255.050865 
L 276.928341 251.293303 
L 267.323725 247.367074 
L 258.665926 243.586999 
L 250.946248 239.983038 
L 244.144453 236.585053 
L 237.585053 233.065878 
L 231.920902 229.791731 
L 226.514724 226.414793 
L 221.397789 222.935477 
L 217.117713 219.758909 
L 213.112773 216.50709 
L 209.403616 213.185278 
L 206.415743 210.22671 
L 203.680329 207.225552 
L 201.207256 204.188376 
L 199.004693 201.122528 
L 197.078943 198.035989 
L 195.434353 194.937231 
L 194.073285 191.835051 
L 193.132668 189.180107 
L 192.399812 186.534887 
L 191.872879 183.904982 
L 191.589114 181.729039 
L 191.589114 181.729039 
" style="fill:none;stroke:#0000ff;stroke-linecap:square;stroke-width:1.5;"/>
   </g>
   <g id="line2d_15">
    <path clip-path="url(#p8f4de4a318)" d="M 256.243102 53.570044 
L 254.029477 53.707725 
L 252.188907 54.04506 
L 250.416783 54.596998 
L 248.658664 55.379684 
L 246.880159 56.416776 
L 245.041696 57.750553 
L 243.119992 59.427702 
L 241.109256 61.487172 
L 238.981643 63.996551 
L 236.761971 66.96317 
L 234.394879 70.500546 
L 231.804617 74.786737 
L 229.070599 79.745584 
L 226.010045 85.773955 
L 222.5906 93.027685 
L 218.664278 101.910107 
L 213.923279 113.220369 
L 207.576691 128.982924 
L 200.606601 146.865089 
L 196.428852 158.139209 
L 193.51115 166.615129 
L 191.242309 173.854062 
L 189.377665 180.520965 
L 187.805378 186.967886 
L 186.523415 193.152408 
L 185.44429 199.492382 
L 184.639422 205.512046 
L 184.035629 211.652126 
L 183.641816 217.904749 
L 183.466299 224.261118 
L 183.518216 230.711177 
L 183.777813 236.737959 
L 184.252723 242.822921 
L 184.958864 248.951436 
L 185.827682 254.591079 
L 186.931582 260.230888 
L 188.164757 265.334604 
L 189.487853 269.883641 
L 190.858496 273.866403 
L 192.440822 277.760284 
L 194.026816 281.060834 
L 195.559603 283.778922 
L 197.276569 286.358141 
L 198.867181 288.368361 
L 200.620793 290.215893 
L 202.152031 291.548991 
L 203.805027 292.727001 
L 205.584104 293.724082 
L 207.48931 294.515258 
L 209.515043 295.079694 
L 211.649558 295.40423 
L 213.875865 295.485892 
L 216.1739 295.332282 
L 218.523192 294.959677 
L 221.503755 294.219288 
L 224.505933 293.21718 
L 227.508285 291.997844 
L 231.091331 290.302299 
L 235.225624 288.071961 
L 239.874769 285.270135 
L 244.435217 282.266278 
L 249.456422 278.70754 
L 254.899586 274.588433 
L 260.723034 269.910686 
L 266.880598 264.680374 
L 273.318762 258.905493 
L 279.507041 253.04741 
L 285.430892 247.126065 
L 290.645953 241.615235 
L 295.59525 236.068137 
L 299.87526 230.955576 
L 303.884147 225.819844 
L 307.27008 221.133874 
L 310.386877 216.435099 
L 312.943098 212.198956 
L 315.24672 207.960352 
L 317.282699 203.72462 
L 318.857132 199.967105 
L 320.202322 196.222121 
L 321.312989 192.495425 
L 322.186283 188.793192 
L 322.821997 185.121843 
L 323.222643 181.48785 
L 323.393404 177.89753 
L 323.341957 174.356855 
L 323.07818 170.871279 
L 322.613784 167.445609 
L 321.867905 163.668371 
L 320.904827 159.976682 
L 319.745398 156.373897 
L 318.252264 152.477674 
L 316.570376 148.695317 
L 314.5336 144.666329 
L 312.124962 140.426727 
L 311.916589 140.080669 
L 311.916589 140.080669 
" style="fill:none;stroke:#000000;stroke-linecap:square;stroke-width:1.5;"/>
   </g>
   <g id="line2d_16">
    <path clip-path="url(#p8f4de4a318)" d="M 264.131928 53.770143 
L 264.021603 54.042781 
L 260.494448 60.244079 
L 258.733509 64.20121 
L 256.58141 69.6215 
L 253.728641 77.459109 
L 245.215349 101.241993 
L 242.49167 107.989173 
L 239.97379 113.634239 
L 237.57516 118.463138 
L 235.265779 122.622651 
L 232.975726 126.306809 
L 230.583772 129.7323 
L 228.105667 132.879564 
L 225.566858 135.737057 
L 223.00249 138.301222 
L 220.189571 140.799789 
L 217.10961 143.222135 
L 213.748421 145.560546 
L 210.09773 147.811291 
L 206.156332 149.9754 
L 201.532659 152.244691 
L 196.162611 154.611599 
L 189.997062 157.082335 
L 181.568221 160.1981 
L 166.566444 165.444472 
L 151.351267 170.844434 
L 140.667707 174.877266 
L 131.570276 178.550494 
L 123.593738 182.000217 
L 116.242984 185.409237 
L 109.545462 188.746598 
L 103.518217 191.979271 
L 97.692937 195.361167 
L 92.588944 198.593357 
L 88.206671 201.640065 
L 84.535402 204.466758 
L 81.550415 207.041153 
L 79.209905 209.334514 
L 77.452954 211.323157 
L 75.975953 213.323546 
L 74.999878 214.990359 
L 74.295314 216.646487 
L 73.954097 217.95533 
L 73.832727 219.241744 
L 73.949713 220.497384 
L 74.319712 221.713621 
L 74.951598 222.882226 
L 75.847054 223.996136 
L 77.000179 225.050119 
L 78.398256 226.041155 
L 80.462821 227.190437 
L 82.841094 228.242914 
L 86.049392 229.38653 
L 89.580006 230.412588 
L 94.02896 231.479869 
L 99.458929 232.553804 
L 105.910132 233.607128 
L 114.170967 234.712005 
L 123.540874 235.729097 
L 134.01279 236.643844 
L 145.579006 237.43454 
L 158.229881 238.066313 
L 170.223729 238.446999 
L 182.349745 238.60544 
L 193.685349 238.5271 
L 204.173885 238.235053 
L 213.772385 237.758186 
L 223.315718 237.058682 
L 231.905525 236.211588 
L 240.373439 235.148408 
L 247.854932 233.997026 
L 255.169429 232.655152 
L 262.28213 231.120006 
L 269.157996 229.392429 
L 275.043462 227.699025 
L 280.69235 225.863319 
L 286.084271 223.893793 
L 291.201603 221.801218 
L 296.030067 219.598371 
L 300.559189 217.299689 
L 304.782627 214.92085 
L 308.698358 212.47832 
L 312.308712 209.988894 
L 316.013699 207.152961 
L 319.356084 204.301589 
L 322.357141 201.456031 
L 325.323481 198.324248 
L 327.942998 195.245503 
L 330.479522 191.941296 
L 333.098787 188.16967 
L 336.243935 183.210646 
L 342.628549 173.003034 
L 345.227659 169.343679 
L 347.846607 166.023546 
L 350.680758 162.779827 
L 353.958694 159.378522 
L 357.498689 156.020955 
L 361.530757 152.493949 
L 366.074795 148.808231 
L 371.138135 144.987413 
L 376.432624 141.262734 
L 381.91636 137.664468 
L 387.549322 134.225992 
L 393.291662 130.982973 
L 398.487273 128.278387 
L 398.487273 128.278387 
" style="fill:none;stroke:#008000;stroke-linecap:square;stroke-width:1.5;"/>
   </g>
   <g id="line2d_17">
    <path clip-path="url(#p8f4de4a318)" d="M 244.415291 53.974329 
L 241.868796 54.401289 
L 239.473199 55.024956 
L 237.149343 55.860346 
L 234.879579 56.912726 
L 232.581129 58.229448 
L 230.300428 59.794979 
L 227.967667 61.669865 
L 225.631797 63.829131 
L 223.155998 66.429067 
L 220.64963 69.389914 
L 218.040139 72.826404 
L 215.341219 76.763505 
L 212.566735 81.222162 
L 209.731253 86.220263 
L 206.958419 91.557945 
L 204.162134 97.424003 
L 201.473376 103.575352 
L 198.920067 109.964079 
L 196.534685 116.54302 
L 194.451836 122.950914 
L 192.692466 129.08742 
L 191.267084 134.857487 
L 190.17161 140.171982 
L 189.331352 145.322947 
L 188.752753 150.270851 
L 188.432852 154.977146 
L 188.357712 159.405055 
L 188.501977 163.520513 
L 188.878774 167.716044 
L 189.441405 171.554378 
L 190.238104 175.444795 
L 191.289231 179.379246 
L 192.451994 182.906091 
L 193.841116 186.45339 
L 195.465072 190.013664 
L 197.329553 193.579267 
L 199.437199 197.14264 
L 201.787473 200.696579 
L 204.376712 204.234482 
L 207.566957 208.188291 
L 211.038084 212.107752 
L 214.773714 215.987801 
L 219.211957 220.248696 
L 223.92652 224.454407 
L 229.398811 229.016435 
L 235.136779 233.512408 
L 241.661207 238.344478 
L 248.999261 243.497108 
L 257.171098 248.952867 
L 265.582595 254.309772 
L 274.824192 259.928179 
L 283.636057 265.035892 
L 292.604278 269.971986 
L 300.396823 274.0167 
L 307.605701 277.51377 
L 314.189277 280.448966 
L 319.450958 282.566848 
L 324.023275 284.194428 
L 327.890553 285.372178 
L 331.673719 286.295165 
L 334.726746 286.824798 
L 337.649225 287.094136 
L 339.862986 287.096032 
L 341.939599 286.890497 
L 343.855842 286.468203 
L 345.593212 285.828735 
L 347.14058 284.981155 
L 348.49526 283.942508 
L 349.66224 282.734903 
L 350.652147 281.38234 
L 351.478876 279.90818 
L 352.305884 277.926521 
L 352.930566 275.82299 
L 353.450058 273.177325 
L 353.755165 270.434369 
L 353.882691 267.148347 
L 353.776298 263.318615 
L 353.445662 259.442211 
L 352.850279 255.055281 
L 351.957089 250.17669 
L 350.740554 244.831713 
L 349.182434 239.051003 
L 347.272182 232.869783 
L 345.008428 226.327242 
L 342.402129 219.465978 
L 339.110584 211.453377 
L 334.623029 201.166647 
L 328.451406 186.990719 
L 326.026319 180.823596 
L 324.3348 175.946937 
L 323.033463 171.545594 
L 322.07825 167.590971 
L 321.357483 163.709437 
L 320.869398 159.898671 
L 320.605025 156.157362 
L 320.554859 152.154739 
L 320.730934 148.23492 
L 321.148215 144.083473 
L 321.826227 139.725855 
L 322.706145 135.488867 
L 323.836829 131.086984 
L 325.220497 126.553151 
L 326.854927 121.923564 
L 328.734629 117.237607 
L 330.851795 112.537799 
L 333.196971 107.869774 
L 335.635448 103.493394 
L 338.27266 99.217481 
L 340.968245 95.273932 
L 343.704574 91.668024 
L 346.465983 88.405185 
L 349.105886 85.622019 
L 351.743115 83.160974 
L 354.234809 81.127221 
L 356.702126 79.39642 
L 359.006879 78.042854 
L 361.269803 76.974922 
L 363.359854 76.235554 
L 365.27823 75.784688 
L 367.144115 75.576713 
L 367.943018 75.563224 
L 367.943018 75.563224 
" style="fill:none;stroke:#ff0000;stroke-linecap:square;stroke-width:1.5;"/>
   </g>
   <g id="patch_3">
    <path d="M 57.6 307.584 
L 57.6 41.472 
" style="fill:none;stroke:#000000;stroke-linecap:square;stroke-linejoin:miter;stroke-width:0.8;"/>
   </g>
   <g id="patch_4">
    <path d="M 414.72 307.584 
L 414.72 41.472 
" style="fill:none;stroke:#000000;stroke-linecap:square;stroke-linejoin:miter;stroke-width:0.8;"/>
   </g>
   <g id="patch_5">
    <path d="M 57.6 307.584 
L 414.72 307.584 
" style="fill:none;stroke:#000000;stroke-linecap:square;stroke-linejoin:miter;stroke-width:0.8;"/>
   </g>
   <g id="patch_6">
    <path d="M 57.6 41.472 
L 414.72 41.472 
" style="fill:none;stroke:#000000;stroke-linecap:square;stroke-linejoin:miter;stroke-width:0.8;"/>
   </g>
   <g id="text_16">
    <!-- Trajectory of the centre of 2nd link -->
    <defs>
     <path d="M -0.296875 72.90625 
L 61.375 72.90625 
L 61.375 64.59375 
L 35.5 64.59375 
L 35.5 0 
L 25.59375 0 
L 25.59375 64.59375 
L -0.296875 64.59375 
z
" id="DejaVuSans-84"/>
     <path d="M 41.109375 46.296875 
Q 39.59375 47.171875 37.8125 47.578125 
Q 36.03125 48 33.890625 48 
Q 26.265625 48 22.1875 43.046875 
Q 18.109375 38.09375 18.109375 28.8125 
L 18.109375 0 
L 9.078125 0 
L 9.078125 54.6875 
L 18.109375 54.6875 
L 18.109375 46.1875 
Q 20.953125 51.171875 25.484375 53.578125 
Q 30.03125 56 36.53125 56 
Q 37.453125 56 38.578125 55.875 
Q 39.703125 55.765625 41.0625 55.515625 
z
" id="DejaVuSans-114"/>
     <path d="M 9.421875 54.6875 
L 18.40625 54.6875 
L 18.40625 -0.984375 
Q 18.40625 -11.421875 14.421875 -16.109375 
Q 10.453125 -20.796875 1.609375 -20.796875 
L -1.8125 -20.796875 
L -1.8125 -13.1875 
L 0.59375 -13.1875 
Q 5.71875 -13.1875 7.5625 -10.8125 
Q 9.421875 -8.453125 9.421875 -0.984375 
z
M 9.421875 75.984375 
L 18.40625 75.984375 
L 18.40625 64.59375 
L 9.421875 64.59375 
z
" id="DejaVuSans-106"/>
     <path d="M 56.203125 29.59375 
L 56.203125 25.203125 
L 14.890625 25.203125 
Q 15.484375 15.921875 20.484375 11.0625 
Q 25.484375 6.203125 34.421875 6.203125 
Q 39.59375 6.203125 44.453125 7.46875 
Q 49.3125 8.734375 54.109375 11.28125 
L 54.109375 2.78125 
Q 49.265625 0.734375 44.1875 -0.34375 
Q 39.109375 -1.421875 33.890625 -1.421875 
Q 20.796875 -1.421875 13.15625 6.1875 
Q 5.515625 13.8125 5.515625 26.8125 
Q 5.515625 40.234375 12.765625 48.109375 
Q 20.015625 56 32.328125 56 
Q 43.359375 56 49.78125 48.890625 
Q 56.203125 41.796875 56.203125 29.59375 
z
M 47.21875 32.234375 
Q 47.125 39.59375 43.09375 43.984375 
Q 39.0625 48.390625 32.421875 48.390625 
Q 24.90625 48.390625 20.390625 44.140625 
Q 15.875 39.890625 15.1875 32.171875 
z
" id="DejaVuSans-101"/>
     <path d="M 48.78125 52.59375 
L 48.78125 44.1875 
Q 44.96875 46.296875 41.140625 47.34375 
Q 37.3125 48.390625 33.40625 48.390625 
Q 24.65625 48.390625 19.8125 42.84375 
Q 14.984375 37.3125 14.984375 27.296875 
Q 14.984375 17.28125 19.8125 11.734375 
Q 24.65625 6.203125 33.40625 6.203125 
Q 37.3125 6.203125 41.140625 7.25 
Q 44.96875 8.296875 48.78125 10.40625 
L 48.78125 2.09375 
Q 45.015625 0.34375 40.984375 -0.53125 
Q 36.96875 -1.421875 32.421875 -1.421875 
Q 20.0625 -1.421875 12.78125 6.34375 
Q 5.515625 14.109375 5.515625 27.296875 
Q 5.515625 40.671875 12.859375 48.328125 
Q 20.21875 56 33.015625 56 
Q 37.15625 56 41.109375 55.140625 
Q 45.0625 54.296875 48.78125 52.59375 
z
" id="DejaVuSans-99"/>
     <path d="M 18.3125 70.21875 
L 18.3125 54.6875 
L 36.8125 54.6875 
L 36.8125 47.703125 
L 18.3125 47.703125 
L 18.3125 18.015625 
Q 18.3125 11.328125 20.140625 9.421875 
Q 21.96875 7.515625 27.59375 7.515625 
L 36.8125 7.515625 
L 36.8125 0 
L 27.59375 0 
Q 17.1875 0 13.234375 3.875 
Q 9.28125 7.765625 9.28125 18.015625 
L 9.28125 47.703125 
L 2.6875 47.703125 
L 2.6875 54.6875 
L 9.28125 54.6875 
L 9.28125 70.21875 
z
" id="DejaVuSans-116"/>
     <path d="M 30.609375 48.390625 
Q 23.390625 48.390625 19.1875 42.75 
Q 14.984375 37.109375 14.984375 27.296875 
Q 14.984375 17.484375 19.15625 11.84375 
Q 23.34375 6.203125 30.609375 6.203125 
Q 37.796875 6.203125 41.984375 11.859375 
Q 46.1875 17.53125 46.1875 27.296875 
Q 46.1875 37.015625 41.984375 42.703125 
Q 37.796875 48.390625 30.609375 48.390625 
z
M 30.609375 56 
Q 42.328125 56 49.015625 48.375 
Q 55.71875 40.765625 55.71875 27.296875 
Q 55.71875 13.875 49.015625 6.21875 
Q 42.328125 -1.421875 30.609375 -1.421875 
Q 18.84375 -1.421875 12.171875 6.21875 
Q 5.515625 13.875 5.515625 27.296875 
Q 5.515625 40.765625 12.171875 48.375 
Q 18.84375 56 30.609375 56 
z
" id="DejaVuSans-111"/>
     <path d="M 32.171875 -5.078125 
Q 28.375 -14.84375 24.75 -17.8125 
Q 21.140625 -20.796875 15.09375 -20.796875 
L 7.90625 -20.796875 
L 7.90625 -13.28125 
L 13.1875 -13.28125 
Q 16.890625 -13.28125 18.9375 -11.515625 
Q 21 -9.765625 23.484375 -3.21875 
L 25.09375 0.875 
L 2.984375 54.6875 
L 12.5 54.6875 
L 29.59375 11.921875 
L 46.6875 54.6875 
L 56.203125 54.6875 
z
" id="DejaVuSans-121"/>
     <path id="DejaVuSans-32"/>
     <path d="M 37.109375 75.984375 
L 37.109375 68.5 
L 28.515625 68.5 
Q 23.6875 68.5 21.796875 66.546875 
Q 19.921875 64.59375 19.921875 59.515625 
L 19.921875 54.6875 
L 34.71875 54.6875 
L 34.71875 47.703125 
L 19.921875 47.703125 
L 19.921875 0 
L 10.890625 0 
L 10.890625 47.703125 
L 2.296875 47.703125 
L 2.296875 54.6875 
L 10.890625 54.6875 
L 10.890625 58.5 
Q 10.890625 67.625 15.140625 71.796875 
Q 19.390625 75.984375 28.609375 75.984375 
z
" id="DejaVuSans-102"/>
     <path d="M 54.890625 33.015625 
L 54.890625 0 
L 45.90625 0 
L 45.90625 32.71875 
Q 45.90625 40.484375 42.875 44.328125 
Q 39.84375 48.1875 33.796875 48.1875 
Q 26.515625 48.1875 22.3125 43.546875 
Q 18.109375 38.921875 18.109375 30.90625 
L 18.109375 0 
L 9.078125 0 
L 9.078125 75.984375 
L 18.109375 75.984375 
L 18.109375 46.1875 
Q 21.34375 51.125 25.703125 53.5625 
Q 30.078125 56 35.796875 56 
Q 45.21875 56 50.046875 50.171875 
Q 54.890625 44.34375 54.890625 33.015625 
z
" id="DejaVuSans-104"/>
     <path d="M 54.890625 33.015625 
L 54.890625 0 
L 45.90625 0 
L 45.90625 32.71875 
Q 45.90625 40.484375 42.875 44.328125 
Q 39.84375 48.1875 33.796875 48.1875 
Q 26.515625 48.1875 22.3125 43.546875 
Q 18.109375 38.921875 18.109375 30.90625 
L 18.109375 0 
L 9.078125 0 
L 9.078125 54.6875 
L 18.109375 54.6875 
L 18.109375 46.1875 
Q 21.34375 51.125 25.703125 53.5625 
Q 30.078125 56 35.796875 56 
Q 45.21875 56 50.046875 50.171875 
Q 54.890625 44.34375 54.890625 33.015625 
z
" id="DejaVuSans-110"/>
     <path d="M 19.1875 8.296875 
L 53.609375 8.296875 
L 53.609375 0 
L 7.328125 0 
L 7.328125 8.296875 
Q 12.9375 14.109375 22.625 23.890625 
Q 32.328125 33.6875 34.8125 36.53125 
Q 39.546875 41.84375 41.421875 45.53125 
Q 43.3125 49.21875 43.3125 52.78125 
Q 43.3125 58.59375 39.234375 62.25 
Q 35.15625 65.921875 28.609375 65.921875 
Q 23.96875 65.921875 18.8125 64.3125 
Q 13.671875 62.703125 7.8125 59.421875 
L 7.8125 69.390625 
Q 13.765625 71.78125 18.9375 73 
Q 24.125 74.21875 28.421875 74.21875 
Q 39.75 74.21875 46.484375 68.546875 
Q 53.21875 62.890625 53.21875 53.421875 
Q 53.21875 48.921875 51.53125 44.890625 
Q 49.859375 40.875 45.40625 35.40625 
Q 44.1875 33.984375 37.640625 27.21875 
Q 31.109375 20.453125 19.1875 8.296875 
z
" id="DejaVuSans-50"/>
     <path d="M 45.40625 46.390625 
L 45.40625 75.984375 
L 54.390625 75.984375 
L 54.390625 0 
L 45.40625 0 
L 45.40625 8.203125 
Q 42.578125 3.328125 38.25 0.953125 
Q 33.9375 -1.421875 27.875 -1.421875 
Q 17.96875 -1.421875 11.734375 6.484375 
Q 5.515625 14.40625 5.515625 27.296875 
Q 5.515625 40.1875 11.734375 48.09375 
Q 17.96875 56 27.875 56 
Q 33.9375 56 38.25 53.625 
Q 42.578125 51.265625 45.40625 46.390625 
z
M 14.796875 27.296875 
Q 14.796875 17.390625 18.875 11.75 
Q 22.953125 6.109375 30.078125 6.109375 
Q 37.203125 6.109375 41.296875 11.75 
Q 45.40625 17.390625 45.40625 27.296875 
Q 45.40625 37.203125 41.296875 42.84375 
Q 37.203125 48.484375 30.078125 48.484375 
Q 22.953125 48.484375 18.875 42.84375 
Q 14.796875 37.203125 14.796875 27.296875 
z
" id="DejaVuSans-100"/>
     <path d="M 9.421875 75.984375 
L 18.40625 75.984375 
L 18.40625 0 
L 9.421875 0 
z
" id="DejaVuSans-108"/>
     <path d="M 9.078125 75.984375 
L 18.109375 75.984375 
L 18.109375 31.109375 
L 44.921875 54.6875 
L 56.390625 54.6875 
L 27.390625 29.109375 
L 57.625 0 
L 45.90625 0 
L 18.109375 26.703125 
L 18.109375 0 
L 9.078125 0 
z
" id="DejaVuSans-107"/>
    </defs>
    <g transform="translate(132.474375 35.472)scale(0.12 -0.12)">
     <use xlink:href="#DejaVuSans-84"/>
     <use x="46.333984" xlink:href="#DejaVuSans-114"/>
     <use x="87.447266" xlink:href="#DejaVuSans-97"/>
     <use x="148.726562" xlink:href="#DejaVuSans-106"/>
     <use x="176.509766" xlink:href="#DejaVuSans-101"/>
     <use x="238.033203" xlink:href="#DejaVuSans-99"/>
     <use x="293.013672" xlink:href="#DejaVuSans-116"/>
     <use x="332.222656" xlink:href="#DejaVuSans-111"/>
     <use x="393.404297" xlink:href="#DejaVuSans-114"/>
     <use x="434.517578" xlink:href="#DejaVuSans-121"/>
     <use x="493.697266" xlink:href="#DejaVuSans-32"/>
     <use x="525.484375" xlink:href="#DejaVuSans-111"/>
     <use x="586.666016" xlink:href="#DejaVuSans-102"/>
     <use x="621.871094" xlink:href="#DejaVuSans-32"/>
     <use x="653.658203" xlink:href="#DejaVuSans-116"/>
     <use x="692.867188" xlink:href="#DejaVuSans-104"/>
     <use x="756.246094" xlink:href="#DejaVuSans-101"/>
     <use x="817.769531" xlink:href="#DejaVuSans-32"/>
     <use x="849.556641" xlink:href="#DejaVuSans-99"/>
     <use x="904.537109" xlink:href="#DejaVuSans-101"/>
     <use x="966.060547" xlink:href="#DejaVuSans-110"/>
     <use x="1029.439453" xlink:href="#DejaVuSans-116"/>
     <use x="1068.648438" xlink:href="#DejaVuSans-114"/>
     <use x="1107.511719" xlink:href="#DejaVuSans-101"/>
     <use x="1169.035156" xlink:href="#DejaVuSans-32"/>
     <use x="1200.822266" xlink:href="#DejaVuSans-111"/>
     <use x="1262.003906" xlink:href="#DejaVuSans-102"/>
     <use x="1297.208984" xlink:href="#DejaVuSans-32"/>
     <use x="1328.996094" xlink:href="#DejaVuSans-50"/>
     <use x="1392.619141" xlink:href="#DejaVuSans-110"/>
     <use x="1455.998047" xlink:href="#DejaVuSans-100"/>
     <use x="1519.474609" xlink:href="#DejaVuSans-32"/>
     <use x="1551.261719" xlink:href="#DejaVuSans-108"/>
     <use x="1579.044922" xlink:href="#DejaVuSans-105"/>
     <use x="1606.828125" xlink:href="#DejaVuSans-110"/>
     <use x="1670.207031" xlink:href="#DejaVuSans-107"/>
    </g>
   </g>
   <g id="legend_1">
    <g id="patch_7">
     <path d="M 64.6 108.1845 
L 171.896875 108.1845 
Q 173.896875 108.1845 173.896875 106.1845 
L 173.896875 48.472 
Q 173.896875 46.472 171.896875 46.472 
L 64.6 46.472 
Q 62.6 46.472 62.6 48.472 
L 62.6 106.1845 
Q 62.6 108.1845 64.6 108.1845 
z
" style="fill:#ffffff;opacity:0.8;stroke:#cccccc;stroke-linejoin:miter;"/>
    </g>
    <g id="line2d_18">
     <path d="M 66.6 54.570438 
L 86.6 54.570438 
" style="fill:none;stroke:#0000ff;stroke-linecap:square;stroke-width:1.5;"/>
    </g>
    <g id="line2d_19"/>
    <g id="text_17">
     <!-- rk4: stp=0.001 -->
     <defs>
      <path d="M 37.796875 64.3125 
L 12.890625 25.390625 
L 37.796875 25.390625 
z
M 35.203125 72.90625 
L 47.609375 72.90625 
L 47.609375 25.390625 
L 58.015625 25.390625 
L 58.015625 17.1875 
L 47.609375 17.1875 
L 47.609375 0 
L 37.796875 0 
L 37.796875 17.1875 
L 4.890625 17.1875 
L 4.890625 26.703125 
z
" id="DejaVuSans-52"/>
      <path d="M 11.71875 12.40625 
L 22.015625 12.40625 
L 22.015625 0 
L 11.71875 0 
z
M 11.71875 51.703125 
L 22.015625 51.703125 
L 22.015625 39.3125 
L 11.71875 39.3125 
z
" id="DejaVuSans-58"/>
      <path d="M 18.109375 8.203125 
L 18.109375 -20.796875 
L 9.078125 -20.796875 
L 9.078125 54.6875 
L 18.109375 54.6875 
L 18.109375 46.390625 
Q 20.953125 51.265625 25.265625 53.625 
Q 29.59375 56 35.59375 56 
Q 45.5625 56 51.78125 48.09375 
Q 58.015625 40.1875 58.015625 27.296875 
Q 58.015625 14.40625 51.78125 6.484375 
Q 45.5625 -1.421875 35.59375 -1.421875 
Q 29.59375 -1.421875 25.265625 0.953125 
Q 20.953125 3.328125 18.109375 8.203125 
z
M 48.6875 27.296875 
Q 48.6875 37.203125 44.609375 42.84375 
Q 40.53125 48.484375 33.40625 48.484375 
Q 26.265625 48.484375 22.1875 42.84375 
Q 18.109375 37.203125 18.109375 27.296875 
Q 18.109375 17.390625 22.1875 11.75 
Q 26.265625 6.109375 33.40625 6.109375 
Q 40.53125 6.109375 44.609375 11.75 
Q 48.6875 17.390625 48.6875 27.296875 
z
" id="DejaVuSans-112"/>
      <path d="M 10.59375 45.40625 
L 73.1875 45.40625 
L 73.1875 37.203125 
L 10.59375 37.203125 
z
M 10.59375 25.484375 
L 73.1875 25.484375 
L 73.1875 17.1875 
L 10.59375 17.1875 
z
" id="DejaVuSans-61"/>
     </defs>
     <g transform="translate(94.6 58.070438)scale(0.1 -0.1)">
      <use xlink:href="#DejaVuSans-114"/>
      <use x="41.113281" xlink:href="#DejaVuSans-107"/>
      <use x="99.023438" xlink:href="#DejaVuSans-52"/>
      <use x="162.646484" xlink:href="#DejaVuSans-58"/>
      <use x="196.337891" xlink:href="#DejaVuSans-32"/>
      <use x="228.125" xlink:href="#DejaVuSans-115"/>
      <use x="280.224609" xlink:href="#DejaVuSans-116"/>
      <use x="319.433594" xlink:href="#DejaVuSans-112"/>
      <use x="382.910156" xlink:href="#DejaVuSans-61"/>
      <use x="466.699219" xlink:href="#DejaVuSans-48"/>
      <use x="530.322266" xlink:href="#DejaVuSans-46"/>
      <use x="562.109375" xlink:href="#DejaVuSans-48"/>
      <use x="625.732422" xlink:href="#DejaVuSans-48"/>
      <use x="689.355469" xlink:href="#DejaVuSans-49"/>
     </g>
    </g>
    <g id="line2d_20">
     <path d="M 66.6 69.248563 
L 86.6 69.248563 
" style="fill:none;stroke:#000000;stroke-linecap:square;stroke-width:1.5;"/>
    </g>
    <g id="line2d_21"/>
    <g id="text_18">
     <!-- rk4: stp=0.001 -->
     <g transform="translate(94.6 72.748563)scale(0.1 -0.1)">
      <use xlink:href="#DejaVuSans-114"/>
      <use x="41.113281" xlink:href="#DejaVuSans-107"/>
      <use x="99.023438" xlink:href="#DejaVuSans-52"/>
      <use x="162.646484" xlink:href="#DejaVuSans-58"/>
      <use x="196.337891" xlink:href="#DejaVuSans-32"/>
      <use x="228.125" xlink:href="#DejaVuSans-115"/>
      <use x="280.224609" xlink:href="#DejaVuSans-116"/>
      <use x="319.433594" xlink:href="#DejaVuSans-112"/>
      <use x="382.910156" xlink:href="#DejaVuSans-61"/>
      <use x="466.699219" xlink:href="#DejaVuSans-48"/>
      <use x="530.322266" xlink:href="#DejaVuSans-46"/>
      <use x="562.109375" xlink:href="#DejaVuSans-48"/>
      <use x="625.732422" xlink:href="#DejaVuSans-48"/>
      <use x="689.355469" xlink:href="#DejaVuSans-49"/>
     </g>
    </g>
    <g id="line2d_22">
     <path d="M 66.6 83.926688 
L 86.6 83.926688 
" style="fill:none;stroke:#008000;stroke-linecap:square;stroke-width:1.5;"/>
    </g>
    <g id="line2d_23"/>
    <g id="text_19">
     <!-- rk4: stp=0.001 -->
     <g transform="translate(94.6 87.426688)scale(0.1 -0.1)">
      <use xlink:href="#DejaVuSans-114"/>
      <use x="41.113281" xlink:href="#DejaVuSans-107"/>
      <use x="99.023438" xlink:href="#DejaVuSans-52"/>
      <use x="162.646484" xlink:href="#DejaVuSans-58"/>
      <use x="196.337891" xlink:href="#DejaVuSans-32"/>
      <use x="228.125" xlink:href="#DejaVuSans-115"/>
      <use x="280.224609" xlink:href="#DejaVuSans-116"/>
      <use x="319.433594" xlink:href="#DejaVuSans-112"/>
      <use x="382.910156" xlink:href="#DejaVuSans-61"/>
      <use x="466.699219" xlink:href="#DejaVuSans-48"/>
      <use x="530.322266" xlink:href="#DejaVuSans-46"/>
      <use x="562.109375" xlink:href="#DejaVuSans-48"/>
      <use x="625.732422" xlink:href="#DejaVuSans-48"/>
      <use x="689.355469" xlink:href="#DejaVuSans-49"/>
     </g>
    </g>
    <g id="line2d_24">
     <path d="M 66.6 98.604813 
L 86.6 98.604813 
" style="fill:none;stroke:#ff0000;stroke-linecap:square;stroke-width:1.5;"/>
    </g>
    <g id="line2d_25"/>
    <g id="text_20">
     <!-- rk4: stp=0.001 -->
     <g transform="translate(94.6 102.104813)scale(0.1 -0.1)">
      <use xlink:href="#DejaVuSans-114"/>
      <use x="41.113281" xlink:href="#DejaVuSans-107"/>
      <use x="99.023438" xlink:href="#DejaVuSans-52"/>
      <use x="162.646484" xlink:href="#DejaVuSans-58"/>
      <use x="196.337891" xlink:href="#DejaVuSans-32"/>
      <use x="228.125" xlink:href="#DejaVuSans-115"/>
      <use x="280.224609" xlink:href="#DejaVuSans-116"/>
      <use x="319.433594" xlink:href="#DejaVuSans-112"/>
      <use x="382.910156" xlink:href="#DejaVuSans-61"/>
      <use x="466.699219" xlink:href="#DejaVuSans-48"/>
      <use x="530.322266" xlink:href="#DejaVuSans-46"/>
      <use x="562.109375" xlink:href="#DejaVuSans-48"/>
      <use x="625.732422" xlink:href="#DejaVuSans-48"/>
      <use x="689.355469" xlink:href="#DejaVuSans-49"/>
     </g>
    </g>
   </g>
  </g>
 </g>
 <defs>
  <clipPath id="p8f4de4a318">
   <rect height="266.112" width="357.12" x="57.6" y="41.472"/>
  </clipPath>
 </defs>
</svg>
